<svg width="77" height="129" viewBox="0 0 77 129" fill="none" xmlns="http://www.w3.org/2000/svg">
<mask id="path-1-inside-1_22_11397" fill="white">
<path d="M48.8259 54.192C48.1368 54.1153 47.3743 54.0258 47.1397 54.0003C46.1573 53.8852 40.7616 54.0514 39.5299 54.2304C33.7089 55.0999 28.4011 57.2864 23.9731 60.6492L23.0933 61.3141L21.6271 61.1351C20.3515 60.9944 10.7182 59.9076 2.59525 58.987C1.173 58.8335 0 58.7312 0 58.7696C0 58.8079 3.40168 61.8128 7.56581 65.4441L15.1463 72.0547L14.6918 73.4995C11.422 83.8054 15.2343 94.6483 24.5009 101.425C26.0405 102.55 28.6651 104.085 30.3219 104.813C31.143 105.184 31.5535 105.44 31.5975 105.632C31.6415 105.772 31.9348 106.962 32.272 108.266C34.1635 115.899 35.659 118.917 38.5182 120.937C41.2161 122.83 45.4389 123.149 48.7526 121.692C50.5121 120.924 51.7144 119.85 52.7114 118.124C53.6792 116.436 54.1044 114.876 54.8375 110.44C55.0867 108.931 55.3947 107.294 55.512 106.821L55.7466 105.951L56.641 105.606C62.1247 103.56 67.1686 99.8524 70.4236 95.4794C72.6523 92.4874 74.2066 89.0223 75.0277 85.2119C75.3942 83.5369 75.3942 78.1538 75.0277 76.4916C74.4851 74.0366 73.7227 71.8245 72.7843 70.0472C72.5057 69.523 72.2858 69.0499 72.2858 68.9987C72.2858 68.9348 73.0922 68.4105 74.0746 67.8352C75.0716 67.2598 76.1273 66.6332 76.4352 66.4414L77.0071 66.0834L75.101 64.9966C71.582 62.9763 70.7609 61.7616 70.3063 57.8873C70.1891 56.8644 70.0864 55.931 70.0864 55.8031C70.0864 55.6881 70.0131 55.5858 69.9398 55.5858C69.8518 55.5858 68.1803 56.2379 66.2302 57.0434C64.2801 57.8362 62.5353 58.5266 62.3447 58.5778C62.0954 58.6545 61.7728 58.5394 60.9517 58.0791C57.5647 56.174 52.8141 54.6524 48.8259 54.192Z"/>
</mask>
<path d="M48.8259 54.192C48.1368 54.1153 47.3743 54.0258 47.1397 54.0003C46.1573 53.8852 40.7616 54.0514 39.5299 54.2304C33.7089 55.0999 28.4011 57.2864 23.9731 60.6492L23.0933 61.3141L21.6271 61.1351C20.3515 60.9944 10.7182 59.9076 2.59525 58.987C1.173 58.8335 0 58.7312 0 58.7696C0 58.8079 3.40168 61.8128 7.56581 65.4441L15.1463 72.0547L14.6918 73.4995C11.422 83.8054 15.2343 94.6483 24.5009 101.425C26.0405 102.55 28.6651 104.085 30.3219 104.813C31.143 105.184 31.5535 105.44 31.5975 105.632C31.6415 105.772 31.9348 106.962 32.272 108.266C34.1635 115.899 35.659 118.917 38.5182 120.937C41.2161 122.83 45.4389 123.149 48.7526 121.692C50.5121 120.924 51.7144 119.85 52.7114 118.124C53.6792 116.436 54.1044 114.876 54.8375 110.44C55.0867 108.931 55.3947 107.294 55.512 106.821L55.7466 105.951L56.641 105.606C62.1247 103.56 67.1686 99.8524 70.4236 95.4794C72.6523 92.4874 74.2066 89.0223 75.0277 85.2119C75.3942 83.5369 75.3942 78.1538 75.0277 76.4916C74.4851 74.0366 73.7227 71.8245 72.7843 70.0472C72.5057 69.523 72.2858 69.0499 72.2858 68.9987C72.2858 68.9348 73.0922 68.4105 74.0746 67.8352C75.0716 67.2598 76.1273 66.6332 76.4352 66.4414L77.0071 66.0834L75.101 64.9966C71.582 62.9763 70.7609 61.7616 70.3063 57.8873C70.1891 56.8644 70.0864 55.931 70.0864 55.8031C70.0864 55.6881 70.0131 55.5858 69.9398 55.5858C69.8518 55.5858 68.1803 56.2379 66.2302 57.0434C64.2801 57.8362 62.5353 58.5266 62.3447 58.5778C62.0954 58.6545 61.7728 58.5394 60.9517 58.0791C57.5647 56.174 52.8141 54.6524 48.8259 54.192Z" stroke="black" stroke-width="2" mask="url(#path-1-inside-1_22_11397)"/>
<path d="M70.3896 105.737L70.3886 105.737C70.0279 105.554 69.68 105.389 69.4123 105.27C69.2924 105.216 69.1923 105.174 69.1163 105.144C69.0907 105.16 69.0609 105.18 69.027 105.204C68.8783 105.306 68.6874 105.454 68.4908 105.619C68.0635 105.992 67.418 106.451 66.9992 106.657C66.587 106.873 66.1958 106.988 65.6823 106.994C65.1944 107 64.6052 106.906 63.7996 106.74M70.3896 105.737L63.8989 106.25M70.3896 105.737C72.668 106.884 73.7289 107.702 74.2954 108.611L74.2959 108.612C74.463 108.879 74.5327 109.028 74.5703 109.177C74.6097 109.333 74.623 109.525 74.6157 109.897L74.6157 109.899C74.603 110.777 74.4405 111.268 73.3091 113.447C72.884 114.252 72.3478 115.341 72.1313 115.88C71.7396 116.809 70.9345 117.788 69.9257 118.604C68.9181 119.42 67.7509 120.04 66.6767 120.288M70.3896 105.737L66.7874 120.775M63.7996 106.74C63.7991 106.74 63.7985 106.74 63.798 106.739L63.8989 106.25M63.7996 106.74C63.8001 106.74 63.8006 106.74 63.801 106.74L63.8989 106.25M63.7996 106.74C62.7225 106.525 61.6155 106.691 59.9214 107.436M63.8989 106.25C62.6819 106.007 61.4649 106.211 59.7201 106.979M59.9214 107.436C59.9215 107.436 59.9215 107.436 59.9216 107.436L59.7201 106.979M59.9214 107.436C59.2052 107.752 58.7746 107.986 58.4447 108.252C58.1227 108.511 57.8715 108.821 57.5492 109.327M59.9214 107.436L59.7201 106.979M59.7201 106.979L57.5492 109.327M57.5492 109.327C57.5499 109.326 57.5506 109.325 57.5513 109.324L57.1249 109.063L57.5468 109.331C57.5476 109.33 57.5484 109.328 57.5492 109.327ZM57.5492 109.327C56.826 110.511 56.5832 112.461 57.0206 114.058L57.0212 114.06C57.5001 115.838 58.9029 117.777 60.6664 119.01L60.6678 119.011C62.5382 120.328 64.594 120.753 66.6767 120.288M57.5492 109.327L56.5384 114.19C57.0515 116.095 58.5325 118.128 60.3799 119.42C62.3593 120.813 64.5587 121.274 66.7874 120.775M66.6767 120.288C66.6762 120.288 66.6757 120.288 66.6752 120.288L66.7874 120.775M66.6767 120.288C66.6772 120.287 66.6777 120.287 66.6782 120.287L66.7874 120.775M69.0062 105.105C69.0008 105.103 68.9978 105.102 68.9976 105.102C68.9974 105.102 69.0001 105.103 69.0062 105.105Z" fill="black" stroke="black"/>
<path d="M26.448 105.508L26.448 105.508L26.4534 105.511C28.2611 106.384 29.4929 107.188 30.2421 107.959C30.9781 108.715 31.2168 109.402 31.1308 110.087L31.1304 110.09C31.04 110.845 30.8212 111.432 29.6113 113.838L29.6106 113.839C29.0723 114.917 28.5313 116.055 28.418 116.351L28.4179 116.351L28.4147 116.36C28.379 116.459 28.276 116.638 28.0895 116.884C27.9105 117.121 27.6782 117.389 27.4166 117.663C26.8898 118.214 26.2737 118.755 25.7806 119.079L25.7798 119.079C24.2195 120.109 23.1114 120.467 21.5391 120.467C19.6733 120.467 18.0419 119.81 16.3122 118.29L16.3107 118.288C12.9365 115.346 12.3691 111.095 14.7005 108.421C14.7678 108.346 14.9335 108.217 15.2544 108.036C15.5652 107.861 15.9838 107.658 16.5179 107.425C17.4866 107.009 18.1796 106.78 18.7986 106.688C19.4064 106.599 19.9691 106.639 20.6799 106.801L20.6819 106.802C21.2026 106.918 21.8628 107.018 22.155 107.018C22.9701 107.018 23.9085 106.508 24.9159 105.694C25.1514 105.507 25.3777 105.338 25.5496 105.217C25.5884 105.189 25.6235 105.165 25.6544 105.144C25.6898 105.159 25.7299 105.175 25.7742 105.194C25.9586 105.273 26.199 105.384 26.448 105.508ZM25.5088 105.09C25.5093 105.09 25.51 105.091 25.5107 105.091C25.5009 105.089 25.4992 105.087 25.5088 105.09Z" fill="black" stroke="black"/>
<path d="M54.1891 122.802L54.189 122.802L54.1978 122.806C54.6566 123.006 55.1085 123.474 55.4523 124.155C55.7923 124.829 56.0023 125.668 56.009 126.533L56.0091 126.535C56.0161 127.142 55.9418 127.494 55.8245 127.709C55.7239 127.893 55.5648 128.026 55.241 128.12C54.8843 128.223 54.2182 128.314 53.3556 128.38C52.5057 128.446 51.5026 128.486 50.4956 128.497C49.4886 128.508 48.4837 128.49 47.6304 128.443C46.7638 128.394 46.0925 128.317 45.7295 128.22L45.7295 128.22L45.725 128.218C45.1806 128.078 44.8785 127.902 44.7342 127.749C44.6198 127.627 44.5923 127.513 44.641 127.348C44.7015 127.143 44.8891 126.852 45.2868 126.491C45.6766 126.137 46.2312 125.749 46.9581 125.342C47.5928 124.989 49.186 124.304 50.7146 123.698C51.4733 123.398 52.2043 123.121 52.7768 122.921C53.0636 122.82 53.3059 122.741 53.4898 122.687C53.582 122.66 53.6545 122.641 53.7076 122.629C53.7172 122.627 53.7255 122.625 53.7325 122.624C53.7579 122.631 53.791 122.642 53.8311 122.656C53.9338 122.692 54.0629 122.744 54.1891 122.802Z" fill="black" stroke="black"/>
<path d="M40.1894 127.865L40.1894 127.865L40.1878 127.867C40.1661 127.903 40.1042 127.977 39.9037 128.059C39.6999 128.143 39.3914 128.22 38.9314 128.282C38.0118 128.407 36.5981 128.458 34.4567 128.458C31.5053 128.458 30.9311 128.417 30.2296 128.232C29.65 128.078 29.3664 127.955 29.224 127.842C29.165 127.795 29.1398 127.756 29.1248 127.721C29.1078 127.681 29.0918 127.616 29.0918 127.501C29.0918 127.222 29.2747 126.829 29.9319 126.304C30.5767 125.79 31.5863 125.222 33.0177 124.582C33.9285 124.179 35.1859 123.681 36.266 123.284C36.8059 123.085 37.2969 122.914 37.6748 122.792C37.8642 122.731 38.0205 122.685 38.1379 122.654C38.2104 122.635 38.2538 122.626 38.2752 122.622C38.3023 122.629 38.3403 122.641 38.3882 122.659C38.4861 122.696 38.6026 122.748 38.7114 122.804C39.3506 123.147 39.946 124.053 40.2612 125.139C40.5783 126.231 40.548 127.283 40.1894 127.865Z" fill="black" stroke="black"/>
<g filter="url(#filter0_d_22_11397)">
<path d="M4.50354 41.9622L12.3035 30.6422L4.98354 19.9622H9.22354L13.5835 26.7622C13.7702 27.0556 13.9435 27.3756 14.1035 27.7222C14.2902 28.0689 14.4369 28.3489 14.5435 28.5622C14.6235 28.3489 14.7435 28.0689 14.9035 27.7222C15.0902 27.3756 15.2769 27.0556 15.4635 26.7622L19.8635 19.9622H24.0635L16.7435 30.6822L24.5035 41.9622H20.2635L15.5435 34.7622C15.3569 34.4689 15.1702 34.1356 14.9835 33.7622C14.8235 33.3622 14.6769 33.0422 14.5435 32.8022C14.4369 33.0422 14.2769 33.3622 14.0635 33.7622C13.8769 34.1356 13.6769 34.4689 13.4635 34.7622L8.70354 41.9622H4.50354ZM28.4879 41.9622L36.2879 30.6422L28.9679 19.9622H33.2079L37.5679 26.7622C37.7546 27.0556 37.9279 27.3756 38.0879 27.7222C38.2746 28.0689 38.4212 28.3489 38.5279 28.5622C38.6079 28.3489 38.7279 28.0689 38.8879 27.7222C39.0746 27.3756 39.2612 27.0556 39.4479 26.7622L43.8479 19.9622H48.0479L40.7279 30.6822L48.4879 41.9622H44.2479L39.5279 34.7622C39.3412 34.4689 39.1546 34.1356 38.9679 33.7622C38.8079 33.3622 38.6612 33.0422 38.5279 32.8022C38.4212 33.0422 38.2612 33.3622 38.0479 33.7622C37.8612 34.1356 37.6612 34.4689 37.4479 34.7622L32.6879 41.9622H28.4879ZM52.4723 41.9622L60.2723 30.6422L52.9523 19.9622H57.1923L61.5523 26.7622C61.739 27.0556 61.9123 27.3756 62.0723 27.7222C62.259 28.0689 62.4056 28.3489 62.5123 28.5622C62.5923 28.3489 62.7123 28.0689 62.8723 27.7222C63.059 27.3756 63.2456 27.0556 63.4323 26.7622L67.8323 19.9622H72.0323L64.7123 30.6822L72.4723 41.9622H68.2323L63.5123 34.7622C63.3256 34.4689 63.139 34.1356 62.9523 33.7622C62.7923 33.3622 62.6456 33.0422 62.5123 32.8022C62.4056 33.0422 62.2456 33.3622 62.0323 33.7622C61.8456 34.1356 61.6456 34.4689 61.4323 34.7622L56.6723 41.9622H52.4723Z" fill="black"/>
</g>
<defs>
<filter id="filter0_d_22_11397" x="0.50354" y="19.9622" width="75.9688" height="30" filterUnits="userSpaceOnUse" color-interpolation-filters="sRGB">
<feFlood flood-opacity="0" result="BackgroundImageFix"/>
<feColorMatrix in="SourceAlpha" type="matrix" values="0 0 0 0 0 0 0 0 0 0 0 0 0 0 0 0 0 0 127 0" result="hardAlpha"/>
<feOffset dy="4"/>
<feGaussianBlur stdDeviation="2"/>
<feComposite in2="hardAlpha" operator="out"/>
<feColorMatrix type="matrix" values="0 0 0 0 0 0 0 0 0 0 0 0 0 0 0 0 0 0 0.25 0"/>
<feBlend mode="normal" in2="BackgroundImageFix" result="effect1_dropShadow_22_11397"/>
<feBlend mode="normal" in="SourceGraphic" in2="effect1_dropShadow_22_11397" result="shape"/>
</filter>
</defs>
</svg>
