<svg width="77" height="128" viewBox="0 0 77 128" fill="none" xmlns="http://www.w3.org/2000/svg">
<mask id="path-1-inside-1_22_11350" fill="white">
<path d="M19.3146 54.6329C25.3376 56.5245 27.0161 57.1516 33.6151 59.9524C36.2317 61.0602 38.4204 61.9694 38.5027 61.9694C38.8318 61.9694 39.7534 59.2522 40.3952 56.4409C40.7078 55.0301 40.9876 53.87 41.0041 53.8491C41.037 53.8387 42.1066 54.6329 43.3902 55.6258C44.6574 56.6186 47.0765 58.3743 48.7386 59.5239C50.4171 60.663 52.0298 61.8022 52.326 62.0425C52.6387 62.2829 52.9678 62.4815 53.0666 62.4815C53.1489 62.4919 53.6096 62.377 54.054 62.2411C54.5147 62.1052 55.4692 61.8649 56.1933 61.7081C58.1351 61.2901 68.3052 59.4403 68.3875 59.4926C68.4533 59.5344 66.3962 61.8858 63.2202 65.3868C61.2619 67.5501 60.472 68.6997 60.1757 69.797C59.9947 70.4763 59.9947 70.5704 60.2416 70.6853C60.3897 70.748 61.196 71.1034 62.0518 71.4796C63.9936 72.347 68.0254 74.8656 69.5394 76.1824C73.1598 79.3072 75.4802 83.0381 76.1713 86.79C76.3853 87.9918 76.3853 90.594 76.1713 91.8063C75.5954 94.9416 73.8016 98.1604 71.0699 100.961C68.5685 103.532 64.8823 105.925 60.7023 107.681C59.2706 108.298 55.2553 109.625 54.8768 109.625C54.7451 109.625 54.5641 109.688 54.4654 109.771C54.1856 109.98 53.7084 111.516 53.2147 113.805C52.4906 117.149 51.9805 118.435 50.7791 119.919C49.9399 120.954 48.0638 122.197 46.7144 122.605C43.8346 123.483 40.6585 123.639 37.8938 123.054C34.8658 122.406 32.4961 120.797 30.8669 118.299C29.9125 116.846 28.7111 114.056 27.7896 111.193C27.1642 109.217 27.263 109.353 25.9465 108.935C20.4665 107.179 15.3321 104.18 12.0079 100.773C3.84556 92.402 5.72159 81.1988 16.4841 74.1236C17.0107 73.7788 17.2575 73.5384 17.1752 73.4757C17.0765 73.4339 16.1878 72.9531 15.2005 72.4097C10.4117 69.8284 6.01781 66.4632 3.63163 63.537C2.75944 62.4606 1.83788 60.9975 1.31128 59.827C0.932785 58.9909 -0.120422 55.3018 0.0112228 55.2286C0.044136 55.2077 1.93662 55.7407 4.19115 56.42C9.60529 58.0608 15.0194 59.5239 18.7386 60.3495C19.331 60.4854 19.9399 60.6212 20.088 60.663C20.2855 60.7153 20.3842 60.6944 20.3842 60.5899C20.3842 60.36 19.2981 58.9909 18.0474 57.6323C17.4056 56.9426 16.1878 55.6362 15.3321 54.727C14.4928 53.8178 13.8017 53.0549 13.8017 53.0235C13.8017 52.919 14.2954 53.0653 19.3146 54.6329ZM26.4895 61.3632C27.4276 62.1261 31.2783 64.5194 32.4797 65.0837C33.9607 65.7839 37.2685 66.8394 38.6508 67.0485C40.2964 67.3097 42.9295 67.2679 42.9295 66.9753C42.9295 66.9126 42.8636 66.8917 42.7813 66.923C42.5839 67.0067 39.0622 66.1392 37.6305 65.6585C36.9722 65.439 34.1088 64.2895 31.2619 63.0981C28.4314 61.8962 26.0781 60.9243 26.0288 60.9243C25.9794 60.9243 26.1933 61.1229 26.4895 61.3632ZM44.9207 62.8159C45.5296 63.9864 46.6321 65.3554 47.5537 66.1497C48.393 66.8499 49.8905 67.6755 50.9437 68.0204C52.54 68.5325 54.8768 68.8251 55.0249 68.522C55.0578 68.4593 55.2388 68.0622 55.4363 67.6651C55.6338 67.2575 56.0781 66.5468 56.4237 66.0661C56.7693 65.5958 57.0326 65.2091 56.9832 65.2091C56.8351 65.2091 55.0249 65.8257 54.778 65.9616C54.6464 66.0347 53.8729 66.5573 53.0666 67.1321L51.5855 68.1562L50.4994 66.714C49.2487 65.0628 48.393 64.2895 46.4182 62.9936C45.6612 62.4919 44.9207 61.9798 44.7726 61.8544C44.3282 61.4468 44.3776 61.8022 44.9207 62.8159ZM9.35844 61.8022C9.35844 61.8753 12.9459 63.8401 14.4599 64.5925C17.4056 66.0556 19.907 66.9858 22.6552 67.6651C25.8148 68.4384 29.8631 68.846 33.0063 68.7101L34.7836 68.637L33.5493 68.3966C31.772 68.0622 30.8505 67.78 30.0606 67.3202C29.6656 67.1007 28.7934 66.7663 28.1187 66.5677C27.444 66.3796 25.8477 65.8989 24.5806 65.5226C22.1615 64.7911 21.1906 64.5507 15.8752 63.328C14.065 62.91 11.9256 62.3979 11.1028 62.1784C9.60529 61.7813 9.35844 61.729 9.35844 61.8022ZM43.7523 72.0544C39.9509 72.4515 37.4989 73.2144 32.6113 75.524C30.0112 76.7468 29.139 77.0289 28.1516 76.9558C26.6706 76.8408 25.4034 76.59 23.6261 76.057L21.8488 75.5136L20.9437 76.0884C18.574 77.5515 16.0068 79.9447 14.7232 81.8781C13.7194 83.3935 12.9789 84.9506 12.7485 86.0062L12.6333 86.4764L13.2586 85.7553C14.9865 83.7383 18.2449 82.6097 21.4045 82.9545C25.568 83.4144 28.6124 86.1211 28.6124 89.3818C28.6124 93.1336 24.0046 96.2375 19.1829 95.7254C16.7474 95.4641 14.3612 94.2936 13.1599 92.7887L12.6168 92.1199L12.732 92.5901C12.7978 92.8514 12.9789 93.3844 13.1599 93.792C14.5751 97.1885 17.1423 100.042 20.9108 102.424C23.873 104.295 26.2756 105.288 30.834 106.552C31.41 106.709 32.7594 107.002 33.5 107.127C33.7962 107.179 34.3228 107.273 34.6519 107.326C36.7748 107.691 38.1736 107.786 41.6129 107.786C45.1182 107.796 45.6118 107.765 48.3601 107.357C50.269 107.075 52.7375 106.511 54.4818 105.957C55.9629 105.486 59.1061 104.253 59.6491 103.94C59.7643 103.877 60.1264 103.678 60.472 103.49C62.6607 102.351 64.9645 100.658 66.7089 98.9338C67.5647 98.0768 68.6508 96.5719 69.2432 95.4641C71.3661 91.3988 71.4648 87.8768 69.5723 83.7592C68.1077 80.5508 64.405 77.0498 60.2416 74.9074C57.3452 73.4339 53.7907 72.1798 51.9805 72.023C50.1867 71.8558 45.4967 71.8767 43.7523 72.0544Z"/>
</mask>
<path d="M19.3146 54.6329C25.3376 56.5245 27.0161 57.1516 33.6151 59.9524C36.2317 61.0602 38.4204 61.9694 38.5027 61.9694C38.8318 61.9694 39.7534 59.2522 40.3952 56.4409C40.7078 55.0301 40.9876 53.87 41.0041 53.8491C41.037 53.8387 42.1066 54.6329 43.3902 55.6258C44.6574 56.6186 47.0765 58.3743 48.7386 59.5239C50.4171 60.663 52.0298 61.8022 52.326 62.0425C52.6387 62.2829 52.9678 62.4815 53.0666 62.4815C53.1489 62.4919 53.6096 62.377 54.054 62.2411C54.5147 62.1052 55.4692 61.8649 56.1933 61.7081C58.1351 61.2901 68.3052 59.4403 68.3875 59.4926C68.4533 59.5344 66.3962 61.8858 63.2202 65.3868C61.2619 67.5501 60.472 68.6997 60.1757 69.797C59.9947 70.4763 59.9947 70.5704 60.2416 70.6853C60.3897 70.748 61.196 71.1034 62.0518 71.4796C63.9936 72.347 68.0254 74.8656 69.5394 76.1824C73.1598 79.3072 75.4802 83.0381 76.1713 86.79C76.3853 87.9918 76.3853 90.594 76.1713 91.8063C75.5954 94.9416 73.8016 98.1604 71.0699 100.961C68.5685 103.532 64.8823 105.925 60.7023 107.681C59.2706 108.298 55.2553 109.625 54.8768 109.625C54.7451 109.625 54.5641 109.688 54.4654 109.771C54.1856 109.98 53.7084 111.516 53.2147 113.805C52.4906 117.149 51.9805 118.435 50.7791 119.919C49.9399 120.954 48.0638 122.197 46.7144 122.605C43.8346 123.483 40.6585 123.639 37.8938 123.054C34.8658 122.406 32.4961 120.797 30.8669 118.299C29.9125 116.846 28.7111 114.056 27.7896 111.193C27.1642 109.217 27.263 109.353 25.9465 108.935C20.4665 107.179 15.3321 104.18 12.0079 100.773C3.84556 92.402 5.72159 81.1988 16.4841 74.1236C17.0107 73.7788 17.2575 73.5384 17.1752 73.4757C17.0765 73.4339 16.1878 72.9531 15.2005 72.4097C10.4117 69.8284 6.01781 66.4632 3.63163 63.537C2.75944 62.4606 1.83788 60.9975 1.31128 59.827C0.932785 58.9909 -0.120422 55.3018 0.0112228 55.2286C0.044136 55.2077 1.93662 55.7407 4.19115 56.42C9.60529 58.0608 15.0194 59.5239 18.7386 60.3495C19.331 60.4854 19.9399 60.6212 20.088 60.663C20.2855 60.7153 20.3842 60.6944 20.3842 60.5899C20.3842 60.36 19.2981 58.9909 18.0474 57.6323C17.4056 56.9426 16.1878 55.6362 15.3321 54.727C14.4928 53.8178 13.8017 53.0549 13.8017 53.0235C13.8017 52.919 14.2954 53.0653 19.3146 54.6329ZM26.4895 61.3632C27.4276 62.1261 31.2783 64.5194 32.4797 65.0837C33.9607 65.7839 37.2685 66.8394 38.6508 67.0485C40.2964 67.3097 42.9295 67.2679 42.9295 66.9753C42.9295 66.9126 42.8636 66.8917 42.7813 66.923C42.5839 67.0067 39.0622 66.1392 37.6305 65.6585C36.9722 65.439 34.1088 64.2895 31.2619 63.0981C28.4314 61.8962 26.0781 60.9243 26.0288 60.9243C25.9794 60.9243 26.1933 61.1229 26.4895 61.3632ZM44.9207 62.8159C45.5296 63.9864 46.6321 65.3554 47.5537 66.1497C48.393 66.8499 49.8905 67.6755 50.9437 68.0204C52.54 68.5325 54.8768 68.8251 55.0249 68.522C55.0578 68.4593 55.2388 68.0622 55.4363 67.6651C55.6338 67.2575 56.0781 66.5468 56.4237 66.0661C56.7693 65.5958 57.0326 65.2091 56.9832 65.2091C56.8351 65.2091 55.0249 65.8257 54.778 65.9616C54.6464 66.0347 53.8729 66.5573 53.0666 67.1321L51.5855 68.1562L50.4994 66.714C49.2487 65.0628 48.393 64.2895 46.4182 62.9936C45.6612 62.4919 44.9207 61.9798 44.7726 61.8544C44.3282 61.4468 44.3776 61.8022 44.9207 62.8159ZM9.35844 61.8022C9.35844 61.8753 12.9459 63.8401 14.4599 64.5925C17.4056 66.0556 19.907 66.9858 22.6552 67.6651C25.8148 68.4384 29.8631 68.846 33.0063 68.7101L34.7836 68.637L33.5493 68.3966C31.772 68.0622 30.8505 67.78 30.0606 67.3202C29.6656 67.1007 28.7934 66.7663 28.1187 66.5677C27.444 66.3796 25.8477 65.8989 24.5806 65.5226C22.1615 64.7911 21.1906 64.5507 15.8752 63.328C14.065 62.91 11.9256 62.3979 11.1028 62.1784C9.60529 61.7813 9.35844 61.729 9.35844 61.8022ZM43.7523 72.0544C39.9509 72.4515 37.4989 73.2144 32.6113 75.524C30.0112 76.7468 29.139 77.0289 28.1516 76.9558C26.6706 76.8408 25.4034 76.59 23.6261 76.057L21.8488 75.5136L20.9437 76.0884C18.574 77.5515 16.0068 79.9447 14.7232 81.8781C13.7194 83.3935 12.9789 84.9506 12.7485 86.0062L12.6333 86.4764L13.2586 85.7553C14.9865 83.7383 18.2449 82.6097 21.4045 82.9545C25.568 83.4144 28.6124 86.1211 28.6124 89.3818C28.6124 93.1336 24.0046 96.2375 19.1829 95.7254C16.7474 95.4641 14.3612 94.2936 13.1599 92.7887L12.6168 92.1199L12.732 92.5901C12.7978 92.8514 12.9789 93.3844 13.1599 93.792C14.5751 97.1885 17.1423 100.042 20.9108 102.424C23.873 104.295 26.2756 105.288 30.834 106.552C31.41 106.709 32.7594 107.002 33.5 107.127C33.7962 107.179 34.3228 107.273 34.6519 107.326C36.7748 107.691 38.1736 107.786 41.6129 107.786C45.1182 107.796 45.6118 107.765 48.3601 107.357C50.269 107.075 52.7375 106.511 54.4818 105.957C55.9629 105.486 59.1061 104.253 59.6491 103.94C59.7643 103.877 60.1264 103.678 60.472 103.49C62.6607 102.351 64.9645 100.658 66.7089 98.9338C67.5647 98.0768 68.6508 96.5719 69.2432 95.4641C71.3661 91.3988 71.4648 87.8768 69.5723 83.7592C68.1077 80.5508 64.405 77.0498 60.2416 74.9074C57.3452 73.4339 53.7907 72.1798 51.9805 72.023C50.1867 71.8558 45.4967 71.8767 43.7523 72.0544Z" fill="black" stroke="white" stroke-width="2" mask="url(#path-1-inside-1_22_11350)"/>
<mask id="path-2-inside-2_22_11350" fill="white">
<path d="M64.8 79.997C64.8 80.0492 64.6684 80.4254 64.4874 80.833C64.3064 81.2301 64.1912 81.3974 64.2405 81.1883C64.3393 80.7808 64.7836 79.8297 64.8 79.997Z"/>
</mask>
<path d="M64.8 79.997C64.8 80.0492 64.6684 80.4254 64.4874 80.833C64.3064 81.2301 64.1912 81.3974 64.2405 81.1883C64.3393 80.7808 64.7836 79.8297 64.8 79.997Z" fill="black"/>
<path d="M64.8 79.997H65.8V79.9479L65.7952 79.899L64.8 79.997ZM64.4874 80.833L65.3973 81.2478L65.4013 81.2389L64.4874 80.833ZM64.2405 81.1883L63.2686 80.9529L63.2673 80.9585L64.2405 81.1883ZM63.8 79.997C63.8 79.9132 63.8113 79.8506 63.8137 79.837C63.8178 79.8137 63.8217 79.7976 63.8229 79.7925C63.8255 79.782 63.8259 79.7819 63.8214 79.7965C63.8129 79.8238 63.7969 79.8714 63.7727 79.9376C63.7247 80.0684 63.6549 80.2438 63.5735 80.4271L65.4013 81.2389C65.5009 81.0147 65.5874 80.7981 65.6505 80.6259C65.6818 80.5405 65.71 80.4588 65.7319 80.3881C65.7425 80.3537 65.7547 80.3125 65.7651 80.2699C65.7672 80.2614 65.8 80.1401 65.8 79.997H63.8ZM63.5774 80.4183C63.4865 80.6178 63.4444 80.6845 63.4556 80.6685C63.4607 80.6611 63.4721 80.6451 63.4893 80.6241C63.5039 80.6063 63.5385 80.5655 63.5912 80.5195C63.626 80.489 63.7611 80.3719 63.9787 80.3131C64.1018 80.2799 64.2791 80.2581 64.4812 80.3093C64.6921 80.3627 64.8607 80.4782 64.9798 80.612C65.1844 80.8419 65.2153 81.0898 65.2222 81.1467C65.2331 81.2364 65.2283 81.3054 65.2261 81.3324C65.2233 81.3656 65.2193 81.3895 65.2174 81.3999C65.2154 81.4115 65.2138 81.4181 65.2138 81.4182L63.2673 80.9585C63.2567 81.0032 63.2403 81.0791 63.233 81.1663C63.2295 81.208 63.2248 81.2889 63.2368 81.3877C63.2448 81.4537 63.2779 81.7081 63.4858 81.9417C63.6066 82.0774 63.7772 82.1941 63.9903 82.2481C64.1946 82.2998 64.3744 82.2779 64.5001 82.244C64.7232 82.1837 64.8649 82.0625 64.9072 82.0255C65.0117 81.9342 65.0784 81.838 65.0995 81.8075C65.2012 81.6608 65.3072 81.4454 65.3973 81.2478L63.5774 80.4183ZM65.2124 81.4238C65.2375 81.3201 65.3384 81.0537 65.4567 80.8014C65.4833 80.7446 65.5076 80.6953 65.5283 80.6558C65.5385 80.6362 65.5471 80.6204 65.5539 80.6083C65.5573 80.6024 65.5599 80.5978 65.5619 80.5944C65.5639 80.591 65.5649 80.5895 65.5649 80.5895C65.5649 80.5896 65.5645 80.5902 65.5637 80.5913C65.563 80.5924 65.5618 80.5943 65.5601 80.5967C65.557 80.6012 65.5509 80.6098 65.542 80.6214C65.5347 80.6309 65.4817 80.701 65.3883 80.7735C65.3424 80.8092 65.2371 80.8848 65.0808 80.9332C64.9097 80.9862 64.6308 81.0176 64.34 80.8702C64.0632 80.73 63.933 80.5064 63.8783 80.3787C63.8239 80.2521 63.8097 80.1446 63.8049 80.0949L65.7952 79.899C65.7893 79.8389 65.7733 79.7231 65.7163 79.5903C65.6589 79.4564 65.5252 79.2288 65.2443 79.0864C64.9493 78.9368 64.6654 78.9681 64.4888 79.0228C64.3268 79.073 64.2153 79.1523 64.1623 79.1933C63.9912 79.3262 63.8888 79.498 63.8742 79.521C63.7945 79.6471 63.7132 79.8086 63.6456 79.9528C63.5129 80.2361 63.3423 80.649 63.2686 80.9529L65.2124 81.4238Z" fill="white" mask="url(#path-2-inside-2_22_11350)"/>
<path d="M48.2657 86.2091L48.2657 86.2091L48.2673 86.2117C48.9373 87.2657 49.1931 88.1644 49.1931 89.5072C49.1931 91.7464 48.0458 93.661 45.7046 95.1578L45.7037 95.1584C44.3424 96.033 43.4615 96.387 41.8405 96.7303C41.2181 96.8569 40.3165 96.929 39.3975 96.9367C38.4777 96.9444 37.5807 96.8873 36.968 96.7706C33.5379 96.1048 30.9373 94.1734 29.8641 91.6249C29.652 91.1072 29.5279 90.3022 29.526 89.4577C29.524 88.6113 29.6448 87.8062 29.8633 87.287L29.8633 87.287L29.8654 87.2818C31.3185 83.7169 36.0246 81.3901 40.9908 82.0084C44.1002 82.4013 46.9132 84.052 48.2657 86.2091Z" fill="black" stroke="white"/>
<mask id="path-5-inside-3_22_11350" fill="white">
<path d="M64.0758 81.8781C63.9606 82.3066 62.9567 84.3445 62.8909 84.2922C62.8251 84.2609 63.9112 81.9095 64.0758 81.6691C64.1251 81.6064 64.1251 81.7004 64.0758 81.8781Z"/>
</mask>
<path d="M64.0758 81.8781C63.9606 82.3066 62.9567 84.3445 62.8909 84.2922C62.8251 84.2609 63.9112 81.9095 64.0758 81.6691C64.1251 81.6064 64.1251 81.7004 64.0758 81.8781Z" fill="black"/>
<path d="M64.0758 81.8781L63.1122 81.6104L63.1101 81.6185L64.0758 81.8781ZM62.8909 84.2922L63.5126 83.509L63.4236 83.4383L63.3209 83.3894L62.8909 84.2922ZM64.0758 81.6691L63.2901 81.0505L63.2694 81.0767L63.2506 81.1042L64.0758 81.6691ZM63.1101 81.6185C63.1118 81.6121 63.1021 81.6453 63.0658 81.736C63.0336 81.8168 62.9901 81.9189 62.9375 82.0373C62.8325 82.2734 62.6999 82.5547 62.5674 82.8243C62.4342 83.0952 62.3067 83.3428 62.2123 83.5138C62.1629 83.6032 62.1329 83.6527 62.121 83.6709C62.1103 83.687 62.13 83.6542 62.1721 83.6077C62.1851 83.5933 62.2578 83.5113 62.3793 83.4372C62.4363 83.4025 62.9792 83.0856 63.5126 83.509L62.2692 85.0754C62.8067 85.5022 63.3556 85.1844 63.4202 85.145C63.5494 85.0663 63.6315 84.9757 63.6555 84.9492C63.7195 84.8783 63.7677 84.8067 63.791 84.7713C63.847 84.6863 63.9071 84.5819 63.963 84.4808C64.0788 84.2711 64.2218 83.9922 64.3622 83.7066C64.5033 83.4196 64.6474 83.1144 64.7651 82.8496C64.8705 82.6124 64.9889 82.3331 65.0415 82.1377L63.1101 81.6185ZM63.3209 83.3894C63.6804 83.5606 63.8077 83.8701 63.8478 84.006C63.8893 84.1468 63.8888 84.2622 63.8878 84.3067C63.8854 84.4038 63.8683 84.4747 63.866 84.4848C63.8577 84.521 63.8512 84.536 63.86 84.5107C63.874 84.4709 63.9027 84.3969 63.9484 84.2872C64.0373 84.0735 64.1668 83.7806 64.3066 83.4743C64.4459 83.1693 64.5915 82.8594 64.7112 82.6134C64.8508 82.3264 64.912 82.2177 64.9009 82.234L63.2506 81.1042C63.1572 81.2406 63.021 81.516 62.9127 81.7384C62.7845 82.002 62.6319 82.327 62.4873 82.6437C62.3432 82.9593 62.2032 83.2752 62.1019 83.5187C62.0524 83.6376 62.0058 83.7543 61.9723 83.85C61.9574 83.8925 61.9342 83.9614 61.9171 84.0357C61.9104 84.0648 61.8909 84.1507 61.8883 84.2585C61.8871 84.3084 61.887 84.4281 61.9296 84.5722C61.9706 84.7112 62.0993 85.0228 62.4609 85.1951L63.3209 83.3894ZM64.8615 82.2877C64.842 82.3124 64.7705 82.4023 64.6462 82.4851C64.5404 82.5556 64.1576 82.7711 63.6933 82.5623C63.278 82.3755 63.1681 82.0046 63.1467 81.9276C63.1137 81.8084 63.1128 81.7138 63.1128 81.6835C63.1128 81.5757 63.1342 81.5314 63.1123 81.6104L65.0393 82.1458C65.0667 82.0471 65.1128 81.867 65.1128 81.6835C65.1128 81.6342 65.1103 81.5244 65.0742 81.394C65.0498 81.3058 64.9352 80.9279 64.5138 80.7383C64.0433 80.5267 63.6528 80.7438 63.5377 80.8204C63.4041 80.9094 63.3219 81.01 63.2901 81.0505L64.8615 82.2877Z" fill="white" mask="url(#path-5-inside-3_22_11350)"/>
<mask id="path-7-inside-4_22_11350" fill="white">
<path d="M62.8416 84.5012C62.8416 84.6371 62.1339 85.7971 62.0846 85.7658C62.0023 85.724 62.677 84.4385 62.7757 84.4385C62.8086 84.4385 62.8416 84.4699 62.8416 84.5012Z"/>
</mask>
<path d="M62.8416 84.5012C62.8416 84.6371 62.1339 85.7971 62.0846 85.7658C62.0023 85.724 62.677 84.4385 62.7757 84.4385C62.8086 84.4385 62.8416 84.4699 62.8416 84.5012Z" fill="black"/>
<path d="M62.0846 85.7658L62.6207 84.9216L62.5802 84.8959L62.5375 84.8742L62.0846 85.7658ZM61.8416 84.5012C61.8416 84.4071 61.8556 84.3356 61.8623 84.3049C61.8701 84.2686 61.8784 84.2419 61.8827 84.2285C61.8912 84.2025 61.8972 84.1898 61.8942 84.1967C61.8889 84.2088 61.8739 84.2405 61.8455 84.2944C61.7904 84.399 61.7109 84.538 61.6256 84.6792C61.5401 84.8208 61.4581 84.949 61.3999 85.0336C61.3682 85.0797 61.3568 85.0934 61.362 85.0871C61.3646 85.084 61.3718 85.0753 61.3831 85.0633C61.3928 85.0529 61.4153 85.0293 61.4482 85.0009C61.4706 84.9816 61.5505 84.9131 61.6738 84.8565C61.7378 84.8271 61.8553 84.7812 62.0109 84.7693C62.1784 84.7565 62.4032 84.7835 62.6207 84.9216L61.5485 86.6099C61.996 86.8941 62.4219 86.7138 62.5083 86.6741C62.6372 86.6149 62.7239 86.5417 62.7542 86.5156C62.8264 86.4534 62.8789 86.391 62.9005 86.365C62.9539 86.3007 63.0059 86.2279 63.0474 86.1675C63.1358 86.0391 63.24 85.8747 63.3375 85.7133C63.4353 85.5514 63.5358 85.3768 63.6149 85.2267C63.6536 85.1533 63.6943 85.0723 63.7279 84.9951C63.7444 84.9573 63.7656 84.9057 63.7844 84.8478C63.7945 84.8168 63.8416 84.6773 63.8416 84.5012H61.8416ZM62.5375 84.8742C62.8543 85.0352 62.9857 85.3058 63.0342 85.4623C63.0802 85.6106 63.0788 85.7324 63.077 85.782C63.073 85.8862 63.0518 85.9582 63.0508 85.9619C63.044 85.9865 63.0438 85.9806 63.0656 85.9289C63.104 85.8375 63.1701 85.6998 63.2485 85.5498C63.3265 85.4006 63.4044 85.2628 63.4621 85.1707C63.4931 85.1211 63.5052 85.1059 63.5 85.1125C63.4999 85.1126 63.473 85.1478 63.4242 85.1922C63.4003 85.214 63.3472 85.2602 63.2689 85.3059C63.2045 85.3435 63.027 85.4385 62.7757 85.4385V83.4385C62.5183 83.4385 62.3335 83.5361 62.2608 83.5785C62.1741 83.6291 62.1116 83.6825 62.0773 83.7138C62.0079 83.777 61.9565 83.8399 61.9286 83.8752C61.868 83.9523 61.8117 84.0378 61.7669 84.1094C61.6729 84.2596 61.5688 84.4458 61.4761 84.6232C61.3837 84.7998 61.2903 84.9912 61.2223 85.1527C61.1909 85.2274 61.1507 85.3287 61.1224 85.4316C61.1106 85.4744 61.0833 85.5783 61.0784 85.7059C61.0761 85.7673 61.0756 85.8987 61.1238 86.0543C61.1746 86.2181 61.3097 86.4938 61.6316 86.6573L62.5375 84.8742ZM62.7757 85.4385C62.4837 85.4385 62.2638 85.3084 62.1312 85.1822C62.0018 85.0589 61.8416 84.8284 61.8416 84.5012H63.8416C63.8416 84.1428 63.6648 83.8809 63.5107 83.7341C63.3535 83.5843 63.1006 83.4385 62.7757 83.4385V85.4385Z" fill="white" mask="url(#path-7-inside-4_22_11350)"/>
<mask id="path-9-inside-5_22_11350" fill="white">
<path d="M62.0023 85.9225C62.0188 86.0062 61.4757 86.9363 61.0972 87.4379C60.7023 87.9813 60.6694 87.835 61.0479 87.2289C61.5086 86.4973 61.9859 85.8285 62.0023 85.9225Z"/>
</mask>
<path d="M62.0023 85.9225C62.0188 86.0062 61.4757 86.9363 61.0972 87.4379C60.7023 87.9813 60.6694 87.835 61.0479 87.2289C61.5086 86.4973 61.9859 85.8285 62.0023 85.9225Z" fill="black"/>
<path d="M62.0023 85.9225L61.0173 86.0949L61.0191 86.1053L61.0211 86.1157L62.0023 85.9225ZM61.0972 87.4379L60.299 86.8356L60.2936 86.8428L60.2883 86.85L61.0972 87.4379ZM61.0479 87.2289L60.2017 86.6959L60.1996 86.6992L61.0479 87.2289ZM61.0211 86.1157C60.9916 85.9656 61.005 85.8466 61.0108 85.8023C61.0181 85.7465 61.0289 85.7043 61.0347 85.683C61.0464 85.6406 61.0574 85.6142 61.0575 85.614C61.0591 85.6101 61.0524 85.6264 61.0304 85.6694C60.9888 85.7508 60.922 85.871 60.8374 86.0139C60.6664 86.3027 60.4572 86.6259 60.299 86.8356L61.8955 88.0402C62.1157 87.7483 62.3673 87.3556 62.5583 87.033C62.6547 86.8702 62.7443 86.7109 62.8117 86.5787C62.8443 86.5149 62.8802 86.4409 62.9098 86.3682C62.9239 86.3336 62.9453 86.2782 62.9633 86.2127C62.9666 86.2007 63.0343 85.9875 62.9835 85.7294L61.0211 86.1157ZM60.2883 86.85C60.1983 86.9739 60.1576 87.0176 60.1591 87.0161C60.1618 87.0134 60.1757 86.9994 60.1992 86.9801C60.217 86.9654 60.2732 86.92 60.3597 86.8767C60.4096 86.8516 60.6715 86.7194 61.0188 86.8007C61.5007 86.9135 61.7025 87.3046 61.7567 87.5389C61.8006 87.7283 61.7745 87.8776 61.7682 87.9135C61.7583 87.9701 61.7455 88.0095 61.741 88.023C61.7315 88.0512 61.7271 88.0568 61.7397 88.0308C61.7628 87.9834 61.812 87.8931 61.8961 87.7585L60.1996 86.6992C60.0944 86.8677 60.0058 87.0231 59.941 87.1566C59.9096 87.221 59.8737 87.3009 59.845 87.3863C59.8309 87.4284 59.8115 87.4922 59.7981 87.5688C59.7884 87.6247 59.7618 87.7896 59.8083 87.9901C59.8651 88.2355 60.0725 88.6332 60.563 88.748C60.9188 88.8313 61.1923 88.6965 61.2568 88.6642C61.4281 88.5782 61.5458 88.4582 61.5802 88.4234C61.6872 88.3154 61.7987 88.1737 61.9062 88.0258L60.2883 86.85ZM61.894 87.7618C62.1166 87.4084 62.3388 87.0773 62.5014 86.853C62.5868 86.7352 62.6383 86.6711 62.6578 86.6493C62.6819 86.6222 62.6353 86.6813 62.5436 86.7446C62.5145 86.7647 62.4598 86.8001 62.3842 86.8329C62.3167 86.8622 62.17 86.9174 61.9742 86.9135C61.747 86.909 61.482 86.8228 61.2751 86.6054C61.0923 86.4134 61.0363 86.2036 61.0173 86.0949L62.9874 85.7502C62.9673 85.6356 62.9093 85.4215 62.7238 85.2265C62.514 85.0061 62.2454 84.9185 62.0137 84.9139C61.6654 84.907 61.4281 85.0844 61.4074 85.0987C61.2846 85.1835 61.1944 85.2851 61.1643 85.319C61.0752 85.419 60.9756 85.5501 60.882 85.6792C60.6867 85.9487 60.4398 86.3179 60.2017 86.6959L61.894 87.7618Z" fill="white" mask="url(#path-9-inside-5_22_11350)"/>
<path d="M60.5057 88.0785C60.5245 88.0912 60.5432 88.1059 60.5616 88.1227C60.5807 88.1401 60.5975 88.158 60.6123 88.1762C60.5999 88.1941 60.5865 88.2122 60.5722 88.2299C60.5713 88.2309 60.5705 88.232 60.5697 88.233C60.536 88.2742 60.4975 88.3139 60.4555 88.3471C60.4423 88.3582 60.4296 88.3687 60.4174 88.3785C60.3839 88.3567 60.3532 88.3308 60.326 88.3013C60.3393 88.2835 60.3539 88.2645 60.3696 88.2443C60.3704 88.2434 60.3711 88.2425 60.3718 88.2416C60.3966 88.2099 60.4246 88.1754 60.4555 88.1381C60.4726 88.1165 60.4894 88.0965 60.5057 88.0785Z" fill="black" stroke="white"/>
<mask id="path-12-inside-6_22_11350" fill="white">
<path d="M57.7238 91.7436C57.4276 92.0885 57.0162 92.4961 56.7858 92.6633L56.3909 92.9559L56.6871 92.6424C56.8516 92.4647 57.2301 92.0571 57.5428 91.7227C58.2833 90.9494 58.3821 90.9598 57.7238 91.7436Z"/>
</mask>
<path d="M57.7238 91.7436C57.4276 92.0885 57.0162 92.4961 56.7858 92.6633L56.3909 92.9559L56.6871 92.6424C56.8516 92.4647 57.2301 92.0571 57.5428 91.7227C58.2833 90.9494 58.3821 90.9598 57.7238 91.7436Z" fill="black"/>
<path d="M57.7238 91.7436L58.4825 92.3952L58.4896 92.3867L57.7238 91.7436ZM56.7858 92.6633L56.1984 91.8539L56.1905 91.8598L56.7858 92.6633ZM56.3909 92.9559L55.664 92.2692L56.9862 93.7594L56.3909 92.9559ZM56.6871 92.6424L57.414 93.3292L57.4207 93.3219L56.6871 92.6424ZM57.5428 91.7227L56.8205 91.0311L56.8123 91.0398L57.5428 91.7227ZM56.9652 91.0921C56.6872 91.4157 56.3353 91.7546 56.1984 91.854L57.3732 93.4726C57.6971 93.2375 58.168 92.7613 58.4824 92.3952L56.9652 91.0921ZM56.1905 91.8598L55.7955 92.1524L56.9862 93.7594L57.3811 93.4668L56.1905 91.8598ZM57.1177 93.6427L57.414 93.3291L55.9602 91.9556L55.664 92.2692L57.1177 93.6427ZM57.4207 93.3219C57.5846 93.145 57.962 92.7386 58.2733 92.4057L56.8123 91.0398C56.4983 91.3757 56.1187 91.7844 55.9534 91.9628L57.4207 93.3219ZM58.2651 92.4143C58.4443 92.2271 58.5737 92.099 58.6557 92.0231C58.699 91.9829 58.7142 91.9712 58.7089 91.9753C58.7086 91.9755 58.6798 91.9983 58.6321 92.0255C58.6088 92.0388 58.558 92.0665 58.4877 92.0918C58.4362 92.1103 58.2684 92.1679 58.0465 92.143C57.7557 92.1104 57.4223 91.9345 57.2547 91.5719C57.1294 91.3009 57.1651 91.0616 57.177 90.9916C57.2043 90.8315 57.2665 90.7222 57.2666 90.7221C57.2878 90.6818 57.2981 90.672 57.2673 90.7146C57.2168 90.7844 57.1177 90.9104 56.958 91.1005L58.4896 92.3867C58.659 92.185 58.7945 92.0157 58.8875 91.8872C58.9284 91.8307 58.9876 91.7461 59.0356 91.6552C59.049 91.6298 59.1189 91.5013 59.1485 91.328C59.1616 91.2515 59.197 91.0072 59.0701 90.7326C58.9008 90.3665 58.5644 90.1885 58.2692 90.1555C58.043 90.1301 57.8694 90.1887 57.8108 90.2098C57.7334 90.2376 57.6741 90.2694 57.641 90.2883C57.5737 90.3267 57.5199 90.3667 57.4892 90.3903C57.4231 90.4411 57.3562 90.5006 57.2964 90.5559C57.1722 90.671 57.0115 90.8316 56.8205 91.0311L58.2651 92.4143Z" fill="white" mask="url(#path-12-inside-6_22_11350)"/>
<mask id="path-14-inside-7_22_11350" fill="white">
<path d="M56.0944 93.3426C55.9134 93.5307 55.5514 93.8547 55.2716 94.0532C54.8602 94.3459 54.9096 94.2832 55.4691 93.7188C56.1767 93.0186 56.6869 92.7155 56.0944 93.3426Z"/>
</mask>
<path d="M56.0944 93.3426C55.9134 93.5307 55.5514 93.8547 55.2716 94.0532C54.8602 94.3459 54.9096 94.2832 55.4691 93.7188C56.1767 93.0186 56.6869 92.7155 56.0944 93.3426Z" fill="black"/>
<path d="M56.0944 93.3426L56.815 94.036L56.8213 94.0294L56.0944 93.3426ZM55.2716 94.0532L54.6928 93.2378L54.692 93.2384L55.2716 94.0532ZM55.4691 93.7188L54.7657 93.008L54.7589 93.0148L55.4691 93.7188ZM55.3739 92.6492C55.2296 92.7992 54.9144 93.0805 54.6928 93.2378L55.8504 94.8687C56.1884 94.6288 56.5973 94.2623 56.815 94.036L55.3739 92.6492ZM54.692 93.2384C54.6428 93.2733 54.6047 93.3 54.5756 93.3199C54.5435 93.3418 54.5342 93.3472 54.5391 93.3443C54.5406 93.3434 54.5613 93.331 54.5939 93.3155C54.6104 93.3077 54.6414 93.2936 54.6826 93.2792C54.7164 93.2674 54.7999 93.2398 54.9119 93.2292C54.9974 93.2212 55.2868 93.203 55.5754 93.4051C55.9325 93.6552 56.0058 94.0295 56 94.2474C55.9951 94.4331 55.9386 94.5687 55.9197 94.6124C55.8942 94.6713 55.8686 94.7144 55.8556 94.7353C55.8145 94.8013 55.7788 94.8379 55.8026 94.8108C55.813 94.7991 55.8333 94.7768 55.8682 94.7402C55.9374 94.6677 56.0388 94.5645 56.1792 94.4229L54.7589 93.0148C54.6196 93.1553 54.505 93.2716 54.4204 93.3604C54.3784 93.4045 54.3375 93.4483 54.3019 93.4888C54.2798 93.5139 54.2134 93.5886 54.1569 93.6795C54.1401 93.7066 54.1115 93.7551 54.084 93.8185C54.0632 93.8668 54.0057 94.006 54.0007 94.1947C53.9949 94.4154 54.069 94.7918 54.4279 95.0432C54.7183 95.2466 55.0105 95.2288 55.0996 95.2204C55.2932 95.2022 55.4372 95.129 55.451 95.1225C55.4984 95.1 55.5376 95.0774 55.5613 95.0633C55.6473 95.0122 55.7552 94.9365 55.8512 94.8681L54.692 93.2384ZM56.1725 94.4296C56.3332 94.2706 56.4789 94.138 56.5954 94.0392C56.7238 93.9303 56.7846 93.89 56.7827 93.8911C56.7797 93.8929 56.7518 93.9098 56.7065 93.9291C56.6966 93.9333 56.5318 94.01 56.3024 94.0006C56.1697 93.9952 55.9245 93.9565 55.6982 93.7613C55.4558 93.5523 55.3741 93.285 55.358 93.0955C55.3332 92.8033 55.4501 92.5944 55.4518 92.5909C55.4933 92.508 55.5297 92.4717 55.494 92.5152C55.4724 92.5415 55.4325 92.5871 55.3675 92.6558L56.8213 94.0294C56.9045 93.9414 56.9782 93.8593 57.0394 93.7848C57.0864 93.7276 57.1746 93.6176 57.2405 93.4858C57.2544 93.458 57.3767 93.2309 57.3509 92.9265C57.3343 92.7308 57.2504 92.4589 57.0043 92.2467C56.7744 92.0484 56.524 92.008 56.3846 92.0023C56.1418 91.9923 55.9576 92.0742 55.9228 92.089C55.8526 92.1189 55.7943 92.1518 55.7559 92.1748C55.5037 92.3257 55.1275 92.65 54.7657 93.008L56.1725 94.4296Z" fill="white" mask="url(#path-14-inside-7_22_11350)"/>
<mask id="path-16-inside-8_22_11350" fill="white">
<path d="M54.6135 94.5758C54.6135 94.6385 54.4983 94.7639 54.3667 94.8475C54.235 94.9311 54.0211 95.1088 53.873 95.2237C53.7413 95.3491 53.6097 95.4327 53.5768 95.4014C53.5439 95.3805 53.7578 95.161 54.054 94.9102C54.3667 94.6594 54.6135 94.5131 54.6135 94.5758Z"/>
</mask>
<path d="M54.6135 94.5758C54.6135 94.6385 54.4983 94.7639 54.3667 94.8475C54.235 94.9311 54.0211 95.1088 53.873 95.2237C53.7413 95.3491 53.6097 95.4327 53.5768 95.4014C53.5439 95.3805 53.7578 95.161 54.054 94.9102C54.3667 94.6594 54.6135 94.5131 54.6135 94.5758Z" fill="black"/>
<path d="M53.873 95.2237L53.2598 94.4338L53.2199 94.4648L53.1833 94.4997L53.873 95.2237ZM53.5768 95.4014L54.2665 94.6773L54.1956 94.6098L54.1129 94.5572L53.5768 95.4014ZM54.054 94.9102L53.4283 94.1302L53.4179 94.1385L53.4078 94.147L54.054 94.9102ZM53.6135 94.5758C53.6135 94.4364 53.6442 94.3287 53.666 94.2674C53.6889 94.2027 53.7145 94.1549 53.7313 94.1263C53.7639 94.0708 53.7925 94.0389 53.8005 94.0301C53.8173 94.0116 53.8245 94.0072 53.8306 94.0033L54.9028 95.6917C55.0405 95.6042 55.1711 95.4953 55.2785 95.3775C55.3317 95.3191 55.3973 95.2388 55.4557 95.1395C55.4985 95.0666 55.6135 94.8595 55.6135 94.5758H53.6135ZM53.8306 94.0033C53.6461 94.1205 53.3495 94.3642 53.2598 94.4338L54.4861 96.0137C54.6927 95.8534 54.824 95.7417 54.9028 95.6917L53.8306 94.0033ZM53.1833 94.4997C53.15 94.5313 53.1408 94.5337 53.1667 94.5179C53.1728 94.5141 53.2384 94.4728 53.3459 94.4423C53.4 94.427 53.513 94.4003 53.6604 94.4101C53.8164 94.4206 54.0566 94.4774 54.2665 94.6773L52.887 96.1255C53.3156 96.5337 53.8296 96.384 53.8909 96.3667C54.0365 96.3254 54.1494 96.2612 54.209 96.2248C54.3419 96.1437 54.4643 96.0416 54.5627 95.9478L53.1833 94.4997ZM54.1129 94.5572C54.4342 94.7613 54.5567 95.0851 54.5717 95.3354C54.5839 95.5391 54.5293 95.6911 54.5086 95.7448C54.4631 95.8624 54.4062 95.937 54.4031 95.9413C54.3812 95.9713 54.3751 95.9739 54.4088 95.9392C54.4657 95.8808 54.5675 95.7858 54.7002 95.6734L53.4078 94.147C53.2443 94.2855 53.0911 94.4256 52.9751 94.5448C52.9224 94.599 52.8506 94.6761 52.7885 94.7609C52.7654 94.7926 52.6948 94.8897 52.6428 95.0244C52.6188 95.0865 52.5627 95.2456 52.5752 95.455C52.5906 95.7109 52.7153 96.0389 53.0407 96.2456L54.1129 94.5572ZM54.6797 95.6902C54.8163 95.5807 54.9165 95.5121 54.9631 95.4844C55.0008 95.4619 54.9587 95.4924 54.8702 95.5202C54.8556 95.5248 54.6581 95.5942 54.4013 95.5414C54.2446 95.5093 54.0164 95.4202 53.8356 95.1983C53.6547 94.9764 53.6135 94.7353 53.6135 94.5758H55.6135C55.6135 94.4085 55.5704 94.1611 55.3858 93.9346C55.2011 93.7081 54.9674 93.6159 54.8033 93.5823C54.5318 93.5266 54.3125 93.599 54.27 93.6124C54.1253 93.6579 54.002 93.7289 53.9389 93.7665C53.7839 93.8589 53.6044 93.9889 53.4283 94.1302L54.6797 95.6902Z" fill="white" mask="url(#path-16-inside-8_22_11350)"/>
<mask id="path-18-inside-9_22_11350" fill="white">
<path d="M52.7704 96.0807C52.6552 96.1643 52.3755 96.3733 52.1615 96.551C51.9476 96.7391 51.7337 96.854 51.7007 96.8331C51.602 96.7704 52.6717 95.9344 52.8527 95.9344C52.935 95.9344 52.8856 95.9971 52.7704 96.0807Z"/>
</mask>
<path d="M52.7704 96.0807C52.6552 96.1643 52.3755 96.3733 52.1615 96.551C51.9476 96.7391 51.7337 96.854 51.7007 96.8331C51.602 96.7704 52.6717 95.9344 52.8527 95.9344C52.935 95.9344 52.8856 95.9971 52.7704 96.0807Z" fill="black"/>
<path d="M52.1615 96.551L51.5226 95.7817L51.5118 95.7907L51.5012 95.8L52.1615 96.551ZM52.183 95.2714C52.0596 95.361 51.7603 95.5843 51.5226 95.7817L52.8004 97.3203C52.9906 97.1623 53.2508 96.9676 53.3578 96.89L52.183 95.2714ZM51.5012 95.8C51.4386 95.8551 51.3825 95.893 51.356 95.9086C51.3393 95.9185 51.355 95.9073 51.3976 95.891C51.4155 95.8841 51.476 95.8613 51.5629 95.8474C51.6069 95.8403 51.6856 95.8308 51.7847 95.8384C51.878 95.8454 52.0529 95.8722 52.2368 95.989L51.1647 97.6773C51.5024 97.8918 51.8383 97.8287 51.8796 97.8221C51.9853 97.8052 52.0696 97.7753 52.1155 97.7577C52.2141 97.7198 52.3029 97.672 52.3705 97.6322C52.5127 97.5486 52.6705 97.435 52.8219 97.3019L51.5012 95.8ZM52.2368 95.989C52.4481 96.1231 52.6021 96.334 52.6643 96.5796C52.7186 96.7942 52.6872 96.971 52.6641 97.0612C52.6209 97.2295 52.5431 97.3366 52.5344 97.349C52.4991 97.3996 52.4785 97.4148 52.5126 97.3814C52.5649 97.3303 52.6631 97.2454 52.7873 97.1484C52.909 97.0534 53.0303 96.9665 53.1209 96.9086C53.1425 96.8948 53.16 96.8842 53.1733 96.8765C53.1872 96.8684 53.1928 96.8656 53.1912 96.8664C53.1901 96.867 53.1853 96.8693 53.1772 96.8729C53.1694 96.8762 53.1552 96.8821 53.1356 96.8889C53.1157 96.8958 53.0066 96.9344 52.8527 96.9344V94.9344C52.6761 94.9344 52.5375 94.9795 52.4821 94.9987C52.4106 95.0234 52.3487 95.0518 52.3032 95.0744C52.2113 95.1199 52.1212 95.174 52.044 95.2233C51.8862 95.3242 51.7123 95.4503 51.5563 95.5721C51.4028 95.692 51.2408 95.8278 51.1147 95.9511C51.0596 96.005 50.9702 96.0958 50.8946 96.204C50.8657 96.2453 50.7749 96.3768 50.7268 96.5642C50.7012 96.664 50.6694 96.8491 50.7255 97.0705C50.7894 97.323 50.9472 97.5392 51.1647 97.6773L52.2368 95.989ZM52.8527 96.9344C52.8096 96.9344 52.7122 96.9314 52.5918 96.8956C52.4743 96.8605 52.2494 96.7676 52.0776 96.5275C51.8897 96.265 51.874 95.9812 51.9082 95.7863C51.9383 95.6138 52.0074 95.4942 52.0395 95.4432C52.1045 95.3399 52.1705 95.2828 52.1735 95.2802C52.1884 95.2667 52.1937 95.2636 52.183 95.2714L53.3578 96.89C53.4047 96.8559 53.4594 96.8137 53.5134 96.7649C53.5554 96.727 53.6502 96.6386 53.7318 96.5091C53.758 96.4674 54.1054 95.9243 53.7039 95.3635C53.527 95.1162 53.2934 95.0177 53.1632 94.9789C53.0302 94.9393 52.9164 94.9344 52.8527 94.9344V96.9344Z" fill="white" mask="url(#path-18-inside-9_22_11350)"/>
<mask id="path-20-inside-10_22_11350" fill="white">
<path d="M50.0057 97.92C48.6398 98.7665 46.9942 99.6967 46.0068 100.156C44.9042 100.689 45.365 100.366 46.7473 99.6444C47.5043 99.2577 48.5904 98.662 49.1829 98.3067C50.8943 97.293 51.3716 97.0631 50.0057 97.92Z"/>
</mask>
<path d="M50.0057 97.92C48.6398 98.7665 46.9942 99.6967 46.0068 100.156C44.9042 100.689 45.365 100.366 46.7473 99.6444C47.5043 99.2577 48.5904 98.662 49.1829 98.3067C50.8943 97.293 51.3716 97.0631 50.0057 97.92Z" fill="black"/>
<path d="M50.0057 97.92L50.5325 98.77L50.5371 98.7671L50.0057 97.92ZM46.0068 100.156L45.5846 99.25L45.5781 99.253L45.5716 99.2562L46.0068 100.156ZM46.7473 99.6444L46.2924 98.7538L46.2848 98.7578L46.7473 99.6444ZM49.1829 98.3067L48.6732 97.4463L48.6685 97.4491L49.1829 98.3067ZM49.4789 97.07C48.1262 97.9083 46.5193 98.8147 45.5846 99.25L46.429 101.063C47.469 100.579 49.1534 99.6247 50.5325 98.77L49.4789 97.07ZM45.5716 99.2562C45.2921 99.3913 45.1553 99.4504 45.1167 99.4646C45.1047 99.469 45.1377 99.4558 45.1922 99.4435C45.2108 99.4393 45.2986 99.4191 45.4156 99.4212C45.4724 99.4222 45.6 99.4287 45.7503 99.4861C45.9116 99.5476 46.1631 99.6959 46.3038 100.008C46.4391 100.308 46.3891 100.579 46.346 100.716C46.3032 100.852 46.2409 100.947 46.2109 100.989C46.1492 101.077 46.0883 101.132 46.0742 101.144C46.0351 101.18 46.0072 101.198 46.0164 101.192C46.1046 101.13 46.5057 100.898 47.2098 100.531L46.2848 98.7578C45.6066 99.1116 45.0862 99.4023 44.874 99.5499C44.8457 99.5697 44.79 99.6092 44.733 99.6607C44.71 99.6814 44.6427 99.743 44.5772 99.8357C44.5452 99.881 44.4816 99.978 44.4381 100.116C44.3944 100.255 44.3444 100.528 44.4804 100.83C44.6217 101.143 44.8745 101.293 45.0377 101.355C45.19 101.413 45.3201 101.42 45.3802 101.421C45.5037 101.423 45.6006 101.402 45.6309 101.395C45.7089 101.377 45.7761 101.353 45.8092 101.341C45.9512 101.288 46.1702 101.188 46.442 101.057L45.5716 99.2562ZM47.2022 100.535C47.9741 100.141 49.0809 99.534 49.6972 99.1643L48.6685 97.4491C48.1 97.7901 47.0345 98.3748 46.2924 98.7539L47.2022 100.535ZM49.6925 99.1671C50.5672 98.649 51.0663 98.3678 51.1768 98.3154C51.2036 98.3027 51.1445 98.3338 51.0577 98.3578C51.0328 98.3647 50.9636 98.3831 50.8718 98.3901C50.8484 98.3919 50.5086 98.4312 50.1902 98.187C49.9864 98.0307 49.8514 97.8027 49.8114 97.551C49.7765 97.3313 49.8232 97.1562 49.8546 97.0661C49.9136 96.8968 50.0045 96.7877 50.0233 96.7647C50.0803 96.6951 50.1333 96.6513 50.1368 96.6483C50.1448 96.6415 50.1509 96.6366 50.1543 96.6339C50.1578 96.6311 50.1601 96.6294 50.1607 96.6289C50.1609 96.6288 50.1513 96.6359 50.1265 96.653C50.0256 96.7226 49.8158 96.8586 49.4742 97.073L50.5371 98.7671C50.8785 98.5529 51.1213 98.3964 51.2615 98.2997C51.297 98.2753 51.3345 98.2488 51.3689 98.2227C51.3858 98.2099 51.4092 98.1917 51.4345 98.1702C51.4486 98.1581 51.509 98.1071 51.5704 98.0323C51.5914 98.0066 51.6836 97.8954 51.7432 97.7244C51.7749 97.6334 51.8217 97.4576 51.7867 97.2373C51.7466 96.985 51.6114 96.7565 51.4071 96.5998C51.0876 96.3549 50.7461 96.3939 50.7202 96.3959C50.6258 96.4031 50.5533 96.4222 50.5244 96.4302C50.4213 96.4587 50.3336 96.5018 50.3197 96.5083C50.1053 96.6101 49.51 96.9507 48.6732 97.4463L49.6925 99.1671Z" fill="white" mask="url(#path-20-inside-10_22_11350)"/>
<mask id="path-22-inside-11_22_11350" fill="white">
<path d="M45.2334 100.501C45.2334 100.595 41.7446 102.1 41.5143 102.1C41.432 102.1 41.9586 101.86 42.6827 101.567C43.4067 101.275 44.2789 100.888 44.6081 100.721C44.9536 100.554 45.2334 100.449 45.2334 100.501Z"/>
</mask>
<path d="M45.2334 100.501C45.2334 100.595 41.7446 102.1 41.5143 102.1C41.432 102.1 41.9586 101.86 42.6827 101.567C43.4067 101.275 44.2789 100.888 44.6081 100.721C44.9536 100.554 45.2334 100.449 45.2334 100.501Z" fill="black"/>
<path d="M44.6081 100.721L44.1725 99.8207L44.1638 99.8249L44.1551 99.8293L44.6081 100.721ZM44.2334 100.501C44.2334 100.154 44.4121 99.9305 44.4429 99.8911C44.5006 99.8172 44.5553 99.7696 44.5765 99.7517C44.6229 99.7123 44.6591 99.69 44.6598 99.6896C44.6692 99.6836 44.6604 99.6896 44.6194 99.711C44.5439 99.7505 44.423 99.8095 44.2618 99.8847C43.9434 100.033 43.51 100.226 43.0647 100.418C42.6197 100.609 42.1715 100.796 41.8239 100.934C41.6489 101.004 41.5076 101.057 41.4082 101.092C41.3574 101.11 41.3283 101.119 41.3163 101.123C41.2564 101.14 41.3641 101.1 41.5143 101.1V103.1C41.6932 103.1 41.8552 103.049 41.8717 103.044C41.9361 103.025 42.0056 103.002 42.0722 102.979C42.2077 102.931 42.3767 102.866 42.5612 102.793C42.9326 102.646 43.3998 102.451 43.8557 102.255C44.3115 102.058 44.7646 101.857 45.1076 101.697C45.277 101.618 45.4305 101.544 45.5467 101.483C45.6015 101.454 45.6679 101.418 45.7285 101.38C45.7549 101.363 45.8107 101.327 45.8703 101.277C45.8981 101.253 45.9578 101.201 46.0189 101.122C46.053 101.079 46.2334 100.851 46.2334 100.501H44.2334ZM41.5143 101.1C41.5528 101.1 41.6755 101.101 41.8238 101.151C41.9628 101.197 42.3469 101.368 42.4724 101.841C42.5829 102.258 42.3922 102.567 42.3448 102.64C42.2772 102.744 42.206 102.809 42.1801 102.833C42.0907 102.913 42.0091 102.953 42.0435 102.934C42.0571 102.926 42.1085 102.9 42.2112 102.853C42.405 102.765 42.703 102.638 43.0573 102.494L42.308 100.64C41.9382 100.79 41.6109 100.929 41.381 101.034C41.2717 101.084 41.1617 101.136 41.0771 101.183C41.0623 101.191 40.9474 101.251 40.8422 101.346C40.8123 101.373 40.7383 101.442 40.6688 101.549C40.6197 101.624 40.4283 101.936 40.5393 102.354C40.6653 102.829 41.051 103.001 41.1928 103.049C41.3439 103.099 41.4706 103.1 41.5143 103.1V101.1ZM43.0573 102.494C43.7913 102.198 44.6941 101.799 45.061 101.612L44.1551 99.8293C43.8637 99.9773 43.0222 100.352 42.308 100.64L43.0573 102.494ZM45.0436 101.621C45.2011 101.545 45.3216 101.494 45.3873 101.47C45.4312 101.455 45.4057 101.467 45.3423 101.478C45.33 101.48 45.1891 101.506 45.0075 101.466C44.9099 101.445 44.7148 101.386 44.5348 101.212C44.3267 101.011 44.2334 100.747 44.2334 100.501H46.2334C46.2334 100.25 46.138 99.9802 45.9255 99.7747C45.7413 99.5964 45.5399 99.5351 45.4339 99.5119C45.2356 99.4687 45.0702 99.4956 45.0262 99.5027C44.8997 99.5229 44.7826 99.5625 44.7133 99.5873C44.5527 99.6448 44.3606 99.7297 44.1725 99.8207L45.0436 101.621Z" fill="white" mask="url(#path-22-inside-11_22_11350)"/>
<path d="M28.9452 101.504C28.4192 101.599 27.8767 101.775 27.3721 102.013C27.6929 101.802 28.1044 101.648 28.6159 101.558C28.7463 101.536 28.8527 101.518 28.9452 101.504Z" fill="black" stroke="white"/>
<mask id="path-25-inside-12_22_11350" fill="white">
<path d="M37.0051 103.657C37.0051 103.752 36.0177 104.013 35.919 103.95C35.8861 103.929 36.1165 103.835 36.4292 103.741C36.7418 103.647 37.0051 103.605 37.0051 103.657Z"/>
</mask>
<path d="M37.0051 103.657C37.0051 103.752 36.0177 104.013 35.919 103.95C35.8861 103.929 36.1165 103.835 36.4292 103.741C36.7418 103.647 37.0051 103.605 37.0051 103.657Z" fill="black"/>
<path d="M36.0051 103.657C36.0051 103.439 36.0768 103.27 36.1356 103.168C36.1938 103.067 36.2576 102.998 36.2964 102.961C36.3714 102.888 36.4379 102.848 36.4548 102.838C36.496 102.814 36.5149 102.809 36.4856 102.82C36.4384 102.839 36.3504 102.867 36.241 102.896C36.1331 102.925 36.0349 102.947 35.9714 102.957C35.9367 102.962 35.9355 102.961 35.9576 102.96C35.9677 102.96 36.0082 102.958 36.0658 102.965C36.0956 102.969 36.1435 102.976 36.2019 102.993C36.2568 103.008 36.3509 103.04 36.4551 103.106L35.3829 104.794C35.5819 104.921 35.7733 104.945 35.8292 104.951C35.9121 104.961 35.9839 104.96 36.0304 104.959C36.1254 104.955 36.2176 104.943 36.2894 104.931C36.4388 104.907 36.6059 104.869 36.7572 104.829C36.9069 104.789 37.072 104.738 37.213 104.683C37.2778 104.658 37.3746 104.618 37.4702 104.561C37.5143 104.535 37.6021 104.481 37.6916 104.393C37.7465 104.34 38.0051 104.085 38.0051 103.657H36.0051ZM36.4551 103.106C36.6464 103.227 36.9055 103.497 36.9156 103.922C36.9237 104.264 36.7572 104.491 36.7031 104.559C36.6336 104.647 36.5656 104.702 36.537 104.724C36.5024 104.75 36.4739 104.768 36.4586 104.777C36.4109 104.806 36.3869 104.813 36.4233 104.799C36.4759 104.777 36.5789 104.74 36.7172 104.699L36.1411 102.783C35.9668 102.836 35.7982 102.893 35.6657 102.948C35.6095 102.971 35.5145 103.011 35.4231 103.066C35.402 103.079 35.258 103.162 35.1342 103.319C35.0763 103.392 34.9079 103.623 34.9162 103.969C34.9263 104.397 35.1875 104.67 35.3829 104.794L36.4551 103.106ZM36.7172 104.699C36.8461 104.66 36.9406 104.64 36.9822 104.633C37.0142 104.629 36.9721 104.638 36.893 104.633C36.8655 104.631 36.7289 104.623 36.5675 104.547C36.4796 104.506 36.3395 104.423 36.217 104.268C36.0822 104.097 36.0051 103.883 36.0051 103.657H38.0051C38.0051 103.115 37.6194 102.832 37.4189 102.737C37.2418 102.654 37.0822 102.641 37.0252 102.637C36.8869 102.628 36.7595 102.645 36.6866 102.655C36.5183 102.681 36.3249 102.728 36.1411 102.783L36.7172 104.699Z" fill="white" mask="url(#path-25-inside-12_22_11350)"/>
<mask id="path-27-inside-13_22_11350" fill="white">
<path d="M35.6887 104.044C35.6887 104.065 35.376 104.17 34.9811 104.285C34.0431 104.546 33.5988 104.64 33.7962 104.525C33.9937 104.41 35.6887 103.971 35.6887 104.044Z"/>
</mask>
<path d="M35.6887 104.044C35.6887 104.065 35.376 104.17 34.9811 104.285C34.0431 104.546 33.5988 104.64 33.7962 104.525C33.9937 104.41 35.6887 103.971 35.6887 104.044Z" fill="black"/>
<path d="M34.9811 104.285L35.2494 105.248L35.2606 105.245L34.9811 104.285ZM34.6887 104.044C34.6887 103.739 34.8252 103.531 34.8845 103.451C34.9525 103.359 35.021 103.3 35.054 103.273C35.1219 103.218 35.1806 103.186 35.1958 103.178C35.2191 103.165 35.2366 103.157 35.243 103.154C35.2471 103.152 35.2501 103.151 35.2518 103.15C35.2536 103.149 35.2546 103.149 35.2547 103.149C35.2548 103.149 35.2542 103.149 35.2529 103.15C35.2517 103.15 35.2499 103.151 35.2475 103.152C35.2427 103.154 35.2362 103.156 35.2279 103.159C35.2112 103.165 35.1895 103.173 35.1628 103.182C35.0535 103.219 34.8913 103.269 34.7016 103.324L35.2606 105.245C35.4659 105.185 35.6575 105.126 35.8032 105.076C35.8733 105.053 35.948 105.026 36.0127 105C36.0406 104.988 36.0949 104.966 36.1532 104.934C36.1777 104.92 36.2435 104.884 36.3162 104.825C36.3516 104.796 36.4219 104.735 36.4911 104.642C36.5516 104.56 36.6887 104.35 36.6887 104.044H34.6887ZM34.7128 103.321C34.2439 103.452 33.9281 103.532 33.7618 103.566C33.743 103.57 33.7283 103.573 33.7175 103.575C33.7063 103.577 33.7014 103.578 33.7017 103.577C33.702 103.577 33.7047 103.577 33.7095 103.577C33.7141 103.576 33.7223 103.575 33.7334 103.575C33.7472 103.574 33.8036 103.57 33.8798 103.579C33.9184 103.583 33.9892 103.594 34.0746 103.623C34.152 103.648 34.3101 103.712 34.4595 103.861C34.6343 104.036 34.753 104.288 34.7501 104.574C34.7475 104.822 34.6546 105 34.6015 105.086C34.5028 105.245 34.3842 105.331 34.3694 105.342C34.3329 105.37 34.3054 105.386 34.2993 105.389L33.2931 103.661C33.2624 103.679 33.2153 103.707 33.164 103.746C33.1345 103.768 33.0061 103.864 32.9024 104.031C32.8469 104.12 32.7528 104.303 32.7502 104.553C32.7471 104.842 32.867 105.097 33.0442 105.274C33.1961 105.426 33.3577 105.492 33.4398 105.519C33.53 105.549 33.6068 105.561 33.6525 105.566C33.8032 105.583 33.9373 105.564 33.9723 105.559C34.0361 105.55 34.1022 105.538 34.1639 105.525C34.4049 105.476 34.7802 105.379 35.2494 105.248L34.7128 103.321ZM34.2993 105.389C34.2301 105.429 34.1912 105.438 34.2649 105.412C34.3107 105.396 34.3775 105.374 34.4634 105.349C34.6338 105.297 34.8505 105.238 35.0649 105.183C35.2809 105.127 35.4803 105.08 35.6184 105.053C35.652 105.046 35.679 105.041 35.6995 105.037C35.7215 105.033 35.7293 105.033 35.7266 105.033C35.725 105.033 35.7155 105.034 35.7001 105.035C35.6875 105.036 35.6536 105.037 35.6075 105.034C35.5812 105.033 35.4555 105.026 35.306 104.965C35.2274 104.933 35.0822 104.862 34.9479 104.714C34.795 104.546 34.6887 104.312 34.6887 104.044H36.6887C36.6887 103.427 36.2001 103.169 36.0617 103.113C35.9058 103.049 35.7705 103.041 35.7318 103.038C35.6294 103.032 35.5405 103.041 35.5044 103.045C35.4129 103.056 35.3112 103.074 35.2232 103.092C35.0373 103.129 34.8006 103.186 34.5682 103.245C34.3341 103.305 34.09 103.372 33.8871 103.433C33.7863 103.464 33.6883 103.495 33.6036 103.525C33.5468 103.544 33.4118 103.592 33.2931 103.661L34.2993 105.389Z" fill="white" mask="url(#path-27-inside-13_22_11350)"/>
<mask id="path-29-inside-14_22_11350" fill="white">
<path d="M33.5493 104.64C33.5493 104.713 31.3935 105.256 31.3112 105.204C31.2619 105.183 31.6239 105.068 32.1012 104.943C32.5784 104.828 33.105 104.703 33.2531 104.661C33.4177 104.619 33.5493 104.609 33.5493 104.64Z"/>
</mask>
<path d="M33.5493 104.64C33.5493 104.713 31.3935 105.256 31.3112 105.204C31.2619 105.183 31.6239 105.068 32.1012 104.943C32.5784 104.828 33.105 104.703 33.2531 104.661C33.4177 104.619 33.5493 104.609 33.5493 104.64Z" fill="black"/>
<path d="M31.3112 105.204L31.8473 104.36L31.7774 104.316L31.7011 104.283L31.3112 105.204ZM32.1012 104.943L31.867 103.971L31.857 103.973L31.847 103.976L32.1012 104.943ZM33.2531 104.661L33.0069 103.692L32.9941 103.695L32.9815 103.698L33.2531 104.661ZM32.5493 104.64C32.5493 104.335 32.6853 104.126 32.7506 104.04C32.8223 103.945 32.8948 103.885 32.9295 103.859C33.0006 103.803 33.0611 103.773 33.0742 103.766C33.1105 103.748 33.1302 103.742 33.1111 103.749C33.0823 103.759 33.0221 103.779 32.9264 103.808C32.7412 103.863 32.4837 103.932 32.2167 103.999C31.9499 104.067 31.6867 104.129 31.4907 104.17C31.3904 104.191 31.3214 104.203 31.283 104.209C31.261 104.212 31.269 104.21 31.2945 104.209C31.3054 104.208 31.3461 104.206 31.402 104.21C31.4303 104.213 31.4806 104.218 31.5427 104.232C31.5957 104.244 31.7154 104.276 31.8473 104.36L30.7752 106.048C31.0038 106.194 31.2299 106.203 31.2478 106.204C31.3167 106.21 31.3742 106.207 31.4054 106.206C31.4715 106.202 31.5343 106.194 31.5791 106.187C31.6743 106.173 31.7873 106.151 31.9006 106.127C32.132 106.079 32.4232 106.01 32.7056 105.939C32.9878 105.868 33.2744 105.791 33.4959 105.725C33.6037 105.693 33.7125 105.659 33.802 105.626C33.8419 105.611 33.9081 105.586 33.976 105.551C34.0048 105.537 34.0775 105.499 34.1568 105.438C34.1956 105.408 34.2711 105.345 34.3449 105.247C34.4122 105.159 34.5493 104.947 34.5493 104.64H32.5493ZM31.7011 104.283C31.8128 104.331 32.3241 104.591 32.3064 105.227C32.2994 105.477 32.202 105.658 32.1404 105.75C32.0767 105.846 32.0102 105.909 31.9731 105.942C31.8997 106.007 31.8348 106.044 31.8157 106.054C31.7886 106.07 31.7684 106.079 31.7609 106.082C31.7414 106.091 31.7522 106.085 31.8192 106.063C31.9366 106.025 32.1252 105.971 32.3553 105.91L31.847 103.976C31.5999 104.041 31.3689 104.106 31.1983 104.162C31.1213 104.187 31.0209 104.222 30.9326 104.262C30.9172 104.269 30.7796 104.328 30.6498 104.442C30.6096 104.478 30.5408 104.544 30.4756 104.642C30.4124 104.737 30.3141 104.92 30.3071 105.171C30.2893 105.812 30.8035 106.075 30.9214 106.125L31.7011 104.283ZM32.3353 105.915C32.7921 105.805 33.3519 105.672 33.5247 105.623L32.9815 103.698C32.8581 103.733 32.3647 103.851 31.867 103.971L32.3353 105.915ZM33.4993 105.63C33.5484 105.618 33.561 105.618 33.536 105.62C33.5358 105.62 33.4556 105.628 33.3432 105.607C33.294 105.598 33.1459 105.568 32.9859 105.46C32.7941 105.331 32.5493 105.056 32.5493 104.64H34.5493C34.5493 104.216 34.3005 103.934 34.1008 103.8C33.9329 103.687 33.7732 103.653 33.7092 103.641C33.5669 103.614 33.4436 103.622 33.3898 103.626C33.2578 103.635 33.1223 103.662 33.0069 103.692L33.4993 105.63Z" fill="white" mask="url(#path-29-inside-14_22_11350)"/>
<mask id="path-31-inside-15_22_11350" fill="white">
<path d="M29.7643 105.601C29.5339 105.685 29.2377 105.748 29.106 105.748C28.9744 105.748 29.106 105.685 29.4187 105.601C30.1099 105.403 30.3073 105.403 29.7643 105.601Z"/>
</mask>
<path d="M29.7643 105.601C29.5339 105.685 29.2377 105.748 29.106 105.748C28.9744 105.748 29.106 105.685 29.4187 105.601C30.1099 105.403 30.3073 105.403 29.7643 105.601Z" fill="black"/>
<path d="M29.7643 105.601L30.1054 106.541L30.1077 106.541L29.7643 105.601ZM29.4187 105.601L29.677 106.567L29.6859 106.565L29.6948 106.562L29.4187 105.601ZM29.4232 104.661C29.3563 104.686 29.2681 104.711 29.1842 104.729C29.1435 104.738 29.1111 104.744 29.0895 104.747C29.0616 104.751 29.0712 104.748 29.106 104.748V106.748C29.2834 106.748 29.4762 106.712 29.6121 106.683C29.7668 106.649 29.9419 106.601 30.1054 106.541L29.4232 104.661ZM29.106 104.748C29.1126 104.748 29.1874 104.747 29.2873 104.769C29.3336 104.779 29.4516 104.809 29.5835 104.89C29.7186 104.973 29.9716 105.18 30.0397 105.56C30.1055 105.928 29.9514 106.198 29.8732 106.309C29.7914 106.424 29.7047 106.493 29.669 106.52C29.5925 106.578 29.5287 106.607 29.5214 106.611C29.4881 106.626 29.5219 106.609 29.677 106.567L29.1604 104.635C29.0029 104.677 28.8144 104.733 28.6701 104.801C28.635 104.817 28.5504 104.858 28.4604 104.927C28.4178 104.959 28.3261 105.033 28.2413 105.152C28.16 105.267 28.0047 105.542 28.071 105.913C28.1398 106.297 28.3953 106.507 28.5349 106.593C28.6713 106.677 28.7957 106.708 28.8504 106.721C28.967 106.747 29.0666 106.748 29.106 106.748V104.748ZM29.6948 106.562C29.8573 106.516 29.9814 106.484 30.0662 106.464C30.1945 106.434 30.1543 106.452 30.0543 106.452C30.0492 106.452 29.8758 106.459 29.6771 106.373C29.5695 106.327 29.3216 106.197 29.1747 105.891C29.0104 105.549 29.0838 105.229 29.1641 105.051C29.2359 104.892 29.3319 104.792 29.3707 104.754C29.4183 104.707 29.4603 104.676 29.4831 104.659C29.5284 104.627 29.5633 104.609 29.57 104.605C29.5886 104.595 29.5559 104.613 29.4209 104.662L30.1077 106.541C30.2442 106.491 30.3905 106.434 30.5031 106.374C30.5334 106.358 30.5866 106.329 30.6449 106.287C30.6741 106.266 30.7214 106.231 30.7729 106.18C30.8158 106.138 30.9144 106.035 30.9875 105.873C31.0693 105.691 31.1428 105.369 30.9774 105.025C30.8294 104.716 30.5791 104.584 30.4679 104.536C30.262 104.448 30.0765 104.452 30.0543 104.452C29.8864 104.452 29.7013 104.495 29.6151 104.515C29.4855 104.545 29.3257 104.588 29.1426 104.64L29.6948 106.562Z" fill="white" mask="url(#path-31-inside-15_22_11350)"/>
<path d="M71.6407 109.646L71.6415 109.646C73.5278 110.323 74.7654 110.899 75.5263 111.456C76.2676 111.999 76.4941 112.474 76.4941 112.969C76.4941 113.299 76.4522 113.545 76.2649 113.93C76.0627 114.345 75.6992 114.904 75.0376 115.849L75.0371 115.85C74.5309 116.576 73.9111 117.5 73.682 117.901C73.3724 118.422 72.7413 119.032 71.9043 119.606C71.0745 120.174 70.0839 120.677 69.1029 121.001L69.1026 121.001C66.8688 121.741 64.6246 121.742 62.3376 121L62.3363 121C59.6338 120.132 57.4247 118.28 56.6569 116.377L56.6567 116.377C56.5419 116.093 56.458 115.573 56.4421 115.006C56.4262 114.436 56.4822 113.929 56.5799 113.665L56.5812 113.662C56.6697 113.417 56.8909 113.053 57.1817 112.687C57.4693 112.324 57.7819 112.012 58.0203 111.847C58.1422 111.767 58.3918 111.647 58.7523 111.505C59.1048 111.367 59.5316 111.219 59.9807 111.079C60.886 110.798 61.8425 110.56 62.4395 110.487C63.2229 110.398 63.5907 110.398 64.333 110.506L64.3347 110.507C65.5722 110.682 66.3743 110.77 67.0828 110.661C67.8108 110.55 68.4025 110.239 69.2338 109.742C69.5209 109.575 69.8005 109.425 70.0182 109.32C70.1283 109.267 70.2154 109.228 70.2762 109.205C70.2774 109.205 70.2787 109.204 70.2799 109.204C70.2937 109.207 70.3112 109.211 70.3328 109.217C70.4165 109.239 70.5293 109.272 70.6655 109.314C70.9367 109.399 71.2835 109.517 71.6407 109.646ZM70.3274 109.187C70.334 109.186 70.3327 109.187 70.325 109.188C70.326 109.188 70.3268 109.188 70.3274 109.187Z" fill="black" stroke="white"/>
<path d="M20.6231 109.561L20.6231 109.561C20.3186 109.449 20.0224 109.35 19.7943 109.28C19.6894 109.247 19.6017 109.222 19.5357 109.204C19.4852 109.227 19.4205 109.259 19.3434 109.299C19.1487 109.399 18.8934 109.538 18.6282 109.691C17.7505 110.207 17.1354 110.53 16.4022 110.65C15.6829 110.768 14.8874 110.682 13.6647 110.506L13.6645 110.506C12.3202 110.312 11.365 110.427 9.24546 111.095L9.24418 111.095C8.26537 111.401 7.74306 111.59 7.37132 111.805C7.02423 112.007 6.791 112.242 6.42716 112.704L6.42479 112.707C5.5058 113.856 5.37447 115.232 6.11978 116.728L6.12146 116.731L6.12144 116.731C7.02045 118.57 8.88622 120.034 11.1393 120.849C13.3885 121.663 15.964 121.808 18.2219 121.074L20.6231 109.561ZM20.6231 109.561L20.6337 109.565M20.6231 109.561L20.6337 109.565M20.6337 109.565C22.5078 110.207 23.1621 110.496 24.2209 111.138C25.3871 111.858 25.677 112.25 25.7672 112.734C25.8122 112.99 25.7939 113.253 25.6086 113.683C25.4137 114.136 25.0479 114.741 24.415 115.665L24.414 115.666M20.6337 109.565L24.414 115.666M24.414 115.666C23.7868 116.589 23.1215 117.623 22.9159 117.972M24.414 115.666L22.9159 117.972M22.9159 117.972L23.3464 118.226M22.9159 117.972L23.3464 118.226M23.3464 118.226L22.9162 117.971C22.6374 118.442 21.9697 119.06 21.0774 119.656M23.3464 118.226L21.0774 119.656M21.0774 119.656C20.1997 120.242 19.167 120.766 18.222 121.074L21.0774 119.656ZM19.4356 109.18C19.4355 109.18 19.4372 109.18 19.4412 109.181C19.4376 109.18 19.4357 109.18 19.4356 109.18Z" fill="black" stroke="white"/>
<path d="M52.6448 123.037L52.6448 123.037L52.652 123.039C53.7717 123.395 54.6586 124.639 54.6731 125.986L54.673 125.986L54.6731 125.988C54.6806 126.461 54.6012 126.702 54.4972 126.841C54.3987 126.972 54.2143 127.097 53.8028 127.184C52.9383 127.365 50.7147 127.479 48.426 127.497C46.1368 127.516 43.9051 127.438 43.0252 127.266L43.0252 127.266L43.0217 127.266C42.3889 127.147 42.0264 126.994 41.8549 126.862C41.816 126.832 41.7934 126.807 41.7809 126.791C41.7689 126.775 41.7663 126.767 41.7662 126.767L41.7662 126.767C41.7661 126.767 41.7661 126.767 41.7662 126.767C41.7662 126.767 41.7661 126.767 41.7662 126.765C41.7665 126.761 41.768 126.747 41.7781 126.722C41.8287 126.597 42.0156 126.368 42.4763 126.064C42.9179 125.772 43.5463 125.452 44.3684 125.116C45.0897 124.824 46.8867 124.262 48.6015 123.767C49.4542 123.521 50.2769 123.295 50.9222 123.13C51.2453 123.048 51.5204 122.982 51.7309 122.937C51.8363 122.914 51.9218 122.898 51.9869 122.887C52.0267 122.881 52.052 122.878 52.0661 122.876C52.071 122.877 52.0773 122.878 52.085 122.88C52.1205 122.887 52.1697 122.898 52.23 122.914C52.3501 122.945 52.4993 122.989 52.6448 123.037Z" fill="black" stroke="white"/>
<path d="M36.9528 126.964L36.9527 126.964L36.9506 126.966C36.9357 126.984 36.861 127.054 36.6061 127.13C36.3585 127.204 35.9951 127.269 35.471 127.321C34.4244 127.424 32.8258 127.466 30.4226 127.466C27.1171 127.466 26.4452 127.433 25.6294 127.276C24.974 127.15 24.6297 127.044 24.4509 126.94C24.3734 126.895 24.3562 126.867 24.3536 126.862L24.3535 126.862C24.3515 126.859 24.3401 126.839 24.3401 126.775C24.3401 126.726 24.3596 126.628 24.4988 126.471C24.6405 126.311 24.8788 126.123 25.2454 125.91C25.9778 125.484 27.1215 125.016 28.7336 124.491C29.7598 124.16 31.1744 123.753 32.3889 123.427C32.996 123.265 33.5494 123.124 33.9767 123.024C34.1906 122.974 34.3693 122.935 34.5055 122.909C34.5738 122.896 34.6279 122.887 34.6685 122.881C34.6928 122.878 34.7076 122.876 34.7148 122.875C34.7209 122.876 34.7336 122.878 34.7542 122.882C34.7921 122.889 34.8416 122.901 34.9005 122.917C35.0172 122.949 35.1537 122.993 35.2801 123.041C36.03 123.334 36.6766 124.074 37.0118 124.915C37.3554 125.777 37.3036 126.549 36.9528 126.964Z" fill="black" stroke="white"/>
<g filter="url(#filter0_d_22_11350)">
<path d="M4.49707 40.9974L12.2971 29.6774L4.97707 18.9974H9.21707L13.5771 25.7974C13.7637 26.0907 13.9371 26.4107 14.0971 26.7574C14.2837 27.104 14.4304 27.384 14.5371 27.5974C14.6171 27.384 14.7371 27.104 14.8971 26.7574C15.0837 26.4107 15.2704 26.0907 15.4571 25.7974L19.8571 18.9974H24.0571L16.7371 29.7174L24.4971 40.9974H20.2571L15.5371 33.7974C15.3504 33.504 15.1637 33.1707 14.9771 32.7974C14.8171 32.3974 14.6704 32.0774 14.5371 31.8374C14.4304 32.0774 14.2704 32.3974 14.0571 32.7974C13.8704 33.1707 13.6704 33.504 13.4571 33.7974L8.69707 40.9974H4.49707ZM28.4814 40.9974L36.2814 29.6774L28.9614 18.9974H33.2014L37.5614 25.7974C37.7481 26.0907 37.9214 26.4107 38.0814 26.7574C38.2681 27.104 38.4148 27.384 38.5214 27.5974C38.6014 27.384 38.7214 27.104 38.8814 26.7574C39.0681 26.4107 39.2548 26.0907 39.4414 25.7974L43.8414 18.9974H48.0414L40.7214 29.7174L48.4814 40.9974H44.2414L39.5214 33.7974C39.3348 33.504 39.1481 33.1707 38.9614 32.7974C38.8014 32.3974 38.6548 32.0774 38.5214 31.8374C38.4148 32.0774 38.2548 32.3974 38.0414 32.7974C37.8548 33.1707 37.6548 33.504 37.4414 33.7974L32.6814 40.9974H28.4814ZM52.4658 40.9974L60.2658 29.6774L52.9458 18.9974H57.1858L61.5458 25.7974C61.7325 26.0907 61.9058 26.4107 62.0658 26.7574C62.2525 27.104 62.3992 27.384 62.5058 27.5974C62.5858 27.384 62.7058 27.104 62.8658 26.7574C63.0525 26.4107 63.2392 26.0907 63.4258 25.7974L67.8258 18.9974H72.0258L64.7058 29.7174L72.4658 40.9974H68.2258L63.5058 33.7974C63.3192 33.504 63.1325 33.1707 62.9458 32.7974C62.7858 32.3974 62.6392 32.0774 62.5058 31.8374C62.3992 32.0774 62.2392 32.3974 62.0258 32.7974C61.8392 33.1707 61.6392 33.504 61.4258 33.7974L56.6658 40.9974H52.4658Z" fill="black"/>
</g>
<defs>
<filter id="filter0_d_22_11350" x="0.49707" y="18.9974" width="75.9688" height="30" filterUnits="userSpaceOnUse" color-interpolation-filters="sRGB">
<feFlood flood-opacity="0" result="BackgroundImageFix"/>
<feColorMatrix in="SourceAlpha" type="matrix" values="0 0 0 0 0 0 0 0 0 0 0 0 0 0 0 0 0 0 127 0" result="hardAlpha"/>
<feOffset dy="4"/>
<feGaussianBlur stdDeviation="2"/>
<feComposite in2="hardAlpha" operator="out"/>
<feColorMatrix type="matrix" values="0 0 0 0 0 0 0 0 0 0 0 0 0 0 0 0 0 0 0.25 0"/>
<feBlend mode="normal" in2="BackgroundImageFix" result="effect1_dropShadow_22_11350"/>
<feBlend mode="normal" in="SourceGraphic" in2="effect1_dropShadow_22_11350" result="shape"/>
</filter>
</defs>
</svg>
