<svg width="79" height="128" viewBox="0 0 79 128" fill="none" xmlns="http://www.w3.org/2000/svg">
<path d="M14.1751 59.6045L14.1677 59.6088C14.1142 59.6397 14.0378 59.6839 13.9458 59.7374C13.7619 59.8442 13.5166 59.9874 13.2705 60.1332C13.0237 60.2795 12.779 60.4266 12.5952 60.5417C12.5025 60.5997 12.4303 60.6465 12.3824 60.6796C12.381 60.6805 12.3796 60.6815 12.3783 60.6824C12.3597 60.706 12.341 60.727 12.3254 60.7437C12.288 60.7839 12.2428 60.8273 12.1962 60.8702C12.1015 60.9573 11.9748 61.0663 11.8309 61.1864C11.5418 61.4277 11.1643 61.7302 10.7917 62.0246C10.4184 62.3195 10.0471 62.6085 9.76939 62.8236C9.63047 62.9312 9.51482 63.0205 9.43385 63.0828L9.35555 63.1431C9.16353 63.3943 8.95218 63.8148 8.77871 64.2317C8.69003 64.4449 8.61701 64.643 8.56707 64.7945C8.54196 64.8706 8.52403 64.9309 8.51302 64.9729C8.50948 64.9865 8.50717 64.9963 8.50574 65.0027C8.50033 65.0852 8.47949 65.1548 8.46481 65.198C8.44527 65.2553 8.42037 65.3113 8.39503 65.3625C8.34419 65.4652 8.2766 65.5783 8.20124 65.6928C8.05009 65.9225 7.84686 66.1892 7.62611 66.4407C5.68587 68.7005 3.96922 71.87 3.15878 74.625C0.459274 84.0073 5.202 93.8174 15.6853 100.05C17.5557 101.159 20.7596 102.679 22.7686 103.396L22.7725 103.397C23.2829 103.584 23.6862 103.75 23.9747 103.899C24.1181 103.973 24.2506 104.052 24.3582 104.138C24.4487 104.21 24.5842 104.336 24.6454 104.524C24.6857 104.636 24.7881 104.964 24.9186 105.383L24.9291 105.416L24.947 105.474C25.0935 105.943 25.2801 106.541 25.479 107.166L25.4809 107.172L25.4808 107.172C27.8042 114.78 29.5996 117.631 32.9448 119.549C36.1248 121.359 41.1717 121.681 45.1353 120.266L45.1366 120.266C47.2174 119.53 48.6099 118.515 49.7721 116.882C50.8983 115.288 51.4068 113.821 52.3088 109.391C52.6154 107.885 52.999 106.226 53.1514 105.727L53.155 105.716L53.1552 105.716L53.4441 104.847L53.5249 104.604L53.7691 104.527L54.8709 104.182L54.8754 104.181L54.8754 104.181C61.5608 102.157 67.6909 98.4925 71.6294 94.1991L71.6295 94.1989C74.3218 91.266 76.1958 87.8738 77.1858 84.1459L77.1863 84.144C77.3927 83.3788 77.5077 81.677 77.5077 79.9112C77.5077 78.1451 77.3926 76.4473 77.1866 75.689L14.1751 59.6045ZM14.1751 59.6045L17.5879 59.0102L17.6955 58.9915L17.7855 58.9295L17.5021 58.5176L17.7855 58.9295L17.7856 58.9295L17.7859 58.9293L17.7871 58.9284L17.792 58.925L17.8114 58.9117L17.8853 58.8611C17.949 58.8174 18.0402 58.7549 18.15 58.6801C18.3697 58.5303 18.6632 58.3311 18.9591 58.1329C19.2558 57.9342 19.5521 57.7385 19.7784 57.5948C19.888 57.5253 19.9762 57.4711 20.0382 57.4353C20.0769 57.4312 20.1136 57.4248 20.1457 57.4182C20.2261 57.4017 20.3144 57.3763 20.4017 57.3476C20.573 57.2914 20.7767 57.2109 20.9808 57.1196L21.0157 57.1072L21.1696 57.0527C21.3031 57.0055 21.4961 56.9375 21.7336 56.8544C22.2086 56.6883 22.8611 56.462 23.5714 56.2214C24.9998 55.7376 26.6364 55.2049 27.5426 54.9808C31.7271 53.9558 34.4887 53.6273 39.3508 53.5511C39.3509 53.5511 39.351 53.5511 39.351 53.5511L43.1319 53.5L43.1372 53.5L46.9979 53.5322H47.0021H47.4331L53.8574 55.3394L57.0662 56.3748L58.2325 56.8265C58.2331 56.8267 58.2338 56.827 58.2344 56.8272C63.8851 59.0546 68.6698 62.2344 71.8562 65.8797L71.8564 65.8799C74.4818 68.88 76.1959 72.0464 77.1865 75.6889L14.1751 59.6045ZM45.3034 120.737C41.2216 122.194 36.02 121.875 32.6967 119.983L45.3034 120.737Z" stroke="black"/>
<path d="M38.7602 67.5424C40.045 68.2918 41.5458 68.9782 42.9758 69.4622L42.9762 69.4623C44.3461 69.9245 45.3002 70.2043 46.3217 70.3629C47.3405 70.5211 48.4076 70.5557 50.0003 70.5494C50.0007 70.5494 50.001 70.5494 50.0013 70.5494L49.9993 70.0494C52.0398 70.0494 53.0995 69.9921 54.2149 69.7492C53.7093 69.9355 53.1582 70.1078 52.6633 70.2279C52.0528 70.3748 51.4194 70.4803 50.7705 70.546L38.7602 67.5424ZM55.7062 69.3453C55.7959 69.3196 55.8721 69.2986 55.9357 69.2825C55.9392 69.2816 55.9426 69.2807 55.946 69.2799C56.2692 69.1986 56.2572 69.2453 56.0498 69.4103L55.7062 69.3453Z" fill="black" stroke="black"/>
<path d="M40.044 70.4728L40.0426 70.4725C39.4626 70.3376 38.579 70.2617 37.6457 70.2538C36.7171 70.246 35.7802 70.3059 35.0981 70.4263C33.4097 70.7436 32.1216 71.3116 30.511 72.4513C28.8109 73.6543 27.8972 74.7722 27.1413 76.5229L27.1405 76.5246C26.9209 77.028 26.8187 77.321 26.7608 77.6899C26.6998 78.0783 26.6856 78.5639 26.6765 79.461L26.6765 79.4613C26.6675 80.2972 26.6818 80.8024 26.7353 81.203C26.787 81.5901 26.8771 81.8921 27.0406 82.3183C28.1007 85.0644 30.3794 87.1653 33.5431 88.2355L33.5444 88.2359C35.495 88.9014 37.2753 89.0715 39.2164 88.7895C43.5569 88.1479 47.0038 85.3949 48.094 81.8156L40.044 70.4728ZM40.044 70.4728C43.9744 71.3752 46.9022 73.8062 47.9912 76.9729L47.9912 76.9729M40.044 70.4728L47.9912 76.9729M47.9912 76.9729L47.9926 76.9769M47.9912 76.9729L47.9926 76.9769M47.9926 76.9769C48.2121 77.5983 48.3394 78.4857 48.3569 79.4M47.9926 76.9769L48.3569 79.4M48.3569 79.4C48.3744 80.3141 48.2811 81.1996 48.094 81.8155L48.3569 79.4Z" fill="black" stroke="black"/>
<path d="M27.3737 94.2295L27.3742 94.2295C27.7781 94.269 28.2494 94.3555 28.7627 94.4805C28.2825 94.4161 27.8509 94.3949 27.3687 94.3949C26.4206 94.3949 25.6259 94.5009 24.9092 94.7643C24.5091 94.9113 24.1423 95.1041 23.7929 95.3446C24.0696 94.9164 24.463 94.6161 24.9734 94.4324L24.9758 94.4315C25.1723 94.3596 25.5774 94.2868 26.0623 94.2443C26.5367 94.2028 27.0271 94.1952 27.3737 94.2295Z" fill="black" stroke="black"/>
<path d="M72.0428 104.764L72.0437 104.764C74.8627 105.915 76.1889 106.743 76.8932 107.66L76.8938 107.661C77.1014 107.931 77.1827 108.074 77.2254 108.212C77.2696 108.354 77.2864 108.534 77.2776 108.903L77.2775 108.906C77.2623 109.755 77.0756 110.23 75.6776 112.414C75.1543 113.219 74.493 114.309 74.2249 114.849C73.7457 115.772 72.7532 116.755 71.4975 117.58C70.2473 118.401 68.7875 119.033 67.4281 119.287C64.7988 119.764 62.2096 119.324 59.874 117.99L59.8726 117.989C57.6737 116.742 55.9517 114.796 55.3685 113.039L55.3677 113.037C54.8384 111.469 55.1295 109.55 56.0128 108.376C56.4083 107.872 56.7211 107.557 57.1293 107.291C57.5493 107.016 58.0941 106.776 58.9812 106.459C61.0847 105.709 62.4938 105.529 63.8794 105.753C65.8661 106.086 66.6823 106.114 67.6911 105.684C68.1904 105.485 68.9776 105.031 69.5017 104.661C69.7456 104.495 69.9841 104.344 70.1718 104.239C70.2537 104.193 70.3194 104.16 70.3678 104.138C70.3846 104.143 70.404 104.149 70.4261 104.155C70.5273 104.187 70.6655 104.234 70.8325 104.294C71.1654 104.414 71.5966 104.581 72.0428 104.764ZM70.296 104.119C70.2959 104.119 70.2973 104.12 70.3004 104.12C70.2976 104.12 70.296 104.119 70.296 104.119Z" fill="black" stroke="black"/>
<path d="M17.9155 104.535L17.9155 104.535L17.9204 104.537C20.1558 105.414 21.6886 106.224 22.6231 107.004C23.549 107.776 23.8117 108.447 23.7135 109.082L23.713 109.085C23.6045 109.82 23.3437 110.395 21.8501 112.806L21.8492 112.807C21.1867 113.884 20.5189 115.023 20.3779 115.323L20.3778 115.323L20.3734 115.332C20.3325 115.424 20.2082 115.601 19.9758 115.85C19.7543 116.088 19.4668 116.357 19.1431 116.632C18.4925 117.184 17.7275 117.73 17.1092 118.06L17.1084 118.06C15.168 119.099 13.7675 119.471 11.7816 119.471C9.4207 119.471 7.37152 118.793 5.22676 117.263L5.2252 117.262C3.13591 115.783 1.92962 113.978 1.59617 112.243C1.26603 110.525 1.7786 108.823 3.23434 107.468C3.32657 107.384 3.54408 107.248 3.94555 107.065C4.33501 106.886 4.85657 106.681 5.5176 106.447C6.71486 106.03 7.58682 105.795 8.37541 105.701C9.15586 105.607 9.87588 105.65 10.7693 105.816L10.7709 105.816C11.4096 105.932 12.2044 106.028 12.5401 106.028C13.4682 106.028 14.5822 105.551 15.8286 104.734C16.1201 104.546 16.4009 104.376 16.615 104.253C16.7003 104.204 16.772 104.165 16.8279 104.136C16.8928 104.156 16.9768 104.183 17.0766 104.218C17.3072 104.298 17.6064 104.41 17.9155 104.535ZM16.7176 104.105C16.7176 104.105 16.7195 104.106 16.7238 104.107C16.7199 104.106 16.7177 104.106 16.7176 104.105Z" fill="black" stroke="black"/>
<path d="M52.0822 121.819L52.0822 121.819L52.09 121.822C53.3261 122.26 54.341 123.812 54.3576 125.535L54.3576 125.537C54.3661 126.133 54.2767 126.467 54.1401 126.67C54.0148 126.856 53.7979 127.009 53.3525 127.114C52.4041 127.335 49.9644 127.474 47.4525 127.497C44.94 127.519 42.4914 127.424 41.5262 127.214L41.5262 127.214L41.5224 127.213C40.8308 127.069 40.4281 126.883 40.2313 126.713C40.1401 126.634 40.1111 126.575 40.1013 126.541C40.0923 126.51 40.0876 126.461 40.1177 126.378C40.187 126.187 40.4141 125.895 40.9166 125.524C41.4044 125.165 42.0963 124.773 42.9989 124.362C43.7913 124.005 45.7642 123.317 47.6461 122.712C48.582 122.411 49.4849 122.134 50.1933 121.933C50.5479 121.832 50.8498 121.751 51.0808 121.696C51.1966 121.669 51.2903 121.649 51.3617 121.636C51.4045 121.628 51.432 121.624 51.4473 121.623C51.4526 121.624 51.4592 121.625 51.4672 121.627C51.5062 121.635 51.5602 121.649 51.6264 121.668C51.7584 121.706 51.9223 121.76 52.0822 121.819Z" fill="black" stroke="black"/>
<path d="M34.8813 126.825L34.8812 126.825L34.8793 126.828C34.8487 126.868 34.7551 126.955 34.4792 127.047C34.2071 127.138 33.8083 127.218 33.2335 127.281C32.0853 127.407 30.3312 127.458 27.6936 127.458C24.0657 127.458 23.329 127.418 22.4342 127.227C21.7165 127.072 21.3363 126.943 21.1357 126.813C21.048 126.757 21.0165 126.713 21.0018 126.685C20.9864 126.656 20.9692 126.604 20.9692 126.501C20.9692 126.27 21.1659 125.88 22.0076 125.335C22.8145 124.812 24.0717 124.239 25.8406 123.598C26.9671 123.193 28.5197 122.694 29.8527 122.296C30.519 122.098 31.1264 121.925 31.5954 121.803C31.8302 121.742 32.0263 121.694 32.1758 121.662C32.3176 121.632 32.3857 121.623 32.403 121.621C32.4094 121.622 32.4233 121.624 32.4465 121.629C32.4881 121.638 32.5425 121.653 32.6072 121.673C32.7355 121.712 32.8857 121.766 33.0248 121.824C33.8571 122.186 34.5848 123.109 34.9643 124.17C35.3501 125.248 35.3079 126.264 34.8813 126.825Z" fill="black" stroke="black"/>
<g filter="url(#filter0_d_22_11406)">
<path d="M5.50391 41L13.3039 29.68L5.98391 19H10.2239L14.5839 25.8C14.7706 26.0933 14.9439 26.4133 15.1039 26.76C15.2906 27.1067 15.4372 27.3867 15.5439 27.6C15.6239 27.3867 15.7439 27.1067 15.9039 26.76C16.0906 26.4133 16.2772 26.0933 16.4639 25.8L20.8639 19H25.0639L17.7439 29.72L25.5039 41H21.2639L16.5439 33.8C16.3572 33.5067 16.1706 33.1733 15.9839 32.8C15.8239 32.4 15.6772 32.08 15.5439 31.84C15.4372 32.08 15.2772 32.4 15.0639 32.8C14.8772 33.1733 14.6772 33.5067 14.4639 33.8L9.70391 41H5.50391ZM29.4883 41L37.2883 29.68L29.9683 19H34.2083L38.5683 25.8C38.7549 26.0933 38.9283 26.4133 39.0883 26.76C39.2749 27.1067 39.4216 27.3867 39.5283 27.6C39.6083 27.3867 39.7283 27.1067 39.8883 26.76C40.0749 26.4133 40.2616 26.0933 40.4483 25.8L44.8483 19H49.0483L41.7283 29.72L49.4883 41H45.2483L40.5283 33.8C40.3416 33.5067 40.1549 33.1733 39.9683 32.8C39.8083 32.4 39.6616 32.08 39.5283 31.84C39.4216 32.08 39.2616 32.4 39.0483 32.8C38.8616 33.1733 38.6616 33.5067 38.4483 33.8L33.6883 41H29.4883ZM53.4727 41L61.2727 29.68L53.9527 19H58.1927L62.5527 25.8C62.7393 26.0933 62.9127 26.4133 63.0727 26.76C63.2593 27.1067 63.406 27.3867 63.5127 27.6C63.5927 27.3867 63.7127 27.1067 63.8727 26.76C64.0593 26.4133 64.246 26.0933 64.4327 25.8L68.8327 19H73.0327L65.7127 29.72L73.4727 41H69.2327L64.5127 33.8C64.326 33.5067 64.1393 33.1733 63.9527 32.8C63.7927 32.4 63.646 32.08 63.5127 31.84C63.406 32.08 63.246 32.4 63.0327 32.8C62.846 33.1733 62.646 33.5067 62.4327 33.8L57.6727 41H53.4727Z" fill="black"/>
</g>
<defs>
<filter id="filter0_d_22_11406" x="1.50391" y="19" width="75.9688" height="30" filterUnits="userSpaceOnUse" color-interpolation-filters="sRGB">
<feFlood flood-opacity="0" result="BackgroundImageFix"/>
<feColorMatrix in="SourceAlpha" type="matrix" values="0 0 0 0 0 0 0 0 0 0 0 0 0 0 0 0 0 0 127 0" result="hardAlpha"/>
<feOffset dy="4"/>
<feGaussianBlur stdDeviation="2"/>
<feComposite in2="hardAlpha" operator="out"/>
<feColorMatrix type="matrix" values="0 0 0 0 0 0 0 0 0 0 0 0 0 0 0 0 0 0 0.25 0"/>
<feBlend mode="normal" in2="BackgroundImageFix" result="effect1_dropShadow_22_11406"/>
<feBlend mode="normal" in="SourceGraphic" in2="effect1_dropShadow_22_11406" result="shape"/>
</filter>
</defs>
</svg>
