<svg width="76" height="128" viewBox="0 0 76 128" fill="none" xmlns="http://www.w3.org/2000/svg">
<path d="M41.6221 53.5407L41.6187 53.5403C41.0757 53.4866 39.2254 53.4975 37.2872 53.5474C35.3561 53.5971 33.4206 53.6832 32.7203 53.7692C17.6671 55.6729 6.05931 63.9516 3.09527 74.5939C0.496017 83.9948 5.06435 93.8121 15.1306 100.042C16.9269 101.151 20.0044 102.671 21.933 103.387L21.9371 103.389C22.4279 103.576 22.8169 103.742 23.0958 103.892C23.2344 103.967 23.3632 104.046 23.4679 104.134C23.5574 104.208 23.6871 104.335 23.7448 104.52C23.7847 104.637 23.8993 105.019 24.0539 105.535C24.1936 106.001 24.3661 106.576 24.5455 107.162L24.5472 107.168L24.5472 107.168C26.7812 114.784 28.5078 117.634 31.7171 119.55C34.7645 121.355 39.6029 121.677 43.4031 120.265L43.4044 120.265C45.3978 119.531 46.7336 118.518 47.8505 116.885C48.9336 115.289 49.4228 113.819 50.2899 109.386C50.2899 109.386 50.2899 109.386 50.2899 109.386L50.7806 109.482C51.0757 107.973 51.4402 106.337 51.579 105.863L41.6221 53.5407ZM41.6221 53.5407C41.7417 53.5517 41.9728 53.5741 42.2625 53.6022M41.6221 53.5407L42.2625 53.6022M21.7589 103.856C22.7309 104.227 23.2169 104.483 23.269 104.674C23.2961 104.748 23.403 105.105 23.5557 105.614C23.6964 106.084 23.8759 106.683 24.0674 107.308L21.7589 103.856ZM21.7589 103.856C19.7975 103.127 16.6905 101.593 14.8679 100.468L21.7589 103.856ZM42.2625 53.6022C42.6509 53.64 43.1446 53.6879 43.6161 53.7323M42.2625 53.6022L43.6161 53.7323M43.6161 53.7323C48.6075 54.2124 53.9828 55.7304 58.4604 57.8913C62.7307 59.9633 66.5239 62.8128 69.0747 65.8442L43.6161 53.7323ZM7.66901 74.9993C7.62364 75.1568 7.57758 75.3452 7.58123 75.5055L7.94895 83.7736C8.50623 86.021 9.69778 88.5632 11.1534 90.5581L10.7472 90.8497C10.7476 90.8502 10.748 90.8507 10.7483 90.8512C11.5586 91.9798 12.9017 93.5331 13.5654 94.1171C15.2064 95.5702 16.3378 96.4573 17.5123 97.2176L17.515 97.2194C20.5324 99.1449 21.9762 99.8417 25.1093 100.866C27.9153 101.79 28.4415 101.938 30.5695 102.34C33.7139 102.948 34.5282 103.013 38.5436 103.013L38.5455 103.013C41.8123 103.001 42.6765 102.962 44.312 102.714L44.3123 102.714C48.2067 102.119 52.0551 100.982 55.1243 99.5392L55.1276 99.5376C55.4701 99.3736 55.7934 99.2264 56.0393 99.1212C56.1629 99.0682 56.2625 99.0278 56.3333 99.0015C56.3556 98.9932 56.3729 98.9871 56.3856 98.9828C56.4745 98.9754 56.5638 98.9536 56.6461 98.9184C56.7229 98.8857 56.8377 98.8223 56.9277 98.7062C56.9592 98.6831 57.0079 98.6499 57.0737 98.6076C57.2151 98.5169 57.41 98.4006 57.6207 98.2827L57.6223 98.2817C61.8499 95.8942 65.697 92.1867 67.4707 88.7816L67.4719 88.7792C69.149 85.515 69.8531 82.918 69.8531 79.8815C69.8531 73.5895 66.2237 67.2981 60.2505 63.0932L60.2492 63.0923C55.752 59.9483 50.4338 57.9277 44.4276 57.0868L44.3982 57.0826C41.7567 56.7114 41.6641 56.6984 37.7559 56.7495L37.7538 56.7496C34.799 56.8008 33.8144 56.8522 32.129 57.1266C25.8986 58.0965 20.7882 60.1311 16.2211 63.4825C13.8004 65.2528 11.7981 67.3008 10.219 69.6272L10.2165 69.631C9.75111 70.3301 9.09561 71.6063 8.56388 72.7669C8.2963 73.351 8.05486 73.9171 7.88026 74.3795C7.79317 74.6101 7.72028 74.8212 7.66901 74.9993ZM12.6533 72.6055C14.8572 71.8488 16.9291 71.8498 19.0778 72.5924C21.1223 73.3033 22.8701 74.8839 23.7144 76.7468C23.9072 77.1917 24.0008 77.4572 24.0558 77.7894C24.1136 78.1386 24.1315 78.5767 24.1402 79.3727C24.1402 80.1826 24.126 80.6138 24.069 80.9525C24.015 81.2735 23.9199 81.5262 23.7164 81.9761C22.9334 83.6942 21.6829 84.966 19.8911 85.8379L19.8901 85.8384C17.4935 87.0113 14.3549 87.0242 11.9393 85.8863L11.9377 85.8856C10.7863 85.348 9.451 84.2055 8.77309 83.2072L12.6533 72.6055ZM56.4148 98.9741C56.4148 98.9742 56.4115 98.9751 56.4055 98.9765C56.4118 98.9746 56.4147 98.974 56.4148 98.9741Z" fill="black" stroke="white"/>
<mask id="path-2-inside-1_22_11378" fill="white">
<path d="M63.2432 67.3508C63.2432 67.4914 63.1737 67.7727 63.1043 67.9901C62.9828 68.3353 62.9654 68.3353 62.9654 68.054C62.9654 67.875 63.0349 67.5937 63.1043 67.4147C63.2084 67.159 63.2432 67.1462 63.2432 67.3508Z"/>
</mask>
<path d="M63.2432 67.3508C63.2432 67.4914 63.1737 67.7727 63.1043 67.9901C62.9828 68.3353 62.9654 68.3353 62.9654 68.054C62.9654 67.875 63.0349 67.5937 63.1043 67.4147C63.2084 67.159 63.2432 67.1462 63.2432 67.3508Z" fill="black"/>
<path d="M63.1043 67.9901L64.0476 68.3221L64.0524 68.3083L64.0569 68.2944L63.1043 67.9901ZM63.1043 67.4147L62.1782 67.0375L62.175 67.0453L62.172 67.0531L63.1043 67.4147ZM62.2432 67.3508C62.2432 67.314 62.2467 67.302 62.2428 67.3279C62.2397 67.3482 62.2338 67.3795 62.2244 67.421C62.2055 67.5045 62.1788 67.6012 62.1517 67.6858L64.0569 68.2944C64.0993 68.1617 64.1419 68.009 64.1751 67.8623C64.2032 67.738 64.2432 67.5401 64.2432 67.3508H62.2432ZM62.161 67.6581C62.1306 67.7447 62.1158 67.7828 62.1106 67.7951C62.1068 67.8041 62.1181 67.7753 62.1432 67.7323C62.1554 67.7114 62.1856 67.6615 62.2348 67.6034C62.2706 67.5613 62.3933 67.4204 62.6106 67.3315C62.9011 67.2126 63.2671 67.2286 63.5675 67.4452C63.7902 67.6058 63.8777 67.8086 63.9022 67.8681C63.9356 67.9494 63.9495 68.0155 63.9547 68.0423C63.961 68.0744 63.9637 68.0984 63.9648 68.1086C63.9673 68.1332 63.9654 68.1302 63.9654 68.054H61.9654C61.9654 68.1185 61.9657 68.221 61.9753 68.3139C61.9781 68.3402 61.9903 68.4775 62.0525 68.6288C62.0801 68.696 62.1711 68.9041 62.3979 69.0675C62.7022 69.287 63.0727 69.3034 63.3681 69.1825C63.5902 69.0916 63.7183 68.9463 63.76 68.8972C63.8151 68.8323 63.8516 68.773 63.8707 68.7401C63.9097 68.6733 63.9372 68.6106 63.9521 68.5755C63.9843 68.4995 64.0173 68.4082 64.0476 68.3221L62.161 67.6581ZM63.9654 68.054C63.9654 68.0694 63.9643 68.0667 63.9678 68.0422C63.9708 68.0201 63.9762 67.9903 63.9842 67.955C64.001 67.8808 64.0222 67.8136 64.0366 67.7763L62.172 67.0531C62.0781 67.2953 61.9654 67.7056 61.9654 68.054H63.9654ZM64.0304 67.7919C64.0532 67.736 64.0601 67.7238 64.0546 67.7343C64.0526 67.738 64.0338 67.7743 63.9984 67.8222C63.9881 67.8362 63.8645 68.0154 63.6171 68.1248C63.4645 68.1922 63.2347 68.2452 62.972 68.1779C62.7142 68.1118 62.5454 67.9607 62.4513 67.8452C62.2949 67.6531 62.2605 67.4585 62.2569 67.4413C62.2391 67.3554 62.2432 67.3025 62.2432 67.3508H64.2432C64.2432 67.2968 64.2429 67.1687 64.2153 67.0357C64.2069 66.9949 64.1662 66.7837 64.002 66.5822C63.9041 66.4619 63.7311 66.3078 63.4686 66.2405C63.2013 66.172 62.9665 66.2256 62.8085 66.2955C62.5502 66.4096 62.4142 66.6008 62.3896 66.6341C62.3399 66.7013 62.3051 66.7641 62.2853 66.8018C62.2439 66.8803 62.2075 66.9656 62.1782 67.0375L64.0304 67.7919Z" fill="white" mask="url(#path-2-inside-1_22_11378)"/>
<path d="M62.8432 68.8251C62.8275 68.8784 62.8093 68.9338 62.7903 68.9874C62.7696 68.9839 62.7483 68.9789 62.7264 68.9721C62.6959 68.9626 62.6681 68.9508 62.6428 68.9374C62.6538 68.8865 62.6681 68.8342 62.6856 68.7845C62.7113 68.7867 62.7379 68.7911 62.7653 68.7981C62.7934 68.8053 62.8193 68.8145 62.8432 68.8251Z" fill="black" stroke="white"/>
<mask id="path-5-inside-2_22_11378" fill="white">
<path d="M62.5664 69.6523C62.5664 69.793 62.497 70.0231 62.4102 70.1638L62.254 70.4195V70.1638C62.254 70.0231 62.3234 69.793 62.4102 69.6523L62.5664 69.3966V69.6523Z"/>
</mask>
<path d="M62.5664 69.6523C62.5664 69.793 62.497 70.0231 62.4102 70.1638L62.254 70.4195V70.1638C62.254 70.0231 62.3234 69.793 62.4102 69.6523L62.5664 69.3966V69.6523Z" fill="black"/>
<path d="M62.4102 70.1638L61.5592 69.6387L61.5568 69.6425L62.4102 70.1638ZM62.254 70.4195H61.254V73.9748L63.1073 70.9408L62.254 70.4195ZM62.4102 69.6523L63.2612 70.1775L63.2636 70.1736L62.4102 69.6523ZM62.5664 69.3966H63.5664V65.8413L61.713 68.8753L62.5664 69.3966ZM61.5664 69.6523C61.5664 69.6407 61.5668 69.6311 61.5672 69.6237C61.5676 69.6163 61.5681 69.6104 61.5685 69.6062C61.569 69.602 61.5694 69.5989 61.5697 69.597C61.5699 69.5952 61.5701 69.5942 61.5701 69.5941C61.5701 69.5941 61.5697 69.5964 61.5686 69.6009C61.5675 69.6053 61.566 69.6107 61.5641 69.617C61.5623 69.6232 61.5602 69.6294 61.558 69.6353C61.5559 69.6412 61.5539 69.646 61.5524 69.6495C61.5509 69.6531 61.5502 69.6543 61.5508 69.6532C61.5513 69.6523 61.5539 69.6472 61.5592 69.6387L63.2612 70.6889C63.3617 70.526 63.432 70.3489 63.4775 70.1991C63.521 70.0562 63.5664 69.8587 63.5664 69.6523H61.5664ZM61.5568 69.6425L61.4006 69.8982L63.1073 70.9408L63.2636 70.6851L61.5568 69.6425ZM63.254 70.4195V70.1638H61.254V70.4195H63.254ZM63.254 70.1638C63.254 70.1754 63.2536 70.185 63.2532 70.1924C63.2528 70.1998 63.2523 70.2057 63.2518 70.2099C63.2514 70.2141 63.251 70.2172 63.2507 70.2191C63.2505 70.221 63.2503 70.2219 63.2503 70.222C63.2503 70.222 63.2507 70.2197 63.2518 70.2152C63.2529 70.2109 63.2543 70.2054 63.2562 70.1991C63.2581 70.1929 63.2602 70.1867 63.2623 70.1808C63.2645 70.1749 63.2664 70.1701 63.2679 70.1666C63.2695 70.163 63.2701 70.1618 63.2696 70.1629C63.2691 70.1638 63.2665 70.1689 63.2612 70.1774L61.5592 69.1272C61.4586 69.2901 61.3884 69.4672 61.3428 69.617C61.2993 69.7599 61.254 69.9574 61.254 70.1638H63.254ZM63.2636 70.1736L63.4198 69.9179L61.713 68.8753L61.5568 69.131L63.2636 70.1736ZM61.5664 69.3966V69.6523H63.5664V69.3966H61.5664Z" fill="white" mask="url(#path-5-inside-2_22_11378)"/>
<path d="M34.2307 88.7345L34.2298 88.7344C30.4899 88.1467 27.5161 85.8272 26.1444 82.4923C25.9402 81.9907 25.8414 81.7025 25.7855 81.3343C25.727 80.9493 25.7131 80.4625 25.7131 79.5618C25.7131 77.9581 25.7822 77.4914 26.0638 76.7306L26.0642 76.7296C27.2305 73.5591 30.2019 71.1107 33.8648 70.399C34.4195 70.2925 35.2432 70.2354 36.0875 70.2354C36.9312 70.2354 37.7542 70.2924 38.3088 70.3988C41.8701 71.1105 44.8269 73.5103 46.0267 76.6087C46.2662 77.2352 46.415 78.2341 46.4405 79.2814C46.4659 80.3281 46.3661 81.3455 46.1559 82.0052C45.253 84.8227 42.9641 87.1034 39.9401 88.1684C37.825 88.9104 36.3119 89.0657 34.2307 88.7345Z" fill="black" stroke="white"/>
<mask id="path-8-inside-3_22_11378" fill="white">
<path d="M62.1499 70.8926C61.9763 71.4808 61.3861 72.8873 61.0911 73.4243C60.7786 73.9741 60.8654 73.6545 61.3688 72.4653C61.5771 71.9667 61.8201 71.3274 61.9242 71.0205C62.1152 70.3939 62.3234 70.2789 62.1499 70.8926Z"/>
</mask>
<path d="M62.1499 70.8926C61.9763 71.4808 61.3861 72.8873 61.0911 73.4243C60.7786 73.9741 60.8654 73.6545 61.3688 72.4653C61.5771 71.9667 61.8201 71.3274 61.9242 71.0205C62.1152 70.3939 62.3234 70.2789 62.1499 70.8926Z" fill="black"/>
<path d="M62.1499 70.8926L63.109 71.1757L63.1121 71.1647L62.1499 70.8926ZM61.0911 73.4243L61.9605 73.9184L61.964 73.9122L61.9675 73.9059L61.0911 73.4243ZM61.3688 72.4653L62.2897 72.8552L62.2915 72.8508L61.3688 72.4653ZM61.9242 71.0205L62.8712 71.3418L62.8762 71.327L62.8808 71.312L61.9242 71.0205ZM61.1908 70.6096C61.0382 71.1265 60.4763 72.4666 60.2146 72.9428L61.9675 73.9059C62.296 73.308 62.9144 71.8351 63.109 71.1757L61.1908 70.6096ZM60.2216 72.9303C60.1868 72.9916 60.1634 73.0302 60.1499 73.0514C60.1225 73.0943 60.15 73.0434 60.2144 72.977C60.2347 72.9562 60.2803 72.911 60.3479 72.8635C60.3974 72.8288 60.563 72.7164 60.8118 72.6905C61.1479 72.6554 61.4946 72.7941 61.7114 73.0836C61.8713 73.2969 61.897 73.5096 61.9036 73.5732C61.9188 73.7205 61.8944 73.8317 61.894 73.8339C61.8888 73.8612 61.8843 73.876 61.8857 73.8711C61.9109 73.7828 62.0305 73.4674 62.2897 72.8552L60.4479 72.0755C60.2037 72.6524 60.0283 73.0914 59.9623 73.3228C59.9523 73.3579 59.9396 73.4058 59.9294 73.4595C59.9239 73.488 59.8977 73.6188 59.9142 73.7789C59.9215 73.8489 59.9487 74.0663 60.1107 74.2826C60.3298 74.5751 60.6795 74.7151 61.0195 74.6796C61.2721 74.6533 61.4423 74.5388 61.4972 74.5003C61.5703 74.449 61.622 74.3984 61.6493 74.3703C61.7417 74.2752 61.8097 74.1683 61.8354 74.1281C61.8749 74.0661 61.9172 73.9945 61.9605 73.9184L60.2216 72.9303ZM62.2915 72.8508C62.5062 72.3368 62.7579 71.6756 62.8712 71.3418L60.9773 70.6991C60.8822 70.9791 60.648 71.5965 60.446 72.0799L62.2915 72.8508ZM62.8808 71.312C62.9175 71.1915 62.9483 71.1188 62.9628 71.0891C62.9707 71.0729 62.9661 71.0853 62.9461 71.1141C62.9359 71.1288 62.9137 71.1593 62.8785 71.1965C62.8486 71.2282 62.7768 71.2999 62.6622 71.364C62.5525 71.4255 62.3057 71.5329 61.9868 71.4661C61.6396 71.3934 61.4355 71.1643 61.3401 71C61.2543 70.8521 61.231 70.7207 61.2233 70.6681C61.2141 70.6048 61.2145 70.5575 61.2151 70.5367C61.2169 70.4757 61.2252 70.4874 61.1876 70.6205L63.1121 71.1647C63.1613 70.9909 63.2087 70.7869 63.2143 70.5944C63.2157 70.5457 63.2295 70.2712 63.0701 69.9963C62.9676 69.8198 62.7546 69.5836 62.3969 69.5086C62.0675 69.4396 61.8086 69.5498 61.6852 69.6189C61.4626 69.7435 61.3387 69.9226 61.3045 69.9716C61.2475 70.0535 61.2018 70.1375 61.1661 70.2106C61.0933 70.3595 61.0264 70.5362 60.9677 70.729L62.8808 71.312Z" fill="white" mask="url(#path-8-inside-3_22_11378)"/>
<path d="M60.5225 74.3365C60.5241 74.3319 60.5257 74.3272 60.5274 74.3225L60.6055 74.3888C60.5756 74.3739 60.5478 74.3563 60.5225 74.3365ZM60.6191 74.3953L60.531 74.3126C60.5599 74.2354 60.6062 74.1517 60.6545 74.0884C60.6807 74.0954 60.7058 74.1046 60.7295 74.1155L60.8176 74.1983C60.7887 74.2755 60.7425 74.3592 60.6942 74.4225C60.668 74.4154 60.6429 74.4063 60.6191 74.3953ZM60.7432 74.122C60.7731 74.1369 60.8008 74.1546 60.8261 74.1744C60.8246 74.179 60.823 74.1836 60.8213 74.1883L60.7432 74.122Z" fill="black" stroke="white"/>
<path d="M60.1543 75.1647C60.1694 75.1332 60.1857 75.1018 60.2025 75.0713C60.2443 75.086 60.2862 75.1072 60.3265 75.1363C60.3113 75.1678 60.2951 75.1992 60.2783 75.2297C60.2365 75.2149 60.1945 75.1938 60.1543 75.1647Z" fill="black" stroke="white"/>
<path d="M59.623 76.1767C59.6356 76.1565 59.6486 76.1362 59.6619 76.1161C59.7194 76.1388 59.7729 76.1728 59.8187 76.217C59.8061 76.2371 59.7931 76.257 59.7799 76.2766C59.718 76.2527 59.6656 76.2176 59.623 76.1767Z" fill="black" stroke="white"/>
<mask id="path-13-inside-4_22_11378" fill="white">
<path d="M59.3724 77.0045C59.2162 77.4009 58.7823 78.0274 58.6781 78.0274C58.6261 78.0274 58.7302 77.7845 58.8864 77.4776C59.1989 76.8639 59.5634 76.5059 59.3724 77.0045Z"/>
</mask>
<path d="M59.3724 77.0045C59.2162 77.4009 58.7823 78.0274 58.6781 78.0274C58.6261 78.0274 58.7302 77.7845 58.8864 77.4776C59.1989 76.8639 59.5634 76.5059 59.3724 77.0045Z" fill="black"/>
<path d="M59.3724 77.0045L60.3028 77.3712L60.3063 77.3621L59.3724 77.0045ZM58.4421 76.6379C58.4253 76.6804 58.3918 76.751 58.3407 76.842C58.2914 76.9298 58.2349 77.0203 58.1804 77.1001C58.1232 77.1836 58.0809 77.2368 58.0615 77.2587C58.0494 77.2722 58.0644 77.2531 58.1026 77.2222C58.1214 77.207 58.1676 77.171 58.2371 77.1346C58.2731 77.1157 58.3262 77.091 58.3939 77.0701C58.4607 77.0495 58.5584 77.0274 58.6781 77.0274V79.0274C58.9165 79.0274 59.0922 78.9445 59.1657 78.906C59.253 78.8602 59.3194 78.8103 59.3604 78.7772C59.4428 78.7105 59.51 78.6394 59.5557 78.588C59.6518 78.48 59.7473 78.3518 59.8312 78.2292C59.9944 77.9905 60.1867 77.6658 60.3028 77.3712L58.4421 76.6379ZM58.6781 77.0274C58.8831 77.0274 59.1307 77.0937 59.3393 77.2815C59.5307 77.4538 59.6055 77.6535 59.6352 77.7713C59.6876 77.9784 59.6544 78.1423 59.6514 78.159C59.6378 78.2358 59.619 78.2737 59.6345 78.2343C59.6556 78.1808 59.7031 78.0776 59.7776 77.9313L57.9953 77.024C57.9135 77.1845 57.8309 77.3562 57.7738 77.5009C57.7503 77.5606 57.7054 77.6785 57.6821 77.8103C57.6742 77.8546 57.6402 78.0399 57.6962 78.2615C57.7278 78.3866 57.8056 78.5918 58.0011 78.7678C58.2138 78.9593 58.4667 79.0274 58.6781 79.0274V77.0274ZM59.7776 77.9313C59.9145 77.6623 60.0251 77.5313 60.0171 77.5391C60.0099 77.5462 59.9906 77.5646 59.9601 77.5877C59.9345 77.6072 59.8706 77.6536 59.7747 77.6942C59.6933 77.7286 59.4715 77.8095 59.1865 77.745C58.8379 77.6661 58.6138 77.4236 58.5099 77.194C58.4253 77.007 58.4243 76.8462 58.4255 76.7903C58.4269 76.7199 58.4366 76.6697 58.4404 76.6515C58.4481 76.6148 58.4534 76.6083 58.4386 76.647L60.3063 77.3621C60.3393 77.2761 60.3749 77.1717 60.3979 77.0615C60.4095 77.0066 60.4231 76.9258 60.4251 76.8306C60.4267 76.7498 60.4228 76.57 60.3321 76.3695C60.2221 76.1265 59.9887 75.876 59.628 75.7943C59.3309 75.7271 59.0942 75.8104 58.9952 75.8523C58.7973 75.9361 58.6641 76.0649 58.6193 76.1087C58.3987 76.3243 58.1708 76.6792 57.9953 77.024L59.7776 77.9313Z" fill="white" mask="url(#path-13-inside-4_22_11378)"/>
<path d="M58.3329 78.4597C58.3635 78.4767 58.3941 78.4981 58.4237 78.5249C58.4287 78.5295 58.4337 78.5343 58.4387 78.5392C58.4428 78.5433 58.447 78.5475 58.451 78.5518C58.4547 78.5557 58.4583 78.5596 58.4617 78.5635C58.4311 78.6087 58.3962 78.6528 58.3582 78.6917C58.3096 78.6685 58.2677 78.6383 58.2325 78.6041C58.2612 78.5613 58.2941 78.5139 58.3312 78.4622C58.3318 78.4613 58.3323 78.4605 58.3329 78.4597Z" fill="black" stroke="white"/>
<mask id="path-16-inside-5_22_11378" fill="white">
<path d="M55.8142 82.4899C55.8142 82.5538 55.6927 82.6689 55.5538 82.7584C55.415 82.8479 55.2935 82.963 55.2935 83.0269C55.2935 83.2059 52.9329 85.7632 52.5684 85.9678C52.3601 86.0957 52.3774 86.0317 52.6551 85.7632C53.4189 84.996 54.3735 83.9603 55.0158 83.1676C55.6406 82.4004 55.8142 82.2597 55.8142 82.4899Z"/>
</mask>
<path d="M55.8142 82.4899C55.8142 82.5538 55.6927 82.6689 55.5538 82.7584C55.415 82.8479 55.2935 82.963 55.2935 83.0269C55.2935 83.2059 52.9329 85.7632 52.5684 85.9678C52.3601 86.0957 52.3774 86.0317 52.6551 85.7632C53.4189 84.996 54.3735 83.9603 55.0158 83.1676C55.6406 82.4004 55.8142 82.2597 55.8142 82.4899Z" fill="black"/>
<path d="M52.5684 85.9678L52.0789 85.0958L52.0619 85.1053L52.0452 85.1156L52.5684 85.9678ZM52.6551 85.7632L53.3502 86.4821L53.3571 86.4755L53.3638 86.4687L52.6551 85.7632ZM55.0158 83.1676L54.2404 82.536L54.2387 82.5381L55.0158 83.1676ZM54.8142 82.4899C54.8142 82.3434 54.848 82.229 54.8741 82.1603C54.9011 82.0896 54.9312 82.0377 54.9509 82.007C54.9888 81.9478 55.0215 81.915 55.0274 81.9091C55.0414 81.8949 55.0361 81.9024 55.0121 81.9179L56.0956 83.5989C56.2105 83.5249 56.3353 83.4301 56.4448 83.3201C56.4984 83.2662 56.5702 83.187 56.6352 83.0855C56.6848 83.0081 56.8142 82.7918 56.8142 82.4899H54.8142ZM55.0121 81.9179C54.8972 81.9919 54.7724 82.0867 54.6629 82.1967C54.6093 82.2506 54.5375 82.3298 54.4725 82.4313C54.4229 82.5087 54.2935 82.725 54.2935 83.0269H56.2935C56.2935 83.1734 56.2597 83.2878 56.2336 83.3565C56.2066 83.4273 56.1765 83.4791 56.1568 83.5098C56.1189 83.569 56.0862 83.6019 56.0803 83.6078C56.0662 83.6219 56.0716 83.6144 56.0956 83.5989L55.0121 81.9179ZM54.2935 83.0269C54.2935 82.8115 54.3669 82.6579 54.3726 82.6451C54.3922 82.6008 54.4095 82.5726 54.4122 82.5681C54.4189 82.557 54.4149 82.5646 54.3899 82.5982C54.3428 82.6614 54.2644 82.7586 54.1557 82.887C53.9414 83.1402 53.6455 83.4715 53.3335 83.8087C53.0219 84.1456 52.7025 84.4796 52.4425 84.7384C52.3118 84.8685 52.2023 84.9734 52.1196 85.0481C52.0085 85.1485 52.0114 85.1337 52.0789 85.0958L53.0578 86.8398C53.2164 86.7508 53.3728 86.6113 53.4606 86.532C53.5768 86.427 53.7115 86.2971 53.8534 86.1559C54.1385 85.8721 54.4776 85.5172 54.8017 85.1668C55.1255 84.8168 55.4425 84.4624 55.6821 84.1794C55.8004 84.0396 55.9094 83.9061 55.9928 83.7943C56.033 83.7405 56.0801 83.6746 56.1216 83.6063C56.1417 83.5732 56.1722 83.5205 56.2008 83.456C56.2154 83.423 56.2935 83.2535 56.2935 83.0269H54.2935ZM52.0452 85.1156C51.9911 85.1488 52.0407 85.1116 52.1381 85.0791C52.1688 85.0688 52.2398 85.0467 52.3353 85.0366C52.409 85.0288 52.6391 85.011 52.8926 85.143C53.2246 85.3157 53.3936 85.633 53.4226 85.9258C53.445 86.1515 53.3831 86.3208 53.3618 86.3758C53.3138 86.4995 53.2524 86.5774 53.2518 86.5782C53.2384 86.5961 53.232 86.6026 53.2398 86.5939C53.2545 86.5775 53.2886 86.5417 53.3502 86.4821L51.9601 85.0443C51.8828 85.119 51.8106 85.1919 51.7505 85.259C51.7208 85.2921 51.6848 85.334 51.6496 85.3811C51.6272 85.4112 51.5517 85.512 51.4972 85.6525C51.4726 85.7159 51.4094 85.8921 51.4323 86.1231C51.4619 86.4211 51.6333 86.7422 51.9695 86.9172C52.2273 87.0513 52.4635 87.0342 52.5452 87.0256C52.6487 87.0146 52.7295 86.9901 52.7718 86.976C52.9159 86.9279 53.0415 86.8508 53.0915 86.82L52.0452 85.1156ZM53.3638 86.4687C54.1436 85.6855 55.123 84.6239 55.7928 83.7971L54.2387 82.5381C53.6241 83.2968 52.6942 84.3066 51.9464 85.0577L53.3638 86.4687ZM55.7911 83.7991C55.9439 83.6115 56.0618 83.4712 56.1524 83.369C56.1974 83.3183 56.2322 83.2808 56.2584 83.254C56.2859 83.2259 56.2964 83.2172 56.2934 83.2197C56.2913 83.2215 56.2812 83.2299 56.264 83.2419C56.2478 83.2532 56.2159 83.2743 56.1706 83.2968C56.1127 83.3255 55.8526 83.449 55.5111 83.3547C55.0996 83.241 54.9222 82.9211 54.8639 82.7582C54.8125 82.6144 54.8142 82.5024 54.8142 82.4899H56.8142C56.8142 82.4198 56.8105 82.2619 56.7471 82.0847C56.6769 81.8885 56.4811 81.5477 56.0436 81.4269C55.676 81.3254 55.3823 81.4553 55.2821 81.505C55.158 81.5665 55.0624 81.6416 55.0053 81.6897C54.7974 81.8647 54.5363 82.1728 54.2404 82.536L55.7911 83.7991Z" fill="white" mask="url(#path-16-inside-5_22_11378)"/>
<mask id="path-18-inside-6_22_11378" fill="white">
<path d="M52.3428 86.2619C52.3428 86.2875 52.1171 86.5048 51.822 86.735C51.5443 86.9779 51.3013 87.2081 51.3013 87.2592C51.3013 87.3232 51.2319 87.3615 51.1277 87.3615C50.9368 87.3615 52.013 86.2363 52.2039 86.2235C52.2907 86.2107 52.3428 86.2363 52.3428 86.2619Z"/>
</mask>
<path d="M52.3428 86.2619C52.3428 86.2875 52.1171 86.5048 51.822 86.735C51.5443 86.9779 51.3013 87.2081 51.3013 87.2592C51.3013 87.3232 51.2319 87.3615 51.1277 87.3615C50.9368 87.3615 52.013 86.2363 52.2039 86.2235C52.2907 86.2107 52.3428 86.2363 52.3428 86.2619Z" fill="black"/>
<path d="M51.822 86.735L51.207 85.9465L51.1848 85.9638L51.1636 85.9823L51.822 86.735ZM52.2039 86.2235L52.2707 87.2213L52.3104 87.2186L52.3497 87.2129L52.2039 86.2235ZM51.3428 86.2619C51.3428 86.1728 51.3547 86.0988 51.3665 86.0461C51.3784 85.9923 51.393 85.948 51.4052 85.9152C51.4289 85.8518 51.4543 85.8039 51.4695 85.777C51.4996 85.7237 51.5275 85.6866 51.5375 85.6735C51.5505 85.6565 51.5604 85.6449 51.5647 85.64C51.5695 85.6345 51.5723 85.6315 51.5723 85.6315C51.5725 85.6313 51.5712 85.6326 51.5682 85.6356C51.5653 85.6386 51.5613 85.6426 51.5561 85.6477C51.5455 85.6581 51.5315 85.6715 51.514 85.6877C51.4422 85.7541 51.3335 85.8478 51.207 85.9465L52.4371 87.5235C52.6057 87.392 52.7573 87.262 52.8721 87.1558C52.9281 87.104 52.9848 87.0491 53.0335 86.997C53.0558 86.9732 53.0915 86.934 53.1275 86.8868C53.1442 86.8648 53.1773 86.8202 53.2108 86.7608C53.2167 86.7503 53.3428 86.5473 53.3428 86.2619H51.3428ZM51.1636 85.9823C51.019 86.1088 50.8714 86.2424 50.7548 86.3576C50.6988 86.4129 50.6331 86.4805 50.5752 86.55C50.5478 86.5829 50.5036 86.6381 50.461 86.7074C50.4395 86.7421 50.4071 86.7987 50.3775 86.8717C50.3521 86.9343 50.3013 87.0744 50.3013 87.2592H52.3013C52.3013 87.3543 52.2876 87.4328 52.2742 87.4882C52.2606 87.5446 52.2442 87.5905 52.2308 87.6235C52.2049 87.6873 52.1779 87.7335 52.1636 87.7566C52.1354 87.8025 52.1124 87.8295 52.112 87.8299C52.1084 87.8342 52.1208 87.8195 52.1603 87.7805C52.2346 87.7071 52.3473 87.6041 52.4805 87.4877L51.1636 85.9823ZM50.3013 87.2592C50.3013 87.0849 50.3514 86.9104 50.449 86.7593C50.5426 86.6145 50.6587 86.5232 50.7527 86.4689C50.9272 86.3679 51.0768 86.3615 51.1277 86.3615V88.3615C51.2828 88.3615 51.5193 88.336 51.7545 88.1998C52.0232 88.0444 52.3013 87.7228 52.3013 87.2592H50.3013ZM51.1277 86.3615C51.2345 86.3615 51.4258 86.3798 51.6271 86.5003C51.8512 86.6344 51.9954 86.8403 52.0613 87.0524C52.1193 87.2392 52.1071 87.3963 52.0953 87.4772C52.0828 87.5638 52.0609 87.629 52.0479 87.6637C52.0078 87.7709 51.9625 87.8213 51.9967 87.7745C52.0364 87.7199 52.1251 87.6149 52.2473 87.4865C52.3654 87.3622 52.4874 87.2449 52.5804 87.1649C52.6027 87.1458 52.6209 87.1308 52.635 87.1197C52.6497 87.1082 52.6561 87.1038 52.655 87.1046C52.6542 87.1051 52.6494 87.1084 52.6411 87.1133C52.6331 87.1181 52.6181 87.1268 52.5969 87.1371C52.578 87.1463 52.4536 87.2091 52.2707 87.2213L52.1371 85.2258C51.9303 85.2396 51.7752 85.3126 51.7196 85.3398C51.6443 85.3765 51.5807 85.4167 51.535 85.4476C51.4425 85.5102 51.3528 85.5828 51.2763 85.6485C51.1198 85.7831 50.9489 85.9496 50.798 86.1082C50.6511 86.2627 50.4946 86.4398 50.3803 86.5965C50.3374 86.6554 50.238 86.7939 50.1748 86.9626C50.1578 87.0081 50.043 87.2966 50.1512 87.6454C50.2197 87.8658 50.3687 88.078 50.5999 88.2163C50.8083 88.3411 51.0091 88.3615 51.1277 88.3615V86.3615ZM52.3497 87.2129C52.2808 87.223 52.1501 87.2307 51.9884 87.1766C51.9099 87.1503 51.7805 87.0947 51.6527 86.976C51.5245 86.857 51.3428 86.6157 51.3428 86.2619H53.3428C53.3428 85.8953 53.1545 85.6413 53.0138 85.5106C52.8736 85.3804 52.7257 85.3143 52.6234 85.2801C52.4139 85.2099 52.2138 85.2113 52.0582 85.2342L52.3497 87.2129Z" fill="white" mask="url(#path-18-inside-6_22_11378)"/>
<mask id="path-20-inside-7_22_11378" fill="white">
<path d="M50.1383 88.3205C49.6523 88.8192 45.1047 92.0669 44.6707 92.2204C44.4451 92.3099 44.7401 92.0669 45.3129 91.6961C47.1876 90.4686 48.8886 89.2283 49.5308 88.6146C50.173 87.9881 50.7111 87.7323 50.1383 88.3205Z"/>
</mask>
<path d="M50.1383 88.3205C49.6523 88.8192 45.1047 92.0669 44.6707 92.2204C44.4451 92.3099 44.7401 92.0669 45.3129 91.6961C47.1876 90.4686 48.8886 89.2283 49.5308 88.6146C50.173 87.9881 50.7111 87.7323 50.1383 88.3205Z" fill="black"/>
<path d="M50.1383 88.3205L50.8545 89.0185L50.8547 89.0182L50.1383 88.3205ZM44.6707 92.2204L44.3374 91.2776L44.3196 91.2839L44.302 91.2908L44.6707 92.2204ZM45.3129 91.6961L45.8564 92.5356L45.8608 92.5327L45.3129 91.6961ZM49.5308 88.6146L50.2218 89.3376L50.2291 89.3304L49.5308 88.6146ZM49.4222 87.6225C49.4248 87.6199 49.4068 87.6378 49.3531 87.6836C49.3041 87.7253 49.2393 87.7785 49.1585 87.8429C48.997 87.9716 48.786 88.1337 48.5391 88.3193C48.046 88.69 47.4254 89.1425 46.8041 89.5859C46.1826 90.0295 45.5659 90.46 45.0806 90.7874C44.8372 90.9515 44.6326 91.0858 44.4796 91.1816C44.4026 91.2299 44.3454 91.2641 44.3066 91.286C44.249 91.3185 44.2735 91.3001 44.3374 91.2776L45.0041 93.1632C45.1222 93.1214 45.2331 93.0597 45.29 93.0275C45.3657 92.9848 45.4512 92.933 45.541 92.8767C45.7217 92.7636 45.9474 92.6151 46.1989 92.4454C46.7036 92.1051 47.3355 91.6637 47.9659 91.2139C48.5965 90.7638 49.2311 90.3013 49.7409 89.918C50.215 89.5616 50.6662 89.2117 50.8545 89.0185L49.4222 87.6225ZM44.302 91.2908C44.3046 91.2898 44.3203 91.2835 44.3455 91.276C44.3633 91.2706 44.4263 91.2518 44.5139 91.2434C44.5374 91.2411 44.8639 91.1972 45.1807 91.425C45.3818 91.5694 45.5238 91.7856 45.5745 92.0327C45.6191 92.2503 45.5802 92.4272 45.5517 92.5205C45.4988 92.6938 45.4109 92.8048 45.3951 92.8252C45.365 92.8641 45.34 92.8895 45.3317 92.8978C45.3142 92.9154 45.3083 92.919 45.3258 92.9047C45.3987 92.8451 45.5778 92.7159 45.8564 92.5356L44.7695 90.8567C44.4753 91.0471 44.2205 91.2249 44.059 91.357C44.018 91.3906 43.966 91.435 43.9157 91.4854C43.8911 91.5101 43.8531 91.5499 43.8135 91.6011C43.7883 91.6337 43.6943 91.7549 43.6389 91.9362C43.6092 92.0335 43.57 92.2139 43.6152 92.4343C43.6664 92.6843 43.81 92.9028 44.0135 93.049C44.3352 93.2802 44.6703 93.2376 44.7062 93.2341C44.8724 93.218 45.0081 93.1623 45.0394 93.1499L44.302 91.2908ZM45.8608 92.5327C47.731 91.3081 49.5048 90.0227 50.2217 89.3375L48.8399 87.8916C48.2724 88.434 46.6441 89.6292 44.7651 90.8595L45.8608 92.5327ZM50.2291 89.3304C50.5313 89.0356 50.7315 88.9094 50.7229 88.9136C50.7124 88.9186 50.6734 88.9371 50.6142 88.9542C50.5808 88.9638 50.4102 89.0144 50.1868 88.9735C50.0592 88.9501 49.8792 88.89 49.7122 88.7417C49.5373 88.5864 49.442 88.3923 49.4033 88.2138C49.3385 87.9151 49.4348 87.6882 49.4501 87.6508C49.4988 87.5322 49.5551 87.4731 49.5253 87.51C49.5126 87.5257 49.4811 87.562 49.4219 87.6228L50.8547 89.0182C50.9387 88.9319 51.0158 88.8475 51.0808 88.7671C51.1287 88.7079 51.2319 88.5772 51.3006 88.4096C51.326 88.3478 51.4256 88.1021 51.3579 87.79C51.3177 87.6048 51.2194 87.4054 51.04 87.2461C50.8685 87.0938 50.6825 87.031 50.5475 87.0063C50.3093 86.9626 50.1182 87.0157 50.0589 87.0328C49.9739 87.0574 49.9038 87.0883 49.8575 87.1105C49.5625 87.2521 49.1725 87.5671 48.8325 87.8988L50.2291 89.3304Z" fill="white" mask="url(#path-20-inside-7_22_11378)"/>
<mask id="path-22-inside-8_22_11378" fill="white">
<path d="M44.1848 92.5272C44.1848 92.6423 39.2553 95.2891 39.0296 95.2891C38.9776 95.2891 38.7693 95.3786 38.5957 95.5065C38.4221 95.6215 38.2485 95.6855 38.1965 95.6471C38.1618 95.6215 38.9602 95.1868 39.9843 94.6881C41.0084 94.1895 42.3276 93.499 42.9004 93.1282C43.8724 92.54 44.1848 92.3866 44.1848 92.5272Z"/>
</mask>
<path d="M44.1848 92.5272C44.1848 92.6423 39.2553 95.2891 39.0296 95.2891C38.9776 95.2891 38.7693 95.3786 38.5957 95.5065C38.4221 95.6215 38.2485 95.6855 38.1965 95.6471C38.1618 95.6215 38.9602 95.1868 39.9843 94.6881C41.0084 94.1895 42.3276 93.499 42.9004 93.1282C43.8724 92.54 44.1848 92.3866 44.1848 92.5272Z" fill="black"/>
<path d="M38.5957 95.5065L39.1483 96.3399L39.1689 96.3263L39.1888 96.3116L38.5957 95.5065ZM42.9004 93.1282L42.3827 92.2726L42.3697 92.2805L42.3569 92.2887L42.9004 93.1282ZM43.1848 92.5272C43.1848 92.3159 43.2518 92.1593 43.2878 92.0865C43.3278 92.0058 43.3705 91.9477 43.3951 91.9164C43.4439 91.8543 43.4884 91.814 43.5025 91.8013C43.5354 91.7717 43.5578 91.7566 43.55 91.7622C43.5409 91.7686 43.5101 91.7893 43.4477 91.8277C43.3281 91.9015 43.1471 92.0073 42.9174 92.1376C42.4611 92.3966 41.8454 92.7342 41.2192 93.0701C40.593 93.4059 39.9632 93.7363 39.4788 93.9815C39.2354 94.1047 39.036 94.2026 38.8949 94.2681C38.8228 94.3015 38.7771 94.3214 38.7531 94.331C38.7401 94.3362 38.7461 94.3333 38.7644 94.3275C38.7736 94.3246 38.7966 94.3176 38.8288 94.3105C38.8516 94.3055 38.9279 94.2891 39.0296 94.2891V96.2891C39.2069 96.2891 39.3511 96.2396 39.3641 96.2355C39.4143 96.2197 39.4608 96.2019 39.4963 96.1877C39.5694 96.1585 39.6526 96.1213 39.737 96.0822C39.9086 96.0025 40.1314 95.8927 40.3819 95.766C40.8852 95.5113 41.5301 95.1728 42.1645 94.8326C42.7988 94.4924 43.4296 94.1466 43.9047 93.877C44.1407 93.743 44.3466 93.6231 44.4974 93.5301C44.5703 93.4852 44.6455 93.4372 44.7088 93.3922C44.7371 93.3721 44.7872 93.3356 44.8389 93.2893C44.8623 93.2682 44.9138 93.2207 44.9673 93.1525C44.9944 93.1182 45.0388 93.0574 45.08 92.9742C45.1173 92.899 45.1848 92.7404 45.1848 92.5272H43.1848ZM39.0296 94.2891C38.8276 94.2891 38.6593 94.3523 38.6327 94.3616C38.5615 94.3867 38.4913 94.4169 38.4271 94.4475C38.2997 94.5084 38.1483 94.594 38.0026 94.7013L39.1888 96.3116C39.201 96.3026 39.2175 96.2917 39.2371 96.2801C39.2567 96.2686 39.275 96.259 39.2894 96.2521C39.3055 96.2444 39.308 96.2442 39.2958 96.2485C39.2901 96.2505 39.2707 96.2572 39.2409 96.2645C39.2257 96.2682 39.2018 96.2736 39.1713 96.2783C39.1433 96.2827 39.0933 96.2891 39.0296 96.2891V94.2891ZM38.0431 94.673C38.0056 94.6979 37.9915 94.7007 38.0142 94.6926C38.0224 94.6897 38.0776 94.6696 38.1657 94.6616C38.2112 94.6575 38.2898 94.6542 38.3878 94.6707C38.485 94.6871 38.6364 94.7291 38.7896 94.842L37.6034 96.4522C37.917 96.6833 38.2466 96.6625 38.3472 96.6534C38.4878 96.6406 38.6071 96.6046 38.6869 96.5761C38.8528 96.5168 39.0122 96.4301 39.1483 96.3399L38.0431 94.673ZM38.7896 94.842C38.9625 94.9694 39.1113 95.1668 39.1699 95.4209C39.2234 95.6528 39.1819 95.8458 39.1453 95.9569C39.0798 96.1553 38.968 96.2784 38.9467 96.3023C38.9071 96.3468 38.8727 96.3769 38.8578 96.3897C38.8401 96.4048 38.8263 96.4153 38.8195 96.4204C38.8 96.435 38.7986 96.4342 38.8358 96.4116C38.9 96.3726 39.0111 96.3097 39.1677 96.2253C39.4764 96.059 39.9194 95.832 40.4221 95.5872L39.5465 93.7891C39.0251 94.043 38.5569 94.2826 38.2189 94.4647C38.0522 94.5546 37.9062 94.6363 37.7986 94.7016C37.7498 94.7312 37.6837 94.7724 37.6232 94.8176C37.6034 94.8324 37.5276 94.8885 37.4525 94.9729C37.427 95.0016 37.3125 95.1285 37.246 95.3302C37.2088 95.4429 37.1673 95.6373 37.221 95.8703C37.2799 96.1256 37.4294 96.324 37.6034 96.4522L38.7896 94.842ZM40.4221 95.5872C41.4457 95.0888 42.8145 94.375 43.4438 93.9676L42.3569 92.2887C41.8406 92.623 40.5711 93.2901 39.5465 93.7891L40.4221 95.5872ZM43.4181 93.9837C43.913 93.6842 44.1895 93.527 44.3342 93.4586C44.3662 93.4435 44.375 93.4408 44.3668 93.4437C44.362 93.4454 44.3469 93.4506 44.3236 93.4564C44.3015 93.4619 44.2605 93.4708 44.2058 93.4755C44.127 93.4822 43.8371 93.4967 43.5558 93.2781C43.2343 93.0282 43.1848 92.6861 43.1848 92.5272H45.1848C45.1848 92.3332 45.1256 91.9651 44.7832 91.699C44.481 91.4641 44.1591 91.4722 44.0358 91.4827C43.7924 91.5035 43.576 91.6049 43.4799 91.6502C43.2255 91.7704 42.8597 91.984 42.3827 92.2726L43.4181 93.9837Z" fill="white" mask="url(#path-22-inside-8_22_11378)"/>
<path d="M26.4502 94.2781L26.4502 94.2781L26.4524 94.2783C26.7412 94.3044 27.0441 94.3487 27.3627 94.4116C26.9837 94.3716 26.6127 94.3544 26.2198 94.3544C25.2829 94.3544 24.733 94.4344 24.1377 94.6537L24.1377 94.6536L24.1302 94.6565C23.778 94.7927 23.3634 95.0268 22.9818 95.2824C23.2422 94.8897 23.583 94.5919 23.9404 94.4493L23.9415 94.4488C24.1582 94.3617 24.5157 94.2902 24.9741 94.2566C25.4238 94.2236 25.9381 94.2294 26.4502 94.2781Z" fill="black" stroke="white"/>
<path d="M36.5301 96.3862C36.5149 96.3604 36.5014 96.3319 36.4904 96.3006C36.5057 96.3265 36.5192 96.355 36.5301 96.3862Z" fill="black" stroke="white"/>
<mask id="path-26-inside-9_22_11378" fill="white">
<path d="M35.1589 96.9513C34.8291 97.092 34.4646 97.1943 34.3778 97.1943C34.2737 97.1943 34.482 97.092 34.8118 96.9513C35.1416 96.8107 35.4887 96.7084 35.5929 96.7084C35.6797 96.7084 35.4887 96.8107 35.1589 96.9513Z"/>
</mask>
<path d="M35.1589 96.9513C34.8291 97.092 34.4646 97.1943 34.3778 97.1943C34.2737 97.1943 34.482 97.092 34.8118 96.9513C35.1416 96.8107 35.4887 96.7084 35.5929 96.7084C35.6797 96.7084 35.4887 96.8107 35.1589 96.9513Z" fill="black"/>
<path d="M34.7666 96.0315C34.6399 96.0855 34.5015 96.1341 34.3887 96.1681C34.3325 96.185 34.291 96.1958 34.2671 96.2013C34.2549 96.2041 34.2542 96.2039 34.2625 96.2025C34.2669 96.2018 34.2778 96.2001 34.2936 96.1985C34.3076 96.197 34.3377 96.1943 34.3778 96.1943V98.1943C34.5257 98.1943 34.6655 98.1618 34.7131 98.1509C34.7923 98.1328 34.8789 98.1092 34.9658 98.083C35.1395 98.0307 35.3482 97.9578 35.5512 97.8712L34.7666 96.0315ZM34.3778 96.1943C34.4052 96.1943 34.4684 96.1954 34.549 96.2107C34.6069 96.2218 34.8057 96.2625 34.9993 96.4265C35.1089 96.5192 35.2215 96.6562 35.2898 96.8422C35.3585 97.029 35.3617 97.209 35.336 97.3559C35.2908 97.6151 35.1564 97.7777 35.1168 97.8243C35.0617 97.889 35.0111 97.9309 34.9887 97.9487C34.9623 97.9696 34.9413 97.9839 34.9306 97.9908C34.9099 98.0044 34.8988 98.01 34.9056 98.0064C34.9414 97.9871 35.0375 97.9422 35.2041 97.8712L34.4195 96.0315C34.2562 96.1011 34.0834 96.1777 33.9586 96.2447C33.9252 96.2627 33.8808 96.2876 33.8342 96.3181C33.8087 96.3349 33.6971 96.4067 33.5939 96.5279C33.5492 96.5803 33.4119 96.7483 33.3659 97.0119C33.3032 97.3706 33.4393 97.7262 33.7068 97.9527C33.904 98.1197 34.1087 98.1628 34.1749 98.1754C34.2637 98.1924 34.3375 98.1943 34.3778 98.1943V96.1943ZM35.2041 97.8712C35.3359 97.8149 35.4718 97.7663 35.5795 97.7334C35.6336 97.7168 35.6718 97.7069 35.693 97.7021C35.7035 97.6998 35.7031 97.7002 35.694 97.7016C35.6904 97.7021 35.6514 97.7084 35.5929 97.7084V95.7084C35.4482 95.7084 35.3147 95.7372 35.2536 95.751C35.17 95.7698 35.0813 95.7943 34.9943 95.8209C34.82 95.8742 34.6174 95.9471 34.4195 96.0315L35.2041 97.8712ZM35.5929 97.7084C35.5593 97.7084 35.4772 97.7069 35.3741 97.6823C35.2967 97.6639 35.0355 97.5941 34.8297 97.3352C34.566 97.0033 34.5878 96.6248 34.6681 96.3922C34.7333 96.2037 34.8383 96.0862 34.8722 96.0494C34.9511 95.9637 35.0244 95.9172 35.0274 95.9152C35.0453 95.9033 35.0546 95.8985 35.0485 95.9018C35.0168 95.9194 34.9251 95.9639 34.7666 96.0315L35.5512 97.8712C35.7225 97.7981 35.8912 97.7212 36.0157 97.6524C36.0487 97.6342 36.0905 97.61 36.1339 97.5812C36.1624 97.5622 36.2541 97.5013 36.3439 97.4038C36.3832 97.361 36.4918 97.2383 36.5585 97.0453C36.6404 96.8082 36.6618 96.4259 36.3956 96.0909C36.1874 95.8289 35.9217 95.7568 35.8377 95.7368C35.7281 95.7107 35.6373 95.7084 35.5929 95.7084V97.7084Z" fill="white" mask="url(#path-26-inside-9_22_11378)"/>
<mask id="path-28-inside-10_22_11378" fill="white">
<path d="M33.7703 97.4116C33.7703 97.5139 32.6941 97.8592 32.5205 97.8208C32.4164 97.7952 32.6594 97.6802 33.0586 97.5651C33.4405 97.45 33.7703 97.3733 33.7703 97.4116Z"/>
</mask>
<path d="M33.7703 97.4116C33.7703 97.5139 32.6941 97.8592 32.5205 97.8208C32.4164 97.7952 32.6594 97.6802 33.0586 97.5651C33.4405 97.45 33.7703 97.3733 33.7703 97.4116Z" fill="black"/>
<path d="M32.5205 97.8208L32.2821 98.792L32.2934 98.7947L32.3047 98.7972L32.5205 97.8208ZM33.0586 97.5651L33.3356 98.526L33.3471 98.5225L33.0586 97.5651ZM32.7703 97.4116C32.7703 97.1949 32.8408 97.0297 32.8943 96.934C32.9481 96.8377 33.0067 96.7718 33.0417 96.7359C33.1095 96.6663 33.169 96.6279 33.1825 96.6192C33.2163 96.5975 33.2275 96.595 33.1925 96.6107C33.1328 96.6372 33.029 96.6765 32.902 96.7178C32.7772 96.7582 32.656 96.7921 32.5667 96.8125C32.5454 96.8173 32.5282 96.8209 32.515 96.8234C32.5013 96.826 32.4952 96.8268 32.4955 96.8267C32.4959 96.8267 32.4994 96.8262 32.5056 96.8257C32.5116 96.8252 32.5226 96.8244 32.5375 96.824C32.5556 96.8235 32.6332 96.8216 32.7363 96.8444L32.3047 98.7972C32.5133 98.8433 32.7043 98.8164 32.7526 98.8101C32.8419 98.7986 32.9319 98.7805 33.0113 98.7624C33.1727 98.7256 33.353 98.674 33.519 98.6202C33.6827 98.5671 33.8588 98.5033 34.0063 98.4376C34.0749 98.407 34.1716 98.3611 34.2648 98.3011C34.3081 98.2732 34.3909 98.217 34.4746 98.1312C34.5216 98.0829 34.7703 97.8292 34.7703 97.4116H32.7703ZM32.759 96.8497C32.8077 96.8616 32.9046 96.8894 33.0145 96.9545C33.1246 97.0197 33.3046 97.157 33.4137 97.4068C33.6626 97.9764 33.2957 98.4014 33.2522 98.4503C33.1631 98.5506 33.078 98.6019 33.0662 98.6092C33.0406 98.625 33.0258 98.6317 33.0297 98.6299C33.0557 98.6175 33.1566 98.5775 33.3356 98.526L32.7816 96.6042C32.5614 96.6677 32.3412 96.7428 32.1719 96.8231C32.127 96.8445 32.0712 96.8729 32.0132 96.9088C31.9692 96.9361 31.8603 97.0057 31.7569 97.1222C31.699 97.1873 31.327 97.6263 31.581 98.2076C31.6927 98.4632 31.8777 98.6057 31.9955 98.6755C32.1131 98.7451 32.2203 98.7768 32.2821 98.792L32.759 96.8497ZM33.3471 98.5225C33.5251 98.4689 33.6769 98.4286 33.7734 98.4073C33.8284 98.3951 33.8343 98.3961 33.8098 98.3985C33.8008 98.3994 33.7818 98.401 33.7557 98.4015C33.7331 98.4019 33.6831 98.402 33.6185 98.3931C33.5722 98.3867 33.4181 98.3638 33.249 98.2615C33.1557 98.205 33.0321 98.1089 32.9313 97.954C32.8245 97.79 32.7703 97.601 32.7703 97.4116H34.7703C34.7703 96.9673 34.4979 96.6795 34.2839 96.5501C34.1098 96.4448 33.9482 96.4197 33.8922 96.4119C33.7621 96.3939 33.6523 96.4044 33.6157 96.408C33.5175 96.4176 33.4171 96.4378 33.3418 96.4544C33.178 96.4906 32.974 96.5462 32.7701 96.6076L33.3471 98.5225Z" fill="white" mask="url(#path-28-inside-10_22_11378)"/>
<mask id="path-30-inside-11_22_11378" fill="white">
<path d="M31.3227 98.2683C29.882 98.7798 27.3652 99.5086 27.1048 99.4958C27.0007 99.4958 27.2958 99.3808 27.7818 99.2401C28.2504 99.0994 29.3787 98.7542 30.2465 98.4729C31.9649 97.9359 32.6419 97.808 31.3227 98.2683Z"/>
</mask>
<path d="M31.3227 98.2683C29.882 98.7798 27.3652 99.5086 27.1048 99.4958C27.0007 99.4958 27.2958 99.3808 27.7818 99.2401C28.2504 99.0994 29.3787 98.7542 30.2465 98.4729C31.9649 97.9359 32.6419 97.808 31.3227 98.2683Z" fill="black"/>
<path d="M31.3227 98.2683L30.9932 97.3241L30.9881 97.326L31.3227 98.2683ZM27.1048 99.4958L27.1539 98.497L27.1294 98.4958H27.1048V99.4958ZM27.7818 99.2401L28.0598 100.201L28.0692 100.198L27.7818 99.2401ZM30.2465 98.4729L29.9482 97.5184L29.9382 97.5216L30.2465 98.4729ZM30.9881 97.326C30.2924 97.573 29.323 97.877 28.4922 98.1184C28.0775 98.2388 27.7057 98.3412 27.4263 98.4118C27.2855 98.4473 27.1768 98.4726 27.1018 98.4879C26.9759 98.5136 27.0372 98.4913 27.1539 98.497L27.0558 100.495C27.2376 100.504 27.4344 100.461 27.5017 100.448C27.6197 100.423 27.7617 100.39 27.916 100.351C28.2267 100.272 28.623 100.163 29.0501 100.039C29.903 99.7912 30.9123 99.4752 31.6573 99.2107L30.9881 97.326ZM27.1048 98.4958C27.1271 98.4958 27.2199 98.4957 27.337 98.5255C27.3955 98.5404 27.5133 98.5758 27.6414 98.6613C27.7777 98.7524 27.9664 98.9304 28.0477 99.2233C28.1284 99.5143 28.0593 99.7613 27.993 99.9054C27.9302 100.042 27.8509 100.132 27.8099 100.175C27.7279 100.261 27.6506 100.31 27.6314 100.322C27.5565 100.369 27.5096 100.381 27.5784 100.355C27.6633 100.323 27.8291 100.267 28.0598 100.201L27.5038 98.2795C27.2484 98.3534 27.0237 98.4261 26.8656 98.4864C26.8129 98.5065 26.6813 98.5564 26.5653 98.6296C26.5357 98.6482 26.4509 98.7025 26.3641 98.7933C26.3207 98.8387 26.2397 98.9312 26.1759 99.0701C26.1086 99.2163 26.0393 99.4652 26.1205 99.758C26.2807 100.335 26.8126 100.456 26.8429 100.464C26.9668 100.495 27.0695 100.496 27.1048 100.496V98.4958ZM28.0692 100.198C28.5417 100.056 29.6775 99.7086 30.5549 99.4242L29.9382 97.5216C29.0798 97.7999 27.9592 98.1428 27.4943 98.2823L28.0692 100.198ZM30.5448 99.4274C31.4154 99.1553 31.9578 99.008 32.11 98.9791C32.126 98.9761 32.1069 98.9805 32.0696 98.9836C32.0546 98.9848 31.9986 98.9893 31.924 98.9832C31.887 98.9801 31.8148 98.9722 31.7269 98.9461C31.6528 98.924 31.4706 98.8616 31.3024 98.6907C31.0933 98.4784 30.9841 98.1759 31.0239 97.8648C31.056 97.6142 31.1732 97.4478 31.2234 97.3829C31.3251 97.2514 31.4351 97.1809 31.448 97.1723C31.5047 97.1344 31.5457 97.117 31.5304 97.1241C31.4876 97.1441 31.329 97.207 30.9932 97.3242L31.6522 99.2125C31.976 99.0995 32.2274 99.0058 32.375 98.937C32.4073 98.922 32.4822 98.8866 32.5595 98.835C32.5827 98.8195 32.6997 98.7432 32.8052 98.6068C32.8572 98.5395 32.9755 98.3709 33.0078 98.1185C33.0478 97.8055 32.9381 97.5014 32.7276 97.2876C32.5581 97.1154 32.3737 97.0518 32.2966 97.0289C32.2057 97.0019 32.1298 96.9933 32.0883 96.9899C32.0046 96.983 31.9364 96.9878 31.9061 96.9903C31.8382 96.9958 31.7762 97.0068 31.7374 97.0141C31.4513 97.0684 30.7961 97.2535 29.9482 97.5184L30.5448 99.4274Z" fill="white" mask="url(#path-30-inside-11_22_11378)"/>
<mask id="path-32-inside-12_22_11378" fill="white">
<path d="M26.6536 99.5725C26.6536 99.662 25.3865 100.033 25.2302 99.9945C25.1435 99.9689 25.4212 99.8538 25.8725 99.7388C26.3064 99.6237 26.6536 99.547 26.6536 99.5725Z"/>
</mask>
<path d="M26.6536 99.5725C26.6536 99.662 25.3865 100.033 25.2302 99.9945C25.1435 99.9689 25.4212 99.8538 25.8725 99.7388C26.3064 99.6237 26.6536 99.547 26.6536 99.5725Z" fill="black"/>
<path d="M25.2302 99.9945L24.9476 100.954L24.9696 100.96L24.9918 100.966L25.2302 99.9945ZM25.8725 99.7388L26.1196 100.708L26.1288 100.705L25.8725 99.7388ZM25.6536 99.5725C25.6536 99.2825 25.7779 99.0812 25.8393 98.9962C25.9064 98.9033 25.9741 98.8446 26.0061 98.8184C26.0712 98.7652 26.1239 98.7379 26.1284 98.7355C26.1471 98.7255 26.1414 98.7301 26.0933 98.7486C26.0068 98.782 25.8717 98.8269 25.7178 98.8722C25.5655 98.9171 25.4164 98.9561 25.305 98.9804C25.2478 98.9929 25.215 98.9984 25.2035 98.9999C25.1973 99.0007 25.2105 98.9986 25.2367 98.9977C25.2503 98.9972 25.2754 98.9967 25.3082 98.9987C25.338 99.0005 25.3961 99.0055 25.4687 99.0233L24.9918 100.966C25.1381 101.002 25.2633 100.998 25.3073 100.996C25.3692 100.994 25.4256 100.988 25.469 100.982C25.5567 100.97 25.6486 100.953 25.7321 100.934C25.9023 100.897 26.0992 100.845 26.2831 100.791C26.4655 100.737 26.657 100.675 26.8129 100.615C26.8861 100.586 26.9806 100.548 27.0692 100.5C27.1087 100.479 27.1887 100.435 27.2725 100.366C27.3138 100.333 27.3886 100.267 27.4605 100.167C27.5268 100.076 27.6536 99.8682 27.6536 99.5725H25.6536ZM25.5129 99.0353C25.5724 99.0528 25.7226 99.1024 25.8735 99.2333C26.0544 99.3902 26.2242 99.6602 26.214 100.01C26.2054 100.305 26.0711 100.503 26.0104 100.582C25.942 100.671 25.8744 100.726 25.8431 100.75C25.7433 100.828 25.6669 100.85 25.7234 100.828C25.7803 100.805 25.9149 100.76 26.1196 100.708L25.6254 98.7698C25.3787 98.8327 25.1488 98.9029 24.9757 98.9727C24.9173 98.9963 24.7595 99.0598 24.618 99.1695C24.5762 99.2019 24.5006 99.2648 24.4268 99.3605C24.3607 99.4462 24.2236 99.6514 24.2148 99.9518C24.2045 100.307 24.3768 100.583 24.5629 100.744C24.719 100.879 24.8772 100.933 24.9476 100.954L25.5129 99.0353ZM26.1288 100.705C26.3379 100.65 26.5165 100.606 26.6363 100.581C26.6654 100.574 26.6886 100.57 26.706 100.566C26.7246 100.563 26.731 100.562 26.7284 100.562C26.7269 100.562 26.7186 100.564 26.7054 100.565C26.6946 100.566 26.6654 100.568 26.6257 100.568C26.6053 100.567 26.4931 100.567 26.3555 100.525C26.2876 100.504 26.1351 100.45 25.9847 100.315C25.8067 100.155 25.6536 99.8969 25.6536 99.5725H27.6536C27.6536 99.2466 27.4998 98.9871 27.3204 98.8262C27.1686 98.69 27.0142 98.6349 26.9436 98.6131C26.8007 98.5692 26.6807 98.5681 26.6499 98.5677C26.5625 98.5666 26.4871 98.5766 26.4566 98.5808C26.3789 98.5915 26.2923 98.6087 26.2152 98.6253C26.0529 98.6603 25.841 98.7126 25.6161 98.7722L26.1288 100.705Z" fill="white" mask="url(#path-32-inside-12_22_11378)"/>
<path d="M69.2616 104.751L69.2607 104.751C68.8322 104.567 68.4183 104.401 68.0989 104.281C67.9386 104.221 67.8063 104.174 67.7098 104.143C67.6944 104.138 67.6805 104.133 67.668 104.129C67.6237 104.151 67.5654 104.182 67.4937 104.224C67.3141 104.329 67.0855 104.479 66.8514 104.645C66.3473 105.016 65.5893 105.471 65.1067 105.671C64.1272 106.105 63.3327 106.075 61.423 105.743C60.1005 105.52 58.7535 105.697 56.7349 106.447L69.2616 104.751ZM69.2616 104.751C71.969 105.901 73.2396 106.728 73.9149 107.643L73.9155 107.644M69.2616 104.751L73.9155 107.644M73.9155 107.644C74.1146 107.913 74.1935 108.058 74.2352 108.198C74.2785 108.343 74.2946 108.525 74.2861 108.895L74.286 108.898M73.9155 107.644L74.286 108.898M74.286 108.898C74.2713 109.753 74.0893 110.232 72.7467 112.415C72.2438 113.22 71.6083 114.31 71.3509 114.851C70.8899 115.775 69.9366 116.757 68.7323 117.58C67.5326 118.401 66.1334 119.031 64.8327 119.284C62.3156 119.759 59.8363 119.322 57.5973 117.99L57.5959 117.989M74.286 108.898L57.5959 117.989M57.5959 117.989C55.4877 116.744 53.832 114.8 53.2704 113.038L53.2696 113.036M57.5959 117.989L53.2696 113.036M53.2696 113.036C52.7591 111.461 53.0406 109.535 53.8906 108.36M53.2696 113.036L53.8906 108.36M53.8906 108.36C54.2708 107.855 54.5706 107.541 54.9607 107.276C55.3618 107.003 55.8829 106.764 56.7347 106.447L53.8906 108.36ZM67.5877 104.107C67.5876 104.107 67.5893 104.108 67.5931 104.108C67.5897 104.108 67.5879 104.107 67.5877 104.107Z" fill="black" stroke="white"/>
<path d="M17.2428 104.521L17.2428 104.521L17.2478 104.523C19.3947 105.4 20.8649 106.21 21.7608 106.987C22.6462 107.756 22.905 108.431 22.809 109.076L22.8086 109.079C22.7037 109.819 22.4515 110.396 21.0167 112.806L21.0159 112.808C20.3791 113.886 19.7375 115.025 19.6022 115.324L19.6021 115.324L19.598 115.334C19.5582 115.427 19.4384 115.604 19.2156 115.852C19.003 116.09 18.7271 116.359 18.4162 116.634C17.7914 117.186 17.0574 117.731 16.4651 118.059L16.4643 118.06C14.6029 119.097 13.2627 119.467 11.3617 119.467C9.10235 119.467 7.13957 118.792 5.08128 117.264L5.07972 117.263C3.0758 115.787 1.91439 113.981 1.59291 112.239C1.27403 110.512 1.77095 108.805 3.16797 107.452C3.2547 107.37 3.46118 107.235 3.84603 107.052C4.21915 106.874 4.71937 106.669 5.35407 106.435C6.50403 106.018 7.33912 105.784 8.09293 105.69C8.83806 105.597 9.52586 105.639 10.3816 105.805L10.3834 105.805C10.9976 105.921 11.7643 106.018 12.0907 106.018C12.9945 106.018 14.0719 105.535 15.2693 104.718C15.5492 104.53 15.8186 104.36 16.0241 104.238C16.0995 104.193 16.1637 104.156 16.215 104.128C16.2746 104.147 16.3498 104.173 16.438 104.205C16.6591 104.285 16.9461 104.397 17.2428 104.521ZM16.0971 104.094C16.0969 104.093 16.099 104.094 16.1038 104.095C16.0997 104.094 16.0974 104.094 16.0971 104.094Z" fill="black" stroke="white"/>
<path d="M50.0792 121.814L50.0792 121.814L50.0871 121.817C51.2614 122.25 52.2434 123.798 52.2594 125.534L52.2595 125.536C52.2677 126.134 52.1813 126.472 52.0487 126.677C51.929 126.862 51.7248 127.011 51.3042 127.115C50.8647 127.222 50.0611 127.313 49.0395 127.38C48.0288 127.446 46.8374 127.486 45.6425 127.497C44.4476 127.508 43.2542 127.49 42.2394 127.443C41.2132 127.394 40.4032 127.316 39.9557 127.215L39.9557 127.215L39.9518 127.214C39.2903 127.07 38.9087 126.886 38.7232 126.719C38.6375 126.642 38.6086 126.583 38.5982 126.545C38.5884 126.51 38.5845 126.457 38.6143 126.371C38.6818 126.178 38.9004 125.886 39.3809 125.517C39.8482 125.159 40.5115 124.767 41.3777 124.357C42.1373 124.001 44.0317 123.313 45.8406 122.707C46.7398 122.406 47.6071 122.13 48.2874 121.928C48.628 121.828 48.9175 121.747 49.1389 121.692C49.2498 121.665 49.3391 121.645 49.4068 121.632C49.4422 121.625 49.4661 121.622 49.4805 121.62C49.4841 121.621 49.4881 121.622 49.4927 121.623C49.5292 121.631 49.5804 121.645 49.6436 121.664C49.7695 121.701 49.9263 121.755 50.0792 121.814Z" fill="black" stroke="white"/>
<path d="M33.5399 126.832L33.5399 126.832L33.538 126.835C33.5098 126.874 33.4233 126.959 33.1628 127.049C32.9047 127.139 32.5244 127.218 31.9733 127.281C30.8722 127.407 29.1884 127.458 26.6536 127.458C23.1658 127.458 22.4623 127.418 21.6072 127.227C20.9179 127.073 20.5577 126.945 20.3694 126.818C20.288 126.763 20.2581 126.721 20.2435 126.692C20.2277 126.661 20.2106 126.606 20.2106 126.501C20.2106 126.26 20.4047 125.869 21.2073 125.328C21.9805 124.807 23.1863 124.235 24.8855 123.593C25.9673 123.188 27.4588 122.69 28.7394 122.292C29.3796 122.093 29.9629 121.921 30.413 121.799C30.6385 121.738 30.8264 121.69 30.9693 121.658C31.0976 121.63 31.1607 121.621 31.1786 121.619C31.1851 121.62 31.1963 121.622 31.213 121.625C31.2517 121.634 31.303 121.648 31.3646 121.668C31.4866 121.706 31.6298 121.76 31.7626 121.818C32.5541 122.177 33.2542 123.096 33.6206 124.162C33.9923 125.244 33.9525 126.267 33.5399 126.832Z" fill="black" stroke="white"/>
<g filter="url(#filter0_d_22_11378)">
<path d="M4.00366 41.0047L11.8037 29.6847L4.48366 19.0047H8.72366L13.0837 25.8047C13.2703 26.0981 13.4437 26.4181 13.6037 26.7647C13.7903 27.1114 13.937 27.3914 14.0437 27.6047C14.1237 27.3914 14.2437 27.1114 14.4037 26.7647C14.5903 26.4181 14.777 26.0981 14.9637 25.8047L19.3637 19.0047H23.5637L16.2437 29.7247L24.0037 41.0047H19.7637L15.0437 33.8047C14.857 33.5114 14.6703 33.1781 14.4837 32.8047C14.3237 32.4047 14.177 32.0847 14.0437 31.8447C13.937 32.0847 13.777 32.4047 13.5637 32.8047C13.377 33.1781 13.177 33.5114 12.9637 33.8047L8.20366 41.0047H4.00366ZM27.988 41.0047L35.788 29.6847L28.468 19.0047H32.708L37.068 25.8047C37.2547 26.0981 37.428 26.4181 37.588 26.7647C37.7747 27.1114 37.9214 27.3914 38.028 27.6047C38.108 27.3914 38.228 27.1114 38.388 26.7647C38.5747 26.4181 38.7614 26.0981 38.948 25.8047L43.348 19.0047H47.548L40.228 29.7247L47.988 41.0047H43.748L39.028 33.8047C38.8414 33.5114 38.6547 33.1781 38.468 32.8047C38.308 32.4047 38.1614 32.0847 38.028 31.8447C37.9214 32.0847 37.7614 32.4047 37.548 32.8047C37.3614 33.1781 37.1614 33.5114 36.948 33.8047L32.188 41.0047H27.988ZM51.9724 41.0047L59.7724 29.6847L52.4524 19.0047H56.6924L61.0524 25.8047C61.2391 26.0981 61.4124 26.4181 61.5724 26.7647C61.7591 27.1114 61.9057 27.3914 62.0124 27.6047C62.0924 27.3914 62.2124 27.1114 62.3724 26.7647C62.5591 26.4181 62.7457 26.0981 62.9324 25.8047L67.3324 19.0047H71.5324L64.2124 29.7247L71.9724 41.0047H67.7324L63.0124 33.8047C62.8257 33.5114 62.6391 33.1781 62.4524 32.8047C62.2924 32.4047 62.1457 32.0847 62.0124 31.8447C61.9057 32.0847 61.7457 32.4047 61.5324 32.8047C61.3457 33.1781 61.1457 33.5114 60.9324 33.8047L56.1724 41.0047H51.9724Z" fill="black"/>
</g>
<defs>
<filter id="filter0_d_22_11378" x="0.00366211" y="19.0047" width="75.9688" height="30" filterUnits="userSpaceOnUse" color-interpolation-filters="sRGB">
<feFlood flood-opacity="0" result="BackgroundImageFix"/>
<feColorMatrix in="SourceAlpha" type="matrix" values="0 0 0 0 0 0 0 0 0 0 0 0 0 0 0 0 0 0 127 0" result="hardAlpha"/>
<feOffset dy="4"/>
<feGaussianBlur stdDeviation="2"/>
<feComposite in2="hardAlpha" operator="out"/>
<feColorMatrix type="matrix" values="0 0 0 0 0 0 0 0 0 0 0 0 0 0 0 0 0 0 0.25 0"/>
<feBlend mode="normal" in2="BackgroundImageFix" result="effect1_dropShadow_22_11378"/>
<feBlend mode="normal" in="SourceGraphic" in2="effect1_dropShadow_22_11378" result="shape"/>
</filter>
</defs>
</svg>
