<svg width="75" height="77" viewBox="0 0 75 77" fill="none" xmlns="http://www.w3.org/2000/svg">
<g clip-path="url(#clip0_20_1005)">
<mask id="path-1-inside-1_20_1005" fill="white">
<path d="M47.502 0.0578098C42.2434 0.275338 40.4574 0.81916 33.4979 4.3117C32.4632 4.84344 31.5844 5.24224 31.5419 5.20599C31.5135 5.16973 31.6978 4.58966 31.9671 3.9129C32.2364 3.24823 32.3923 2.69232 32.3356 2.69232C31.9388 2.69232 25.6596 4.62591 24.6391 5.06097C22.3003 6.06402 20.3159 7.39336 18.6576 9.09733C18.1331 9.64115 17.6796 10.052 17.637 10.0279C17.6087 10.0037 17.3677 8.98857 17.0984 7.76799C16.6448 5.73772 16.5314 5.33892 16.4181 5.48394C16.2621 5.66521 12.9737 8.81938 12.265 9.45988C8.26791 13.0854 7.74346 13.6292 7.03476 14.9585C6.77962 15.4177 6.49614 16.0945 6.41109 16.445C6.19848 17.3151 6.21265 18.9707 6.45362 20.2275C6.58118 20.9164 6.60953 21.436 6.52449 21.7986C6.46779 22.0886 6.41109 22.8621 6.39692 23.5146C6.39692 24.5902 6.36857 24.699 6.15596 24.6385C5.58899 24.5056 0.131938 23.708 0.00437008 23.7443C-0.0665007 23.7684 1.06743 24.6144 2.52737 25.6174C4.00148 26.6205 5.4756 27.6598 5.81578 27.9136L6.43944 28.3849L6.19848 29.3879C5.77326 31.1886 5.64569 32.7596 5.73073 35.1403C5.8016 37.4244 5.98587 38.6087 6.55283 40.4577C7.53085 43.7085 9.40184 47.0198 11.8256 49.7631C13.0021 51.0924 15.9645 53.5698 17.6229 54.6333C19.1962 55.6243 21.946 57.002 23.3634 57.4974C23.8878 57.6908 24.4123 57.9083 24.5115 57.9808C24.7525 58.1621 25.1493 59.8782 25.6029 62.6335C25.9573 64.8572 26.0707 65.3889 26.4675 66.827C26.8786 68.3134 27.5306 69.6307 28.381 70.6821L28.7779 71.1776L27.6723 70.815L26.5526 70.4525L26.014 70.6821C24.8092 71.1897 23.9304 72.8453 23.9162 74.658C23.902 75.8544 24.1997 76.3862 25.0076 76.6158C25.9573 76.8817 28.7779 77.0508 31.2726 76.9783C33.9515 76.9058 35.0287 76.7125 35.5674 76.217C36.1627 75.649 35.8508 74.7547 34.8019 74.0175L34.32 73.6792L35.4823 73.7275C36.5595 73.7637 38.1329 73.5825 38.9125 73.3166C39.1392 73.2441 39.1534 73.2683 39.0684 73.522C38.9975 73.6792 38.955 74.1867 38.955 74.658C38.955 75.5765 39.2385 76.3258 39.6637 76.507C40.3724 76.8212 42.0308 76.9542 45.2341 76.9542C48.069 76.9542 48.6926 76.9179 49.4439 76.7246C50.5636 76.4345 50.9038 76.1807 50.9038 75.5765C50.9038 74.9843 50.4786 74.4526 49.4155 73.7275C48.5651 73.1353 45.4609 71.7335 43.8592 71.2017C43.3631 71.0446 42.9663 70.8634 42.9663 70.815C42.9663 70.7546 43.1505 70.4767 43.3915 70.1866C44.7947 68.4343 45.957 65.6064 47.1902 60.8208C47.3603 60.1924 47.6296 59.1531 47.7997 58.5247L48.0973 57.3766L49.458 56.7844C56.8144 53.6061 62.4699 47.5395 64.511 40.6873C64.9504 39.1888 65.3473 37.1464 65.3756 36.2642C65.3898 35.9742 65.4323 35.6116 65.489 35.4545L65.5741 35.1645L66.0418 35.5029C66.2828 35.6842 66.4954 35.7688 66.4954 35.6842C66.4954 35.6116 66.2119 34.5361 65.8717 33.2913C65.5174 32.0466 65.078 30.2943 64.8795 29.4C64.6811 28.5057 64.27 27.0797 63.944 26.2217C63.6322 25.3757 63.4196 24.6144 63.4763 24.5298C63.9724 23.853 66.0843 22.3062 67.0907 21.8832C67.5017 21.714 68.8625 21.3152 70.1098 21.001C71.3571 20.6989 72.8738 20.3121 73.4832 20.1429C74.0927 19.9858 74.688 19.8529 74.8014 19.8529C74.9148 19.8529 74.9999 19.8046 74.9999 19.7562C74.9999 19.6837 69.5287 17.9435 65.5315 16.7592C64.8937 16.5658 64.7945 16.4933 64.8653 16.2879C65.0921 15.6474 65.3473 14.1609 65.3614 13.4962C65.3614 11.7923 65.0213 10.7409 63.0936 6.49907L62.9235 6.13653L61.7045 7.26042L60.4714 8.39641L60.5139 6.35405C60.5564 4.62591 60.358 0.915839 60.202 0.79499C60.0745 0.686226 55.8506 1.15754 54.6883 1.42341C53.1291 1.76178 51.0455 2.41437 49.3872 3.06696C48.7351 3.32074 48.2107 3.48993 48.2107 3.46576C48.2107 3.40533 48.4942 2.83734 49.7132 0.432442C49.8266 0.214914 49.8549 0.03364 49.7982 0.00947014C49.7415 -0.0146997 48.7068 0.00947014 47.502 0.0578098ZM42.3568 5.01263C42.3143 5.09722 41.5772 6.5595 40.7126 8.26347C39.8479 9.97953 39.1392 11.4297 39.1392 11.5022C39.1392 11.5989 39.2101 11.611 39.366 11.5385C39.5361 11.4539 39.7771 11.5989 40.4007 12.1306C41.5347 13.0974 42.7395 13.4962 44.8798 13.6413L46.0137 13.7138L50.8896 9.53239C53.5827 7.23625 55.8081 5.37518 55.8364 5.41143C55.8789 5.4356 55.8931 6.0761 55.8789 6.82537C55.8648 8.31181 55.5387 10.1729 54.8017 13.0854C54.1922 15.4782 53.4551 18.7411 53.4551 19.0191C53.4551 19.1882 53.767 19.0311 54.6316 18.4269C55.2836 17.9797 56.6302 17.0492 57.6507 16.3604C58.6571 15.6594 59.7343 14.9223 60.032 14.6927C60.3438 14.4751 60.6131 14.318 60.6414 14.3301C60.7265 14.4147 60.2162 15.6957 59.9327 16.0945C59.7627 16.3241 58.8697 17.303 57.9484 18.2577C56.6727 19.575 56.3042 20.0342 56.4601 20.1067C56.5593 20.1671 57.5373 20.2155 58.6287 20.2155C59.7201 20.2155 60.8541 20.2517 61.1517 20.3001L61.7045 20.3726L60.3721 21.5085C59.6493 22.137 58.5011 23.0312 57.8208 23.5026C57.1263 23.9739 56.5735 24.3848 56.5735 24.4089C56.5735 24.4331 56.6727 24.6144 56.7861 24.8077C56.9136 25.0132 56.9845 25.1703 56.942 25.1703C56.8569 25.1703 52.8031 23.0312 51.8535 22.4874C51.3999 22.2216 51.003 22.0282 50.9605 22.0645C50.9038 22.1007 51.3148 23.1158 52.3921 25.6295C52.6047 26.125 52.7464 26.5359 52.7181 26.56C52.6614 26.5963 49.4439 23.5026 49.373 23.3455C49.2596 23.1038 49.0612 23.2609 48.7777 23.7926C48.6218 24.1068 48.4942 24.3968 48.4942 24.4452C48.4942 24.4935 48.3524 24.8077 48.1682 25.1582L47.8564 25.7745L45.957 23.8409C44.9081 22.7775 44.001 21.9073 43.9443 21.9073C43.8876 21.9073 43.5332 22.2336 43.1647 22.6445L42.5127 23.3696L41.9882 22.6687C41.6906 22.282 40.7267 20.9768 39.8338 19.7683C38.9408 18.5598 38.1754 17.5809 38.1187 17.593C38.0195 17.6172 35.3122 20.6143 32.8317 23.4542C32.1372 24.2518 31.4994 24.8802 31.4427 24.844C31.1592 24.699 30.6347 22.9708 30.2662 21.001C30.0819 19.9254 30.0536 19.2366 30.1245 17.4359C30.167 16.2033 30.2662 14.9706 30.3371 14.6806C30.3938 14.4026 30.4221 14.173 30.3938 14.173C30.3087 14.173 27.4314 16.0582 25.4612 17.4118L24.0438 18.3786L23.6611 17.8589C22.8673 16.7713 22.6547 15.3815 23.0374 13.8467C23.2925 12.8437 24.1713 10.9222 24.228 11.2605C24.2564 11.3935 24.2847 11.5143 24.2989 11.5143C24.3131 11.5143 24.9367 11.3814 25.6738 11.2122L27.0062 10.9222L27.2896 11.1759C28.8346 12.5899 32.9451 11.3572 37.9344 8.00969C39.2526 7.12749 41.5488 5.44768 41.889 5.12139C42.1867 4.84344 42.4702 4.78301 42.3568 5.01263ZM38.8558 25.8833C39.5219 26.8017 39.5645 26.8863 39.2526 26.8259C38.4731 26.6567 37.169 26.6205 36.517 26.7292C36.1343 26.7897 35.7941 26.8259 35.7658 26.8138C35.7516 26.7897 36.191 26.27 36.7438 25.6658C37.9061 24.3848 37.7502 24.3606 38.8558 25.8833ZM29.1181 29.1825L30.1953 30.5964L29.7276 31.4786C28.2251 34.2581 28.2677 38.077 29.8268 40.6994C31.5277 43.5877 34.32 45.2312 37.495 45.2312C39.8479 45.2312 41.3929 44.6512 43.2497 43.056C44.2419 42.21 44.5821 41.8233 45.1349 40.8807C46.1555 39.1404 46.4106 38.1616 46.4106 35.9863C46.4106 34.5119 46.3539 33.9923 46.1129 33.2068C45.7161 31.9741 44.7097 30.2097 43.9726 29.4967L43.3915 28.9408L43.7458 28.5661L44.1144 28.2036L45.957 30.0768L47.8138 31.962L47.5162 32.5662C46.6657 34.2944 46.5807 36.7355 47.2894 38.5241C48.7351 42.21 52.548 44.0953 56.1908 42.9351C57.2396 42.5967 58.5578 41.7629 59.2099 41.0136C59.5075 40.6752 59.7627 40.4214 59.791 40.4335C59.8052 40.4577 59.6776 40.8203 59.4933 41.2553C58.161 44.3974 56.2049 47.0802 53.6394 49.3039C51.2865 51.322 47.8138 53.3765 46.9067 53.2677C46.5523 53.2194 46.524 53.2315 46.7791 53.304C47.0768 53.3886 47.0342 53.4248 46.283 53.7149C42.8812 55.02 39.4652 55.6485 35.5957 55.6605C32.3498 55.6605 30.2095 55.3584 26.8786 54.3916C20.5144 52.5668 14.5754 47.6482 12.1375 42.21C10.9752 39.6118 10.3657 36.9168 10.3657 34.3427C10.3657 32.5783 10.4933 31.5511 10.7059 31.7324C12.1233 33.0255 13.1296 34.4515 15.7944 39.0075C17.0275 41.1345 18.0764 42.8989 18.1048 42.923C18.2323 43.0318 18.289 42.7659 18.7851 39.9139C20.0466 32.7113 20.3868 31.1765 21.0814 29.4242C21.1097 29.3275 21.7192 29.9559 22.4562 30.8381C23.165 31.7082 23.8311 32.3971 23.902 32.3729C23.9871 32.3608 24.9084 31.2732 25.9573 29.968C27.0062 28.6628 27.8991 27.6356 27.9558 27.6839C27.9983 27.7323 28.5228 28.409 29.1181 29.1825ZM60.2871 31.4907C60.5989 31.7082 60.684 31.8895 60.7548 32.4817L60.8399 33.2068L60.4997 32.53C60.3154 32.1674 60.0461 31.7203 59.9044 31.539C59.6067 31.1402 59.7627 31.1281 60.2871 31.4907Z"/>
</mask>
<path d="M47.502 0.0578098C42.2434 0.275338 40.4574 0.81916 33.4979 4.3117C32.4632 4.84344 31.5844 5.24224 31.5419 5.20599C31.5135 5.16973 31.6978 4.58966 31.9671 3.9129C32.2364 3.24823 32.3923 2.69232 32.3356 2.69232C31.9388 2.69232 25.6596 4.62591 24.6391 5.06097C22.3003 6.06402 20.3159 7.39336 18.6576 9.09733C18.1331 9.64115 17.6796 10.052 17.637 10.0279C17.6087 10.0037 17.3677 8.98857 17.0984 7.76799C16.6448 5.73772 16.5314 5.33892 16.4181 5.48394C16.2621 5.66521 12.9737 8.81938 12.265 9.45988C8.26791 13.0854 7.74346 13.6292 7.03476 14.9585C6.77962 15.4177 6.49614 16.0945 6.41109 16.445C6.19848 17.3151 6.21265 18.9707 6.45362 20.2275C6.58118 20.9164 6.60953 21.436 6.52449 21.7986C6.46779 22.0886 6.41109 22.8621 6.39692 23.5146C6.39692 24.5902 6.36857 24.699 6.15596 24.6385C5.58899 24.5056 0.131938 23.708 0.00437008 23.7443C-0.0665007 23.7684 1.06743 24.6144 2.52737 25.6174C4.00148 26.6205 5.4756 27.6598 5.81578 27.9136L6.43944 28.3849L6.19848 29.3879C5.77326 31.1886 5.64569 32.7596 5.73073 35.1403C5.8016 37.4244 5.98587 38.6087 6.55283 40.4577C7.53085 43.7085 9.40184 47.0198 11.8256 49.7631C13.0021 51.0924 15.9645 53.5698 17.6229 54.6333C19.1962 55.6243 21.946 57.002 23.3634 57.4974C23.8878 57.6908 24.4123 57.9083 24.5115 57.9808C24.7525 58.1621 25.1493 59.8782 25.6029 62.6335C25.9573 64.8572 26.0707 65.3889 26.4675 66.827C26.8786 68.3134 27.5306 69.6307 28.381 70.6821L28.7779 71.1776L27.6723 70.815L26.5526 70.4525L26.014 70.6821C24.8092 71.1897 23.9304 72.8453 23.9162 74.658C23.902 75.8544 24.1997 76.3862 25.0076 76.6158C25.9573 76.8817 28.7779 77.0508 31.2726 76.9783C33.9515 76.9058 35.0287 76.7125 35.5674 76.217C36.1627 75.649 35.8508 74.7547 34.8019 74.0175L34.32 73.6792L35.4823 73.7275C36.5595 73.7637 38.1329 73.5825 38.9125 73.3166C39.1392 73.2441 39.1534 73.2683 39.0684 73.522C38.9975 73.6792 38.955 74.1867 38.955 74.658C38.955 75.5765 39.2385 76.3258 39.6637 76.507C40.3724 76.8212 42.0308 76.9542 45.2341 76.9542C48.069 76.9542 48.6926 76.9179 49.4439 76.7246C50.5636 76.4345 50.9038 76.1807 50.9038 75.5765C50.9038 74.9843 50.4786 74.4526 49.4155 73.7275C48.5651 73.1353 45.4609 71.7335 43.8592 71.2017C43.3631 71.0446 42.9663 70.8634 42.9663 70.815C42.9663 70.7546 43.1505 70.4767 43.3915 70.1866C44.7947 68.4343 45.957 65.6064 47.1902 60.8208C47.3603 60.1924 47.6296 59.1531 47.7997 58.5247L48.0973 57.3766L49.458 56.7844C56.8144 53.6061 62.4699 47.5395 64.511 40.6873C64.9504 39.1888 65.3473 37.1464 65.3756 36.2642C65.3898 35.9742 65.4323 35.6116 65.489 35.4545L65.5741 35.1645L66.0418 35.5029C66.2828 35.6842 66.4954 35.7688 66.4954 35.6842C66.4954 35.6116 66.2119 34.5361 65.8717 33.2913C65.5174 32.0466 65.078 30.2943 64.8795 29.4C64.6811 28.5057 64.27 27.0797 63.944 26.2217C63.6322 25.3757 63.4196 24.6144 63.4763 24.5298C63.9724 23.853 66.0843 22.3062 67.0907 21.8832C67.5017 21.714 68.8625 21.3152 70.1098 21.001C71.3571 20.6989 72.8738 20.3121 73.4832 20.1429C74.0927 19.9858 74.688 19.8529 74.8014 19.8529C74.9148 19.8529 74.9999 19.8046 74.9999 19.7562C74.9999 19.6837 69.5287 17.9435 65.5315 16.7592C64.8937 16.5658 64.7945 16.4933 64.8653 16.2879C65.0921 15.6474 65.3473 14.1609 65.3614 13.4962C65.3614 11.7923 65.0213 10.7409 63.0936 6.49907L62.9235 6.13653L61.7045 7.26042L60.4714 8.39641L60.5139 6.35405C60.5564 4.62591 60.358 0.915839 60.202 0.79499C60.0745 0.686226 55.8506 1.15754 54.6883 1.42341C53.1291 1.76178 51.0455 2.41437 49.3872 3.06696C48.7351 3.32074 48.2107 3.48993 48.2107 3.46576C48.2107 3.40533 48.4942 2.83734 49.7132 0.432442C49.8266 0.214914 49.8549 0.03364 49.7982 0.00947014C49.7415 -0.0146997 48.7068 0.00947014 47.502 0.0578098ZM42.3568 5.01263C42.3143 5.09722 41.5772 6.5595 40.7126 8.26347C39.8479 9.97953 39.1392 11.4297 39.1392 11.5022C39.1392 11.5989 39.2101 11.611 39.366 11.5385C39.5361 11.4539 39.7771 11.5989 40.4007 12.1306C41.5347 13.0974 42.7395 13.4962 44.8798 13.6413L46.0137 13.7138L50.8896 9.53239C53.5827 7.23625 55.8081 5.37518 55.8364 5.41143C55.8789 5.4356 55.8931 6.0761 55.8789 6.82537C55.8648 8.31181 55.5387 10.1729 54.8017 13.0854C54.1922 15.4782 53.4551 18.7411 53.4551 19.0191C53.4551 19.1882 53.767 19.0311 54.6316 18.4269C55.2836 17.9797 56.6302 17.0492 57.6507 16.3604C58.6571 15.6594 59.7343 14.9223 60.032 14.6927C60.3438 14.4751 60.6131 14.318 60.6414 14.3301C60.7265 14.4147 60.2162 15.6957 59.9327 16.0945C59.7627 16.3241 58.8697 17.303 57.9484 18.2577C56.6727 19.575 56.3042 20.0342 56.4601 20.1067C56.5593 20.1671 57.5373 20.2155 58.6287 20.2155C59.7201 20.2155 60.8541 20.2517 61.1517 20.3001L61.7045 20.3726L60.3721 21.5085C59.6493 22.137 58.5011 23.0312 57.8208 23.5026C57.1263 23.9739 56.5735 24.3848 56.5735 24.4089C56.5735 24.4331 56.6727 24.6144 56.7861 24.8077C56.9136 25.0132 56.9845 25.1703 56.942 25.1703C56.8569 25.1703 52.8031 23.0312 51.8535 22.4874C51.3999 22.2216 51.003 22.0282 50.9605 22.0645C50.9038 22.1007 51.3148 23.1158 52.3921 25.6295C52.6047 26.125 52.7464 26.5359 52.7181 26.56C52.6614 26.5963 49.4439 23.5026 49.373 23.3455C49.2596 23.1038 49.0612 23.2609 48.7777 23.7926C48.6218 24.1068 48.4942 24.3968 48.4942 24.4452C48.4942 24.4935 48.3524 24.8077 48.1682 25.1582L47.8564 25.7745L45.957 23.8409C44.9081 22.7775 44.001 21.9073 43.9443 21.9073C43.8876 21.9073 43.5332 22.2336 43.1647 22.6445L42.5127 23.3696L41.9882 22.6687C41.6906 22.282 40.7267 20.9768 39.8338 19.7683C38.9408 18.5598 38.1754 17.5809 38.1187 17.593C38.0195 17.6172 35.3122 20.6143 32.8317 23.4542C32.1372 24.2518 31.4994 24.8802 31.4427 24.844C31.1592 24.699 30.6347 22.9708 30.2662 21.001C30.0819 19.9254 30.0536 19.2366 30.1245 17.4359C30.167 16.2033 30.2662 14.9706 30.3371 14.6806C30.3938 14.4026 30.4221 14.173 30.3938 14.173C30.3087 14.173 27.4314 16.0582 25.4612 17.4118L24.0438 18.3786L23.6611 17.8589C22.8673 16.7713 22.6547 15.3815 23.0374 13.8467C23.2925 12.8437 24.1713 10.9222 24.228 11.2605C24.2564 11.3935 24.2847 11.5143 24.2989 11.5143C24.3131 11.5143 24.9367 11.3814 25.6738 11.2122L27.0062 10.9222L27.2896 11.1759C28.8346 12.5899 32.9451 11.3572 37.9344 8.00969C39.2526 7.12749 41.5488 5.44768 41.889 5.12139C42.1867 4.84344 42.4702 4.78301 42.3568 5.01263ZM38.8558 25.8833C39.5219 26.8017 39.5645 26.8863 39.2526 26.8259C38.4731 26.6567 37.169 26.6205 36.517 26.7292C36.1343 26.7897 35.7941 26.8259 35.7658 26.8138C35.7516 26.7897 36.191 26.27 36.7438 25.6658C37.9061 24.3848 37.7502 24.3606 38.8558 25.8833ZM29.1181 29.1825L30.1953 30.5964L29.7276 31.4786C28.2251 34.2581 28.2677 38.077 29.8268 40.6994C31.5277 43.5877 34.32 45.2312 37.495 45.2312C39.8479 45.2312 41.3929 44.6512 43.2497 43.056C44.2419 42.21 44.5821 41.8233 45.1349 40.8807C46.1555 39.1404 46.4106 38.1616 46.4106 35.9863C46.4106 34.5119 46.3539 33.9923 46.1129 33.2068C45.7161 31.9741 44.7097 30.2097 43.9726 29.4967L43.3915 28.9408L43.7458 28.5661L44.1144 28.2036L45.957 30.0768L47.8138 31.962L47.5162 32.5662C46.6657 34.2944 46.5807 36.7355 47.2894 38.5241C48.7351 42.21 52.548 44.0953 56.1908 42.9351C57.2396 42.5967 58.5578 41.7629 59.2099 41.0136C59.5075 40.6752 59.7627 40.4214 59.791 40.4335C59.8052 40.4577 59.6776 40.8203 59.4933 41.2553C58.161 44.3974 56.2049 47.0802 53.6394 49.3039C51.2865 51.322 47.8138 53.3765 46.9067 53.2677C46.5523 53.2194 46.524 53.2315 46.7791 53.304C47.0768 53.3886 47.0342 53.4248 46.283 53.7149C42.8812 55.02 39.4652 55.6485 35.5957 55.6605C32.3498 55.6605 30.2095 55.3584 26.8786 54.3916C20.5144 52.5668 14.5754 47.6482 12.1375 42.21C10.9752 39.6118 10.3657 36.9168 10.3657 34.3427C10.3657 32.5783 10.4933 31.5511 10.7059 31.7324C12.1233 33.0255 13.1296 34.4515 15.7944 39.0075C17.0275 41.1345 18.0764 42.8989 18.1048 42.923C18.2323 43.0318 18.289 42.7659 18.7851 39.9139C20.0466 32.7113 20.3868 31.1765 21.0814 29.4242C21.1097 29.3275 21.7192 29.9559 22.4562 30.8381C23.165 31.7082 23.8311 32.3971 23.902 32.3729C23.9871 32.3608 24.9084 31.2732 25.9573 29.968C27.0062 28.6628 27.8991 27.6356 27.9558 27.6839C27.9983 27.7323 28.5228 28.409 29.1181 29.1825ZM60.2871 31.4907C60.5989 31.7082 60.684 31.8895 60.7548 32.4817L60.8399 33.2068L60.4997 32.53C60.3154 32.1674 60.0461 31.7203 59.9044 31.539C59.6067 31.1402 59.7627 31.1281 60.2871 31.4907Z" fill="black" stroke="white" stroke-width="2" mask="url(#path-1-inside-1_20_1005)"/>
<path d="M17.9206 59.1086C19.012 59.592 19.2387 59.7611 19.7207 60.3775L17.9206 59.1086ZM17.9206 59.1086C17.2402 58.8064 16.3614 58.456 15.9645 58.3472C15.0715 58.0934 13.6966 58.0934 12.9879 58.3351L17.9206 59.1086ZM9.6366 71.0461L9.63813 71.0467C11.5286 71.8413 13.3029 71.8522 15.205 71.0583L15.2059 71.058C17.4796 70.1144 19.1398 68.2931 19.9102 66.3113C20.6809 64.3286 20.5469 62.2377 19.3276 60.6865L19.3268 60.6855C19.0958 60.3901 18.954 60.2387 18.7598 60.101C18.5522 59.9536 18.2654 59.8081 17.7181 59.5657L17.7176 59.5655C17.0373 59.2634 16.1891 58.9272 15.8324 58.8294L15.8324 58.8295L15.8278 58.8282C15.4375 58.7172 14.9185 58.6568 14.4057 58.6554C13.8886 58.6539 13.4315 58.7127 13.1517 58.8076C12.4954 59.0391 11.8784 59.0975 11.2124 58.9082C10.5688 58.7253 9.92214 58.3225 9.17602 57.7237L8.52829 57.2152L7.37762 57.7592C7.37734 57.7593 7.37706 57.7595 7.37678 57.7596C5.78079 58.5209 4.72894 59.1754 4.07888 59.807C3.44838 60.4197 3.21167 60.9937 3.21167 61.6343C3.21167 62.3677 3.33485 62.7598 4.40573 64.8902C4.87337 65.8205 5.43112 66.9662 5.63499 67.4256C6.23964 68.7854 7.90219 70.3239 9.6366 71.0461Z" fill="black" stroke="white"/>
<path d="M55.8566 57.7576L55.856 57.7579C54.3583 58.4833 53.3497 59.0994 52.6996 59.6831C52.0622 60.2552 51.793 60.7739 51.7262 61.3204L51.7261 61.3209C51.6343 62.0646 51.8057 62.714 53.0515 65.1923L53.0515 65.1923L53.053 65.1953C53.3582 65.8126 53.65 66.4104 53.8714 66.876C53.9819 67.1085 54.0759 67.3105 54.1456 67.4664C54.2022 67.5931 54.2635 67.7338 54.2901 67.8287C54.2909 67.8309 54.2946 67.8407 54.3037 67.859C54.3152 67.8823 54.3324 67.9131 54.3567 67.9517C54.4056 68.0293 54.4747 68.125 54.5637 68.2363C54.7412 68.4587 54.9807 68.7218 55.2528 68.9941C55.8014 69.5429 56.4453 70.0918 56.9262 70.3965L56.9268 70.3969C58.1005 71.1431 59.2003 71.5433 60.306 71.6364C61.412 71.7294 62.5606 71.5182 63.8366 70.9858C66.3522 69.9362 68.264 67.6285 68.7833 65.0289L68.7834 65.0284C69.1099 63.4023 68.7872 61.9653 67.7977 60.6552C67.5405 60.3174 67.4252 60.1881 67.2202 60.056C66.9833 59.9033 66.625 59.7464 65.8505 59.4255L65.8494 59.425C64.8711 59.017 64.2191 58.7966 63.6673 58.7009C63.1319 58.608 62.67 58.629 62.0683 58.7416C61.0464 58.943 60.3425 59.0554 59.6838 58.9058C59.02 58.755 58.4574 58.351 57.6699 57.739L57.6699 57.739L57.6675 57.7371L56.9923 57.2057L55.8566 57.7576Z" fill="black" stroke="white"/>
</g>
<defs>
<clipPath id="clip0_20_1005">
<rect width="75" height="77" fill="white"/>
</clipPath>
</defs>
</svg>
