<svg width="77" height="75" viewBox="0 0 77 75" fill="none" xmlns="http://www.w3.org/2000/svg">
<mask id="path-1-inside-1_20_1106" fill="white">
<path d="M47.0965 0.171368C42.3252 0.544156 39.9242 1.26714 34.3065 4.01221C32.6905 4.80297 31.3515 5.41299 31.3053 5.3791C31.2437 5.33391 31.5977 4.24944 31.9671 3.34571C32.0133 3.24404 31.9825 3.15367 31.9055 3.15367C31.6747 3.15367 26.0108 4.84816 25.1027 5.18705C22.3477 6.21504 19.5004 8.04509 17.9305 9.78477C17.6996 10.0559 17.4534 10.2705 17.4072 10.2705C17.3457 10.2705 16.9917 9.3442 16.6069 8.21454L15.9143 6.15856L13.9289 8.0112C12.8207 9.02789 11.2508 10.44 10.4197 11.163C7.60315 13.603 6.86438 14.439 6.40265 15.772C6.07944 16.6531 6.07944 18.3815 6.40265 19.4434C6.61813 20.2115 6.80282 23.7135 6.61813 23.7135C6.57196 23.7135 5.4638 23.6118 4.15557 23.4988C0.415557 23.1599 0 23.126 0 23.1938C0 23.2164 1.7084 24.154 3.81697 25.2611C5.91014 26.3569 8.06488 27.5204 8.61896 27.8254C9.17303 28.1417 9.65016 28.4015 9.66555 28.4128C9.69633 28.4241 9.60398 29.0906 9.46546 29.8814C8.98834 32.4683 9.26538 35.7556 10.1734 38.3425C12.4051 44.7251 18.1922 49.978 26.2724 52.9829C28.2733 53.7285 28.1809 53.6494 28.5503 55.0728C28.6426 55.4908 28.6426 55.5021 28.3656 55.3326C27.8885 55.0276 26.1031 54.3385 25.1489 54.09C24.1793 53.8415 22.3939 53.7737 21.9014 53.9657C21.7475 54.0335 21.3011 54.1126 20.901 54.1578C19.9467 54.2594 19.1618 53.9883 17.8997 53.0846L16.9455 52.4068L15.8989 52.8248C13.0362 53.9544 11.3124 55.0502 10.7891 56.0782C10.235 57.1514 10.4043 57.8743 11.651 59.9755C12.1127 60.755 12.7437 61.8395 13.0362 62.4043C13.6672 63.6017 14.2367 64.2004 15.6834 65.2058C17.6073 66.5388 19.8698 67.1376 22.0245 66.9003C23.0557 66.7761 24.8103 66.2451 25.703 65.7707L26.0877 65.5673L25.6876 65.9627C24.1793 67.4765 23.9022 70.3684 25.2258 70.8654C25.9954 71.1591 28.0578 71.3173 31.3207 71.3173C34.6451 71.3173 35.9842 71.1817 36.8922 70.7525C37.3539 70.5378 37.5079 69.8826 37.2 69.4082C36.5998 68.4931 33.9833 67.2392 30.0586 66.0192C27.673 65.2849 27.1651 65.1832 26.611 65.3979C26.1801 65.5786 26.257 65.4205 26.7496 65.1155C27.7192 64.5167 29.1198 62.9239 29.6892 61.783L29.8893 61.3876L30.1664 62.2009C31.1206 64.9008 32.9675 66.7535 35.6302 67.6685C37.3078 68.2333 38.2466 68.3802 40.3244 68.3689C43.2949 68.3689 45.3111 67.7476 47.235 66.2338C48.0815 65.5673 49.1896 64.3925 49.4667 63.8841C49.4974 63.8164 49.7591 63.9632 50.0361 64.2117C51.329 65.364 52.6372 66.0983 54.3302 66.6405C55.5153 67.0133 57.8394 67.0246 59.1168 66.6518C64.1805 65.2058 67.2125 60.5403 65.4117 57.0045C64.8731 55.9539 64.2574 55.3891 63.0723 54.8695C60.8098 53.8867 59.2092 53.6607 57.1622 54.0448C56.1156 54.2481 56.0386 54.2481 55.3922 54.0674C55.0228 53.9544 54.438 53.6946 54.1147 53.4913L53.4991 53.1072L54.4995 52.7457C57.6393 51.5821 61.5486 49.2438 63.9188 47.0974C67.3972 43.9682 69.5673 40.4776 70.5062 36.5238C70.9063 34.7954 70.9987 31.1353 70.6601 29.7007C69.9059 26.4133 68.8285 24.0862 66.9662 21.6914C66.5353 21.1491 66.1813 20.6408 66.1813 20.5843C66.1813 20.381 68.4438 18.8785 69.1056 18.63C69.6289 18.438 71.3065 17.9635 76.4163 16.5966C76.8934 16.4723 77.0935 16.3707 76.955 16.3255C76.8319 16.2916 75.2004 15.9414 73.3381 15.5347C71.4758 15.1281 69.2595 14.6423 68.413 14.4616C67.5665 14.2695 66.7508 14.1114 66.5815 14.1114C66.366 14.1114 66.3198 14.0549 66.3968 13.8515C66.8585 12.6767 66.7354 10.519 66.1197 9.08438C65.6734 8.06768 63.8419 4.97242 63.6879 4.96112C63.6264 4.96112 63.0723 5.42428 62.4567 5.98911L61.3331 7.0171L61.2408 5.16446C61.1638 3.75239 60.7175 0.36341 60.579 0.261741C60.579 0.250444 59.7017 0.340817 58.6397 0.453783C55.7 0.792681 53.1143 1.42529 49.8668 2.60014C49.0665 2.89385 48.3893 3.11978 48.3739 3.10848C48.3585 3.09719 48.6817 2.40809 49.1127 1.57215C49.5282 0.736198 49.8668 0.0358093 49.8668 0.0132161C49.8668 -0.0319703 49.0973 0.0132161 47.0965 0.171368ZM56.4696 5.89874C56.485 6.64431 56.3618 7.97731 56.1617 9.14086C55.8231 11.163 55.7616 11.5131 55.346 13.7725C54.8689 16.3594 54.7766 16.8564 54.8227 16.879C54.8689 16.9129 57.1314 15.4218 60.0865 13.3884L61.918 12.1345L61.8102 12.6993C61.7333 13.0043 61.5486 13.4675 61.3793 13.716C61.0561 14.1678 59.1938 16.1222 58.2241 17.0146C57.9317 17.2744 57.7624 17.5003 57.824 17.5342C57.8855 17.5568 59.1784 17.5568 60.6867 17.5116C62.1796 17.4777 63.4109 17.4664 63.4109 17.489C63.4109 17.6133 61.4563 19.1722 60.0403 20.1663C58.455 21.296 58.4242 21.3299 58.6089 21.6236C58.7167 21.793 58.7782 21.9512 58.7628 21.9625C58.732 21.9851 57.9317 21.6688 56.9621 21.2734C54.1917 20.1324 52.668 19.5337 52.5141 19.5337C52.4217 19.5337 52.4833 19.7258 52.6372 19.9517C53.299 20.9797 54.6534 23.3972 54.5919 23.4423C54.5611 23.4762 53.653 22.821 52.5756 22.0077C51.5137 21.183 50.6056 20.5391 50.5748 20.5617C50.544 20.5843 50.3286 21.0588 50.0977 21.6236C49.8822 22.1771 49.6514 22.7194 49.6206 22.8097C49.559 22.934 49.3435 22.821 48.8202 22.4031C46.527 20.5504 45.3419 19.6467 45.2341 19.6467C45.1572 19.6467 44.8186 19.9517 44.48 20.3245L43.8489 21.0136L42.5869 19.7258C41.8943 19.0141 40.8015 17.8957 40.1705 17.2405C39.5395 16.574 38.9854 16.0318 38.9392 16.0318C38.893 16.0318 37.4771 17.5568 35.7995 19.4208C34.1064 21.2847 32.6751 22.8097 32.6135 22.8097C32.398 22.8097 32.1364 22.3579 31.7055 21.2282C30.9359 19.2852 30.7204 18.0991 30.7204 15.659C30.705 14.439 30.6896 13.4336 30.6589 13.4336C30.6281 13.4336 29.2275 14.326 27.5499 15.4105L24.4871 17.3761L24.0407 16.9016C23.1481 15.9414 22.8556 14.936 23.1019 13.7273C23.3635 12.4395 23.933 11.163 24.2254 11.242C24.3178 11.2646 24.995 11.1404 25.7184 10.9596L27.0266 10.632L27.3806 10.9031C29.2429 12.3265 34.0603 10.4965 40.6322 5.87615C41.6019 5.19835 42.4176 4.64482 42.433 4.66741C42.4638 4.69 41.5095 6.66691 40.3244 9.02789C39.4625 10.7337 39.4625 10.7563 39.8473 10.6659C40.0935 10.6094 40.2782 10.6885 40.6476 11.0048C41.6634 11.852 43.3872 12.3039 45.6343 12.3039H46.8656L49.4051 10.1914C50.8057 9.02789 52.8373 7.3447 53.9147 6.45227C54.992 5.55984 55.9617 4.73519 56.0694 4.62222C56.3464 4.28333 56.4388 4.54315 56.4696 5.89874ZM40.0935 23.2729C40.6476 23.8377 41.0786 24.3235 41.0478 24.3461C41.017 24.3687 40.5861 24.3348 40.0935 24.267C39.2778 24.154 38.4005 24.1879 37.4309 24.3574C37.1077 24.4139 37.1846 24.2896 38.0465 23.3407C38.5698 22.742 39.0316 22.2562 39.047 22.2449C39.047 22.2449 39.5241 22.7081 40.0935 23.2729ZM46.2346 25.5322C46.3577 25.6678 47.1426 26.2891 47.9737 26.9217C50.0207 28.4693 50.0977 28.5371 49.913 28.7066C49.5898 29.0003 48.9588 30.4914 48.7741 31.3951C48.3585 33.4963 49.3128 35.7895 51.2366 37.3033C54.2687 39.6755 58.732 39.4722 61.5948 36.8175C64.3036 34.3097 64.2266 30.2542 61.4255 27.7012C61.0099 27.3284 60.6251 26.8991 60.5636 26.7635C60.4558 26.515 60.4866 26.515 61.3485 26.8765C61.8564 27.0798 63.0261 27.6447 63.965 28.1417L65.6888 29.0342L65.8427 29.904C66.7815 34.8632 65.2424 39.6868 61.4563 43.6971C60.0095 45.2222 56.839 47.5267 54.8689 48.4756C47.512 52.0453 38.4929 52.8135 30.705 50.5429C25.349 48.9839 20.901 46.2728 17.8997 42.7369C16.2837 40.8504 15.2371 38.9187 14.683 36.8627C14.3136 35.428 13.9442 32.8185 14.0366 32.2424C14.0828 31.9261 14.1597 31.9939 15.0986 33.0896C15.6526 33.7448 16.4376 34.7276 16.8531 35.2925C17.8536 36.6707 19.8544 39.2237 20.0237 39.3479C20.1006 39.4044 20.193 39.4383 20.2238 39.4044C20.2546 39.3818 20.5008 37.6083 20.7625 35.4619C21.2857 31.2596 21.7629 28.4128 22.0553 27.6447L22.2554 27.1589L23.7637 28.5484C24.5948 29.3053 25.2874 29.9266 25.3182 29.9266C25.3336 29.9266 26.1647 28.9099 27.1651 27.6673C28.1809 26.4246 29.0428 25.408 29.089 25.4192C29.1967 25.4192 31.2129 27.4865 31.3361 27.7125C31.3822 27.8141 31.2899 28.1078 31.1206 28.379C29.3968 31.0788 29.5661 34.4565 31.5823 37.2242C32.2749 38.1731 34.2911 39.6304 35.5532 40.0709C39.9396 41.6524 44.7108 40.2291 47.0349 36.6481C47.9122 35.3038 48.1738 34.5356 48.2816 33.0106C48.4509 30.5253 47.6659 28.5484 45.7574 26.7297L45.0802 26.0744L45.4034 25.6791C45.7882 25.2272 45.9113 25.2046 46.2346 25.5322Z"/>
</mask>
<path d="M47.0965 0.171368C42.3252 0.544156 39.9242 1.26714 34.3065 4.01221C32.6905 4.80297 31.3515 5.41299 31.3053 5.3791C31.2437 5.33391 31.5977 4.24944 31.9671 3.34571C32.0133 3.24404 31.9825 3.15367 31.9055 3.15367C31.6747 3.15367 26.0108 4.84816 25.1027 5.18705C22.3477 6.21504 19.5004 8.04509 17.9305 9.78477C17.6996 10.0559 17.4534 10.2705 17.4072 10.2705C17.3457 10.2705 16.9917 9.3442 16.6069 8.21454L15.9143 6.15856L13.9289 8.0112C12.8207 9.02789 11.2508 10.44 10.4197 11.163C7.60315 13.603 6.86438 14.439 6.40265 15.772C6.07944 16.6531 6.07944 18.3815 6.40265 19.4434C6.61813 20.2115 6.80282 23.7135 6.61813 23.7135C6.57196 23.7135 5.4638 23.6118 4.15557 23.4988C0.415557 23.1599 0 23.126 0 23.1938C0 23.2164 1.7084 24.154 3.81697 25.2611C5.91014 26.3569 8.06488 27.5204 8.61896 27.8254C9.17303 28.1417 9.65016 28.4015 9.66555 28.4128C9.69633 28.4241 9.60398 29.0906 9.46546 29.8814C8.98834 32.4683 9.26538 35.7556 10.1734 38.3425C12.4051 44.7251 18.1922 49.978 26.2724 52.9829C28.2733 53.7285 28.1809 53.6494 28.5503 55.0728C28.6426 55.4908 28.6426 55.5021 28.3656 55.3326C27.8885 55.0276 26.1031 54.3385 25.1489 54.09C24.1793 53.8415 22.3939 53.7737 21.9014 53.9657C21.7475 54.0335 21.3011 54.1126 20.901 54.1578C19.9467 54.2594 19.1618 53.9883 17.8997 53.0846L16.9455 52.4068L15.8989 52.8248C13.0362 53.9544 11.3124 55.0502 10.7891 56.0782C10.235 57.1514 10.4043 57.8743 11.651 59.9755C12.1127 60.755 12.7437 61.8395 13.0362 62.4043C13.6672 63.6017 14.2367 64.2004 15.6834 65.2058C17.6073 66.5388 19.8698 67.1376 22.0245 66.9003C23.0557 66.7761 24.8103 66.2451 25.703 65.7707L26.0877 65.5673L25.6876 65.9627C24.1793 67.4765 23.9022 70.3684 25.2258 70.8654C25.9954 71.1591 28.0578 71.3173 31.3207 71.3173C34.6451 71.3173 35.9842 71.1817 36.8922 70.7525C37.3539 70.5378 37.5079 69.8826 37.2 69.4082C36.5998 68.4931 33.9833 67.2392 30.0586 66.0192C27.673 65.2849 27.1651 65.1832 26.611 65.3979C26.1801 65.5786 26.257 65.4205 26.7496 65.1155C27.7192 64.5167 29.1198 62.9239 29.6892 61.783L29.8893 61.3876L30.1664 62.2009C31.1206 64.9008 32.9675 66.7535 35.6302 67.6685C37.3078 68.2333 38.2466 68.3802 40.3244 68.3689C43.2949 68.3689 45.3111 67.7476 47.235 66.2338C48.0815 65.5673 49.1896 64.3925 49.4667 63.8841C49.4974 63.8164 49.7591 63.9632 50.0361 64.2117C51.329 65.364 52.6372 66.0983 54.3302 66.6405C55.5153 67.0133 57.8394 67.0246 59.1168 66.6518C64.1805 65.2058 67.2125 60.5403 65.4117 57.0045C64.8731 55.9539 64.2574 55.3891 63.0723 54.8695C60.8098 53.8867 59.2092 53.6607 57.1622 54.0448C56.1156 54.2481 56.0386 54.2481 55.3922 54.0674C55.0228 53.9544 54.438 53.6946 54.1147 53.4913L53.4991 53.1072L54.4995 52.7457C57.6393 51.5821 61.5486 49.2438 63.9188 47.0974C67.3972 43.9682 69.5673 40.4776 70.5062 36.5238C70.9063 34.7954 70.9987 31.1353 70.6601 29.7007C69.9059 26.4133 68.8285 24.0862 66.9662 21.6914C66.5353 21.1491 66.1813 20.6408 66.1813 20.5843C66.1813 20.381 68.4438 18.8785 69.1056 18.63C69.6289 18.438 71.3065 17.9635 76.4163 16.5966C76.8934 16.4723 77.0935 16.3707 76.955 16.3255C76.8319 16.2916 75.2004 15.9414 73.3381 15.5347C71.4758 15.1281 69.2595 14.6423 68.413 14.4616C67.5665 14.2695 66.7508 14.1114 66.5815 14.1114C66.366 14.1114 66.3198 14.0549 66.3968 13.8515C66.8585 12.6767 66.7354 10.519 66.1197 9.08438C65.6734 8.06768 63.8419 4.97242 63.6879 4.96112C63.6264 4.96112 63.0723 5.42428 62.4567 5.98911L61.3331 7.0171L61.2408 5.16446C61.1638 3.75239 60.7175 0.36341 60.579 0.261741C60.579 0.250444 59.7017 0.340817 58.6397 0.453783C55.7 0.792681 53.1143 1.42529 49.8668 2.60014C49.0665 2.89385 48.3893 3.11978 48.3739 3.10848C48.3585 3.09719 48.6817 2.40809 49.1127 1.57215C49.5282 0.736198 49.8668 0.0358093 49.8668 0.0132161C49.8668 -0.0319703 49.0973 0.0132161 47.0965 0.171368ZM56.4696 5.89874C56.485 6.64431 56.3618 7.97731 56.1617 9.14086C55.8231 11.163 55.7616 11.5131 55.346 13.7725C54.8689 16.3594 54.7766 16.8564 54.8227 16.879C54.8689 16.9129 57.1314 15.4218 60.0865 13.3884L61.918 12.1345L61.8102 12.6993C61.7333 13.0043 61.5486 13.4675 61.3793 13.716C61.0561 14.1678 59.1938 16.1222 58.2241 17.0146C57.9317 17.2744 57.7624 17.5003 57.824 17.5342C57.8855 17.5568 59.1784 17.5568 60.6867 17.5116C62.1796 17.4777 63.4109 17.4664 63.4109 17.489C63.4109 17.6133 61.4563 19.1722 60.0403 20.1663C58.455 21.296 58.4242 21.3299 58.6089 21.6236C58.7167 21.793 58.7782 21.9512 58.7628 21.9625C58.732 21.9851 57.9317 21.6688 56.9621 21.2734C54.1917 20.1324 52.668 19.5337 52.5141 19.5337C52.4217 19.5337 52.4833 19.7258 52.6372 19.9517C53.299 20.9797 54.6534 23.3972 54.5919 23.4423C54.5611 23.4762 53.653 22.821 52.5756 22.0077C51.5137 21.183 50.6056 20.5391 50.5748 20.5617C50.544 20.5843 50.3286 21.0588 50.0977 21.6236C49.8822 22.1771 49.6514 22.7194 49.6206 22.8097C49.559 22.934 49.3435 22.821 48.8202 22.4031C46.527 20.5504 45.3419 19.6467 45.2341 19.6467C45.1572 19.6467 44.8186 19.9517 44.48 20.3245L43.8489 21.0136L42.5869 19.7258C41.8943 19.0141 40.8015 17.8957 40.1705 17.2405C39.5395 16.574 38.9854 16.0318 38.9392 16.0318C38.893 16.0318 37.4771 17.5568 35.7995 19.4208C34.1064 21.2847 32.6751 22.8097 32.6135 22.8097C32.398 22.8097 32.1364 22.3579 31.7055 21.2282C30.9359 19.2852 30.7204 18.0991 30.7204 15.659C30.705 14.439 30.6896 13.4336 30.6589 13.4336C30.6281 13.4336 29.2275 14.326 27.5499 15.4105L24.4871 17.3761L24.0407 16.9016C23.1481 15.9414 22.8556 14.936 23.1019 13.7273C23.3635 12.4395 23.933 11.163 24.2254 11.242C24.3178 11.2646 24.995 11.1404 25.7184 10.9596L27.0266 10.632L27.3806 10.9031C29.2429 12.3265 34.0603 10.4965 40.6322 5.87615C41.6019 5.19835 42.4176 4.64482 42.433 4.66741C42.4638 4.69 41.5095 6.66691 40.3244 9.02789C39.4625 10.7337 39.4625 10.7563 39.8473 10.6659C40.0935 10.6094 40.2782 10.6885 40.6476 11.0048C41.6634 11.852 43.3872 12.3039 45.6343 12.3039H46.8656L49.4051 10.1914C50.8057 9.02789 52.8373 7.3447 53.9147 6.45227C54.992 5.55984 55.9617 4.73519 56.0694 4.62222C56.3464 4.28333 56.4388 4.54315 56.4696 5.89874ZM40.0935 23.2729C40.6476 23.8377 41.0786 24.3235 41.0478 24.3461C41.017 24.3687 40.5861 24.3348 40.0935 24.267C39.2778 24.154 38.4005 24.1879 37.4309 24.3574C37.1077 24.4139 37.1846 24.2896 38.0465 23.3407C38.5698 22.742 39.0316 22.2562 39.047 22.2449C39.047 22.2449 39.5241 22.7081 40.0935 23.2729ZM46.2346 25.5322C46.3577 25.6678 47.1426 26.2891 47.9737 26.9217C50.0207 28.4693 50.0977 28.5371 49.913 28.7066C49.5898 29.0003 48.9588 30.4914 48.7741 31.3951C48.3585 33.4963 49.3128 35.7895 51.2366 37.3033C54.2687 39.6755 58.732 39.4722 61.5948 36.8175C64.3036 34.3097 64.2266 30.2542 61.4255 27.7012C61.0099 27.3284 60.6251 26.8991 60.5636 26.7635C60.4558 26.515 60.4866 26.515 61.3485 26.8765C61.8564 27.0798 63.0261 27.6447 63.965 28.1417L65.6888 29.0342L65.8427 29.904C66.7815 34.8632 65.2424 39.6868 61.4563 43.6971C60.0095 45.2222 56.839 47.5267 54.8689 48.4756C47.512 52.0453 38.4929 52.8135 30.705 50.5429C25.349 48.9839 20.901 46.2728 17.8997 42.7369C16.2837 40.8504 15.2371 38.9187 14.683 36.8627C14.3136 35.428 13.9442 32.8185 14.0366 32.2424C14.0828 31.9261 14.1597 31.9939 15.0986 33.0896C15.6526 33.7448 16.4376 34.7276 16.8531 35.2925C17.8536 36.6707 19.8544 39.2237 20.0237 39.3479C20.1006 39.4044 20.193 39.4383 20.2238 39.4044C20.2546 39.3818 20.5008 37.6083 20.7625 35.4619C21.2857 31.2596 21.7629 28.4128 22.0553 27.6447L22.2554 27.1589L23.7637 28.5484C24.5948 29.3053 25.2874 29.9266 25.3182 29.9266C25.3336 29.9266 26.1647 28.9099 27.1651 27.6673C28.1809 26.4246 29.0428 25.408 29.089 25.4192C29.1967 25.4192 31.2129 27.4865 31.3361 27.7125C31.3822 27.8141 31.2899 28.1078 31.1206 28.379C29.3968 31.0788 29.5661 34.4565 31.5823 37.2242C32.2749 38.1731 34.2911 39.6304 35.5532 40.0709C39.9396 41.6524 44.7108 40.2291 47.0349 36.6481C47.9122 35.3038 48.1738 34.5356 48.2816 33.0106C48.4509 30.5253 47.6659 28.5484 45.7574 26.7297L45.0802 26.0744L45.4034 25.6791C45.7882 25.2272 45.9113 25.2046 46.2346 25.5322Z" fill="black" stroke="white" stroke-width="2" mask="url(#path-1-inside-1_20_1106)"/>
<mask id="path-2-inside-2_20_1106" fill="white">
<path d="M22.4092 30.209C22.517 30.5818 22.9017 31.1692 23.0095 31.1692C23.0864 31.1692 22.4862 30.017 22.363 29.9266C22.3323 29.8927 22.3477 30.0283 22.4092 30.209Z"/>
</mask>
<path d="M22.4092 30.209C22.517 30.5818 22.9017 31.1692 23.0095 31.1692C23.0864 31.1692 22.4862 30.017 22.363 29.9266C22.3323 29.8927 22.3477 30.0283 22.4092 30.209Z" fill="black"/>
<path d="M22.4092 30.209L23.3558 29.8866L23.3634 29.9088L23.3699 29.9314L22.4092 30.209ZM22.363 29.9266L21.7713 30.7328L21.6904 30.6733L21.6228 30.5989L22.363 29.9266ZM23.3699 29.9314C23.3749 29.9485 23.3926 29.9976 23.4305 30.0747C23.4663 30.1474 23.5097 30.224 23.553 30.292C23.5988 30.364 23.6308 30.4049 23.6403 30.4158C23.6472 30.4237 23.6265 30.398 23.5809 30.3616C23.5579 30.3433 23.5079 30.3055 23.4344 30.2686C23.3696 30.2361 23.218 30.1692 23.0095 30.1692V32.1692C22.7874 32.1692 22.6203 32.0977 22.538 32.0565C22.4469 32.0108 22.3775 31.96 22.3335 31.9249C22.2457 31.8549 22.1765 31.7804 22.1305 31.7275C22.0341 31.6165 21.943 31.4873 21.8657 31.3659C21.7183 31.1342 21.5399 30.8027 21.4485 30.4867L23.3699 29.9314ZM23.0095 30.1692C22.8491 30.1692 22.659 30.2088 22.478 30.3232C22.2999 30.4359 22.1892 30.5841 22.1246 30.7103C22.0117 30.9308 22.0153 31.1287 22.0165 31.1798C22.0183 31.2565 22.0291 31.3145 22.0342 31.3395C22.0401 31.3689 22.0462 31.3904 22.0492 31.4009C22.058 31.4308 22.0607 31.4317 22.0405 31.385C22.0064 31.3062 21.9467 31.1827 21.8743 31.0435C21.8028 30.9062 21.7285 30.7721 21.6692 30.6731C21.6388 30.6224 21.6189 30.5919 21.6095 30.5785C21.6046 30.5715 21.6094 30.579 21.6224 30.5947C21.6244 30.597 21.6777 30.664 21.7713 30.7328L22.9547 29.1204C23.0638 29.2004 23.1362 29.2871 23.1605 29.3162C23.1958 29.3587 23.2261 29.4003 23.2492 29.4333C23.2959 29.5003 23.3425 29.5746 23.3845 29.6447C23.4699 29.7872 23.564 29.9581 23.6483 30.1201C23.7317 30.2802 23.8153 30.4505 23.8759 30.5905C23.9031 30.6533 23.9411 30.7449 23.9684 30.8382C23.9773 30.8685 24.0125 30.9861 24.016 31.1327C24.0174 31.1923 24.02 31.3967 23.9049 31.6216C23.8392 31.7499 23.727 31.8997 23.5471 32.0135C23.3645 32.1291 23.1723 32.1692 23.0095 32.1692V30.1692ZM21.6228 30.5989C21.6597 30.6395 21.7484 30.7313 21.8912 30.8067C22.0429 30.8867 22.3337 30.9844 22.6751 30.8685C23.0026 30.7573 23.1666 30.5197 23.2332 30.3947C23.3006 30.2681 23.324 30.1572 23.333 30.1069C23.3517 30.0022 23.3476 29.922 23.3466 29.9027C23.345 29.8714 23.342 29.8497 23.3408 29.8416C23.3373 29.8175 23.3385 29.8357 23.3558 29.8866L21.4626 30.5314C21.4184 30.4015 21.3811 30.2616 21.3622 30.133C21.3582 30.1063 21.3308 29.9421 21.3642 29.7551C21.3742 29.6995 21.3989 29.5842 21.468 29.4545C21.5362 29.3263 21.7023 29.0866 22.0322 28.9747C22.3761 28.8579 22.6696 28.9561 22.8244 29.0377C22.9703 29.1147 23.0626 29.2094 23.1033 29.2542L21.6228 30.5989Z" fill="white" mask="url(#path-2-inside-2_20_1106)"/>
<path d="M24.1946 33.0131C24.1883 33.0044 24.1822 32.9958 24.1761 32.9875C24.139 33.0074 24.1032 33.0327 24.0702 33.064C24.0752 33.0709 24.0802 33.0777 24.0852 33.0845C24.1281 33.0645 24.1643 33.0397 24.1946 33.0131Z" fill="black" stroke="white"/>
<mask id="path-5-inside-3_20_1106" fill="white">
<path d="M24.5794 33.711C24.7487 34.0612 26.6264 36.3544 26.8265 36.4447C26.9342 36.4899 26.8726 36.377 26.7187 36.1962C26.5494 36.0042 26.0415 35.3942 25.5952 34.8406C24.564 33.5528 24.4409 33.4173 24.5794 33.711Z"/>
</mask>
<path d="M24.5794 33.711C24.7487 34.0612 26.6264 36.3544 26.8265 36.4447C26.9342 36.4899 26.8726 36.377 26.7187 36.1962C26.5494 36.0042 26.0415 35.3942 25.5952 34.8406C24.564 33.5528 24.4409 33.4173 24.5794 33.711Z" fill="black"/>
<path d="M24.5794 33.711L23.679 34.1462L23.6749 34.1375L24.5794 33.711ZM26.8265 36.4447L26.4397 37.3669L26.4272 37.3617L26.4148 37.3561L26.8265 36.4447ZM26.7187 36.1962L27.4689 35.5349L27.4745 35.5414L27.4801 35.5479L26.7187 36.1962ZM25.5952 34.8406L24.8167 35.4683L24.8146 35.4657L25.5952 34.8406ZM25.4797 33.2757C25.4602 33.2354 25.4615 33.2467 25.5337 33.3492C25.5914 33.431 25.6709 33.5385 25.7684 33.666C25.9625 33.9201 26.2118 34.2331 26.4644 34.541C26.7174 34.8493 26.9674 35.1448 27.1629 35.3651C27.2616 35.4765 27.3391 35.5603 27.3925 35.6146C27.42 35.6426 27.4319 35.6533 27.4313 35.6528C27.4312 35.6527 27.4195 35.6423 27.3991 35.6271C27.3874 35.6184 27.3283 35.5742 27.2381 35.5334L26.4148 37.3561C26.2487 37.2811 26.1278 37.1699 26.1089 37.1532C26.0588 37.109 26.0096 37.0608 25.9663 37.0168C25.8781 36.927 25.7747 36.8141 25.6666 36.6923C25.4484 36.4463 25.1809 36.1297 24.9183 35.8096C24.6554 35.4891 24.391 35.1575 24.1792 34.8803C24.0737 34.7422 23.9771 34.6123 23.8989 34.5014C23.8353 34.4111 23.7409 34.2741 23.6791 34.1462L25.4797 33.2757ZM27.2132 35.5226C27.1887 35.5123 27.0963 35.474 26.9645 35.46C26.8576 35.4487 26.4798 35.4292 26.1653 35.7477C25.8456 36.0713 25.8738 36.4559 25.8898 36.5709C25.9087 36.7073 25.9525 36.8025 25.9651 36.8293C26.0078 36.9205 26.0381 36.9394 25.9574 36.8445L27.4801 35.5479C27.5532 35.6338 27.6913 35.7995 27.7763 35.9811C27.7995 36.0305 27.8498 36.1448 27.8708 36.2963C27.8889 36.4265 27.9148 36.8224 27.5882 37.1531C27.2667 37.4786 26.8773 37.462 26.7537 37.4489C26.6052 37.4332 26.4912 37.3885 26.4397 37.3669L27.2132 35.5226ZM25.9686 36.8575C25.784 36.6481 25.2646 36.0237 24.8167 35.4683L26.3736 34.2129C26.8185 34.7646 27.3149 35.3603 27.4689 35.5349L25.9686 36.8575ZM24.8146 35.4657C24.289 34.8093 24.0233 34.4828 23.9054 34.3518C23.8739 34.3168 23.8808 34.3272 23.9099 34.3527C23.9158 34.3578 23.983 34.4186 24.0897 34.4733C24.1396 34.4989 24.2718 34.5624 24.4566 34.5777C24.6722 34.5955 24.9959 34.5445 25.2542 34.2769C25.4762 34.0469 25.5181 33.7883 25.5282 33.6835C25.5396 33.5656 25.5266 33.4735 25.52 33.4333C25.5063 33.3499 25.4846 33.2914 25.4819 33.2838C25.4725 33.2578 25.4682 33.2513 25.4838 33.2844L23.6749 34.1375C23.6559 34.0972 23.6251 34.0307 23.6 33.961C23.5894 33.9315 23.5626 33.8551 23.5466 33.7583C23.5389 33.7114 23.5256 33.6137 23.5374 33.4913C23.548 33.3821 23.591 33.1202 23.8151 32.888C24.0754 32.6183 24.402 32.5664 24.6214 32.5845C24.8098 32.6001 24.9467 32.6652 25.0021 32.6936C25.1198 32.7539 25.2017 32.8255 25.2261 32.8469C25.2924 32.9048 25.3522 32.9696 25.3919 33.0137C25.5587 33.199 25.8701 33.5841 26.3758 34.2156L24.8146 35.4657Z" fill="white" mask="url(#path-5-inside-3_20_1106)"/>
<path d="M27.3932 36.9276C27.3695 36.9025 27.3467 36.8788 27.3251 36.8565C27.3016 36.8732 27.2784 36.893 27.2559 36.9164C27.2453 36.9275 27.2355 36.9388 27.2265 36.9501C27.2458 36.9745 27.2659 36.9984 27.2862 37.0214C27.3277 36.9946 27.3634 36.9627 27.3932 36.9276Z" fill="black" stroke="white"/>
<mask id="path-8-inside-4_20_1106" fill="white">
<path d="M27.8114 37.5066C28.0423 37.8229 29.6276 39.2915 29.7507 39.3028C29.8123 39.3028 29.5506 39.0091 29.1505 38.6476C28.0269 37.6196 27.6729 37.3146 27.8114 37.5066Z"/>
</mask>
<path d="M27.8114 37.5066C28.0423 37.8229 29.6276 39.2915 29.7507 39.3028C29.8123 39.3028 29.5506 39.0091 29.1505 38.6476C28.0269 37.6196 27.6729 37.3146 27.8114 37.5066Z" fill="black"/>
<path d="M27.8114 37.5066L27.0037 38.0962L27.0004 38.0916L27.8114 37.5066ZM29.7507 39.3028V40.3028H29.7049L29.6594 40.2986L29.7507 39.3028ZM29.1505 38.6476L28.4801 39.3896L28.4754 39.3853L29.1505 38.6476ZM28.6192 36.9171C28.6101 36.9046 28.6248 36.925 28.6874 36.9922C28.7418 37.0506 28.8139 37.1246 28.9003 37.2107C29.0728 37.3825 29.2873 37.5875 29.501 37.7854C29.7154 37.984 29.9211 38.1683 30.0761 38.3001C30.1553 38.3674 30.2108 38.4122 30.2431 38.4365C30.2608 38.4499 30.2572 38.4462 30.239 38.4349C30.2305 38.4296 30.2026 38.4124 30.1614 38.393C30.1429 38.3843 30.0184 38.3231 29.8421 38.3069L29.6594 40.2986C29.4754 40.2817 29.3403 40.217 29.3086 40.202C29.2541 40.1764 29.2103 40.1503 29.1834 40.1336C29.1283 40.0993 29.0777 40.0626 29.04 40.0342C28.961 39.9747 28.8707 39.9004 28.7803 39.8236C28.5963 39.667 28.3681 39.4622 28.1419 39.2527C27.9151 39.0425 27.6823 38.8204 27.4887 38.6275C27.3184 38.4578 27.1163 38.2504 27.0037 38.0962L28.6192 36.9171ZM29.7507 38.3028C29.5717 38.3028 29.1576 38.3648 28.9051 38.7782C28.6979 39.1175 28.7676 39.4416 28.7853 39.5172C28.8114 39.6286 28.851 39.7072 28.8653 39.7347C28.8838 39.7702 28.8999 39.7951 28.9071 39.806C28.9281 39.8374 28.9302 39.8344 28.8835 39.7831C28.8045 39.696 28.6643 39.556 28.4801 39.3896L29.8208 37.9055C30.0368 38.1006 30.2275 38.2882 30.364 38.4384C30.4251 38.5056 30.506 38.5987 30.5712 38.6965C30.5853 38.7176 30.6859 38.8614 30.7327 39.0616C30.7525 39.1461 30.8219 39.4768 30.6119 39.8206C30.3567 40.2385 29.9374 40.3028 29.7507 40.3028V38.3028ZM28.4754 39.3853C27.9109 38.8688 27.5545 38.5476 27.3582 38.38C27.2267 38.2676 27.2411 38.2897 27.3126 38.3301C27.331 38.3405 27.3693 38.3613 27.4215 38.3823C27.4592 38.3974 27.5805 38.4449 27.7463 38.4517C27.9179 38.4587 28.3243 38.4196 28.599 38.0328C28.8316 37.7053 28.7832 37.3732 28.7686 37.2887C28.7484 37.1711 28.7113 37.0858 28.6971 37.0543C28.679 37.0143 28.6622 36.9847 28.6533 36.9696C28.6435 36.9529 28.6356 36.9407 28.6313 36.9343C28.6267 36.9275 28.6235 36.9231 28.6225 36.9216L27.0004 38.0916C26.9832 38.0678 26.9564 38.0295 26.9293 37.9834C26.9236 37.9737 26.8322 37.829 26.7976 37.628C26.7824 37.5394 26.7343 37.2044 26.9683 36.8749C27.2444 36.4861 27.6532 36.4462 27.8283 36.4533C27.9976 36.4603 28.1235 36.5089 28.1668 36.5263C28.2246 36.5495 28.2696 36.5737 28.2959 36.5885C28.4299 36.6642 28.5771 36.7908 28.6571 36.8592C28.8841 37.053 29.2665 37.3983 29.8255 37.9098L28.4754 39.3853Z" fill="white" mask="url(#path-8-inside-4_20_1106)"/>
<mask id="path-10-inside-5_20_1106" fill="white">
<path d="M30.6282 40.15C31.6132 41.0199 34.9223 43.3018 35.0608 43.2001C35.1069 43.1662 34.9992 43.0646 34.8145 42.9742C34.4144 42.7595 34.4605 42.7934 32.1673 41.1667C31.1053 40.4211 30.4127 39.958 30.6282 40.15Z"/>
</mask>
<path d="M30.6282 40.15C31.6132 41.0199 34.9223 43.3018 35.0608 43.2001C35.1069 43.1662 34.9992 43.0646 34.8145 42.9742C34.4144 42.7595 34.4605 42.7934 32.1673 41.1667C31.1053 40.4211 30.4127 39.958 30.6282 40.15Z" fill="black"/>
<path d="M30.6282 40.15L29.9662 40.8996L29.9628 40.8966L30.6282 40.15ZM34.8145 42.9742L34.375 43.8724L34.3583 43.8642L34.3418 43.8554L34.8145 42.9742ZM32.1673 41.1667L32.7419 40.3483L32.7458 40.3511L32.1673 41.1667ZM31.2901 39.4005C31.7328 39.7914 32.7616 40.5494 33.7291 41.2158C34.2062 41.5444 34.6485 41.837 34.9739 42.038C35.1397 42.1405 35.2579 42.2084 35.3284 42.2447C35.3683 42.2652 35.3642 42.2606 35.3322 42.2493C35.32 42.245 35.2585 42.2231 35.1691 42.2113C35.1436 42.208 34.8005 42.1507 34.4691 42.394L35.6525 44.0063C35.3124 44.2559 34.9544 44.2003 34.9082 44.1942C34.7981 44.1797 34.71 44.1507 34.6657 44.135C34.5696 44.101 34.4792 44.057 34.4134 44.0231C34.2727 43.9507 34.1019 43.8503 33.9226 43.7395C33.5578 43.514 33.0853 43.2008 32.5947 42.863C31.6268 42.1963 30.5085 41.3785 29.9662 40.8996L31.2901 39.4005ZM34.4691 42.394C34.2883 42.5266 34.1352 42.7379 34.0867 43.0078C34.0433 43.2498 34.1013 43.4429 34.1436 43.5452C34.2204 43.7312 34.3331 43.8313 34.345 43.8423C34.3978 43.8911 34.4179 43.8934 34.375 43.8724L35.254 42.0759C35.3958 42.1453 35.5621 42.2436 35.7034 42.3744C35.7595 42.4263 35.9021 42.5638 35.9919 42.7812C36.0407 42.8992 36.1009 43.1066 36.0553 43.361C36.0047 43.6433 35.8447 43.8651 35.6525 44.0063L34.4691 42.394ZM34.3418 43.8554C33.8716 43.6032 33.8514 43.5874 31.5887 41.9824L32.7458 40.3511C35.0696 41.9995 34.9571 41.9159 35.2872 42.0929L34.3418 43.8554ZM31.5927 41.9852C31.0634 41.6136 30.6336 41.3176 30.366 41.1402C30.2996 41.0961 30.2461 41.0613 30.2053 41.0355C30.1601 41.0069 30.1444 40.9981 30.1479 41C30.1502 41.0013 30.158 41.0055 30.17 41.0114C30.1796 41.0162 30.2058 41.0289 30.2422 41.0428C30.2544 41.0474 30.3696 41.0942 30.5263 41.1044C30.5968 41.1091 30.8119 41.1177 31.0491 40.9951C31.3635 40.8324 31.5548 40.525 31.5847 40.1994C31.6073 39.953 31.5318 39.7694 31.5054 39.709C31.4709 39.6302 31.4336 39.5732 31.4144 39.5455C31.3754 39.4888 31.3398 39.4505 31.3296 39.4396C31.3044 39.4126 31.2872 39.3979 31.2935 39.4035L29.9628 40.8966C29.9422 40.8782 29.9051 40.8446 29.8669 40.8036C29.8503 40.7857 29.8099 40.7417 29.7677 40.6805C29.747 40.6505 29.7085 40.5916 29.6733 40.5111C29.6461 40.4491 29.5704 40.2641 29.5931 40.0166C29.623 39.6899 29.8148 39.3818 30.1302 39.2186C30.3683 39.0955 30.5847 39.104 30.6569 39.1087C30.817 39.1192 30.9374 39.1674 30.9562 39.1745C31.03 39.2028 31.0895 39.2354 31.1089 39.246C31.2034 39.2978 31.338 39.385 31.4713 39.4734C31.7617 39.6659 32.2091 39.9743 32.7419 40.3483L31.5927 41.9852Z" fill="white" mask="url(#path-10-inside-5_20_1106)"/>
<mask id="path-12-inside-6_20_1106" fill="white">
<path d="M35.3377 43.3921C35.3685 43.4712 35.6301 43.6519 35.9072 43.7988C36.1842 43.9457 36.9384 44.3523 37.5848 44.7025C38.7699 45.3577 39.7088 45.7983 39.7088 45.7079C39.7088 45.6853 39.247 45.4255 38.6776 45.1431C38.0927 44.8607 37.0923 44.3184 36.4459 43.9344C35.7841 43.5616 35.2915 43.313 35.3377 43.3921Z"/>
</mask>
<path d="M35.3377 43.3921C35.3685 43.4712 35.6301 43.6519 35.9072 43.7988C36.1842 43.9457 36.9384 44.3523 37.5848 44.7025C38.7699 45.3577 39.7088 45.7983 39.7088 45.7079C39.7088 45.6853 39.247 45.4255 38.6776 45.1431C38.0927 44.8607 37.0923 44.3184 36.4459 43.9344C35.7841 43.5616 35.2915 43.313 35.3377 43.3921Z" fill="black"/>
<path d="M35.3377 43.3921L36.2013 42.8879L36.241 42.9559L36.2696 43.0294L35.3377 43.3921ZM37.5848 44.7025L38.0612 43.8232L38.0686 43.8274L37.5848 44.7025ZM38.6776 45.1431L39.1124 44.2425L39.1219 44.2472L38.6776 45.1431ZM36.4459 43.9344L36.9366 43.0631L36.9467 43.0688L36.9567 43.0747L36.4459 43.9344ZM36.2696 43.0294C36.241 42.9559 36.2088 42.9008 36.1868 42.8665C36.1638 42.8308 36.1428 42.8041 36.1285 42.7869C36.101 42.7538 36.0801 42.7346 36.0757 42.7305C36.0667 42.7223 36.0743 42.7301 36.1073 42.7534C36.1704 42.798 36.2676 42.858 36.3755 42.9153L35.4388 44.6823C35.2698 44.5927 35.0976 44.4889 34.9529 44.3867C34.882 44.3365 34.8011 44.2752 34.7257 44.2062C34.692 44.1753 34.5062 44.0127 34.4058 43.7549L36.2696 43.0294ZM36.3755 42.9153C36.6573 43.0646 37.4154 43.4735 38.0611 43.8233L37.1085 45.5818C36.4613 45.2312 35.7112 44.8267 35.4388 44.6823L36.3755 42.9153ZM38.0686 43.8274C38.6491 44.1483 39.1603 44.4116 39.5181 44.5805C39.7017 44.6672 39.8232 44.7187 39.886 44.7416C39.9287 44.7571 39.8983 44.7425 39.8309 44.7312C39.8172 44.7289 39.6707 44.7008 39.4829 44.7421C39.3807 44.7646 39.1825 44.8257 39.002 45.0047C38.7956 45.2093 38.7088 45.4717 38.7088 45.7079H40.7088C40.7088 45.9498 40.6201 46.2168 40.41 46.425C40.2259 46.6076 40.0223 46.6713 39.9129 46.6953C39.7109 46.7398 39.5429 46.7108 39.5013 46.7039C39.3779 46.6832 39.2649 46.6439 39.2011 46.6206C39.0508 46.5659 38.8635 46.4832 38.6643 46.3891C38.2564 46.1965 37.7056 45.912 37.101 45.5777L38.0686 43.8274ZM38.7088 45.7079C38.7088 45.9112 38.7705 46.0634 38.8065 46.1386C38.8457 46.2204 38.888 46.2799 38.9136 46.3133C38.9642 46.3793 39.0114 46.4233 39.0294 46.4396C39.0696 46.4764 39.1021 46.4993 39.1063 46.5023C39.1216 46.5133 39.1252 46.5147 39.1056 46.5027C39.0717 46.482 39.0108 46.4467 38.9232 46.3983C38.7509 46.3031 38.5063 46.1744 38.2333 46.039L39.1219 44.2472C39.4183 44.3942 39.6893 44.5366 39.8902 44.6476C39.9892 44.7023 40.0794 44.7539 40.1498 44.797C40.1824 44.8169 40.2265 44.8446 40.2693 44.8752C40.2873 44.8881 40.3302 44.9191 40.3775 44.9623C40.399 44.9819 40.4489 45.0286 40.5012 45.0969C40.5156 45.1157 40.7088 45.349 40.7088 45.7079H38.7088ZM38.2427 46.0436C37.6279 45.7467 36.602 45.1904 35.9351 44.7941L36.9567 43.0747C37.5825 43.4465 38.5575 43.9746 39.1124 44.2426L38.2427 46.0436ZM35.9551 44.8056C35.63 44.6225 35.3596 44.4774 35.1834 44.3904C35.0863 44.3424 35.0521 44.3292 35.0597 44.332C35.0644 44.3337 35.0856 44.3413 35.1178 44.3495C35.1358 44.3541 35.2263 44.3779 35.3492 44.3774C35.4105 44.3772 35.5395 44.3713 35.6912 44.3141C35.8565 44.2519 36.0862 44.1115 36.2273 43.8331C36.3632 43.5649 36.3428 43.3135 36.3118 43.1719C36.2816 43.0339 36.2288 42.935 36.2013 42.8879L34.4742 43.8964C34.4438 43.8443 34.3891 43.7411 34.3581 43.5994C34.3263 43.4542 34.3061 43.1997 34.4432 42.9291C34.728 42.3671 35.3067 42.3776 35.3407 42.3774C35.5519 42.3765 35.7276 42.4468 35.737 42.4502C35.8446 42.4889 35.9662 42.5464 36.0692 42.5972C36.2932 42.7079 36.5999 42.8734 36.9366 43.0631L35.9551 44.8056Z" fill="white" mask="url(#path-12-inside-6_20_1106)"/>
<path d="M47.9945 44.7916C47.9204 44.7913 47.8421 44.7947 47.7538 44.8022C48.4202 44.8469 49.0798 45.0125 49.6534 45.2825C49.4344 45.1315 49.1717 45.0133 48.8708 44.9397L48.8708 44.9397L48.8667 44.9387C48.4495 44.8329 48.2338 44.7927 47.9945 44.7916Z" fill="black" stroke="white"/>
<mask id="path-15-inside-7_20_1106" fill="white">
<path d="M42.8639 47.0974C43.2025 47.2217 43.5411 47.3234 43.6334 47.3234C43.8643 47.3121 42.7561 46.8828 42.4791 46.8715C42.356 46.8715 42.5253 46.9732 42.8639 47.0974Z"/>
</mask>
<path d="M42.8639 47.0974C43.2025 47.2217 43.5411 47.3234 43.6334 47.3234C43.8643 47.3121 42.7561 46.8828 42.4791 46.8715C42.356 46.8715 42.5253 46.9732 42.8639 47.0974Z" fill="black"/>
<path d="M43.6334 47.3234L43.6823 48.3222L43.6579 48.3234H43.6334V47.3234ZM42.4791 46.8715V45.8715H42.4995L42.5198 45.8723L42.4791 46.8715ZM43.2084 46.1587C43.3614 46.2148 43.5101 46.2642 43.6245 46.298C43.6824 46.3151 43.7226 46.3256 43.7454 46.3308C43.7569 46.3335 43.7563 46.333 43.7468 46.3315C43.7448 46.3312 43.6998 46.3234 43.6334 46.3234V48.3234C43.4851 48.3234 43.3473 48.2915 43.2983 48.2802C43.221 48.2625 43.1381 48.2398 43.0575 48.216C42.8948 48.1679 42.7049 48.1043 42.5193 48.0362L43.2084 46.1587ZM43.5845 46.3246C43.5541 46.326 43.4916 46.3306 43.4131 46.3499C43.3473 46.366 43.1835 46.4125 43.0194 46.5499C42.819 46.7178 42.6604 46.9909 42.6649 47.3235C42.6687 47.5981 42.7834 47.7884 42.835 47.8642C42.936 48.0124 43.0514 48.0895 43.0568 48.0934C43.0731 48.105 43.0856 48.1129 43.0922 48.1169C43.0992 48.1212 43.1035 48.1236 43.1044 48.1241C43.1058 48.1249 43.1008 48.1221 43.0878 48.1158C43.0754 48.1098 43.0588 48.1021 43.038 48.0929C42.9959 48.0742 42.9435 48.0525 42.8838 48.0293C42.7631 47.9822 42.6307 47.9361 42.5199 47.9027C42.3713 47.8578 42.3641 47.8676 42.4383 47.8707L42.5198 45.8723C42.7326 45.881 42.9678 45.9487 43.0976 45.9879C43.2654 46.0385 43.4475 46.1025 43.6096 46.1656C43.7608 46.2245 43.9376 46.2992 44.0744 46.3751C44.1109 46.3953 44.1619 46.4251 44.2159 46.4635C44.2457 46.4847 44.3782 46.5771 44.4879 46.7382C44.5439 46.8203 44.6609 47.0165 44.6647 47.2962C44.6693 47.634 44.5085 47.9115 44.3036 48.0832C44.1351 48.2244 43.9644 48.2739 43.8893 48.2923C43.8015 48.3139 43.7271 48.32 43.6823 48.3222L43.5845 46.3246ZM42.4791 47.8715C42.4873 47.8715 42.6646 47.8776 42.8684 47.7827C42.985 47.7284 43.1979 47.5997 43.333 47.3314C43.4795 47.0406 43.4499 46.7568 43.3877 46.5714C43.2928 46.2881 43.0969 46.1414 43.0942 46.1391C43.0478 46.1008 43.0124 46.0801 43.0073 46.0771C42.9957 46.0702 43.0531 46.1017 43.2084 46.1587L42.5193 48.0362C42.336 47.9689 42.1394 47.8874 41.9894 47.7987C41.9496 47.7752 41.8868 47.7359 41.8207 47.6813C41.7982 47.6627 41.5904 47.502 41.4915 47.2073C41.4274 47.0161 41.398 46.7272 41.5467 46.432C41.684 46.1593 41.9012 46.0269 42.0243 45.9695C42.2412 45.8686 42.44 45.8715 42.4791 45.8715V47.8715Z" fill="white" mask="url(#path-15-inside-7_20_1106)"/>
<mask id="path-17-inside-8_20_1106" fill="white">
<path d="M43.9413 47.4476C44.0644 47.5832 45.0956 47.9221 45.188 47.8543C45.2188 47.8317 44.9263 47.7074 44.5416 47.5719C44.1568 47.4363 43.8951 47.3798 43.9413 47.4476Z"/>
</mask>
<path d="M43.9413 47.4476C44.0644 47.5832 45.0956 47.9221 45.188 47.8543C45.2188 47.8317 44.9263 47.7074 44.5416 47.5719C44.1568 47.4363 43.8951 47.3798 43.9413 47.4476Z" fill="black"/>
<path d="M43.9413 47.4476L43.2011 48.12L43.1541 48.0683L43.1149 48.0106L43.9413 47.4476ZM44.6815 46.7753C44.646 46.7362 44.6144 46.7082 44.5938 46.6911C44.5724 46.6734 44.5546 46.6606 44.5432 46.6527C44.5315 46.6445 44.5225 46.639 44.5175 46.6359C44.5122 46.6327 44.5092 46.631 44.5087 46.6308C44.5082 46.6305 44.5132 46.6332 44.525 46.6389C44.5365 46.6444 44.5518 46.6513 44.571 46.6596C44.6518 46.6944 44.7656 46.737 44.8873 46.7768C45.0105 46.8172 45.1174 46.8467 45.1848 46.8614C45.2222 46.8696 45.2212 46.8674 45.1944 46.8652C45.1826 46.8642 45.1339 46.8603 45.0651 46.8669C45.0296 46.8703 44.971 46.8781 44.9 46.8985C44.8326 46.9179 44.7178 46.9589 44.5963 47.0481L45.7797 48.6605C45.5493 48.8296 45.3145 48.8522 45.2551 48.8579C45.161 48.8668 45.0806 48.8625 45.0315 48.8585C44.9301 48.8502 44.8325 48.8316 44.7583 48.8154C44.6026 48.7814 44.4266 48.7305 44.2651 48.6776C44.1021 48.6242 43.9292 48.5609 43.7791 48.4961C43.7051 48.4642 43.6227 48.426 43.5442 48.3828C43.4968 48.3567 43.3373 48.2699 43.2011 48.12L44.6815 46.7753ZM44.5963 47.0481C44.4759 47.1365 44.3352 47.2828 44.2534 47.5012C44.1706 47.7224 44.1802 47.9322 44.2198 48.0909C44.2866 48.359 44.4452 48.5157 44.4763 48.5469C44.5315 48.6023 44.5801 48.6373 44.5997 48.651C44.6237 48.6678 44.6423 48.6788 44.6509 48.6839C44.675 48.6979 44.674 48.6951 44.6231 48.6731C44.5356 48.6351 44.3904 48.5789 44.2093 48.5151L44.8738 46.6287C45.0775 46.7005 45.2709 46.7741 45.4181 46.8378C45.4846 46.8666 45.5749 46.9076 45.6573 46.9555C45.6821 46.97 45.7896 47.0314 45.8933 47.1355C45.9303 47.1726 46.0923 47.3345 46.1603 47.6069C46.2004 47.7677 46.2099 47.9795 46.1264 48.2026C46.044 48.4228 45.902 48.5707 45.7797 48.6605L44.5963 47.0481ZM44.2093 48.5151C44.0329 48.4529 43.9191 48.4215 43.8746 48.4122C43.8217 48.4011 43.911 48.4277 44.0492 48.4155C44.0933 48.4116 44.1815 48.4008 44.2876 48.3624C44.3881 48.3259 44.5828 48.2362 44.7398 48.0256C44.919 47.7852 44.9604 47.5073 44.9236 47.2778C44.892 47.081 44.809 46.9452 44.7678 46.8846L43.1149 48.0106C43.0554 47.9234 42.7245 47.3827 43.1363 46.8303C43.2968 46.615 43.4973 46.5215 43.6056 46.4822C43.7195 46.4409 43.8177 46.4282 43.8738 46.4232C44.0601 46.4068 44.2302 46.4433 44.2851 46.4548C44.4561 46.4906 44.6655 46.5553 44.8738 46.6287L44.2093 48.5151Z" fill="white" mask="url(#path-17-inside-8_20_1106)"/>
<mask id="path-19-inside-9_20_1106" fill="white">
<path d="M45.4803 47.9785C45.7419 48.1706 49.5589 49.2664 49.759 49.2099C49.8975 49.1647 49.8975 49.1421 49.7436 49.1421C49.5743 49.1308 47.5427 48.5547 45.942 48.0576C45.6034 47.9559 45.4033 47.9221 45.4803 47.9785Z"/>
</mask>
<path d="M45.4803 47.9785C45.7419 48.1706 49.5589 49.2664 49.759 49.2099C49.8975 49.1647 49.8975 49.1421 49.7436 49.1421C49.5743 49.1308 47.5427 48.5547 45.942 48.0576C45.6034 47.9559 45.4033 47.9221 45.4803 47.9785Z" fill="black"/>
<path d="M49.759 49.2099L50.0691 50.1606L50.05 50.1668L50.0307 50.1723L49.759 49.2099ZM49.7436 49.1421V50.1421H49.7103L49.677 50.1399L49.7436 49.1421ZM45.942 48.0576L46.2296 47.0998L46.2386 47.1026L45.942 48.0576ZM46.072 47.1724C45.9898 47.112 45.9274 47.0898 45.9705 47.1086C45.9884 47.1165 46.0233 47.1307 46.0794 47.1515C46.19 47.1926 46.3462 47.246 46.5393 47.3086C46.9232 47.4329 47.4198 47.5828 47.919 47.7263C48.4184 47.8699 48.9107 48.0042 49.286 48.0983C49.4753 48.1458 49.6242 48.1803 49.7255 48.2007C49.7499 48.2056 49.7694 48.2092 49.7843 48.2118C49.7916 48.2131 49.7973 48.214 49.8014 48.2146C49.8055 48.2153 49.8074 48.2155 49.8072 48.2155C49.8072 48.2155 49.8036 48.215 49.7972 48.2144C49.7912 48.2139 49.779 48.2129 49.7621 48.2124C49.7584 48.2122 49.6379 48.205 49.4873 48.2475L50.0307 50.1723C49.8676 50.2183 49.7275 50.2123 49.6976 50.2113C49.641 50.2095 49.5904 50.204 49.5545 50.1994C49.481 50.1901 49.403 50.1758 49.3314 50.1614C49.1845 50.1319 49.0004 50.0886 48.7997 50.0383C48.3948 49.9368 47.879 49.7958 47.3665 49.6485C46.8537 49.5011 46.3345 49.3446 45.9229 49.2112C45.7182 49.1449 45.5317 49.0816 45.3827 49.0263C45.309 48.9989 45.2349 48.9699 45.1681 48.9406C45.1264 48.9224 45.0035 48.869 44.8886 48.7847L46.072 47.1724ZM49.4489 48.2592C49.4722 48.2516 49.4421 48.2596 49.3922 48.2844C49.3742 48.2934 49.2911 48.3342 49.1993 48.4141C49.1671 48.4421 48.78 48.768 48.8751 49.3269C48.9689 49.8775 49.432 50.0597 49.4678 50.0746C49.5778 50.1205 49.6675 50.1332 49.6869 50.136C49.7407 50.1438 49.7701 50.1421 49.7436 50.1421V48.1421C49.7941 48.1421 49.8811 48.1432 49.9739 48.1567C50.0128 48.1623 50.1173 48.1785 50.2375 48.2286C50.2834 48.2478 50.752 48.4349 50.8468 48.9911C50.9429 49.5557 50.5522 49.888 50.5119 49.923C50.412 50.01 50.3162 50.0586 50.2812 50.076C50.1971 50.1177 50.115 50.1456 50.0691 50.1606L49.4489 48.2592ZM49.677 50.1399C49.554 50.1317 49.4121 50.0965 49.366 50.0855C49.2792 50.0649 49.1704 50.0371 49.0473 50.0044C48.7997 49.9389 48.4734 49.8484 48.1058 49.7438C47.37 49.5343 46.4543 49.2638 45.6455 49.0126L46.2386 47.1026C47.0304 47.3485 47.9308 47.6145 48.6534 47.8202C49.0149 47.9232 49.3283 48.0099 49.5593 48.0711C49.6754 48.1019 49.7657 48.1248 49.8286 48.1398C49.9323 48.1644 49.8909 48.1497 49.8102 48.1443L49.677 50.1399ZM45.6544 49.0154C45.5805 48.9932 45.5184 48.976 45.4695 48.9635C45.4452 48.9573 45.4256 48.9527 45.4107 48.9494C45.4033 48.9477 45.3975 48.9465 45.3933 48.9457C45.3891 48.9449 45.3871 48.9445 45.3871 48.9445C45.3871 48.9445 45.3879 48.9447 45.3894 48.9449C45.3908 48.9451 45.3932 48.9455 45.3964 48.9459C45.4022 48.9466 45.4141 48.9481 45.4306 48.9493C45.4327 48.9494 45.5531 48.9618 45.7059 48.9251C45.7718 48.9093 45.9959 48.851 46.1927 48.6424C46.4593 48.3598 46.5116 47.9853 46.4251 47.6849C46.3603 47.4598 46.2341 47.3225 46.1952 47.2815C46.1418 47.2251 46.0941 47.1886 46.072 47.1724L44.8886 48.7847C44.8568 48.7614 44.8017 48.7186 44.7429 48.6565C44.6987 48.6099 44.5692 48.4676 44.5032 48.2382C44.4154 47.9335 44.4686 47.5554 44.7379 47.2699C44.9375 47.0584 45.1663 46.9978 45.2388 46.9804C45.4048 46.9406 45.546 46.9524 45.576 46.9546C45.6337 46.9588 45.6855 46.9665 45.7236 46.973C45.8677 46.9976 46.0491 47.0456 46.2296 47.0999L45.6544 49.0154Z" fill="white" mask="url(#path-19-inside-9_20_1106)"/>
<mask id="path-21-inside-10_20_1106" fill="white">
<path d="M50.7133 49.5262C50.9749 49.6165 51.2827 49.6843 51.4059 49.6843C51.529 49.6843 51.3905 49.6053 51.098 49.5262C50.39 49.3228 50.113 49.3341 50.7133 49.5262Z"/>
</mask>
<path d="M50.7133 49.5262C50.9749 49.6165 51.2827 49.6843 51.4059 49.6843C51.529 49.6843 51.3905 49.6053 51.098 49.5262C50.39 49.3228 50.113 49.3341 50.7133 49.5262Z" fill="black"/>
<path d="M50.7133 49.5262L51.018 48.5737L51.0289 48.5772L51.0397 48.581L50.7133 49.5262ZM51.098 49.5262L50.837 50.4915L50.8295 50.4895L50.822 50.4873L51.098 49.5262ZM51.0397 48.581C51.1328 48.6131 51.2395 48.6429 51.3318 48.6637C51.3774 48.674 51.4126 48.6806 51.4352 48.6841C51.4665 48.6889 51.4505 48.6843 51.4059 48.6843V50.6843C51.2242 50.6843 51.0228 50.6443 50.8912 50.6146C50.7334 50.5789 50.5554 50.5296 50.3868 50.4714L51.0397 48.581ZM51.4059 48.6843C51.392 48.6843 51.2816 48.6827 51.1421 48.7262C51.0731 48.7477 50.9175 48.804 50.766 48.9454C50.5859 49.1134 50.4423 49.3779 50.4512 49.6985C50.4588 49.9723 50.5753 50.1626 50.6351 50.246C50.7004 50.3372 50.7664 50.3959 50.8004 50.4241C50.8689 50.481 50.9261 50.5114 50.9385 50.5179C50.9839 50.5421 50.9634 50.5257 50.837 50.4915L51.3591 48.5608C51.5251 48.6057 51.7201 48.6684 51.8771 48.7519C51.9173 48.7733 51.996 48.8172 52.079 48.8862C52.1201 48.9204 52.1918 48.9848 52.2608 49.0811C52.3243 49.1698 52.4427 49.3648 52.4504 49.6429C52.4595 49.9679 52.3142 50.2362 52.1305 50.4076C51.9754 50.5524 51.8143 50.6115 51.7378 50.6354C51.5835 50.6835 51.4505 50.6843 51.4059 50.6843V48.6843ZM50.822 50.4873C50.6624 50.4415 50.536 50.4103 50.4482 50.3918C50.3258 50.366 50.3463 50.3792 50.4321 50.3778C50.4482 50.3775 50.565 50.3773 50.709 50.3291C50.7798 50.3054 50.9449 50.2421 51.0996 50.0846C51.2875 49.8932 51.4109 49.6089 51.3798 49.291C51.3541 49.0273 51.232 48.8507 51.175 48.7777C51.1105 48.6953 51.0474 48.6421 51.0153 48.6166C50.9504 48.5651 50.8967 48.5371 50.8857 48.5313C50.8478 48.5114 50.8679 48.5257 51.018 48.5737L50.4085 50.4786C50.2584 50.4306 50.0881 50.3715 49.9555 50.3018C49.9208 50.2836 49.8494 50.2446 49.7725 50.1836C49.7344 50.1534 49.6668 50.0959 49.5993 50.0095C49.5391 49.9325 49.4154 49.7523 49.3893 49.4854C49.3579 49.1642 49.4823 48.877 49.6727 48.6832C49.8298 48.5232 49.9987 48.4578 50.0747 48.4324C50.2288 48.3808 50.3612 48.3787 50.398 48.3781C50.5666 48.3752 50.7515 48.4117 50.8615 48.435C51.006 48.4655 51.1797 48.5092 51.3741 48.565L50.822 50.4873Z" fill="white" mask="url(#path-21-inside-10_20_1106)"/>
<path d="M55.3959 72.9785L55.3951 72.9778C55.098 72.73 54.3669 72.2762 53.8049 72.0048L53.8034 72.0041C53.0563 71.6403 51.5275 71.0585 50.0026 70.5349C48.4698 70.0086 47.0116 69.5655 46.3966 69.4605L46.3966 69.4606L46.3847 69.4583C46.2816 69.4381 46.0146 69.4626 45.7279 69.5619C45.2316 69.751 44.5933 70.392 44.2286 71.2045C44.0682 71.5676 43.9676 72.1871 43.9621 72.796C43.9595 73.0941 43.9799 73.3677 44.0192 73.5833C44.0389 73.691 44.0617 73.7759 44.0847 73.8382C44.0995 73.8783 44.1115 73.9012 44.1177 73.912C44.1579 73.9451 44.276 74.0171 44.5465 74.0957C44.8351 74.1795 45.2367 74.2542 45.7667 74.3155C46.825 74.4379 48.3338 74.5 50.3439 74.5C51.7123 74.5 52.841 74.455 53.7265 74.3669C54.6227 74.2777 55.2287 74.1478 55.579 73.9986C55.677 73.9559 55.7279 73.9295 55.7575 73.9105C55.7598 73.9091 55.7618 73.9077 55.7636 73.9065C55.7654 73.9007 55.7676 73.8925 55.7702 73.8814C55.781 73.8347 55.7911 73.764 55.8022 73.6443C55.8244 73.3938 55.8067 73.3691 55.8034 73.3645C55.8032 73.3642 55.8031 73.364 55.803 73.3638C55.7967 73.3521 55.7763 73.3196 55.7084 73.2524C55.6395 73.1843 55.542 73.0999 55.3959 72.9785Z" fill="black" stroke="white"/>
</svg>
