<svg width="77" height="75" viewBox="0 0 77 75" fill="none" xmlns="http://www.w3.org/2000/svg">
<mask id="path-1-inside-1_20_1063" fill="white">
<path d="M46.9819 0.173555C42.4776 0.520686 40.291 1.22615 34.1541 4.26075C32.2445 5.21256 31.6031 5.4925 31.6031 5.38052C31.6031 5.32454 31.7926 4.79824 32.0259 4.19356C32.5215 2.91701 32.6672 2.973 30.3641 3.63367C29.5623 3.85763 28.4545 4.17116 27.886 4.32793C26.4137 4.73105 24.198 5.60448 22.9006 6.28755C21.5595 6.99301 19.0814 8.86304 18.2797 9.77006C17.8861 10.1956 17.6675 10.3635 17.5946 10.274C17.5071 10.1396 16.8803 8.0456 16.545 6.73546C16.4576 6.42192 16.3555 6.15317 16.2972 6.15317C16.2389 6.15317 15.3497 6.94821 14.3148 7.91122C13.2798 8.88543 11.6034 10.4195 10.583 11.3377C7.71136 13.902 6.99708 14.7643 6.51604 16.2312C6.23908 17.0934 6.29738 18.9858 6.63266 20.1952C6.85131 20.9566 6.89504 21.315 6.793 21.7069C6.72012 21.9868 6.69096 22.6811 6.74927 23.241L6.83674 24.2488L4.46068 23.9912C1.38492 23.6553 0.0584134 23.5321 0.000105251 23.5657C-0.0144718 23.5769 1.48696 24.4616 3.35282 25.5365C5.21868 26.6003 6.77843 27.485 6.80758 27.5074C6.86589 27.5297 6.69096 28.2912 6.20992 30.0604C5.97669 30.9451 5.88923 34.7299 6.07873 36.0289C6.95335 42.2324 11.1224 48.0665 17.4634 51.9633C19.5333 53.2399 22.4925 54.5948 24.6936 55.2779L25.437 55.513L25.6848 56.3193C25.816 56.7672 26.1222 58.2005 26.3554 59.4994C27.23 64.1913 27.8714 65.8038 29.4749 67.4498C31.2678 69.2751 34.0958 70.1933 37.5068 70.0701C40.6409 69.947 43.0315 68.8496 44.8391 66.6996C45.772 65.591 46.7341 63.9002 47.2151 62.5004C47.288 62.3101 47.4046 61.9741 47.4775 61.7726C47.7691 60.9887 48.2647 59.421 48.8186 57.495C49.1247 56.3864 49.4163 55.3674 49.46 55.2331C49.5037 55.0651 49.9265 54.8411 50.8594 54.4828C57.696 51.8065 63.4102 46.7004 65.8008 41.1239C66.967 38.3916 67.5792 35.245 67.4189 32.7703L67.3314 31.5721L67.9874 31.9305C69.2556 32.6471 69.2848 32.6583 69.1827 32.4568C69.1244 32.356 68.6288 31.0459 68.0457 29.5453C66.5589 25.6149 66.3402 25.223 64.7076 23.5433L64.3577 23.185L64.8971 22.6811C65.932 21.6957 68.1332 20.0608 68.7746 19.7809C69.416 19.5009 69.9699 19.333 74.5325 18.1348C75.7424 17.8213 76.8211 17.5301 76.9377 17.4965C77.0835 17.4629 76.9814 17.3957 76.6462 17.295C76.0193 17.1158 67.4043 15.0442 66.8358 14.9322C66.4568 14.865 66.4277 14.8203 66.5005 14.5067C67.0399 12.5247 66.8358 10.5987 65.8737 8.67267C65.451 7.82164 64.1099 5.43651 63.9933 5.34693C63.935 5.30214 63.3665 5.76125 62.7251 6.35473L61.5589 7.44092L61.4569 5.20136C61.3694 3.26414 61.0487 0.49829 60.8884 0.39751C60.8592 0.375115 59.9846 0.453499 58.9351 0.565477C56.0342 0.879015 53.8039 1.4389 50.2034 2.72665C49.4163 3.01779 48.7457 3.24175 48.7311 3.21935C48.702 3.19696 49.0373 2.4803 49.4746 1.61807C49.9119 0.755839 50.2617 0.0391811 50.2617 0.0279834C50.2617 -0.0392034 48.7894 0.0279834 46.9819 0.173555ZM42.3755 5.61568C42.1423 6.11958 41.6904 7.0378 41.3843 7.65367C39.9558 10.5091 39.7371 10.9794 39.8246 11.0466C39.8683 11.0802 40.0141 11.0466 40.1453 10.957C40.3639 10.8226 40.4076 10.8226 40.466 10.9682C40.5826 11.237 41.6175 11.9536 42.2444 12.2C43.0752 12.5247 44.2851 12.7487 45.7283 12.8271L46.9819 12.8942L47.8419 12.1328C48.3084 11.7073 49.6786 10.5427 50.874 9.5573C52.0693 8.5607 53.1917 7.62008 53.3666 7.46331C53.5416 7.30654 54.3433 6.62348 55.145 5.95161L56.6027 4.70866L56.7194 5.12298C56.9089 5.72766 56.7194 8.12398 56.3841 9.80365C56.2092 10.5987 56.0197 11.5505 55.9468 11.92C55.8739 12.2896 55.7135 13.0958 55.5823 13.7117C55.4657 14.3276 55.2616 15.2906 55.145 15.8505C55.043 16.4215 54.8972 17.0598 54.8535 17.2838C54.7952 17.5077 54.7952 17.6869 54.8535 17.6869C54.9264 17.6869 57.1567 16.2088 57.5502 15.8952C57.594 15.8617 58.4394 15.2794 59.4453 14.6187C60.4511 13.9468 61.4423 13.2638 61.6755 13.107L62.0691 12.8271L61.9817 13.2078C61.763 14.07 61.2382 14.7979 59.6931 16.3991C58.7893 17.3174 58.0167 18.09 57.9584 18.1124C57.8855 18.1348 57.8418 18.2356 57.8418 18.3252C57.8418 18.4819 58.1916 18.4931 60.6989 18.4259L63.5706 18.3476L62.0983 19.5569C61.2965 20.2176 60.145 21.091 59.5473 21.4941C58.9351 21.8973 58.4394 22.2892 58.4394 22.3676C58.4249 22.4459 58.5269 22.6699 58.6727 22.8715C58.8622 23.1626 58.8622 23.2074 58.6873 23.0954C58.3374 22.8603 52.5503 20.3632 52.492 20.4191C52.4337 20.4639 54.0809 23.6889 54.4453 24.2264C54.562 24.3944 54.5911 24.5287 54.5182 24.5063C54.4308 24.4839 53.5561 23.8009 52.5795 23.0058C51.5882 22.1996 50.7282 21.5389 50.6845 21.5165C50.6262 21.4941 50.3346 22.0428 50.0431 22.7147L49.5037 23.9576L48.8332 23.3754C48.4542 23.0506 47.7107 22.4348 47.186 21.998C46.6466 21.5725 46.0344 21.0462 45.8157 20.8447C45.5971 20.6543 45.3493 20.4863 45.2618 20.4863C45.1598 20.4863 44.9411 20.6767 44.7516 20.9119C44.3434 21.4158 43.8624 21.8749 43.8041 21.8189C43.7749 21.7965 43.1773 21.1134 42.463 20.3184C41.7487 19.5121 40.9762 18.6611 40.7575 18.4147C40.5243 18.1684 40.0724 17.6533 39.7225 17.2726C39.2561 16.7463 39.0666 16.6119 38.9499 16.7127C38.7896 16.8471 36.1949 19.6913 33.9063 22.278C33.2649 22.9834 32.6818 23.5657 32.5798 23.5657C32.1425 23.5657 31.1804 20.6767 30.8597 18.4147C30.6993 17.2614 30.7722 14.6523 30.9763 14.014C31.02 13.8796 30.9909 13.7677 30.9326 13.7677C30.8597 13.7677 29.4311 14.6747 27.7402 15.7833C26.0638 16.8918 24.6499 17.7989 24.6061 17.7989C24.4604 17.7989 23.7461 16.8247 23.5274 16.3096C23.1339 15.4025 23.2213 14.0028 23.7461 12.6367C24.4458 10.8226 24.3583 10.9906 24.4458 11.2594C24.5333 11.4833 24.5478 11.4833 25.8743 11.1586L27.2154 10.8226L27.6673 11.1138C27.9151 11.2818 28.3962 11.4721 28.7169 11.5393C31.02 12.0096 35.9762 9.72527 41.5009 5.63807C42.186 5.12298 42.7691 4.70866 42.7837 4.69746C42.7983 4.69746 42.6234 5.11178 42.3755 5.61568ZM41.0782 25.335C41.0782 25.3574 40.568 25.3014 39.9558 25.2118C39.1249 25.0886 38.6001 25.0774 37.9879 25.1558C37.5214 25.2118 37.1424 25.2342 37.1424 25.2118C37.1424 25.1894 37.5797 24.6855 38.1045 24.1032L39.0666 23.0506L40.0724 24.1704C40.6263 24.7751 41.0782 25.3014 41.0782 25.335ZM30.1308 27.4178C30.6993 28.0336 31.1658 28.5823 31.1658 28.6383C31.1658 28.6943 30.9326 29.1198 30.6556 29.5901C29.883 30.8667 29.5478 32.1096 29.5478 33.6661C29.5478 36.152 30.3203 37.9437 32.2154 39.8361C33.7605 41.359 36.2678 42.322 38.7459 42.322C41.0199 42.322 42.7691 41.7173 44.5767 40.3176C45.5971 39.5226 45.9469 39.1642 46.5154 38.2908C47.565 36.6559 47.8274 35.7601 47.8274 33.7557C47.8274 32.3784 47.7691 31.9193 47.5067 31.1802C47.1422 30.1164 46.2676 28.6831 45.5825 27.9889C44.8245 27.2386 44.8245 27.2498 45.2618 26.7683C45.495 26.5219 45.6991 26.3204 45.7428 26.3204C45.8303 26.3316 48.702 28.7391 49.2268 29.2318L49.562 29.5677L49.1247 30.3292C46.7632 34.3716 49.2705 39.3882 54.1246 40.3624C57.1567 40.9671 60.2616 39.7241 61.9817 37.227L62.3607 36.6671L62.2732 37.115C62.0545 38.2236 61.3694 39.9257 60.5531 41.4038C58.2645 45.5806 53.7165 49.3094 48.5854 51.2243C45.6554 52.3104 44.4455 52.624 40.8595 53.2063C40.291 53.2958 38.8042 53.3406 36.6322 53.3406C33.5419 53.3406 33.1337 53.3182 31.4136 53.0271C27.9006 52.456 25.2184 51.5602 22.026 49.9141C17.3759 47.5066 13.8629 43.9681 12.1428 39.9369C10.9037 37.0031 10.481 34.0133 10.9329 31.3034L11.0932 30.2956L12.0553 31.0794C12.5947 31.5162 13.3527 32.244 13.7754 32.7031C14.4459 33.4534 17.0115 36.9023 18.7608 39.4218C19.9415 41.1239 19.8686 41.1015 20.0727 39.6346C20.1747 38.9291 20.3496 37.7645 20.4517 37.0591C20.5683 36.3536 20.6995 35.4018 20.7578 34.9539C20.8453 34.226 20.8744 34.1588 21.0931 34.282C21.2972 34.4164 21.2972 34.4052 21.1222 34.226C20.9619 34.0805 20.9473 33.8229 21.0202 33.1062C21.1951 31.5386 21.9531 28.3136 22.1864 28.1232C22.2155 28.112 22.8861 28.7167 23.6732 29.4894C24.4458 30.2732 25.1309 30.9003 25.1746 30.9003C25.2621 30.8891 28.5128 26.9139 28.746 26.5331C28.8189 26.41 28.9209 26.3092 28.9938 26.3092C29.0521 26.3092 29.5623 26.8131 30.1308 27.4178ZM61.2091 28.2016C61.865 28.5152 61.8796 28.5375 62.1274 29.4558C62.2732 29.9709 62.419 30.4972 62.4481 30.6203C62.4919 30.7435 62.2878 30.486 62.0108 30.0604C61.7339 29.6237 61.282 29.075 61.005 28.8287C60.5385 28.4032 60.2324 27.8769 60.4511 27.8769C60.5094 27.8769 60.8447 28.0224 61.2091 28.2016Z"/>
</mask>
<path d="M46.9819 0.173555C42.4776 0.520686 40.291 1.22615 34.1541 4.26075C32.2445 5.21256 31.6031 5.4925 31.6031 5.38052C31.6031 5.32454 31.7926 4.79824 32.0259 4.19356C32.5215 2.91701 32.6672 2.973 30.3641 3.63367C29.5623 3.85763 28.4545 4.17116 27.886 4.32793C26.4137 4.73105 24.198 5.60448 22.9006 6.28755C21.5595 6.99301 19.0814 8.86304 18.2797 9.77006C17.8861 10.1956 17.6675 10.3635 17.5946 10.274C17.5071 10.1396 16.8803 8.0456 16.545 6.73546C16.4576 6.42192 16.3555 6.15317 16.2972 6.15317C16.2389 6.15317 15.3497 6.94821 14.3148 7.91122C13.2798 8.88543 11.6034 10.4195 10.583 11.3377C7.71136 13.902 6.99708 14.7643 6.51604 16.2312C6.23908 17.0934 6.29738 18.9858 6.63266 20.1952C6.85131 20.9566 6.89504 21.315 6.793 21.7069C6.72012 21.9868 6.69096 22.6811 6.74927 23.241L6.83674 24.2488L4.46068 23.9912C1.38492 23.6553 0.0584134 23.5321 0.000105251 23.5657C-0.0144718 23.5769 1.48696 24.4616 3.35282 25.5365C5.21868 26.6003 6.77843 27.485 6.80758 27.5074C6.86589 27.5297 6.69096 28.2912 6.20992 30.0604C5.97669 30.9451 5.88923 34.7299 6.07873 36.0289C6.95335 42.2324 11.1224 48.0665 17.4634 51.9633C19.5333 53.2399 22.4925 54.5948 24.6936 55.2779L25.437 55.513L25.6848 56.3193C25.816 56.7672 26.1222 58.2005 26.3554 59.4994C27.23 64.1913 27.8714 65.8038 29.4749 67.4498C31.2678 69.2751 34.0958 70.1933 37.5068 70.0701C40.6409 69.947 43.0315 68.8496 44.8391 66.6996C45.772 65.591 46.7341 63.9002 47.2151 62.5004C47.288 62.3101 47.4046 61.9741 47.4775 61.7726C47.7691 60.9887 48.2647 59.421 48.8186 57.495C49.1247 56.3864 49.4163 55.3674 49.46 55.2331C49.5037 55.0651 49.9265 54.8411 50.8594 54.4828C57.696 51.8065 63.4102 46.7004 65.8008 41.1239C66.967 38.3916 67.5792 35.245 67.4189 32.7703L67.3314 31.5721L67.9874 31.9305C69.2556 32.6471 69.2848 32.6583 69.1827 32.4568C69.1244 32.356 68.6288 31.0459 68.0457 29.5453C66.5589 25.6149 66.3402 25.223 64.7076 23.5433L64.3577 23.185L64.8971 22.6811C65.932 21.6957 68.1332 20.0608 68.7746 19.7809C69.416 19.5009 69.9699 19.333 74.5325 18.1348C75.7424 17.8213 76.8211 17.5301 76.9377 17.4965C77.0835 17.4629 76.9814 17.3957 76.6462 17.295C76.0193 17.1158 67.4043 15.0442 66.8358 14.9322C66.4568 14.865 66.4277 14.8203 66.5005 14.5067C67.0399 12.5247 66.8358 10.5987 65.8737 8.67267C65.451 7.82164 64.1099 5.43651 63.9933 5.34693C63.935 5.30214 63.3665 5.76125 62.7251 6.35473L61.5589 7.44092L61.4569 5.20136C61.3694 3.26414 61.0487 0.49829 60.8884 0.39751C60.8592 0.375115 59.9846 0.453499 58.9351 0.565477C56.0342 0.879015 53.8039 1.4389 50.2034 2.72665C49.4163 3.01779 48.7457 3.24175 48.7311 3.21935C48.702 3.19696 49.0373 2.4803 49.4746 1.61807C49.9119 0.755839 50.2617 0.0391811 50.2617 0.0279834C50.2617 -0.0392034 48.7894 0.0279834 46.9819 0.173555ZM42.3755 5.61568C42.1423 6.11958 41.6904 7.0378 41.3843 7.65367C39.9558 10.5091 39.7371 10.9794 39.8246 11.0466C39.8683 11.0802 40.0141 11.0466 40.1453 10.957C40.3639 10.8226 40.4076 10.8226 40.466 10.9682C40.5826 11.237 41.6175 11.9536 42.2444 12.2C43.0752 12.5247 44.2851 12.7487 45.7283 12.8271L46.9819 12.8942L47.8419 12.1328C48.3084 11.7073 49.6786 10.5427 50.874 9.5573C52.0693 8.5607 53.1917 7.62008 53.3666 7.46331C53.5416 7.30654 54.3433 6.62348 55.145 5.95161L56.6027 4.70866L56.7194 5.12298C56.9089 5.72766 56.7194 8.12398 56.3841 9.80365C56.2092 10.5987 56.0197 11.5505 55.9468 11.92C55.8739 12.2896 55.7135 13.0958 55.5823 13.7117C55.4657 14.3276 55.2616 15.2906 55.145 15.8505C55.043 16.4215 54.8972 17.0598 54.8535 17.2838C54.7952 17.5077 54.7952 17.6869 54.8535 17.6869C54.9264 17.6869 57.1567 16.2088 57.5502 15.8952C57.594 15.8617 58.4394 15.2794 59.4453 14.6187C60.4511 13.9468 61.4423 13.2638 61.6755 13.107L62.0691 12.8271L61.9817 13.2078C61.763 14.07 61.2382 14.7979 59.6931 16.3991C58.7893 17.3174 58.0167 18.09 57.9584 18.1124C57.8855 18.1348 57.8418 18.2356 57.8418 18.3252C57.8418 18.4819 58.1916 18.4931 60.6989 18.4259L63.5706 18.3476L62.0983 19.5569C61.2965 20.2176 60.145 21.091 59.5473 21.4941C58.9351 21.8973 58.4394 22.2892 58.4394 22.3676C58.4249 22.4459 58.5269 22.6699 58.6727 22.8715C58.8622 23.1626 58.8622 23.2074 58.6873 23.0954C58.3374 22.8603 52.5503 20.3632 52.492 20.4191C52.4337 20.4639 54.0809 23.6889 54.4453 24.2264C54.562 24.3944 54.5911 24.5287 54.5182 24.5063C54.4308 24.4839 53.5561 23.8009 52.5795 23.0058C51.5882 22.1996 50.7282 21.5389 50.6845 21.5165C50.6262 21.4941 50.3346 22.0428 50.0431 22.7147L49.5037 23.9576L48.8332 23.3754C48.4542 23.0506 47.7107 22.4348 47.186 21.998C46.6466 21.5725 46.0344 21.0462 45.8157 20.8447C45.5971 20.6543 45.3493 20.4863 45.2618 20.4863C45.1598 20.4863 44.9411 20.6767 44.7516 20.9119C44.3434 21.4158 43.8624 21.8749 43.8041 21.8189C43.7749 21.7965 43.1773 21.1134 42.463 20.3184C41.7487 19.5121 40.9762 18.6611 40.7575 18.4147C40.5243 18.1684 40.0724 17.6533 39.7225 17.2726C39.2561 16.7463 39.0666 16.6119 38.9499 16.7127C38.7896 16.8471 36.1949 19.6913 33.9063 22.278C33.2649 22.9834 32.6818 23.5657 32.5798 23.5657C32.1425 23.5657 31.1804 20.6767 30.8597 18.4147C30.6993 17.2614 30.7722 14.6523 30.9763 14.014C31.02 13.8796 30.9909 13.7677 30.9326 13.7677C30.8597 13.7677 29.4311 14.6747 27.7402 15.7833C26.0638 16.8918 24.6499 17.7989 24.6061 17.7989C24.4604 17.7989 23.7461 16.8247 23.5274 16.3096C23.1339 15.4025 23.2213 14.0028 23.7461 12.6367C24.4458 10.8226 24.3583 10.9906 24.4458 11.2594C24.5333 11.4833 24.5478 11.4833 25.8743 11.1586L27.2154 10.8226L27.6673 11.1138C27.9151 11.2818 28.3962 11.4721 28.7169 11.5393C31.02 12.0096 35.9762 9.72527 41.5009 5.63807C42.186 5.12298 42.7691 4.70866 42.7837 4.69746C42.7983 4.69746 42.6234 5.11178 42.3755 5.61568ZM41.0782 25.335C41.0782 25.3574 40.568 25.3014 39.9558 25.2118C39.1249 25.0886 38.6001 25.0774 37.9879 25.1558C37.5214 25.2118 37.1424 25.2342 37.1424 25.2118C37.1424 25.1894 37.5797 24.6855 38.1045 24.1032L39.0666 23.0506L40.0724 24.1704C40.6263 24.7751 41.0782 25.3014 41.0782 25.335ZM30.1308 27.4178C30.6993 28.0336 31.1658 28.5823 31.1658 28.6383C31.1658 28.6943 30.9326 29.1198 30.6556 29.5901C29.883 30.8667 29.5478 32.1096 29.5478 33.6661C29.5478 36.152 30.3203 37.9437 32.2154 39.8361C33.7605 41.359 36.2678 42.322 38.7459 42.322C41.0199 42.322 42.7691 41.7173 44.5767 40.3176C45.5971 39.5226 45.9469 39.1642 46.5154 38.2908C47.565 36.6559 47.8274 35.7601 47.8274 33.7557C47.8274 32.3784 47.7691 31.9193 47.5067 31.1802C47.1422 30.1164 46.2676 28.6831 45.5825 27.9889C44.8245 27.2386 44.8245 27.2498 45.2618 26.7683C45.495 26.5219 45.6991 26.3204 45.7428 26.3204C45.8303 26.3316 48.702 28.7391 49.2268 29.2318L49.562 29.5677L49.1247 30.3292C46.7632 34.3716 49.2705 39.3882 54.1246 40.3624C57.1567 40.9671 60.2616 39.7241 61.9817 37.227L62.3607 36.6671L62.2732 37.115C62.0545 38.2236 61.3694 39.9257 60.5531 41.4038C58.2645 45.5806 53.7165 49.3094 48.5854 51.2243C45.6554 52.3104 44.4455 52.624 40.8595 53.2063C40.291 53.2958 38.8042 53.3406 36.6322 53.3406C33.5419 53.3406 33.1337 53.3182 31.4136 53.0271C27.9006 52.456 25.2184 51.5602 22.026 49.9141C17.3759 47.5066 13.8629 43.9681 12.1428 39.9369C10.9037 37.0031 10.481 34.0133 10.9329 31.3034L11.0932 30.2956L12.0553 31.0794C12.5947 31.5162 13.3527 32.244 13.7754 32.7031C14.4459 33.4534 17.0115 36.9023 18.7608 39.4218C19.9415 41.1239 19.8686 41.1015 20.0727 39.6346C20.1747 38.9291 20.3496 37.7645 20.4517 37.0591C20.5683 36.3536 20.6995 35.4018 20.7578 34.9539C20.8453 34.226 20.8744 34.1588 21.0931 34.282C21.2972 34.4164 21.2972 34.4052 21.1222 34.226C20.9619 34.0805 20.9473 33.8229 21.0202 33.1062C21.1951 31.5386 21.9531 28.3136 22.1864 28.1232C22.2155 28.112 22.8861 28.7167 23.6732 29.4894C24.4458 30.2732 25.1309 30.9003 25.1746 30.9003C25.2621 30.8891 28.5128 26.9139 28.746 26.5331C28.8189 26.41 28.9209 26.3092 28.9938 26.3092C29.0521 26.3092 29.5623 26.8131 30.1308 27.4178ZM61.2091 28.2016C61.865 28.5152 61.8796 28.5375 62.1274 29.4558C62.2732 29.9709 62.419 30.4972 62.4481 30.6203C62.4919 30.7435 62.2878 30.486 62.0108 30.0604C61.7339 29.6237 61.282 29.075 61.005 28.8287C60.5385 28.4032 60.2324 27.8769 60.4511 27.8769C60.5094 27.8769 60.8447 28.0224 61.2091 28.2016Z" fill="black" stroke="white" stroke-width="2" mask="url(#path-1-inside-1_20_1063)"/>
<path d="M5.51955 61.7897L5.51962 61.7896L5.52412 61.7977C6.00675 62.6628 6.56544 63.7127 6.77507 64.1383L6.77545 64.1391C7.12595 64.8538 7.91788 65.6951 8.91057 66.4291C9.89669 67.1583 11.0154 67.7331 11.9649 67.9595C12.3901 68.0566 13.1754 68.1003 14.0034 68.0796C14.8328 68.0588 15.6181 67.9755 16.0426 67.8539C18.4043 67.1748 20.7276 65.1987 21.6253 63.1197L21.6252 63.1197L21.6267 63.1164C21.7873 62.7515 21.8679 62.5192 21.9143 62.2544C21.9626 61.9792 21.9779 61.648 21.9779 61.0783L21.9779 61.0737C21.985 60.3004 21.9268 59.7839 21.7788 59.3502C21.633 58.9234 21.3868 58.5383 20.9531 58.0517L20.9519 58.0504C20.7209 57.7894 20.5586 57.6409 20.3544 57.5097C20.1391 57.3712 19.8593 57.2402 19.3717 57.039L19.3694 57.038C17.3037 56.1734 16.0046 56.0001 14.7207 56.3021C13.9204 56.4912 13.2379 56.5419 12.5534 56.3787C11.8756 56.2171 11.2465 55.8576 10.5315 55.32C10.3151 55.1592 10.102 55.0143 9.93725 54.9133C9.8874 54.8827 9.84484 54.858 9.80996 54.8387C9.74363 54.8612 9.65653 54.8932 9.55176 54.9337C9.31796 55.0242 9.01509 55.15 8.69869 55.2881C6.74508 56.1417 5.54039 56.8745 4.89503 57.5793C4.58082 57.9225 4.41344 58.2441 4.34653 58.5576C4.27968 58.8709 4.3045 59.2163 4.43932 59.621C4.55403 59.9634 5.02836 60.9462 5.51955 61.7897ZM9.91151 54.8079C9.91168 54.8078 9.90972 54.8082 9.9053 54.8093C9.90918 54.8086 9.91135 54.808 9.91151 54.8079Z" fill="black" stroke="white"/>
<path d="M53.2441 57.1881L53.2445 57.1877C53.7957 56.7038 54.8867 56.0796 56.5146 55.3538C56.8745 55.1935 57.2126 55.0498 57.467 54.9452C57.5652 54.9049 57.65 54.8707 57.7182 54.8438C57.7525 54.8634 57.792 54.8868 57.8364 54.9139C58.0102 55.0199 58.2364 55.1694 58.4675 55.3362L58.4745 55.3412L58.4745 55.3412C59.2581 55.8863 59.8851 56.2416 60.5541 56.3926C61.2316 56.5456 61.8968 56.4771 62.7311 56.2923L62.7323 56.292C63.6771 56.0804 64.6947 56.1441 65.9313 56.5174C67.0933 56.8778 67.8221 57.1843 68.3552 57.5565C68.8729 57.9178 69.235 58.3619 69.6192 59.0574C69.7855 59.3609 69.8483 59.507 69.8851 59.7223C69.9275 59.97 69.9363 60.3153 69.9363 61.0223C69.9363 61.6999 69.9243 62.0602 69.879 62.3372C69.837 62.5945 69.764 62.7929 69.6033 63.1418C69.0474 64.3394 68.2182 65.3202 66.8831 66.3351L53.2441 57.1881ZM53.2441 57.1881C52.5263 57.8168 52.2681 58.3264 52.2954 58.9484C52.3257 59.6399 52.708 60.5614 53.5755 61.995C54.1809 62.993 54.4671 63.536 54.797 64.2502C55.0963 64.8965 55.8112 65.6732 56.7498 66.3711C57.6794 67.0624 58.7677 67.631 59.7505 67.8966L59.7505 67.8965M53.2441 57.1881L59.7505 67.8965M59.7505 67.8965L59.7541 67.8975M59.7505 67.8965L59.7541 67.8975M59.7541 67.8975C60.1218 67.9998 60.7439 68.0762 61.4092 68.1051C62.0722 68.1338 62.7212 68.1129 63.1378 68.0429L63.1386 68.0428M59.7541 67.8975L63.1386 68.0428M63.1386 68.0428C64.4604 67.823 65.5816 67.3241 66.883 66.3351L63.1386 68.0428ZM57.874 54.7849C57.8759 54.7843 57.877 54.784 57.877 54.784C57.8769 54.784 57.876 54.7843 57.874 54.7849Z" fill="black" stroke="white"/>
<path d="M26.9801 69.6379L26.9801 69.6379L26.972 69.6411C26.5096 69.8187 26.0674 70.2268 25.7343 70.8085C25.4034 71.3864 25.2001 72.1029 25.1936 72.8404L25.1936 72.8426C25.1867 73.3648 25.2597 73.6491 25.3629 73.8157C25.4517 73.9591 25.6031 74.0793 25.9395 74.1655C26.2994 74.2568 26.9664 74.3367 27.8243 74.3951C28.6708 74.4527 29.6693 74.4875 30.6714 74.4972C31.6735 74.5069 32.6738 74.4916 33.5237 74.4498C34.3854 74.4075 35.0578 74.3394 35.4242 74.253L35.4241 74.2529L35.4282 74.252C35.9769 74.1274 36.2796 73.9706 36.4202 73.8391C36.4837 73.7797 36.5018 73.7371 36.5078 73.7144C36.5135 73.6931 36.5177 73.6554 36.4952 73.5882C36.4434 73.4335 36.2704 73.1873 35.8723 72.8688C35.4858 72.5596 34.9344 72.2197 34.2105 71.8626C33.5779 71.553 31.9922 70.9522 30.4726 70.4218C29.7181 70.1585 28.9909 69.9164 28.421 69.7406C28.1356 69.6526 27.894 69.5826 27.7101 69.5351C27.566 69.4979 27.4857 69.4824 27.4523 69.4763C27.4246 69.4832 27.3863 69.494 27.3389 69.5088C27.2356 69.5411 27.1063 69.5868 26.9801 69.6379Z" fill="black" stroke="white"/>
<path d="M40.9047 73.9489L40.9047 73.9489L40.9065 73.9515C40.9192 73.9699 40.9754 74.0354 41.1834 74.1108C41.3905 74.1859 41.7017 74.2541 42.1614 74.3089C43.0797 74.4184 44.4886 74.4636 46.6175 74.4636C49.5498 74.4636 50.1284 74.4273 50.8336 74.2638C51.4124 74.1287 51.699 74.0192 51.8422 73.9188C51.901 73.8776 51.9181 73.8492 51.9255 73.8339C51.9345 73.8154 51.9483 73.7754 51.9483 73.687C51.9483 73.4999 51.804 73.1742 51.1384 72.7061C50.4973 72.2552 49.4923 71.7574 48.0676 71.1963C47.1612 70.8427 45.9105 70.4066 44.8362 70.0587C44.2992 69.8848 43.8105 69.7343 43.4341 69.6278C43.2454 69.5744 43.0892 69.5333 42.9713 69.506C42.8858 69.4862 42.8387 69.4782 42.8195 69.4749C42.8168 69.4755 42.8138 69.4762 42.8105 69.477C42.7815 69.4838 42.7412 69.4952 42.6911 69.5118C42.5923 69.5445 42.4753 69.5905 42.3664 69.6395C41.7305 69.9405 41.1504 70.724 40.8443 71.6529C40.5336 72.5955 40.5725 73.4744 40.9047 73.9489Z" fill="black" stroke="white"/>
</svg>
