<svg width="77" height="75" viewBox="0 0 77 75" fill="none" xmlns="http://www.w3.org/2000/svg">
<mask id="path-1-inside-1_20_1104" fill="white">
<path d="M47.1725 0.16499C42.101 0.561292 40.0691 1.18877 33.9247 4.2491C32.4455 4.98666 31.1939 5.59213 31.1289 5.59213C31.0639 5.59213 31.0801 5.46003 31.1614 5.28389C31.4377 4.66742 31.8441 3.36843 31.7628 3.31339C31.649 3.24734 27.4553 4.48028 25.5697 5.12977C22.7251 6.12053 19.9617 7.80481 18.1574 9.65422C17.6861 10.1496 17.2309 10.5129 17.1822 10.4688C17.1171 10.4138 16.792 9.4891 16.4669 8.39926C16.1256 7.30943 15.833 6.40675 15.8005 6.38473C15.768 6.36271 15.1178 6.95717 14.3213 7.70574C13.541 8.45431 11.7693 10.0946 10.3713 11.3715C6.4864 14.9162 5.81995 15.9951 6.01501 18.4609C6.08003 19.1655 6.24258 20.0571 6.37262 20.4314L6.61644 21.136L5.64114 22.479C5.10473 23.2166 4.66585 23.8771 4.66585 23.9541C4.66585 24.1303 4.22697 24.1192 2.0488 23.9101C1.05725 23.822 0.146976 23.756 0.0169362 23.778C-0.113103 23.8 0.520839 24.1963 1.39861 24.6807C3.80434 25.9576 3.64179 25.7044 3.05661 27.3007C2.29263 29.3923 2.0488 30.6582 1.95127 33.0581C1.85374 35.4909 2.06506 36.9991 2.81279 39.2778C4.89342 45.5856 10.4851 50.9357 18.3525 54.1281C19.4253 54.5684 19.7992 54.7776 19.9292 55.0418C20.0268 55.2289 20.108 55.3941 20.108 55.4051C20.108 55.4161 19.7179 55.4051 19.2628 55.3721C18.7589 55.35 17.9786 55.4051 17.4097 55.5042C16.8571 55.6032 16.1581 55.6803 15.8492 55.6803C15.1828 55.6803 14.1262 55.251 13.0209 54.5244C12.517 54.2052 12.1269 54.04 11.9481 54.0621C11.3141 54.1831 8.16066 55.5482 7.25038 56.0986C5.90122 56.9242 5.41358 57.6068 5.42983 58.5975C5.44609 59.4892 5.6574 59.9075 7.1366 62.1752C7.72178 63.0559 8.2907 63.9696 8.40449 64.2118C8.81086 65.0704 10.859 66.6116 12.5657 67.3382C14.6139 68.2299 17.2147 68.362 19.5391 67.7125C20.4656 67.4483 21.8636 66.7878 22.6276 66.2594C22.9852 66.0172 23.3265 65.808 23.3753 65.808C23.424 65.808 23.7329 66.0942 24.058 66.4575C25.9923 68.5711 29.3734 69.6609 33.5184 69.5178C36.1354 69.4298 38.1998 68.8463 39.809 67.7345L40.4267 67.3162L41.3532 67.6024C42.7024 67.9987 43.4501 68.1198 44.6693 68.1198C48.798 68.1198 52.813 65.6099 54.0809 62.2413C54.7798 60.3589 54.2759 58.4654 52.6667 57.0343C52.0978 56.5279 48.9443 55.4821 47.6927 55.3941L46.7499 55.317L46.8474 54.8657C47.01 54.2382 47.0262 54.2162 48.3916 53.6107C54.6498 50.8366 59.4287 46.4773 61.867 41.3254C62.2083 40.5878 62.5822 39.6961 62.696 39.3328C62.8423 38.8815 63.1024 38.4962 63.525 38.1109C65.9145 35.9863 66.4834 32.5517 64.9067 29.9097C64.6953 29.5464 64.549 29.2602 64.5978 29.2602C64.6466 29.2602 65.7031 29.8326 66.9548 30.5261C68.2227 31.2307 69.2792 31.7701 69.3117 31.7481C69.393 31.693 67.3937 26.8053 66.8085 25.6274C66.3696 24.7467 65.9145 24.1743 64.9392 23.2166C64.5978 22.8973 64.3865 22.5671 64.4353 22.501C64.5653 22.3579 67.0198 20.3103 67.4912 19.9471C68.2877 19.3416 69.4743 18.9123 73.1317 17.9215C75.2611 17.3491 77.0003 16.8537 77.0003 16.8207C77.0003 16.7766 74.5783 16.2152 71.6362 15.5547L66.2558 14.3658L66.3859 13.8594C66.4509 13.5842 66.5159 12.7035 66.5159 11.9219C66.4996 10.7991 66.4184 10.2927 66.142 9.57716C65.8169 8.78456 64.0777 5.64717 63.6875 5.17381C63.59 5.05271 63.2649 5.28389 62.4196 6.0765L61.2818 7.1333L61.1843 5.50406C61.103 4.09499 60.6479 0.704402 60.5016 0.352133C60.4365 0.187007 56.7467 0.64936 55.0074 1.03465C53.4307 1.38692 51.4476 2.0144 49.5457 2.75196C48.798 3.04919 48.2291 3.21431 48.2779 3.12625C48.5054 2.74095 49.692 0.16499 49.692 0.0769234C49.692 -0.0331605 49.7245 -0.0331605 47.1725 0.16499ZM56.3566 6.10952C56.3403 7.70574 56.194 9.01573 55.8039 11.0963C55.3162 13.7273 54.8774 16.1272 54.7798 16.7326L54.6823 17.3601L58.2421 14.9162C60.209 13.5732 61.8182 12.4504 61.8507 12.4173C61.8832 12.3953 61.8507 12.5935 61.7857 12.8577C61.6069 13.7163 61.0217 14.5199 59.315 16.2482C58.4047 17.173 57.657 17.9545 57.657 17.9876C57.657 18.0316 58.9411 18.0206 60.5341 17.9766L63.3949 17.8885L62.3546 18.8132C61.7857 19.3196 60.6316 20.2223 59.8026 20.8057L58.2746 21.8735L58.5347 22.2258C58.681 22.424 58.7948 22.5891 58.7948 22.6111C58.7948 22.6441 56.6004 21.7524 53.9508 20.6296C53.1218 20.2773 52.3904 20.0131 52.3578 20.0461C52.3091 20.0792 52.3578 20.2113 52.4554 20.3434C52.7155 20.6736 54.5685 24.0092 54.5035 24.0532C54.471 24.0752 53.6582 23.4697 51.0087 21.4112C50.7811 21.2461 50.5535 21.147 50.4885 21.191C50.4235 21.2461 50.1472 21.7855 49.9033 22.4129L49.432 23.5358L47.8715 22.3029C47.01 21.6203 46.0672 20.8498 45.7583 20.5966C45.4657 20.3434 45.1732 20.1342 45.1244 20.1342C45.0594 20.1232 44.7343 20.4535 44.3767 20.8498L43.7265 21.5653L43.4014 21.202C42.5399 20.2333 38.9313 16.5455 38.8337 16.5124C38.7687 16.5014 37.6634 17.6903 36.3792 19.1545C33.7134 22.2038 32.5918 23.4257 32.4455 23.4257C32.2667 23.4257 31.9904 22.8863 31.5678 21.7965C30.8038 19.7709 30.625 18.6811 30.6087 16.1272C30.5925 14.8172 30.56 13.7383 30.5112 13.7383C30.4624 13.7383 29.0808 14.652 27.4228 15.7749C25.4072 17.1289 24.3668 17.7674 24.2368 17.7014C23.8954 17.5032 23.1802 16.3693 23.0177 15.7419C22.9201 15.4006 22.8876 14.7731 22.9364 14.3438C23.0664 13.4191 23.8629 11.2725 24.0255 11.4376C24.0905 11.5256 24.5619 11.4596 25.5372 11.2504C26.5125 11.0303 26.9839 10.9752 27.0652 11.0633C27.309 11.3165 28.333 11.6467 28.8857 11.6467C31.4865 11.6467 35.4039 9.72027 40.9794 5.70221C41.7759 5.12977 42.3936 4.73347 42.3448 4.82154C41.9547 5.60313 39.4514 10.8651 39.4514 10.9312C39.4514 10.9752 39.5652 10.9752 39.6952 10.9422C39.8578 10.8982 40.2642 11.0853 40.8331 11.4706C41.9547 12.2412 43.0438 12.5274 45.1406 12.6045L46.6849 12.6705L49.8383 9.98447C51.5776 8.50935 53.707 6.69296 54.5523 5.9554C55.4138 5.21784 56.1615 4.61238 56.2428 4.61238C56.3078 4.60137 56.3566 5.28389 56.3566 6.10952ZM39.9553 23.833L40.8819 24.7908L39.7278 24.9889C38.3461 25.2311 37.387 25.5944 36.2167 26.3319L35.3389 26.8934L35.729 26.442C37.7772 24.1082 38.8825 22.8753 38.9638 22.8753C39.0125 22.8753 39.4514 23.3046 39.9553 23.833ZM30.9176 28.0492L32.6569 29.8546L32.8844 29.5574C33.2583 29.073 33.2745 29.2161 32.9332 29.8876C32.7544 30.2399 32.5106 30.9665 32.3805 31.5169C31.584 34.7974 32.9982 38.1439 36.0379 40.1695C38.6062 41.8868 41.8897 42.2611 44.8806 41.1712C45.3357 41.0061 46.2622 40.4997 46.9287 40.0484C50.6836 37.5054 51.7564 32.8379 49.4482 29.084C49.3019 28.8528 49.2531 28.6987 49.3344 28.7648C49.6433 29.018 51.09 30.2069 51.285 30.372C51.4313 30.5041 51.4313 30.7023 51.2363 31.3077C50.8786 32.4196 50.9274 34.2139 51.3175 35.2707C52.0327 37.1752 53.7558 38.8154 55.7389 39.498C56.2915 39.6741 56.8605 39.8282 57.0068 39.8282C57.153 39.8282 57.3156 39.8612 57.3806 39.8943C57.4944 39.9823 56.6491 41.6336 55.9827 42.5803C55.2675 43.6041 54.0158 45.0682 53.2519 45.7507C52.6017 46.3232 52.5854 46.3342 52.3416 46.114C51.3988 45.1893 48.603 45.3985 45.9534 46.5764C45.0106 47.0057 43.1738 47.9964 43.2388 48.0515C43.2713 48.0735 44.2141 47.7873 45.3357 47.424C47.5626 46.7085 49.2694 46.3782 50.1797 46.4883C50.8136 46.5653 51.8052 46.8626 51.8052 46.9727C51.8052 47.0937 49.4807 48.679 48.4729 49.2624C46.7011 50.2642 44.7018 51.0678 41.7271 51.9705C38.9638 52.8071 35.3227 53.2144 31.649 53.1153C29.0645 53.0383 27.6016 52.8621 25.2771 52.3337C23.0177 51.8163 21.2459 51.2109 18.9702 50.1541C16.0118 48.789 13.9312 47.3579 11.9806 45.3764C9.00592 42.3271 7.15285 38.8375 6.86027 35.7001C6.8115 35.1496 6.73023 34.4891 6.69772 34.2139C6.53517 33.0581 7.26664 28.5556 7.67301 28.2914C7.80305 28.1923 10.0462 29.5134 11.2654 30.405C11.9318 30.8894 12.9071 31.715 13.4273 32.2434C14.3375 33.1791 19.7829 40.1254 19.7829 40.3676C19.7829 40.4337 19.8642 40.4887 19.9455 40.4887C20.043 40.4887 20.108 40.4557 20.108 40.4006C20.108 40.1364 20.7907 34.5332 21.0021 33.0581C21.4247 30.0087 21.9448 27.8181 22.2374 28.0162C22.3025 28.0602 22.9852 28.6877 23.7329 29.3923C24.7407 30.339 25.1471 30.6582 25.2609 30.5481C25.3584 30.4821 25.6672 30.1188 25.9598 29.7555C26.2524 29.3923 27.0326 28.4125 27.6991 27.5759C28.3818 26.7392 28.9832 26.0897 29.0483 26.1448C29.1133 26.1888 29.9585 27.0475 30.9176 28.0492ZM53.2356 27.8401C53.5119 27.9612 53.4794 28.0162 52.8292 28.6767C52.4391 29.073 52.1303 29.4363 52.1303 29.5023C52.1303 29.5684 52.0978 29.6014 52.049 29.5684C52.0002 29.5354 52.0327 29.3923 52.114 29.2491C52.2115 29.106 52.3904 28.6987 52.5366 28.3465C52.6667 28.0052 52.8292 27.719 52.8617 27.719C52.9105 27.719 53.0731 27.774 53.2356 27.8401Z"/>
</mask>
<path d="M47.1725 0.16499C42.101 0.561292 40.0691 1.18877 33.9247 4.2491C32.4455 4.98666 31.1939 5.59213 31.1289 5.59213C31.0639 5.59213 31.0801 5.46003 31.1614 5.28389C31.4377 4.66742 31.8441 3.36843 31.7628 3.31339C31.649 3.24734 27.4553 4.48028 25.5697 5.12977C22.7251 6.12053 19.9617 7.80481 18.1574 9.65422C17.6861 10.1496 17.2309 10.5129 17.1822 10.4688C17.1171 10.4138 16.792 9.4891 16.4669 8.39926C16.1256 7.30943 15.833 6.40675 15.8005 6.38473C15.768 6.36271 15.1178 6.95717 14.3213 7.70574C13.541 8.45431 11.7693 10.0946 10.3713 11.3715C6.4864 14.9162 5.81995 15.9951 6.01501 18.4609C6.08003 19.1655 6.24258 20.0571 6.37262 20.4314L6.61644 21.136L5.64114 22.479C5.10473 23.2166 4.66585 23.8771 4.66585 23.9541C4.66585 24.1303 4.22697 24.1192 2.0488 23.9101C1.05725 23.822 0.146976 23.756 0.0169362 23.778C-0.113103 23.8 0.520839 24.1963 1.39861 24.6807C3.80434 25.9576 3.64179 25.7044 3.05661 27.3007C2.29263 29.3923 2.0488 30.6582 1.95127 33.0581C1.85374 35.4909 2.06506 36.9991 2.81279 39.2778C4.89342 45.5856 10.4851 50.9357 18.3525 54.1281C19.4253 54.5684 19.7992 54.7776 19.9292 55.0418C20.0268 55.2289 20.108 55.3941 20.108 55.4051C20.108 55.4161 19.7179 55.4051 19.2628 55.3721C18.7589 55.35 17.9786 55.4051 17.4097 55.5042C16.8571 55.6032 16.1581 55.6803 15.8492 55.6803C15.1828 55.6803 14.1262 55.251 13.0209 54.5244C12.517 54.2052 12.1269 54.04 11.9481 54.0621C11.3141 54.1831 8.16066 55.5482 7.25038 56.0986C5.90122 56.9242 5.41358 57.6068 5.42983 58.5975C5.44609 59.4892 5.6574 59.9075 7.1366 62.1752C7.72178 63.0559 8.2907 63.9696 8.40449 64.2118C8.81086 65.0704 10.859 66.6116 12.5657 67.3382C14.6139 68.2299 17.2147 68.362 19.5391 67.7125C20.4656 67.4483 21.8636 66.7878 22.6276 66.2594C22.9852 66.0172 23.3265 65.808 23.3753 65.808C23.424 65.808 23.7329 66.0942 24.058 66.4575C25.9923 68.5711 29.3734 69.6609 33.5184 69.5178C36.1354 69.4298 38.1998 68.8463 39.809 67.7345L40.4267 67.3162L41.3532 67.6024C42.7024 67.9987 43.4501 68.1198 44.6693 68.1198C48.798 68.1198 52.813 65.6099 54.0809 62.2413C54.7798 60.3589 54.2759 58.4654 52.6667 57.0343C52.0978 56.5279 48.9443 55.4821 47.6927 55.3941L46.7499 55.317L46.8474 54.8657C47.01 54.2382 47.0262 54.2162 48.3916 53.6107C54.6498 50.8366 59.4287 46.4773 61.867 41.3254C62.2083 40.5878 62.5822 39.6961 62.696 39.3328C62.8423 38.8815 63.1024 38.4962 63.525 38.1109C65.9145 35.9863 66.4834 32.5517 64.9067 29.9097C64.6953 29.5464 64.549 29.2602 64.5978 29.2602C64.6466 29.2602 65.7031 29.8326 66.9548 30.5261C68.2227 31.2307 69.2792 31.7701 69.3117 31.7481C69.393 31.693 67.3937 26.8053 66.8085 25.6274C66.3696 24.7467 65.9145 24.1743 64.9392 23.2166C64.5978 22.8973 64.3865 22.5671 64.4353 22.501C64.5653 22.3579 67.0198 20.3103 67.4912 19.9471C68.2877 19.3416 69.4743 18.9123 73.1317 17.9215C75.2611 17.3491 77.0003 16.8537 77.0003 16.8207C77.0003 16.7766 74.5783 16.2152 71.6362 15.5547L66.2558 14.3658L66.3859 13.8594C66.4509 13.5842 66.5159 12.7035 66.5159 11.9219C66.4996 10.7991 66.4184 10.2927 66.142 9.57716C65.8169 8.78456 64.0777 5.64717 63.6875 5.17381C63.59 5.05271 63.2649 5.28389 62.4196 6.0765L61.2818 7.1333L61.1843 5.50406C61.103 4.09499 60.6479 0.704402 60.5016 0.352133C60.4365 0.187007 56.7467 0.64936 55.0074 1.03465C53.4307 1.38692 51.4476 2.0144 49.5457 2.75196C48.798 3.04919 48.2291 3.21431 48.2779 3.12625C48.5054 2.74095 49.692 0.16499 49.692 0.0769234C49.692 -0.0331605 49.7245 -0.0331605 47.1725 0.16499ZM56.3566 6.10952C56.3403 7.70574 56.194 9.01573 55.8039 11.0963C55.3162 13.7273 54.8774 16.1272 54.7798 16.7326L54.6823 17.3601L58.2421 14.9162C60.209 13.5732 61.8182 12.4504 61.8507 12.4173C61.8832 12.3953 61.8507 12.5935 61.7857 12.8577C61.6069 13.7163 61.0217 14.5199 59.315 16.2482C58.4047 17.173 57.657 17.9545 57.657 17.9876C57.657 18.0316 58.9411 18.0206 60.5341 17.9766L63.3949 17.8885L62.3546 18.8132C61.7857 19.3196 60.6316 20.2223 59.8026 20.8057L58.2746 21.8735L58.5347 22.2258C58.681 22.424 58.7948 22.5891 58.7948 22.6111C58.7948 22.6441 56.6004 21.7524 53.9508 20.6296C53.1218 20.2773 52.3904 20.0131 52.3578 20.0461C52.3091 20.0792 52.3578 20.2113 52.4554 20.3434C52.7155 20.6736 54.5685 24.0092 54.5035 24.0532C54.471 24.0752 53.6582 23.4697 51.0087 21.4112C50.7811 21.2461 50.5535 21.147 50.4885 21.191C50.4235 21.2461 50.1472 21.7855 49.9033 22.4129L49.432 23.5358L47.8715 22.3029C47.01 21.6203 46.0672 20.8498 45.7583 20.5966C45.4657 20.3434 45.1732 20.1342 45.1244 20.1342C45.0594 20.1232 44.7343 20.4535 44.3767 20.8498L43.7265 21.5653L43.4014 21.202C42.5399 20.2333 38.9313 16.5455 38.8337 16.5124C38.7687 16.5014 37.6634 17.6903 36.3792 19.1545C33.7134 22.2038 32.5918 23.4257 32.4455 23.4257C32.2667 23.4257 31.9904 22.8863 31.5678 21.7965C30.8038 19.7709 30.625 18.6811 30.6087 16.1272C30.5925 14.8172 30.56 13.7383 30.5112 13.7383C30.4624 13.7383 29.0808 14.652 27.4228 15.7749C25.4072 17.1289 24.3668 17.7674 24.2368 17.7014C23.8954 17.5032 23.1802 16.3693 23.0177 15.7419C22.9201 15.4006 22.8876 14.7731 22.9364 14.3438C23.0664 13.4191 23.8629 11.2725 24.0255 11.4376C24.0905 11.5256 24.5619 11.4596 25.5372 11.2504C26.5125 11.0303 26.9839 10.9752 27.0652 11.0633C27.309 11.3165 28.333 11.6467 28.8857 11.6467C31.4865 11.6467 35.4039 9.72027 40.9794 5.70221C41.7759 5.12977 42.3936 4.73347 42.3448 4.82154C41.9547 5.60313 39.4514 10.8651 39.4514 10.9312C39.4514 10.9752 39.5652 10.9752 39.6952 10.9422C39.8578 10.8982 40.2642 11.0853 40.8331 11.4706C41.9547 12.2412 43.0438 12.5274 45.1406 12.6045L46.6849 12.6705L49.8383 9.98447C51.5776 8.50935 53.707 6.69296 54.5523 5.9554C55.4138 5.21784 56.1615 4.61238 56.2428 4.61238C56.3078 4.60137 56.3566 5.28389 56.3566 6.10952ZM39.9553 23.833L40.8819 24.7908L39.7278 24.9889C38.3461 25.2311 37.387 25.5944 36.2167 26.3319L35.3389 26.8934L35.729 26.442C37.7772 24.1082 38.8825 22.8753 38.9638 22.8753C39.0125 22.8753 39.4514 23.3046 39.9553 23.833ZM30.9176 28.0492L32.6569 29.8546L32.8844 29.5574C33.2583 29.073 33.2745 29.2161 32.9332 29.8876C32.7544 30.2399 32.5106 30.9665 32.3805 31.5169C31.584 34.7974 32.9982 38.1439 36.0379 40.1695C38.6062 41.8868 41.8897 42.2611 44.8806 41.1712C45.3357 41.0061 46.2622 40.4997 46.9287 40.0484C50.6836 37.5054 51.7564 32.8379 49.4482 29.084C49.3019 28.8528 49.2531 28.6987 49.3344 28.7648C49.6433 29.018 51.09 30.2069 51.285 30.372C51.4313 30.5041 51.4313 30.7023 51.2363 31.3077C50.8786 32.4196 50.9274 34.2139 51.3175 35.2707C52.0327 37.1752 53.7558 38.8154 55.7389 39.498C56.2915 39.6741 56.8605 39.8282 57.0068 39.8282C57.153 39.8282 57.3156 39.8612 57.3806 39.8943C57.4944 39.9823 56.6491 41.6336 55.9827 42.5803C55.2675 43.6041 54.0158 45.0682 53.2519 45.7507C52.6017 46.3232 52.5854 46.3342 52.3416 46.114C51.3988 45.1893 48.603 45.3985 45.9534 46.5764C45.0106 47.0057 43.1738 47.9964 43.2388 48.0515C43.2713 48.0735 44.2141 47.7873 45.3357 47.424C47.5626 46.7085 49.2694 46.3782 50.1797 46.4883C50.8136 46.5653 51.8052 46.8626 51.8052 46.9727C51.8052 47.0937 49.4807 48.679 48.4729 49.2624C46.7011 50.2642 44.7018 51.0678 41.7271 51.9705C38.9638 52.8071 35.3227 53.2144 31.649 53.1153C29.0645 53.0383 27.6016 52.8621 25.2771 52.3337C23.0177 51.8163 21.2459 51.2109 18.9702 50.1541C16.0118 48.789 13.9312 47.3579 11.9806 45.3764C9.00592 42.3271 7.15285 38.8375 6.86027 35.7001C6.8115 35.1496 6.73023 34.4891 6.69772 34.2139C6.53517 33.0581 7.26664 28.5556 7.67301 28.2914C7.80305 28.1923 10.0462 29.5134 11.2654 30.405C11.9318 30.8894 12.9071 31.715 13.4273 32.2434C14.3375 33.1791 19.7829 40.1254 19.7829 40.3676C19.7829 40.4337 19.8642 40.4887 19.9455 40.4887C20.043 40.4887 20.108 40.4557 20.108 40.4006C20.108 40.1364 20.7907 34.5332 21.0021 33.0581C21.4247 30.0087 21.9448 27.8181 22.2374 28.0162C22.3025 28.0602 22.9852 28.6877 23.7329 29.3923C24.7407 30.339 25.1471 30.6582 25.2609 30.5481C25.3584 30.4821 25.6672 30.1188 25.9598 29.7555C26.2524 29.3923 27.0326 28.4125 27.6991 27.5759C28.3818 26.7392 28.9832 26.0897 29.0483 26.1448C29.1133 26.1888 29.9585 27.0475 30.9176 28.0492ZM53.2356 27.8401C53.5119 27.9612 53.4794 28.0162 52.8292 28.6767C52.4391 29.073 52.1303 29.4363 52.1303 29.5023C52.1303 29.5684 52.0978 29.6014 52.049 29.5684C52.0002 29.5354 52.0327 29.3923 52.114 29.2491C52.2115 29.106 52.3904 28.6987 52.5366 28.3465C52.6667 28.0052 52.8292 27.719 52.8617 27.719C52.9105 27.719 53.0731 27.774 53.2356 27.8401Z" fill="black" stroke="white" stroke-width="2" mask="url(#path-1-inside-1_20_1104)"/>
<mask id="path-2-inside-2_20_1104" fill="white">
<path d="M20.4494 38.4521C20.5794 38.6833 21.3271 39.3878 21.4572 39.3878C21.5222 39.3878 21.3921 39.2007 21.1483 38.9695C20.5956 38.4742 20.3681 38.298 20.4494 38.4521Z"/>
</mask>
<path d="M20.4494 38.4521C20.5794 38.6833 21.3271 39.3878 21.4572 39.3878C21.5222 39.3878 21.3921 39.2007 21.1483 38.9695C20.5956 38.4742 20.3681 38.298 20.4494 38.4521Z" fill="black"/>
<path d="M20.4494 38.4521L19.5778 38.9424L19.5711 38.9306L19.5648 38.9186L20.4494 38.4521ZM21.1483 38.9695L21.8158 38.2249L21.8262 38.2342L21.8364 38.2439L21.1483 38.9695ZM21.3209 37.9619C21.2978 37.9208 21.2846 37.9079 21.3052 37.9336C21.3204 37.9526 21.3451 37.9815 21.3803 38.0199C21.4504 38.0963 21.5415 38.1878 21.636 38.276C21.7321 38.3658 21.8167 38.4383 21.8734 38.482C21.9038 38.5054 21.9087 38.507 21.8931 38.4977C21.8858 38.4933 21.855 38.4752 21.807 38.4554C21.7822 38.4451 21.7425 38.4302 21.6913 38.4171C21.6427 38.4046 21.5609 38.3878 21.4572 38.3878V40.3878C21.2537 40.3878 21.0992 40.3269 21.0446 40.3044C20.9713 40.2741 20.9111 40.2406 20.8706 40.2166C20.7887 40.1679 20.7128 40.1126 20.6528 40.0663C20.5287 39.9707 20.3939 39.8526 20.2705 39.7374C20.1455 39.6206 20.0172 39.4926 19.9065 39.3719C19.8166 39.2739 19.6729 39.1114 19.5778 38.9424L21.3209 37.9619ZM21.4572 38.3878C21.3489 38.3878 21.1701 38.4063 20.9801 38.5123C20.7719 38.6284 20.6219 38.8102 20.542 39.0133C20.4107 39.3471 20.5074 39.6266 20.5193 39.6633C20.5466 39.7473 20.5786 39.8032 20.5876 39.8188C20.6003 39.8405 20.6089 39.8522 20.6089 39.8523C20.6089 39.8523 20.5969 39.8362 20.5683 39.8048C20.5412 39.7749 20.505 39.7376 20.4603 39.6952L21.8364 38.2439C21.9841 38.3839 22.1246 38.5355 22.2282 38.6785C22.265 38.7293 22.3636 38.8667 22.4219 39.0467C22.4407 39.1046 22.5388 39.4005 22.4031 39.7454C22.3211 39.9541 22.1674 40.1401 21.954 40.2591C21.759 40.3679 21.5735 40.3878 21.4572 40.3878V38.3878ZM20.4809 39.7142C20.1996 39.4621 20.0367 39.3238 19.9619 39.2678C19.945 39.2552 19.951 39.2608 19.9728 39.2739C19.9837 39.2805 20.0118 39.297 20.0524 39.3154C20.0828 39.3291 20.1768 39.3704 20.3087 39.3888C20.4199 39.4042 20.7748 39.4322 21.094 39.1535C21.4264 38.8632 21.439 38.4899 21.432 38.3568C21.4243 38.2121 21.3857 38.1069 21.3733 38.074C21.3564 38.0292 21.3404 37.998 21.3339 37.9857L19.5648 38.9186C19.5577 38.9051 19.4482 38.715 19.4348 38.4628C19.4272 38.3207 19.4418 37.941 19.7786 37.6469C20.1022 37.3644 20.4639 37.3911 20.5844 37.4078C20.8175 37.4403 20.9884 37.5508 21.0054 37.5611C21.0653 37.5972 21.1193 37.636 21.1603 37.6667C21.3172 37.7841 21.5444 37.9816 21.8158 38.2249L20.4809 39.7142Z" fill="white" mask="url(#path-2-inside-2_20_1104)"/>
<mask id="path-4-inside-3_20_1104" fill="white">
<path d="M21.571 39.564C21.571 39.619 21.7661 39.8062 21.9937 39.9933L22.4163 40.3236L22.0424 39.9383C21.571 39.4429 21.571 39.4429 21.571 39.564Z"/>
</mask>
<path d="M21.571 39.564C21.571 39.619 21.7661 39.8062 21.9937 39.9933L22.4163 40.3236L22.0424 39.9383C21.571 39.4429 21.571 39.4429 21.571 39.564Z" fill="black"/>
<path d="M21.9937 39.9933L21.3779 40.7813L21.3681 40.7736L21.3585 40.7657L21.9937 39.9933ZM22.4163 40.3236L23.134 39.6272L21.8006 41.1115L22.4163 40.3236ZM22.0424 39.9383L21.3247 40.6347L21.318 40.6276L22.0424 39.9383ZM22.571 39.564C22.571 39.4263 22.5419 39.3192 22.5217 39.2588C22.5003 39.1947 22.4764 39.1463 22.4607 39.1171C22.4304 39.0607 22.4028 39.0248 22.3958 39.0158C22.3801 38.9955 22.3778 38.9958 22.4034 39.0213C22.4499 39.0677 22.5291 39.139 22.6288 39.221L21.3585 40.7657C21.2307 40.6606 21.0986 40.5447 20.9906 40.4369C20.939 40.3854 20.8738 40.3169 20.8144 40.2402C20.7855 40.2029 20.7409 40.1419 20.699 40.064C20.6719 40.0136 20.571 39.8248 20.571 39.564H22.571ZM22.6094 39.2054L23.032 39.5356L21.8006 41.1115L21.3779 40.7813L22.6094 39.2054ZM21.6986 41.02L21.3248 40.6347L22.7601 39.2419L23.134 39.6272L21.6986 41.02ZM21.318 40.6276C21.198 40.5015 21.1153 40.4147 21.055 40.353C20.9827 40.2791 20.9808 40.2814 21.0081 40.3031C21.0193 40.312 21.0442 40.3312 21.0798 40.3535C21.1117 40.3735 21.18 40.4137 21.2763 40.4461C21.3697 40.4777 21.5502 40.5225 21.7744 40.4794C22.0265 40.4308 22.2283 40.2916 22.362 40.1231C22.4779 39.9769 22.5229 39.8348 22.5408 39.7673C22.5602 39.694 22.5661 39.6357 22.5682 39.6114C22.5719 39.5693 22.571 39.5334 22.571 39.564H20.571C20.571 39.5586 20.571 39.5422 20.5713 39.5252C20.5716 39.5085 20.5724 39.4767 20.5757 39.4386C20.5764 39.4307 20.5868 39.1427 20.7949 38.8804C20.9322 38.7072 21.1386 38.565 21.3965 38.5154C21.6264 38.4711 21.8138 38.5167 21.9155 38.551C22.0981 38.6126 22.2229 38.7139 22.2518 38.7368C22.3821 38.8402 22.5712 39.0433 22.7669 39.2489L21.318 40.6276Z" fill="white" mask="url(#path-4-inside-3_20_1104)"/>
<mask id="path-6-inside-4_20_1104" fill="white">
<path d="M23.5379 41.3694C24.3669 42.0849 26.8376 43.8683 27.4228 44.1655C27.6504 44.2866 27.1302 43.8903 26.2849 43.2848C25.4234 42.6904 24.3018 41.8758 23.7817 41.4795C22.9202 40.83 22.8877 40.819 23.5379 41.3694Z"/>
</mask>
<path d="M23.5379 41.3694C24.3669 42.0849 26.8376 43.8683 27.4228 44.1655C27.6504 44.2866 27.1302 43.8903 26.2849 43.2848C25.4234 42.6904 24.3018 41.8758 23.7817 41.4795C22.9202 40.83 22.8877 40.819 23.5379 41.3694Z" fill="black"/>
<path d="M23.5379 41.3694L24.184 40.6061L24.1913 40.6124L23.5379 41.3694ZM27.4228 44.1655L27.8757 43.2739L27.8841 43.2782L27.8925 43.2827L27.4228 44.1655ZM26.2849 43.2848L26.8529 42.4618L26.8601 42.4668L26.8673 42.4719L26.2849 43.2848ZM23.7817 41.4795L24.3837 40.6809L24.3877 40.684L23.7817 41.4795ZM24.1913 40.6124C24.5699 40.9392 25.3639 41.542 26.1564 42.113C26.973 42.7014 27.6673 43.1681 27.8757 43.2739L26.9699 45.0571C26.5931 44.8657 25.7594 44.2921 24.9872 43.7356C24.1907 43.1617 23.3348 42.5151 22.8845 42.1264L24.1913 40.6124ZM27.8925 43.2827C27.8925 43.2827 27.8891 43.2808 27.8829 43.2778C27.8774 43.2751 27.865 43.2691 27.8475 43.2617C27.833 43.2555 27.7977 43.2409 27.7496 43.2268C27.7278 43.2204 27.5868 43.1764 27.4013 43.1899C27.3033 43.197 27.0996 43.2262 26.8939 43.3734C26.6524 43.5461 26.517 43.803 26.4844 44.0589C26.4568 44.2747 26.5067 44.4427 26.534 44.5192C26.5646 44.6051 26.6006 44.6685 26.6216 44.7028C26.6632 44.7709 26.7034 44.8174 26.7172 44.8331C26.7355 44.854 26.7503 44.8689 26.7574 44.8758C26.7793 44.8975 26.7612 44.8786 26.646 44.7899C26.4531 44.6413 26.1233 44.3991 25.7026 44.0978L26.8673 42.4719C27.2919 42.776 27.6448 43.0347 27.8664 43.2054C27.9585 43.2763 28.0805 43.3716 28.1624 43.4525C28.171 43.4609 28.2556 43.5412 28.3279 43.6594C28.35 43.6956 28.3869 43.7607 28.418 43.8481C28.4458 43.9261 28.496 44.0954 28.4683 44.3122C28.4355 44.5691 28.2996 44.8268 28.0573 45.0001C27.8508 45.1479 27.646 45.1774 27.5465 45.1846C27.3581 45.1984 27.2127 45.1536 27.1853 45.1455C27.1315 45.1297 27.0891 45.1125 27.0661 45.1027C27.0185 45.0825 26.9777 45.0614 26.953 45.0483L27.8925 43.2827ZM25.717 44.1079C24.8445 43.5059 23.71 42.682 23.1757 42.2749L24.3877 40.684C24.8937 41.0695 26.0024 41.8749 26.8529 42.4618L25.717 44.1079ZM23.1797 42.278C22.9645 42.1158 22.8053 41.9966 22.6967 41.9168C22.6418 41.8764 22.605 41.85 22.5827 41.8344C22.571 41.8263 22.5692 41.8253 22.5738 41.8282C22.5761 41.8297 22.5849 41.8354 22.5982 41.8431C22.6063 41.8478 22.6417 41.8686 22.6915 41.8904C22.7145 41.9004 22.7698 41.9239 22.8443 41.9428C22.8729 41.95 23.1115 42.0175 23.3979 41.9244C23.5772 41.866 23.7901 41.7385 23.9373 41.502C24.0769 41.2776 24.0943 41.0558 24.0865 40.9178C24.0732 40.6807 23.9769 40.5151 23.9617 40.4879C23.908 40.3919 23.8498 40.3278 23.8458 40.3232C23.829 40.3039 23.816 40.2907 23.812 40.2867C23.8009 40.2756 23.8046 40.28 23.8428 40.3138C23.9087 40.372 24.0209 40.4681 24.184 40.6061L22.8917 42.1326C22.7297 41.9954 22.6022 41.8865 22.5183 41.8123C22.4815 41.7798 22.4327 41.7362 22.3923 41.6954C22.3809 41.684 22.362 41.6645 22.3407 41.6402C22.3322 41.6305 22.2711 41.5625 22.2158 41.4637C22.1998 41.435 22.1032 41.2684 22.0897 41.0305C22.0819 40.8921 22.0994 40.67 22.2392 40.4453C22.3865 40.2086 22.5997 40.0808 22.7794 40.0224C23.0665 39.929 23.306 39.9966 23.3361 40.0042C23.412 40.0234 23.4691 40.0475 23.4942 40.0585C23.5806 40.0964 23.6493 40.142 23.6557 40.1461C23.6808 40.1623 23.7054 40.1791 23.7263 40.1937C23.7691 40.2235 23.8216 40.2615 23.8807 40.3049C24.0002 40.3927 24.1681 40.5184 24.3837 40.681L23.1797 42.278Z" fill="white" mask="url(#path-6-inside-4_20_1104)"/>
<mask id="path-8-inside-5_20_1104" fill="white">
<path d="M28.073 44.5288C28.073 44.6389 29.666 45.5966 30.5925 46.0369L31.2427 46.3452L30.7551 46.0479C30.495 45.8828 29.8773 45.5195 29.3896 45.2333C28.902 44.9581 28.4144 44.6609 28.2843 44.5838C28.1705 44.5068 28.073 44.4737 28.073 44.5288Z"/>
</mask>
<path d="M28.073 44.5288C28.073 44.6389 29.666 45.5966 30.5925 46.0369L31.2427 46.3452L30.7551 46.0479C30.495 45.8828 29.8773 45.5195 29.3896 45.2333C28.902 44.9581 28.4144 44.6609 28.2843 44.5838C28.1705 44.5068 28.073 44.4737 28.073 44.5288Z" fill="black"/>
<path d="M30.5925 46.0369L30.1641 46.9405L30.1633 46.9401L30.5925 46.0369ZM31.2427 46.3452L31.7632 45.4913L30.8143 47.2488L31.2427 46.3452ZM30.7551 46.0479L30.2346 46.9018L30.2268 46.8971L30.2191 46.8921L30.7551 46.0479ZM29.3896 45.2333L29.8811 44.3624L29.8885 44.3666L29.8958 44.3709L29.3896 45.2333ZM28.2843 44.5838L27.7745 45.4441L27.7486 45.4287L27.7236 45.4118L28.2843 44.5838ZM29.073 44.5288C29.073 44.26 28.9636 44.0744 28.9343 44.0258C28.8916 43.9548 28.8501 43.9074 28.8333 43.8888C28.7979 43.8496 28.7731 43.8303 28.7812 43.837C28.7915 43.8456 28.828 43.8736 28.9013 43.9238C29.0418 44.02 29.2509 44.1523 29.4996 44.3014C29.9986 44.6006 30.5983 44.9325 31.0218 45.1337L30.1633 46.9401C29.6602 46.701 29.0002 46.3339 28.4711 46.0166C28.2057 45.8575 27.9586 45.7022 27.7715 45.5741C27.6809 45.5121 27.5857 45.4438 27.5053 45.3772C27.4681 45.3464 27.4081 45.2948 27.349 45.2293C27.3202 45.1974 27.2697 45.1384 27.2208 45.0573C27.1855 44.9986 27.073 44.8044 27.073 44.5288H29.073ZM31.0209 45.1333L31.6711 45.4415L30.8143 47.2488L30.1641 46.9405L31.0209 45.1333ZM30.7223 47.199L30.2346 46.9018L31.2755 45.194L31.7632 45.4913L30.7223 47.199ZM30.2191 46.8921C29.9778 46.7389 29.3801 46.3872 28.8835 46.0957L29.8958 44.3709C30.3745 44.6518 31.0122 45.0267 31.2911 45.2037L30.2191 46.8921ZM28.8982 46.1042C28.3983 45.8221 27.8894 45.5122 27.7745 45.4441L28.7941 43.7235C28.9393 43.8095 29.4057 44.0941 29.8811 44.3624L28.8982 46.1042ZM27.7236 45.4118C27.7001 45.3959 27.7501 45.4366 27.8618 45.4684C27.8896 45.4763 28.1119 45.5449 28.3905 45.4571C28.5598 45.4038 28.7576 45.2885 28.9022 45.0776C29.0416 44.8742 29.073 44.6673 29.073 44.5288H27.073C27.073 44.3764 27.1074 44.1586 27.2526 43.9467C27.403 43.7274 27.6093 43.6063 27.7896 43.5495C28.09 43.4549 28.3438 43.5262 28.4102 43.5451C28.599 43.5989 28.7547 43.6947 28.8451 43.7558L27.7236 45.4118Z" fill="white" mask="url(#path-8-inside-5_20_1104)"/>
<mask id="path-10-inside-6_20_1104" fill="white">
<path d="M31.3889 46.4112C31.4377 46.4773 31.8278 46.6864 32.2342 46.8736C32.6406 47.0497 32.9332 47.1598 32.8681 47.0937C32.8194 47.0387 32.4293 46.8295 32.0229 46.6424C31.6165 46.4442 31.3239 46.3452 31.3889 46.4112Z"/>
</mask>
<path d="M31.3889 46.4112C31.4377 46.4773 31.8278 46.6864 32.2342 46.8736C32.6406 47.0497 32.9332 47.1598 32.8681 47.0937C32.8194 47.0387 32.4293 46.8295 32.0229 46.6424C31.6165 46.4442 31.3239 46.3452 31.3889 46.4112Z" fill="black"/>
<path d="M31.3889 46.4112L32.1016 45.7097L32.1513 45.7602L32.1934 45.8172L31.3889 46.4112ZM32.2342 46.8736L31.8365 47.7911L31.8262 47.7866L31.8159 47.7819L32.2342 46.8736ZM32.8681 47.0937L32.1555 47.7952L32.1371 47.7765L32.1196 47.7569L32.8681 47.0937ZM32.0229 46.6424L31.6046 47.5507L31.5945 47.5461L31.5846 47.5412L32.0229 46.6424ZM32.1934 45.8172C32.1448 45.7514 32.0995 45.7082 32.0806 45.6907C32.0579 45.6698 32.0402 45.6558 32.0323 45.6497C32.017 45.6379 32.0114 45.635 32.023 45.6424C32.0449 45.6564 32.0881 45.682 32.155 45.7184C32.2862 45.7897 32.4649 45.8789 32.6525 45.9652L31.8159 47.7819C31.5971 47.6811 31.3776 47.5722 31.1999 47.4756C31.1124 47.428 31.0235 47.3772 30.9458 47.3276C30.9077 47.3031 30.8605 47.2716 30.8129 47.235C30.7849 47.2135 30.6785 47.1325 30.5844 47.0052L32.1934 45.8172ZM32.6319 45.956C32.8309 46.0423 32.9806 46.1029 33.0637 46.1325C33.1293 46.1559 33.0879 46.1362 33.0055 46.1235C32.9815 46.1199 32.9052 46.1086 32.8048 46.1151C32.7692 46.1173 32.4023 46.1304 32.1206 46.4555C31.7333 46.9023 31.9077 47.3967 31.9741 47.5356C32.0451 47.684 32.1356 47.775 32.1555 47.7952L33.5808 46.3922C33.6089 46.4207 33.7047 46.5186 33.7783 46.6725C33.8474 46.817 34.0217 47.3156 33.6319 47.7654C33.3476 48.0934 32.9756 48.1082 32.9324 48.111C32.8244 48.1179 32.7381 48.1059 32.7018 48.1004C32.5701 48.0801 32.4424 48.0343 32.3922 48.0164C32.2437 47.9635 32.0439 47.8809 31.8365 47.7911L32.6319 45.956ZM32.1196 47.7569C32.1672 47.8105 32.2088 47.845 32.2226 47.8562C32.2409 47.8712 32.2543 47.8807 32.2589 47.8839C32.2679 47.8903 32.2677 47.8896 32.2531 47.8807C32.225 47.8637 32.1767 47.8361 32.1081 47.7995C31.9729 47.7271 31.7916 47.6368 31.6046 47.5507L32.4412 45.7341C32.6605 45.8351 32.8775 45.9429 33.0511 46.0357C33.1369 46.0816 33.2207 46.1284 33.2922 46.1719C33.3274 46.1932 33.3689 46.2194 33.4101 46.2485C33.431 46.2632 33.5269 46.3292 33.6166 46.4306L32.1196 47.7569ZM31.5846 47.5412C31.4017 47.452 31.2628 47.3944 31.1934 47.3697C31.1335 47.3483 31.1831 47.3718 31.2787 47.3838C31.3064 47.3873 31.3881 47.3967 31.4945 47.3854C31.5473 47.3798 31.9008 47.346 32.1627 47.0175C32.505 46.5882 32.3579 46.13 32.2874 45.9785C32.2166 45.8265 32.1247 45.7332 32.1016 45.7097L30.6763 47.1127C30.6451 47.081 30.5479 46.9807 30.4744 46.823C30.4012 46.6658 30.2541 46.2032 30.599 45.7706C30.8635 45.4389 31.2221 45.4031 31.2825 45.3967C31.3964 45.3845 31.4881 45.3944 31.5281 45.3994C31.673 45.4176 31.8089 45.4658 31.8649 45.4858C32.0271 45.5436 32.2377 45.6346 32.4612 45.7435L31.5846 47.5412Z" fill="white" mask="url(#path-10-inside-6_20_1104)"/>
<mask id="path-12-inside-7_20_1104" fill="white">
<path d="M33.9735 47.6111C34.0872 47.7432 35.6802 48.3927 36.2329 48.5468C36.8181 48.701 36.5092 48.5248 35.7615 48.2606C35.3226 48.1065 34.7212 47.8753 34.4286 47.7322C34.1197 47.6001 33.9084 47.5451 33.9735 47.6111Z"/>
</mask>
<path d="M33.9735 47.6111C34.0872 47.7432 35.6802 48.3927 36.2329 48.5468C36.8181 48.701 36.5092 48.5248 35.7615 48.2606C35.3226 48.1065 34.7212 47.8753 34.4286 47.7322C34.1197 47.6001 33.9084 47.5451 33.9735 47.6111Z" fill="black"/>
<path d="M33.9735 47.6111L34.6861 46.9096L34.7094 46.9333L34.7311 46.9585L33.9735 47.6111ZM36.2329 48.5468L35.9782 49.5139L35.9712 49.512L35.9643 49.5101L36.2329 48.5468ZM35.7615 48.2606L36.0928 47.3171L36.0947 47.3178L35.7615 48.2606ZM34.4286 47.7322L34.8219 46.8128L34.8452 46.8228L34.868 46.8339L34.4286 47.7322ZM34.7311 46.9585C34.6795 46.8985 34.633 46.8601 34.6141 46.8449C34.5913 46.8266 34.5739 46.8148 34.5667 46.81C34.5529 46.8008 34.5497 46.7997 34.5644 46.8078C34.5927 46.8234 34.6444 46.8498 34.7226 46.8866C34.8762 46.9589 35.0868 47.0503 35.3191 47.146C35.7982 47.3431 36.2871 47.5238 36.5015 47.5836L35.9643 49.5101C35.626 49.4158 35.0421 49.1947 34.5581 48.9955C34.3089 48.893 34.0653 48.7877 33.871 48.6962C33.7752 48.6511 33.6794 48.6039 33.5966 48.5581C33.5559 48.5355 33.5062 48.5068 33.4563 48.4734C33.4264 48.4534 33.3168 48.381 33.2158 48.2638L34.7311 46.9585ZM36.4876 47.5798C36.6573 47.6245 36.6321 47.607 36.536 47.6046C36.5291 47.6044 36.3582 47.5942 36.1588 47.6748C36.049 47.7192 35.8147 47.8379 35.6613 48.1174C35.4896 48.4302 35.528 48.7396 35.5967 48.9311C35.6571 49.0996 35.748 49.2085 35.7871 49.2524C35.8337 49.3047 35.8758 49.3404 35.8988 49.3588C35.9445 49.3956 35.9802 49.4167 35.9872 49.4209C35.9875 49.4211 35.8163 49.3406 35.4283 49.2035L36.0947 47.3178C36.4544 47.4449 36.8115 47.5845 37.0068 47.7003C37.0382 47.7189 37.0932 47.7528 37.1526 47.8007C37.1825 47.8247 37.2301 47.8655 37.2808 47.9224C37.324 47.9709 37.4177 48.084 37.4794 48.2562C37.5494 48.4515 37.5877 48.7641 37.4146 49.0797C37.2596 49.362 37.0223 49.483 36.9082 49.5291C36.6999 49.6133 36.5142 49.6047 36.4865 49.604C36.3071 49.5995 36.1011 49.5462 35.9782 49.5139L36.4876 47.5798ZM35.4302 49.2041C34.9876 49.0487 34.3384 48.8013 33.9892 48.6305L34.868 46.8339C35.1039 46.9493 35.6577 47.1643 36.0928 47.3171L35.4302 49.2041ZM34.0353 48.6516C33.9724 48.6247 33.9182 48.6034 33.8753 48.5877C33.8539 48.5799 33.8368 48.5741 33.8239 48.5699C33.8106 48.5656 33.8047 48.564 33.8053 48.5642C33.8058 48.5643 33.8096 48.5653 33.8162 48.5668C33.8224 48.5681 33.8344 48.5706 33.8508 48.5732C33.8598 48.5747 33.9653 48.5936 34.1058 48.5748C34.1716 48.5661 34.3469 48.5371 34.5308 48.4109C34.7611 48.2528 34.9489 47.9754 34.9611 47.6268C34.9708 47.3483 34.862 47.1512 34.8181 47.0792C34.7654 46.9929 34.7115 46.9354 34.6861 46.9096L33.2608 48.3127C33.2273 48.2786 33.1674 48.2138 33.1109 48.1211C33.063 48.0427 32.9524 47.8402 32.9623 47.5571C32.9746 47.204 33.1645 46.9229 33.3989 46.762C33.5868 46.633 33.7681 46.6022 33.8416 46.5924C33.9976 46.5716 34.1258 46.5919 34.1642 46.5979C34.2234 46.6073 34.2763 46.62 34.3163 46.6306C34.4676 46.6705 34.6485 46.7386 34.8219 46.8128L34.0353 48.6516Z" fill="white" mask="url(#path-12-inside-7_20_1104)"/>
<mask id="path-14-inside-8_20_1104" fill="white">
<path d="M36.688 48.6789C36.688 48.7009 36.9481 48.822 37.2569 48.9541C37.5658 49.0752 37.8258 49.1303 37.8258 49.0752C37.8258 49.0202 37.5983 48.8991 37.3057 48.811C36.7693 48.6239 36.688 48.6129 36.688 48.6789Z"/>
</mask>
<path d="M36.688 48.6789C36.688 48.7009 36.9481 48.822 37.2569 48.9541C37.5658 49.0752 37.8258 49.1303 37.8258 49.0752C37.8258 49.0202 37.5983 48.8991 37.3057 48.811C36.7693 48.6239 36.688 48.6129 36.688 48.6789Z" fill="black"/>
<path d="M37.2569 48.9541L36.8919 49.8851L36.8777 49.8796L36.8636 49.8736L37.2569 48.9541ZM37.3057 48.811L37.0175 49.7686L36.9967 49.7624L36.9763 49.7552L37.3057 48.811ZM37.688 48.6789C37.688 48.441 37.6038 48.2672 37.5573 48.1856C37.5067 48.0969 37.4531 48.0353 37.4231 48.0031C37.3635 47.9389 37.3096 47.8988 37.2924 47.8862C37.2688 47.8688 37.2504 47.8572 37.2424 47.8522C37.2332 47.8465 37.2272 47.843 37.2256 47.8421C37.2246 47.8416 37.2422 47.8512 37.2879 47.873C37.3735 47.914 37.5014 47.9711 37.6502 48.0347L36.8636 49.8736C36.7036 49.8051 36.547 49.7356 36.4253 49.6775C36.3674 49.6498 36.3007 49.6168 36.2413 49.5832C36.2156 49.5686 36.1633 49.5384 36.1071 49.4971C36.0823 49.4788 36.0225 49.4337 35.9588 49.3653C35.9268 49.331 35.8718 49.2674 35.8202 49.1769C35.7727 49.0936 35.688 48.9182 35.688 48.6789H37.688ZM37.6219 48.0231C37.7431 48.0707 37.8309 48.0953 37.865 48.1026C37.8943 48.1088 37.8456 48.0947 37.7568 48.0968C37.7257 48.0976 37.5754 48.1004 37.3984 48.1813C37.3003 48.2261 37.1533 48.3135 37.0283 48.477C36.8929 48.6543 36.8258 48.8662 36.8258 49.0752H38.8258C38.8258 49.5944 38.4685 49.8912 38.2298 50.0003C38.0373 50.0883 37.8643 50.0949 37.8039 50.0963C37.6567 50.0998 37.5237 50.0747 37.4494 50.0589C37.2762 50.0221 37.0795 49.9587 36.8919 49.8851L37.6219 48.0231ZM36.8258 49.0752C36.8258 49.2438 36.869 49.3789 36.9086 49.4685C36.9481 49.558 36.9936 49.6237 37.0256 49.6649C37.087 49.7441 37.1449 49.7913 37.1658 49.8078C37.2109 49.8435 37.2364 49.8542 37.2174 49.8444C37.1886 49.8296 37.1173 49.7987 37.0175 49.7686L37.5939 47.8535C37.7866 47.9115 37.9754 47.9851 38.1335 48.0666C38.2081 48.105 38.3087 48.1618 38.4057 48.2385C38.4524 48.2754 38.5303 48.3418 38.6054 48.4384C38.6646 48.5148 38.8258 48.7403 38.8258 49.0752H36.8258ZM36.9763 49.7552C36.845 49.7094 36.75 49.6774 36.6808 49.6554C36.6055 49.6316 36.5857 49.6278 36.5951 49.6297C36.6003 49.6308 36.6369 49.6384 36.6921 49.6411C36.7386 49.6434 36.8673 49.6467 37.0252 49.5941C37.2115 49.532 37.4208 49.3962 37.5582 49.1586C37.6785 48.9506 37.688 48.7583 37.688 48.6789H35.688C35.688 48.583 35.7 48.3767 35.8269 48.1574C35.9708 47.9084 36.1906 47.7641 36.3929 47.6967C36.6895 47.5978 36.9592 47.6628 36.9963 47.6704C37.163 47.7045 37.3864 47.7801 37.6351 47.8668L36.9763 49.7552Z" fill="white" mask="url(#path-14-inside-8_20_1104)"/>
<mask id="path-16-inside-9_20_1104" fill="white">
<path d="M39.289 49.6036C40.8169 50.11 42.1986 50.5063 42.4424 50.4953C42.5399 50.4953 42.2636 50.3962 41.8085 50.2752C41.3696 50.1541 40.3943 49.8568 39.6791 49.6146C38.9476 49.3835 38.2974 49.1853 38.2161 49.1963C38.1349 49.1963 38.6225 49.3835 39.289 49.6036Z"/>
</mask>
<path d="M39.289 49.6036C40.8169 50.11 42.1986 50.5063 42.4424 50.4953C42.5399 50.4953 42.2636 50.3962 41.8085 50.2752C41.3696 50.1541 40.3943 49.8568 39.6791 49.6146C38.9476 49.3835 38.2974 49.1853 38.2161 49.1963C38.1349 49.1963 38.6225 49.3835 39.289 49.6036Z" fill="black"/>
<path d="M39.289 49.6036L39.6026 48.6541L39.6035 48.6544L39.289 49.6036ZM42.4424 50.4953L42.3973 49.4963L42.4199 49.4953H42.4424V50.4953ZM41.8085 50.2752L41.5514 51.2416L41.5425 51.2391L41.8085 50.2752ZM39.6791 49.6146L39.9804 48.6611L39.9901 48.6642L39.9998 48.6675L39.6791 49.6146ZM38.2161 49.1963L38.3504 50.1873L38.2835 50.1963H38.2161V49.1963ZM39.6035 48.6544C40.3577 48.9044 41.0709 49.1255 41.6204 49.2815C41.8963 49.3599 42.1222 49.4194 42.2876 49.4577C42.3708 49.477 42.429 49.4887 42.4653 49.4948C42.5232 49.5045 42.4811 49.4926 42.3973 49.4963L42.4875 51.4943C42.3427 51.5008 42.2041 51.4789 42.1339 51.4671C42.0419 51.4517 41.9402 51.4302 41.8358 51.406C41.6258 51.3573 41.365 51.2881 41.074 51.2055C40.4898 51.0395 39.7482 50.8093 38.9744 50.5529L39.6035 48.6544ZM42.4424 49.4953C42.4223 49.4953 42.3367 49.4951 42.2282 49.5206C42.1749 49.533 42.0621 49.5637 41.9368 49.6406C41.8078 49.7199 41.5979 49.8925 41.5045 50.2019C41.4092 50.5177 41.4922 50.7859 41.5671 50.9356C41.6374 51.0762 41.7244 51.1661 41.7659 51.2061C41.8507 51.2877 41.9293 51.3328 41.9473 51.3433C42.0209 51.3859 42.0672 51.3972 42.0017 51.3743C41.9226 51.3465 41.7674 51.299 41.5514 51.2415L42.0656 49.3088C42.3046 49.3724 42.5153 49.435 42.6636 49.487C42.712 49.504 42.8375 49.5476 42.9497 49.6126C42.9774 49.6286 43.0631 49.6788 43.1523 49.7646C43.1961 49.8068 43.2847 49.8987 43.3559 50.0411C43.4317 50.1927 43.515 50.4624 43.4192 50.7797C43.3254 51.0907 43.1143 51.2646 42.9835 51.3449C42.8563 51.423 42.7411 51.4546 42.6845 51.4678C42.5696 51.4947 42.4747 51.4953 42.4424 51.4953V49.4953ZM41.5425 51.2391C41.0835 51.1125 40.0899 50.8095 39.3583 50.5618L39.9998 48.6675C40.6987 48.9041 41.6557 49.1956 42.0744 49.3112L41.5425 51.2391ZM39.3777 50.5682C39.0128 50.4528 38.6764 50.3484 38.4237 50.2747C38.296 50.2374 38.2002 50.2111 38.137 50.1955C38.1042 50.1874 38.093 50.1855 38.0966 50.1861C38.0982 50.1864 38.1153 50.1895 38.1423 50.1921C38.1544 50.1933 38.2391 50.2024 38.3504 50.1873L38.0819 48.2054C38.2711 48.1797 38.4415 48.2161 38.448 48.2172C38.5057 48.2275 38.5643 48.241 38.6153 48.2536C38.7197 48.2793 38.8474 48.3149 38.9838 48.3547C39.2594 48.4351 39.6139 48.5453 39.9804 48.6611L39.3777 50.5682ZM38.2161 50.1963C38.2476 50.1963 38.3392 50.1954 38.4531 50.1669C38.516 50.1512 38.8908 50.0576 39.0974 49.6547C39.3422 49.1771 39.1184 48.7667 39.0459 48.6554C38.9616 48.526 38.8676 48.4493 38.8405 48.4273C38.7721 48.372 38.7136 48.3409 38.7079 48.3378C38.6985 48.3327 38.6915 48.3291 38.6877 48.3272C38.6837 48.3252 38.6812 48.324 38.6807 48.3238C38.6799 48.3234 38.683 48.3249 38.6909 48.3283C38.6985 48.3316 38.7089 48.3359 38.7223 48.3414C38.7493 48.3525 38.7846 48.3663 38.8281 48.3829C39.0048 48.4502 39.2783 48.547 39.6026 48.6541L38.9753 50.5532C38.6332 50.4402 38.3296 50.3332 38.1162 50.2519C38.0154 50.2135 37.9116 50.1722 37.8308 50.1342C37.8245 50.1313 37.6986 50.0761 37.5826 49.9823C37.552 49.9575 37.4557 49.8784 37.37 49.7469C37.2962 49.6335 37.072 49.2213 37.3176 48.7423C37.5248 48.338 37.9015 48.2433 37.9672 48.2268C38.084 48.1976 38.1795 48.1963 38.2161 48.1963V50.1963Z" fill="white" mask="url(#path-16-inside-9_20_1104)"/>
<mask id="path-18-inside-10_20_1104" fill="white">
<path d="M42.7024 50.5614C42.7024 50.6384 43.889 50.9577 44.0353 50.9246C44.1166 50.9026 43.8565 50.8036 43.4339 50.7045C43.0275 50.6054 42.7024 50.5394 42.7024 50.5614Z"/>
</mask>
<path d="M42.7024 50.5614C42.7024 50.6384 43.889 50.9577 44.0353 50.9246C44.1166 50.9026 43.8565 50.8036 43.4339 50.7045C43.0275 50.6054 42.7024 50.5394 42.7024 50.5614Z" fill="black"/>
<path d="M44.0353 50.9246L44.2968 51.8899L44.2762 51.8954L44.2555 51.9001L44.0353 50.9246ZM43.4339 50.7045L43.2056 51.6781L43.197 51.676L43.4339 50.7045ZM43.7024 50.5614C43.7024 50.2452 43.5557 50.0324 43.4921 49.9514C43.42 49.8597 43.3486 49.8032 43.3168 49.7793C43.2509 49.7297 43.198 49.7046 43.1937 49.7025C43.1747 49.6932 43.1791 49.6968 43.2242 49.7128C43.3049 49.7414 43.4313 49.78 43.5755 49.8191C43.7181 49.8577 43.8579 49.8913 43.9623 49.9123C44.016 49.923 44.047 49.9278 44.0582 49.9292C44.0643 49.9299 44.0524 49.9282 44.0287 49.9274C44.0216 49.9272 43.9325 49.9227 43.8151 49.9492L44.2555 51.9001C44.1198 51.9307 44.0043 51.9276 43.9638 51.9263C43.9066 51.9245 43.8542 51.9192 43.8138 51.9142C43.7322 51.9041 43.6464 51.8888 43.5683 51.8731C43.4091 51.8411 43.2248 51.7962 43.0525 51.7495C42.8817 51.7032 42.7023 51.6497 42.5559 51.5978C42.4875 51.5736 42.3981 51.5398 42.3136 51.4984C42.2766 51.4803 42.1981 51.4404 42.1147 51.3777C42.0742 51.3473 41.9961 51.2846 41.9195 51.1871C41.8514 51.1005 41.7024 50.8823 41.7024 50.5614H43.7024ZM43.7738 49.9594C43.7208 49.9738 43.5744 50.0172 43.423 50.1378C43.2423 50.282 43.0384 50.5588 43.0506 50.9446C43.0608 51.2649 43.2184 51.4738 43.2801 51.5474C43.3531 51.6344 43.4238 51.6873 43.4548 51.7093C43.5548 51.7806 43.6308 51.8014 43.5761 51.7811C43.5234 51.7616 43.3975 51.7231 43.2056 51.6781L43.6621 49.7309C43.8928 49.785 44.1083 49.8455 44.271 49.9058C44.324 49.9254 44.4762 49.9814 44.6153 50.0804C44.656 50.1095 44.7342 50.1689 44.8122 50.2619C44.879 50.3415 45.0393 50.5559 45.0496 50.8813C45.062 51.2721 44.8558 51.5533 44.6701 51.7014C44.5139 51.826 44.36 51.8727 44.2968 51.8899L43.7738 49.9594ZM43.197 51.676C43.0012 51.6283 42.8338 51.5907 42.7215 51.5685C42.6942 51.5631 42.6724 51.559 42.656 51.5562C42.6385 51.5531 42.6323 51.5524 42.6344 51.5527C42.6357 51.5528 42.6432 51.5538 42.6553 51.5547C42.6651 51.5555 42.6919 51.5575 42.7283 51.5571C42.7465 51.5569 42.8501 51.5568 42.9783 51.5205C43.0393 51.5033 43.1883 51.4558 43.3397 51.3309C43.5194 51.1827 43.7024 50.9184 43.7024 50.5614H41.7024C41.7024 50.2029 41.886 49.9374 42.067 49.7882C42.2196 49.6622 42.3705 49.614 42.434 49.596C42.5671 49.5584 42.6781 49.5575 42.7061 49.5572C42.7866 49.5563 42.8562 49.5648 42.8847 49.5684C42.957 49.5775 43.0378 49.5923 43.1099 49.6065C43.2618 49.6366 43.4602 49.6816 43.6707 49.7329L43.197 51.676Z" fill="white" mask="url(#path-18-inside-10_20_1104)"/>
<path d="M15.6081 69.7027L15.6081 69.7027L15.6028 69.7041C15.4191 69.7525 15.1142 69.9286 14.7875 70.2094C14.4691 70.483 14.1928 70.8021 14.0431 71.0708C13.6737 71.7364 13.5018 72.4329 13.5087 73C13.5159 73.5856 13.7049 73.9239 13.9195 74.0584C13.9962 74.1059 14.1543 74.1703 14.4515 74.2317C14.7423 74.2918 15.1327 74.3427 15.6487 74.3832C16.6805 74.4641 18.1676 74.5 20.2707 74.5C23.4575 74.5 24.2122 74.4647 24.8979 74.3236C25.5707 74.179 25.9052 74.0641 26.0734 73.9547C26.143 73.9095 26.1611 73.8791 26.1679 73.8655C26.1765 73.8482 26.1914 73.8079 26.1914 73.712C26.1914 73.5689 26.146 73.4149 25.8965 73.1914C25.626 72.949 25.1613 72.6686 24.3953 72.3028C23.1674 71.7165 19.5604 70.4821 17.4319 69.9361L17.4317 69.936C16.7122 69.7512 16.3613 69.6689 16.1265 69.6434C15.9362 69.6227 15.8383 69.6393 15.6081 69.7027Z" fill="black" stroke="white"/>
<path d="M50.0482 71.3112L50.0482 71.3112C49.1091 70.985 47.7084 70.5529 46.4974 70.2032C45.8925 70.0285 45.3389 69.8755 44.9173 69.7673C44.706 69.7131 44.5318 69.6711 44.4026 69.6434C44.3376 69.6295 44.2885 69.6201 44.2539 69.6146C44.2539 69.6146 44.2538 69.6145 44.2537 69.6145C44.2498 69.6154 44.2455 69.6163 44.2409 69.6173C44.2046 69.625 44.1582 69.6357 44.1041 69.6488C43.9973 69.6746 43.8665 69.7085 43.7353 69.745C42.6318 70.0767 41.7395 71.3594 41.7395 72.8864C41.7395 73.7717 42.0068 74.0611 42.1718 74.1219C42.5076 74.2396 43.1244 74.3389 44.1566 74.4047C45.1769 74.4697 46.5582 74.5 48.3917 74.5C51.6738 74.5 52.3174 74.4649 53.1189 74.301C53.7635 74.1684 54.1 74.0551 54.2734 73.9469C54.3484 73.9001 54.3687 73.8685 54.3748 73.8574C54.3808 73.8464 54.3937 73.8184 54.3937 73.745C54.3937 73.6746 54.3663 73.5617 54.2281 73.3955C54.0869 73.2258 53.8512 73.0273 53.4903 72.8036C52.7683 72.3559 51.6401 71.8639 50.0482 71.3112Z" fill="black" stroke="white"/>
</svg>
