<svg width="77" height="75" viewBox="0 0 77 75" fill="none" xmlns="http://www.w3.org/2000/svg">
<mask id="path-1-inside-1_20_1042" fill="white">
<path d="M48.8486 0.0489078C43.9523 0.257254 41.308 0.905441 36.9347 3.00047C36.1356 3.38244 34.7699 4.03063 33.8981 4.4589C33.0119 4.87559 32.2709 5.19968 32.2418 5.16496C32.2128 5.14181 32.3871 4.59779 32.6341 3.97276C32.8811 3.33614 33.0845 2.79213 33.0845 2.7574C33.0845 2.68796 28.7839 3.86858 27.0549 4.42417C24.0474 5.3733 21.2433 6.99377 19.2818 8.89203C18.7007 9.44762 18.1921 9.92219 18.134 9.93376C18.0904 9.95691 17.8289 9.06566 17.5529 7.96605C17.2913 6.87802 17.0153 5.87102 16.9717 5.75527C16.8845 5.57007 16.5213 5.85944 14.9376 7.31786C13.8625 8.30172 12.1335 9.85274 11.0874 10.7556C7.83286 13.603 6.96112 14.7836 6.62695 16.7629C6.48165 17.631 6.49618 17.9898 6.71412 19.2283C6.85941 20.027 6.94659 20.8835 6.91753 21.1381C6.88847 21.3928 6.85941 22.1567 6.85941 22.8512C6.85941 23.5341 6.84488 24.0897 6.83035 24.0897C6.75771 24.0897 1.41098 23.3836 0.757172 23.2911C0.364885 23.2332 0.0161856 23.1985 0.00165644 23.21C-0.0128727 23.2216 0.800759 23.754 1.8178 24.3791C2.83484 25.0157 4.38946 25.988 5.27574 26.5436L6.88847 27.5737L6.62695 28.5807C6.06031 30.7336 5.88596 33.9283 6.2056 36.1853C6.81582 40.3523 8.93708 44.6002 12.148 48.0495C13.3539 49.3574 16.8119 52.0544 18.628 53.1308C19.7032 53.7674 21.0834 54.4156 22.8415 55.1217L25.4567 56.175L25.7037 56.9389C25.8345 57.3672 26.1541 58.8372 26.4011 60.203C26.6481 61.5688 26.9532 63.1083 27.0695 63.6176C27.7959 66.5113 29.0745 68.479 31.0504 69.729L31.559 70.0531L30.9778 69.8564C28.0429 68.8725 27.5489 68.7568 27.0549 68.8841C26.0088 69.1619 25.1225 70.3772 24.8029 71.9745C24.4978 73.4561 24.9191 74.44 25.9216 74.6599C27.7668 75.0766 33.9417 75.1229 35.5545 74.7293C37.0074 74.3821 37.3997 73.6297 36.586 72.7501C36.063 72.1829 35.8596 72.0324 34.6101 71.3842C34.058 71.0949 33.6221 70.8518 33.6657 70.8518C33.7093 70.8518 34.2033 70.9328 34.7554 71.0254C36.1356 71.2569 38.1552 71.2338 39.4047 70.9675C39.9713 70.8518 40.4508 70.7823 40.4799 70.8055C40.5089 70.8171 40.4363 71.118 40.3346 71.4537C39.9423 72.7269 40.2183 74.2548 40.8867 74.5326C41.6131 74.8335 43.313 74.9608 46.5966 74.9608C49.5024 74.9608 50.1417 74.9261 50.9118 74.7409C51.4058 74.6252 51.9433 74.4284 52.1032 74.3011C52.5245 74.0001 52.51 73.3172 52.0741 72.8079C51.3041 71.8935 48.6452 70.5971 45.2164 69.4744C44.4318 69.2082 43.7489 68.9767 43.7198 68.9535C43.7053 68.9304 44.0104 68.5484 44.4318 68.1201C45.4633 67.0437 46.6402 65.0065 47.1923 63.3513C47.265 63.1546 47.3812 62.8073 47.4538 62.599C47.7444 61.7887 48.2384 60.1683 48.7905 58.1774C49.0956 57.0315 49.3862 55.9782 49.4298 55.8393C49.4879 55.6425 49.8366 55.4458 50.6648 55.1101C55.285 53.2581 59.3823 50.3297 62.3317 46.7763C65.1794 43.327 66.8357 39.4147 67.2571 35.1205L67.4169 33.3611L68.0126 33.6968C68.3322 33.882 68.6083 34.0209 68.6373 34.0093C68.6519 33.9861 68.1579 32.4351 67.5331 30.56C66.487 27.4695 65.8041 25.6986 65.0922 24.1823L64.8307 23.6267L66.211 22.5155C68.3758 20.7678 68.245 20.814 74.6669 19.2052C76.0181 18.8811 77.0642 18.5685 76.9916 18.5222C76.9335 18.4759 76.5993 18.3602 76.2361 18.2676C75.8728 18.1634 73.5627 17.5268 71.0782 16.8555C68.6083 16.1841 66.5887 15.5823 66.6033 15.5244C66.7776 15.0035 67.0827 13.302 67.0827 12.8738C67.0827 11.9709 66.6759 10.281 66.211 9.26243C65.6153 7.93133 64.5401 5.78999 64.4529 5.76685C64.4093 5.75527 63.8572 6.20669 63.218 6.77385L62.0702 7.79243L61.983 5.38488C61.8667 2.34071 61.7069 0.592922 61.5326 0.592922C60.8352 0.592922 57.4063 1.00961 56.2585 1.22953C54.7911 1.5189 52.292 2.23654 50.4614 2.8963C49.9093 3.09307 49.4298 3.24354 49.4007 3.2204C49.3717 3.19725 49.7204 2.47961 50.1563 1.62308C50.5921 0.778118 50.9408 0.0489078 50.9263 0.0141835C50.8972 -0.0205408 49.9674 -0.00896604 48.8486 0.0489078ZM42.296 6.85487C41.6858 8.02393 40.9448 9.47077 40.6397 10.0495C40.1021 11.0797 40.0585 11.3343 40.4944 11.126C40.6251 11.0565 40.8721 11.1838 41.308 11.5774C42.3396 12.4918 44.1121 13.0242 46.4223 13.1168C47.294 13.1515 47.3667 13.1284 47.7154 12.8043C47.9188 12.6075 49.0375 11.67 50.2144 10.7208C51.3767 9.76014 53.4108 8.0818 54.7329 6.9822L57.1302 4.96819L57.2174 5.4196C57.3918 6.20669 57.0867 8.69526 56.5491 11.0102C56.2585 12.2487 55.7936 14.2859 55.5175 15.5244C55.2415 16.7629 54.9799 17.8972 54.9218 18.0361C54.8492 18.3023 55.0671 18.4065 55.2415 18.1982C55.285 18.1403 55.9534 17.6773 56.738 17.1796C58.2054 16.242 60.8352 14.4595 61.7069 13.8229C61.983 13.6261 62.23 13.4756 62.259 13.4988C62.3607 13.5798 61.8232 14.8878 61.518 15.2929C61.3437 15.5128 60.4429 16.4619 59.513 17.3995C58.5686 18.3486 57.8131 19.1241 57.8276 19.1357C57.8422 19.1357 59.1062 19.182 60.6463 19.2167L63.4359 19.2862L62.0992 20.4089C61.3582 21.0224 60.2395 21.8789 59.6002 22.3072C58.9609 22.7355 58.3798 23.1174 58.3216 23.1637C58.249 23.21 58.3071 23.4184 58.4233 23.6151C58.5541 23.8119 58.6122 23.974 58.5541 23.974C58.4379 23.974 58.3071 23.9161 54.7184 22.1451C53.5125 21.5433 52.4955 21.0803 52.4664 21.115C52.4228 21.1381 52.8151 22.041 53.3381 23.1174C54.6022 25.7912 54.5295 25.5829 54.1808 25.2703C54.021 25.1314 53.2364 24.4601 52.4519 23.7888C51.6673 23.1174 50.9699 22.4924 50.9118 22.3998C50.8537 22.3072 50.7374 22.2377 50.6503 22.2377C50.505 22.2377 50.4033 22.4229 49.8076 23.7772L49.4007 24.68L48.7615 24.1129C48.4128 23.8119 47.4974 22.9785 46.7419 22.2725C45.9864 21.5548 45.3181 20.9761 45.2745 20.9761C45.2309 20.9645 44.9112 21.277 44.5771 21.659C44.2429 22.041 43.9087 22.3535 43.8361 22.3535C43.7634 22.3535 43.56 22.1567 43.3857 21.9137C42.2088 20.3626 39.2739 16.9249 39.1868 16.9712C39.1141 17.0059 37.9663 18.2213 36.6296 19.6681C32.3435 24.3096 32.5324 24.1244 32.3871 23.8929C32.082 23.4531 31.6171 22.0294 31.312 20.6867C31.065 19.5755 31.0068 18.8695 31.0068 17.2606C31.0214 16.1494 31.094 14.9109 31.1667 14.5058C31.2393 14.1123 31.2538 13.7882 31.2103 13.7882C31.1521 13.7882 29.6847 14.7026 27.9412 15.8253C25.5294 17.3648 24.7303 17.8162 24.6286 17.7004C24.5559 17.6194 24.2799 17.2143 24.0329 16.7976C23.597 16.0915 23.5679 15.9758 23.5825 14.8299C23.597 13.8808 23.6842 13.4178 23.9747 12.6886C24.367 11.67 24.9918 10.5125 24.861 11.0334L24.7738 11.3575L25.5148 11.1838C25.9216 11.0912 26.59 10.9292 27.0113 10.8366C27.7087 10.6745 27.7668 10.6745 27.9412 10.8829C28.2608 11.2301 29.0745 11.4732 29.9608 11.4732C32.4598 11.4732 36.6732 9.44762 41.7294 5.82472C42.6156 5.19968 43.3421 4.69039 43.3711 4.70197C43.3857 4.71354 42.9062 5.68582 42.296 6.85487ZM39.9568 24.68C40.4217 25.2703 40.7704 25.7565 40.7414 25.7912C40.7123 25.8144 40.2329 25.7796 39.6662 25.7102C39.0269 25.6292 38.3731 25.6176 37.8355 25.687C37.3851 25.7449 37.0074 25.7681 37.0074 25.7449C37.0074 25.6639 38.9688 23.6267 39.0415 23.6267C39.0851 23.6267 39.4919 24.1013 39.9568 24.68ZM30.7163 30.2359C29.7719 31.8911 29.4232 33.5579 29.6266 35.5719C30.0625 39.9703 33.9708 43.408 38.6056 43.4427C40.9303 43.4659 42.6592 42.8524 44.5771 41.3361C45.6086 40.5143 45.9283 40.1671 46.4949 39.2527C47.541 37.5627 47.8025 36.6368 47.8025 34.5649C47.8025 33.1528 47.7444 32.655 47.4829 31.9027C47.0761 30.6758 46.2189 29.2752 45.3907 28.465L44.7369 27.8168L45.1437 27.4348C45.4198 27.1802 45.6086 27.076 45.6958 27.157C45.7685 27.2149 46.6257 28.0136 47.5846 28.9164L49.3426 30.56L48.9939 31.1966C47.7008 33.5347 48.035 36.6831 49.793 38.836C52.6989 42.3894 58.3507 42.4705 61.2565 39.0096C61.5907 38.6161 61.8522 38.3498 61.8522 38.4193C61.8522 38.6624 60.995 40.6185 60.4284 41.6718C58.0456 46.0702 53.4398 49.8899 48.1367 51.8692C47.3231 52.1701 46.306 52.5174 45.8702 52.6215C45.4343 52.7373 44.9403 52.8762 44.7805 52.9225C44.054 53.1655 41.4824 53.617 39.9568 53.779C35.2348 54.2767 29.9317 53.617 25.602 51.9965C19.5579 49.7394 14.4436 45.2368 12.395 40.3986C11.1746 37.5049 10.7823 35.514 10.8985 32.7361C10.9276 31.7291 11.0293 30.8494 11.1165 30.7799C11.2182 30.6989 11.5087 30.9073 12.0318 31.405C13.2522 32.574 14.1676 33.7894 16.1581 36.8798C17.1896 38.4656 18.2938 40.1786 18.6135 40.6764C18.9331 41.1741 19.2237 41.5445 19.2382 41.4866C19.2528 41.4403 19.7032 39.0212 20.2262 36.1275C21.098 31.2429 21.4903 29.5067 21.8825 28.6849L22.0424 28.3608L22.5218 28.8585C22.7834 29.1363 23.4081 29.8192 23.9166 30.3748C24.4251 30.942 24.8901 31.3587 24.9482 31.3008C25.0063 31.2545 25.9216 30.178 26.9823 28.9048L28.9001 26.613L30.0479 27.9904L31.1957 29.3678L30.7163 30.2359ZM61.6779 29.7729C62.3172 30.1433 62.3753 30.2359 62.4915 31.2661L62.5641 31.9027L62.23 31.2545C61.8522 30.5484 61.5035 30.0623 61.0676 29.6688C60.6608 29.2984 60.9659 29.3562 61.6779 29.7729Z"/>
</mask>
<path d="M48.8486 0.0489078C43.9523 0.257254 41.308 0.905441 36.9347 3.00047C36.1356 3.38244 34.7699 4.03063 33.8981 4.4589C33.0119 4.87559 32.2709 5.19968 32.2418 5.16496C32.2128 5.14181 32.3871 4.59779 32.6341 3.97276C32.8811 3.33614 33.0845 2.79213 33.0845 2.7574C33.0845 2.68796 28.7839 3.86858 27.0549 4.42417C24.0474 5.3733 21.2433 6.99377 19.2818 8.89203C18.7007 9.44762 18.1921 9.92219 18.134 9.93376C18.0904 9.95691 17.8289 9.06566 17.5529 7.96605C17.2913 6.87802 17.0153 5.87102 16.9717 5.75527C16.8845 5.57007 16.5213 5.85944 14.9376 7.31786C13.8625 8.30172 12.1335 9.85274 11.0874 10.7556C7.83286 13.603 6.96112 14.7836 6.62695 16.7629C6.48165 17.631 6.49618 17.9898 6.71412 19.2283C6.85941 20.027 6.94659 20.8835 6.91753 21.1381C6.88847 21.3928 6.85941 22.1567 6.85941 22.8512C6.85941 23.5341 6.84488 24.0897 6.83035 24.0897C6.75771 24.0897 1.41098 23.3836 0.757172 23.2911C0.364885 23.2332 0.0161856 23.1985 0.00165644 23.21C-0.0128727 23.2216 0.800759 23.754 1.8178 24.3791C2.83484 25.0157 4.38946 25.988 5.27574 26.5436L6.88847 27.5737L6.62695 28.5807C6.06031 30.7336 5.88596 33.9283 6.2056 36.1853C6.81582 40.3523 8.93708 44.6002 12.148 48.0495C13.3539 49.3574 16.8119 52.0544 18.628 53.1308C19.7032 53.7674 21.0834 54.4156 22.8415 55.1217L25.4567 56.175L25.7037 56.9389C25.8345 57.3672 26.1541 58.8372 26.4011 60.203C26.6481 61.5688 26.9532 63.1083 27.0695 63.6176C27.7959 66.5113 29.0745 68.479 31.0504 69.729L31.559 70.0531L30.9778 69.8564C28.0429 68.8725 27.5489 68.7568 27.0549 68.8841C26.0088 69.1619 25.1225 70.3772 24.8029 71.9745C24.4978 73.4561 24.9191 74.44 25.9216 74.6599C27.7668 75.0766 33.9417 75.1229 35.5545 74.7293C37.0074 74.3821 37.3997 73.6297 36.586 72.7501C36.063 72.1829 35.8596 72.0324 34.6101 71.3842C34.058 71.0949 33.6221 70.8518 33.6657 70.8518C33.7093 70.8518 34.2033 70.9328 34.7554 71.0254C36.1356 71.2569 38.1552 71.2338 39.4047 70.9675C39.9713 70.8518 40.4508 70.7823 40.4799 70.8055C40.5089 70.8171 40.4363 71.118 40.3346 71.4537C39.9423 72.7269 40.2183 74.2548 40.8867 74.5326C41.6131 74.8335 43.313 74.9608 46.5966 74.9608C49.5024 74.9608 50.1417 74.9261 50.9118 74.7409C51.4058 74.6252 51.9433 74.4284 52.1032 74.3011C52.5245 74.0001 52.51 73.3172 52.0741 72.8079C51.3041 71.8935 48.6452 70.5971 45.2164 69.4744C44.4318 69.2082 43.7489 68.9767 43.7198 68.9535C43.7053 68.9304 44.0104 68.5484 44.4318 68.1201C45.4633 67.0437 46.6402 65.0065 47.1923 63.3513C47.265 63.1546 47.3812 62.8073 47.4538 62.599C47.7444 61.7887 48.2384 60.1683 48.7905 58.1774C49.0956 57.0315 49.3862 55.9782 49.4298 55.8393C49.4879 55.6425 49.8366 55.4458 50.6648 55.1101C55.285 53.2581 59.3823 50.3297 62.3317 46.7763C65.1794 43.327 66.8357 39.4147 67.2571 35.1205L67.4169 33.3611L68.0126 33.6968C68.3322 33.882 68.6083 34.0209 68.6373 34.0093C68.6519 33.9861 68.1579 32.4351 67.5331 30.56C66.487 27.4695 65.8041 25.6986 65.0922 24.1823L64.8307 23.6267L66.211 22.5155C68.3758 20.7678 68.245 20.814 74.6669 19.2052C76.0181 18.8811 77.0642 18.5685 76.9916 18.5222C76.9335 18.4759 76.5993 18.3602 76.2361 18.2676C75.8728 18.1634 73.5627 17.5268 71.0782 16.8555C68.6083 16.1841 66.5887 15.5823 66.6033 15.5244C66.7776 15.0035 67.0827 13.302 67.0827 12.8738C67.0827 11.9709 66.6759 10.281 66.211 9.26243C65.6153 7.93133 64.5401 5.78999 64.4529 5.76685C64.4093 5.75527 63.8572 6.20669 63.218 6.77385L62.0702 7.79243L61.983 5.38488C61.8667 2.34071 61.7069 0.592922 61.5326 0.592922C60.8352 0.592922 57.4063 1.00961 56.2585 1.22953C54.7911 1.5189 52.292 2.23654 50.4614 2.8963C49.9093 3.09307 49.4298 3.24354 49.4007 3.2204C49.3717 3.19725 49.7204 2.47961 50.1563 1.62308C50.5921 0.778118 50.9408 0.0489078 50.9263 0.0141835C50.8972 -0.0205408 49.9674 -0.00896604 48.8486 0.0489078ZM42.296 6.85487C41.6858 8.02393 40.9448 9.47077 40.6397 10.0495C40.1021 11.0797 40.0585 11.3343 40.4944 11.126C40.6251 11.0565 40.8721 11.1838 41.308 11.5774C42.3396 12.4918 44.1121 13.0242 46.4223 13.1168C47.294 13.1515 47.3667 13.1284 47.7154 12.8043C47.9188 12.6075 49.0375 11.67 50.2144 10.7208C51.3767 9.76014 53.4108 8.0818 54.7329 6.9822L57.1302 4.96819L57.2174 5.4196C57.3918 6.20669 57.0867 8.69526 56.5491 11.0102C56.2585 12.2487 55.7936 14.2859 55.5175 15.5244C55.2415 16.7629 54.9799 17.8972 54.9218 18.0361C54.8492 18.3023 55.0671 18.4065 55.2415 18.1982C55.285 18.1403 55.9534 17.6773 56.738 17.1796C58.2054 16.242 60.8352 14.4595 61.7069 13.8229C61.983 13.6261 62.23 13.4756 62.259 13.4988C62.3607 13.5798 61.8232 14.8878 61.518 15.2929C61.3437 15.5128 60.4429 16.4619 59.513 17.3995C58.5686 18.3486 57.8131 19.1241 57.8276 19.1357C57.8422 19.1357 59.1062 19.182 60.6463 19.2167L63.4359 19.2862L62.0992 20.4089C61.3582 21.0224 60.2395 21.8789 59.6002 22.3072C58.9609 22.7355 58.3798 23.1174 58.3216 23.1637C58.249 23.21 58.3071 23.4184 58.4233 23.6151C58.5541 23.8119 58.6122 23.974 58.5541 23.974C58.4379 23.974 58.3071 23.9161 54.7184 22.1451C53.5125 21.5433 52.4955 21.0803 52.4664 21.115C52.4228 21.1381 52.8151 22.041 53.3381 23.1174C54.6022 25.7912 54.5295 25.5829 54.1808 25.2703C54.021 25.1314 53.2364 24.4601 52.4519 23.7888C51.6673 23.1174 50.9699 22.4924 50.9118 22.3998C50.8537 22.3072 50.7374 22.2377 50.6503 22.2377C50.505 22.2377 50.4033 22.4229 49.8076 23.7772L49.4007 24.68L48.7615 24.1129C48.4128 23.8119 47.4974 22.9785 46.7419 22.2725C45.9864 21.5548 45.3181 20.9761 45.2745 20.9761C45.2309 20.9645 44.9112 21.277 44.5771 21.659C44.2429 22.041 43.9087 22.3535 43.8361 22.3535C43.7634 22.3535 43.56 22.1567 43.3857 21.9137C42.2088 20.3626 39.2739 16.9249 39.1868 16.9712C39.1141 17.0059 37.9663 18.2213 36.6296 19.6681C32.3435 24.3096 32.5324 24.1244 32.3871 23.8929C32.082 23.4531 31.6171 22.0294 31.312 20.6867C31.065 19.5755 31.0068 18.8695 31.0068 17.2606C31.0214 16.1494 31.094 14.9109 31.1667 14.5058C31.2393 14.1123 31.2538 13.7882 31.2103 13.7882C31.1521 13.7882 29.6847 14.7026 27.9412 15.8253C25.5294 17.3648 24.7303 17.8162 24.6286 17.7004C24.5559 17.6194 24.2799 17.2143 24.0329 16.7976C23.597 16.0915 23.5679 15.9758 23.5825 14.8299C23.597 13.8808 23.6842 13.4178 23.9747 12.6886C24.367 11.67 24.9918 10.5125 24.861 11.0334L24.7738 11.3575L25.5148 11.1838C25.9216 11.0912 26.59 10.9292 27.0113 10.8366C27.7087 10.6745 27.7668 10.6745 27.9412 10.8829C28.2608 11.2301 29.0745 11.4732 29.9608 11.4732C32.4598 11.4732 36.6732 9.44762 41.7294 5.82472C42.6156 5.19968 43.3421 4.69039 43.3711 4.70197C43.3857 4.71354 42.9062 5.68582 42.296 6.85487ZM39.9568 24.68C40.4217 25.2703 40.7704 25.7565 40.7414 25.7912C40.7123 25.8144 40.2329 25.7796 39.6662 25.7102C39.0269 25.6292 38.3731 25.6176 37.8355 25.687C37.3851 25.7449 37.0074 25.7681 37.0074 25.7449C37.0074 25.6639 38.9688 23.6267 39.0415 23.6267C39.0851 23.6267 39.4919 24.1013 39.9568 24.68ZM30.7163 30.2359C29.7719 31.8911 29.4232 33.5579 29.6266 35.5719C30.0625 39.9703 33.9708 43.408 38.6056 43.4427C40.9303 43.4659 42.6592 42.8524 44.5771 41.3361C45.6086 40.5143 45.9283 40.1671 46.4949 39.2527C47.541 37.5627 47.8025 36.6368 47.8025 34.5649C47.8025 33.1528 47.7444 32.655 47.4829 31.9027C47.0761 30.6758 46.2189 29.2752 45.3907 28.465L44.7369 27.8168L45.1437 27.4348C45.4198 27.1802 45.6086 27.076 45.6958 27.157C45.7685 27.2149 46.6257 28.0136 47.5846 28.9164L49.3426 30.56L48.9939 31.1966C47.7008 33.5347 48.035 36.6831 49.793 38.836C52.6989 42.3894 58.3507 42.4705 61.2565 39.0096C61.5907 38.6161 61.8522 38.3498 61.8522 38.4193C61.8522 38.6624 60.995 40.6185 60.4284 41.6718C58.0456 46.0702 53.4398 49.8899 48.1367 51.8692C47.3231 52.1701 46.306 52.5174 45.8702 52.6215C45.4343 52.7373 44.9403 52.8762 44.7805 52.9225C44.054 53.1655 41.4824 53.617 39.9568 53.779C35.2348 54.2767 29.9317 53.617 25.602 51.9965C19.5579 49.7394 14.4436 45.2368 12.395 40.3986C11.1746 37.5049 10.7823 35.514 10.8985 32.7361C10.9276 31.7291 11.0293 30.8494 11.1165 30.7799C11.2182 30.6989 11.5087 30.9073 12.0318 31.405C13.2522 32.574 14.1676 33.7894 16.1581 36.8798C17.1896 38.4656 18.2938 40.1786 18.6135 40.6764C18.9331 41.1741 19.2237 41.5445 19.2382 41.4866C19.2528 41.4403 19.7032 39.0212 20.2262 36.1275C21.098 31.2429 21.4903 29.5067 21.8825 28.6849L22.0424 28.3608L22.5218 28.8585C22.7834 29.1363 23.4081 29.8192 23.9166 30.3748C24.4251 30.942 24.8901 31.3587 24.9482 31.3008C25.0063 31.2545 25.9216 30.178 26.9823 28.9048L28.9001 26.613L30.0479 27.9904L31.1957 29.3678L30.7163 30.2359ZM61.6779 29.7729C62.3172 30.1433 62.3753 30.2359 62.4915 31.2661L62.5641 31.9027L62.23 31.2545C61.8522 30.5484 61.5035 30.0623 61.0676 29.6688C60.6608 29.2984 60.9659 29.3562 61.6779 29.7729Z" fill="black" stroke="white" stroke-width="2" mask="url(#path-1-inside-1_20_1042)"/>
<path d="M8.21887 55.778L8.21713 55.7787C7.24196 56.1927 6.36103 56.647 5.64881 57.09C4.92781 57.5385 4.4108 57.9563 4.1348 58.2886C3.89285 58.5804 3.74475 58.82 3.66334 59.0502C3.58466 59.2727 3.55883 59.5131 3.60384 59.8211C3.69954 60.476 4.10208 61.38 4.94402 62.914L4.94428 62.9145C5.53297 63.9897 6.11832 65.11 6.23408 65.3998L5.76974 65.5853L6.23361 65.3986C6.29466 65.5504 6.43766 65.7727 6.67241 66.0485C6.90129 66.3174 7.19558 66.612 7.53021 66.9078C8.20146 67.5012 9.00577 68.0737 9.71601 68.4385C12.3027 69.7431 15.6833 69.3419 18.1443 67.4033L18.1457 67.4022C19.6468 66.2285 20.6503 64.7975 21.0669 63.3321C21.208 62.8204 21.2613 62.1435 21.2235 61.4755C21.1854 60.8022 21.058 60.1971 20.8786 59.8152C20.5512 59.1289 20.1743 58.646 19.645 58.2535C19.1046 57.8525 18.3783 57.5255 17.318 57.1967C15.9005 56.7607 14.9505 56.6892 13.9922 56.9162L13.9922 56.9162L13.987 56.9174C13.1303 57.1106 12.4196 57.165 11.7175 56.9831C11.021 56.8027 10.3908 56.4044 9.66585 55.809L9.66419 55.8076C9.49071 55.6639 9.32506 55.5377 9.19735 55.4501C9.17613 55.4356 9.15679 55.4227 9.13935 55.4113C9.09063 55.4284 9.03206 55.4497 8.96485 55.4751C8.76216 55.5517 8.49663 55.6588 8.21887 55.778Z" fill="black" stroke="white"/>
<path d="M53.7797 61.7047L53.7798 61.7047L53.7821 61.7092C54.0106 62.1502 54.3338 62.7674 54.6408 63.3535C54.8413 63.7362 55.0348 64.1057 55.1905 64.4043C55.6152 65.2128 55.9237 65.727 56.2732 66.1592C56.62 66.5882 57.0222 66.9547 57.6554 67.4479L57.6565 67.4487C60.0664 69.3359 62.9108 69.6981 65.8006 68.5036C66.4002 68.2514 67.1601 67.7573 67.8689 67.173C68.5796 66.587 69.193 65.9482 69.5238 65.4314L69.5258 65.4284C70.034 64.6473 70.3209 64.1073 70.4875 63.5856C70.6521 63.07 70.7089 62.5413 70.709 61.7679C70.7018 60.9967 70.6474 60.5241 70.5 60.1103C70.3531 59.6975 70.0991 59.3024 69.6166 58.7145L69.6165 58.7146L69.612 58.7089C69.3852 58.4241 69.2491 58.2858 69.0551 58.1574C68.8422 58.0164 68.5441 57.877 67.9647 57.6316C65.8606 56.7597 64.7715 56.6156 63.4806 56.9272L63.4805 56.9273C62.6406 57.1298 61.9162 57.1756 61.1924 56.9873C60.4762 56.801 59.8121 56.3987 59.0688 55.8006L59.0621 55.7952L59.0556 55.7896C58.8967 55.6525 58.7361 55.5326 58.61 55.4498C58.5886 55.4357 58.569 55.4232 58.5512 55.4123C58.4914 55.4348 58.4171 55.4641 58.3305 55.4993C58.0996 55.5934 57.7968 55.7239 57.4817 55.8665C55.9144 56.5768 54.7595 57.2592 54.0866 57.838C53.6084 58.2536 53.3936 58.4909 53.2785 58.7161C53.1711 58.9261 53.1265 59.1738 53.1262 59.6779C53.1334 60.0886 53.1516 60.2914 53.2252 60.527C53.3052 60.7834 53.4564 61.0958 53.7797 61.7047ZM58.6852 55.3662C58.6854 55.366 58.6821 55.3668 58.6746 55.3689C58.6812 55.3675 58.685 55.3664 58.6852 55.3662Z" fill="black" stroke="white"/>
</svg>
