<svg width="77" height="75" viewBox="0 0 77 75" fill="none" xmlns="http://www.w3.org/2000/svg">
<mask id="path-1-inside-1_20_1105" fill="white">
<path d="M47.0426 0.222101C45.7172 0.33499 44.1913 0.504324 43.6519 0.605925C40.8007 1.1365 38.2114 2.09606 33.9576 4.21838C33.0637 4.65865 32.0928 5.13279 31.7845 5.26826L31.2143 5.51661L31.5842 4.43287C31.7999 3.83456 31.9541 3.30398 31.9232 3.25882C31.8616 3.13465 26.6523 4.65865 25.1264 5.23439C22.4755 6.2391 20.025 7.75182 18.2988 9.46774C17.8056 9.95316 17.3741 10.337 17.3433 10.3257C17.3125 10.3031 17.0042 9.4113 16.6497 8.36142C16.2798 7.30026 15.9408 6.39715 15.8945 6.36328C15.8483 6.32942 14.9236 7.11964 13.8447 8.13565C12.7504 9.15165 11.3017 10.4612 10.6236 11.0482C8.46584 12.8996 8.08054 13.2608 7.44864 14.051C6.47767 15.259 6.1386 16.1847 6.16942 17.5958C6.16942 18.2844 6.29272 19.1311 6.46226 19.6278C6.84756 20.8696 6.7705 22.4387 6.27731 23.1612C5.892 23.7031 5.892 23.7031 5.24469 23.6466C4.89021 23.6128 3.70347 23.4999 2.59379 23.4096C1.49952 23.3193 0.42067 23.2177 0.235723 23.1951C-0.27288 23.1386 -0.103345 23.2402 2.20849 24.4594C3.27193 25.0239 4.28913 25.5658 4.47408 25.6561C4.79774 25.8367 4.79774 25.8593 4.58197 26.3786C3.42605 29.1444 3.02533 32.4294 3.51852 35.4323C4.65903 42.4879 10.1766 48.6968 18.5608 52.3318C19.4085 52.6931 20.0867 53.0205 20.0867 53.0543C20.0867 53.0882 19.9017 53.1785 19.6705 53.2575C18.8999 53.5172 16.8655 54.6348 16.2952 55.1089C15.3705 55.8878 15.1085 56.441 15.1856 57.4344C15.2472 58.1456 15.3859 58.5069 15.987 59.5342C16.4031 60.2115 17.0967 61.4307 17.5436 62.2209C18.1755 63.316 18.5763 63.8465 19.239 64.4561C19.7322 64.8851 20.2408 65.2915 20.3795 65.3367C20.5798 65.427 20.5644 65.4722 20.1945 65.6866C18.7766 66.5107 17.9135 69.2539 18.6841 70.507C18.9307 70.8908 19.0849 71.0037 19.578 71.094C20.9651 71.365 22.9996 71.4666 25.9895 71.4214C30.3049 71.3424 31.3222 71.094 31.3838 70.1119C31.4146 69.2991 30.3049 68.4637 27.8082 67.459L26.6523 66.9962L27.1609 66.8946C27.5924 66.8155 27.7465 66.8494 28.1935 67.0978C28.9024 67.4929 30.4591 68.0122 31.5842 68.2379C32.1852 68.3621 33.1408 68.4186 34.42 68.4186C36.0691 68.4186 36.5007 68.3847 37.4562 68.1363C40.1842 67.4477 42.0645 66.1269 43.6519 63.7901C44.7924 62.1193 45.6863 59.9293 46.9039 55.7524C47.058 55.2218 47.3046 54.4316 47.4433 53.98L47.6899 53.1672L48.8458 52.7157C50.4949 52.0609 52.1286 51.2368 53.9319 50.1644C59.5881 46.7551 63.6107 41.5848 64.6279 36.3919C64.7204 35.8951 64.9362 35.1049 65.1057 34.6308C65.7222 32.8245 65.6606 31.5263 64.8437 29.6411C64.3505 28.467 64.3505 28.3428 64.9054 28.6476C66.2308 29.3814 69.4365 31.0409 69.4674 31.007C69.5598 30.928 66.9706 25.0578 66.5699 24.4143C66.3387 24.053 65.7684 23.3757 65.2907 22.9242L64.443 22.1113L65.0132 21.6033C66.1846 20.5535 68.0494 19.1875 68.7738 18.8376C69.19 18.6456 71.1473 18.0586 73.1355 17.528C75.1082 17.0087 76.8344 16.5459 76.9577 16.5007C77.2197 16.433 76.3875 16.2411 70.3613 14.9316C67.0785 14.2091 66.3387 14.0172 66.4003 13.8704C66.6007 13.4189 66.7856 11.8271 66.7086 11.274C66.5545 10.2354 66.1692 9.02747 65.7222 8.23725C64.7666 6.55519 63.7803 4.96345 63.6878 4.98603C63.6261 4.99732 63.0713 5.46017 62.4548 6.02461L61.3143 7.04062L61.2218 5.1215C61.1448 3.42816 60.7132 0.470458 60.5437 0.33499C60.405 0.244679 56.9681 0.684947 55.6118 0.955882C54.0089 1.29455 51.4967 2.02833 49.6935 2.68309C48.3835 3.16851 48.2139 3.21367 48.3681 3.03305C48.5068 2.86371 49.8322 0.188234 49.8322 0.0753448C49.8322 0.030189 49.7397 -0.0036778 49.6473 -0.0036778C49.5394 0.00761114 48.3681 0.109212 47.0426 0.222101ZM56.4441 6.21653C56.4132 7.94373 56.3208 8.84685 56.0125 10.3144C55.9355 10.7434 55.7505 11.6917 55.6118 12.4029C55.4885 13.1141 55.2419 14.4123 55.0724 15.2703C54.9028 16.1395 54.7949 16.862 54.8258 16.8959C54.8874 16.941 58.8946 14.2994 61.0831 12.7754C61.5455 12.4593 61.9462 12.1997 61.9616 12.2222C62.0387 12.2787 61.4993 13.6108 61.2373 13.9833C61.0831 14.1978 60.2509 15.0671 59.4032 15.9024C58.5555 16.7378 57.8466 17.4716 57.8466 17.528C57.8466 17.5845 59.095 17.6071 60.6208 17.5732C62.1466 17.5506 63.395 17.5506 63.395 17.5619C63.395 17.6409 60.4358 20.0793 60.2509 20.1584C60.143 20.2148 59.6806 20.497 59.2337 20.7905L58.4168 21.3324L58.6634 21.7275L58.9254 22.1226L58.2781 21.8404C56.1512 20.9486 52.5448 19.5262 52.4985 19.56C52.4523 19.5826 52.6527 19.9777 52.9147 20.4293C53.1921 20.8921 53.7161 21.7953 54.086 22.45L54.7641 23.6354L52.7297 22.1339C51.62 21.3098 50.6491 20.6777 50.5874 20.7228C50.5412 20.7793 50.4025 21.0163 50.31 21.2647C49.8939 22.3145 49.601 22.9016 49.524 22.9016C49.4623 22.9016 48.5376 22.2017 47.4433 21.3437C46.3645 20.497 45.3935 19.7858 45.2856 19.7632C45.1931 19.7407 44.8232 20.0342 44.4842 20.4067L43.8677 21.0728L42.4652 19.6504C41.6946 18.8601 40.6157 17.7651 40.0917 17.2119C39.5523 16.6588 39.0591 16.1847 38.9666 16.1734C38.8895 16.1508 37.4254 17.6635 35.73 19.5262L32.663 22.9242L32.3394 22.6306C32.1698 22.4726 32.0157 22.2468 32.0003 22.1452C31.9849 22.0323 31.7691 21.3776 31.5225 20.7002C30.8752 18.973 30.6903 17.6296 30.7519 15.3606C30.7673 14.2994 30.7673 13.4189 30.7519 13.4189C30.7211 13.4189 29.3032 14.322 27.6078 15.417L24.51 17.4152L24.2017 17.1329C23.0304 16.0943 22.7376 14.5703 23.3695 12.7867C23.8164 11.511 24.2325 10.7321 24.2479 11.1272C24.2479 11.3756 24.2479 11.3756 25.6659 11.0256C26.6523 10.7773 27.0992 10.7095 27.1454 10.8111C27.1763 10.8789 27.4845 11.0482 27.839 11.1837C28.3784 11.3756 28.6404 11.4094 29.5343 11.353C32.0003 11.1949 36.3157 9.06134 40.9394 5.69724C41.7562 5.09892 42.4344 4.64736 42.4344 4.70381C42.4344 4.8167 41.7408 6.25039 40.3691 8.9936C39.8913 9.94188 39.506 10.7434 39.506 10.7773C39.506 10.7998 39.6293 10.7773 39.7835 10.7208C40.0146 10.6305 40.2304 10.7208 40.924 11.2062C42.0028 11.9513 43.1896 12.2561 45.3319 12.3577L46.8268 12.4254L47.6591 11.7029C48.1061 11.3191 48.9229 10.6305 49.4469 10.2015C49.9709 9.76125 51.7279 8.30498 53.3616 6.95031C54.9953 5.60692 56.3516 4.50061 56.3978 4.50061C56.4441 4.50061 56.4595 5.27954 56.4441 6.21653ZM40.1225 23.3306C40.5695 23.7821 40.9085 24.1659 40.8777 24.1885C40.8469 24.2111 40.3691 24.2788 39.8297 24.3466C38.8279 24.482 37.0401 25.0239 36.5469 25.3513C36.3928 25.4529 36.2695 25.498 36.2695 25.4529C36.2695 25.3739 38.5813 22.7887 38.9358 22.4726C39.1207 22.3033 39.0899 22.2807 40.1225 23.3306ZM31.4146 27.7558C31.5842 27.9252 31.9541 28.2977 32.2315 28.5912C32.6168 28.9863 32.7093 29.1556 32.6014 29.3024C31.8153 30.3974 31.7383 33.8744 32.4781 35.4662C32.9867 36.5725 33.3566 37.1143 34.2042 37.9836C37.3175 41.2009 43.0046 41.6864 46.7344 39.056C48.3218 37.9271 49.5856 36.2338 50.0788 34.5405C50.1867 34.1341 50.2946 33.231 50.2946 32.531C50.2946 30.6006 49.8168 29.2347 48.6147 27.7332L47.9982 26.9656L49.2003 27.9026C49.863 28.4106 50.6028 28.9976 50.8648 29.2121L51.3272 29.5959L51.0344 30.341C50.6182 31.436 50.6337 33.4567 51.0652 34.5518C52.0978 37.0805 54.6717 38.8303 57.677 39.0109C58.2781 39.0448 58.7713 39.0899 58.7713 39.1125C58.7713 39.2705 57.6924 41.0881 57.1684 41.8105C56.2591 43.0862 55.4114 43.9893 54.0243 45.1746L52.8376 46.2019L52.6989 45.8181C52.4831 45.265 51.5738 44.6215 50.7878 44.4747C49.3853 44.1925 47.1197 44.7457 44.6537 45.9536C42.4035 47.0486 42.3111 47.1954 44.3146 46.518C47.0888 45.581 47.7978 45.423 49.2928 45.423C50.6182 45.423 50.7107 45.4456 51.4197 45.7955C52.4061 46.3035 52.4523 46.439 51.8204 46.8793C47.3354 49.9612 40.4924 51.9141 34.2042 51.9141C27.2687 51.9141 19.9325 49.6112 15.3551 45.9987C11.7486 43.1539 9.4214 39.835 8.58914 36.3354C8.17301 34.6308 8.20384 30.6345 8.63538 29.1218L8.92821 28.0606L10.0995 28.8057C12.9662 30.6458 14.6924 32.373 17.6823 36.4483C18.977 38.1981 20.0096 39.4963 20.1329 39.4963C20.3178 39.4963 20.3641 39.3157 20.5336 37.3514C21.0114 32.2827 21.782 27.7107 22.2289 27.3833C22.306 27.3268 22.9996 27.88 23.7702 28.5912C24.5408 29.3137 25.2497 29.9007 25.3268 29.9007C25.4039 29.9007 25.558 29.7878 25.6505 29.6411C25.7583 29.5056 26.5598 28.4896 27.4537 27.3946L29.072 25.3851L30.0892 26.4124C30.644 26.9769 31.2451 27.5752 31.4146 27.7558ZM53.2691 27.1688C53.3154 27.2139 53.1767 27.3946 52.9763 27.5752L52.591 27.8913L52.6989 27.5752C52.7605 27.3946 52.8376 27.2139 52.8684 27.1575C52.9455 27.0559 53.1767 27.0559 53.2691 27.1688Z"/>
</mask>
<path d="M47.0426 0.222101C45.7172 0.33499 44.1913 0.504324 43.6519 0.605925C40.8007 1.1365 38.2114 2.09606 33.9576 4.21838C33.0637 4.65865 32.0928 5.13279 31.7845 5.26826L31.2143 5.51661L31.5842 4.43287C31.7999 3.83456 31.9541 3.30398 31.9232 3.25882C31.8616 3.13465 26.6523 4.65865 25.1264 5.23439C22.4755 6.2391 20.025 7.75182 18.2988 9.46774C17.8056 9.95316 17.3741 10.337 17.3433 10.3257C17.3125 10.3031 17.0042 9.4113 16.6497 8.36142C16.2798 7.30026 15.9408 6.39715 15.8945 6.36328C15.8483 6.32942 14.9236 7.11964 13.8447 8.13565C12.7504 9.15165 11.3017 10.4612 10.6236 11.0482C8.46584 12.8996 8.08054 13.2608 7.44864 14.051C6.47767 15.259 6.1386 16.1847 6.16942 17.5958C6.16942 18.2844 6.29272 19.1311 6.46226 19.6278C6.84756 20.8696 6.7705 22.4387 6.27731 23.1612C5.892 23.7031 5.892 23.7031 5.24469 23.6466C4.89021 23.6128 3.70347 23.4999 2.59379 23.4096C1.49952 23.3193 0.42067 23.2177 0.235723 23.1951C-0.27288 23.1386 -0.103345 23.2402 2.20849 24.4594C3.27193 25.0239 4.28913 25.5658 4.47408 25.6561C4.79774 25.8367 4.79774 25.8593 4.58197 26.3786C3.42605 29.1444 3.02533 32.4294 3.51852 35.4323C4.65903 42.4879 10.1766 48.6968 18.5608 52.3318C19.4085 52.6931 20.0867 53.0205 20.0867 53.0543C20.0867 53.0882 19.9017 53.1785 19.6705 53.2575C18.8999 53.5172 16.8655 54.6348 16.2952 55.1089C15.3705 55.8878 15.1085 56.441 15.1856 57.4344C15.2472 58.1456 15.3859 58.5069 15.987 59.5342C16.4031 60.2115 17.0967 61.4307 17.5436 62.2209C18.1755 63.316 18.5763 63.8465 19.239 64.4561C19.7322 64.8851 20.2408 65.2915 20.3795 65.3367C20.5798 65.427 20.5644 65.4722 20.1945 65.6866C18.7766 66.5107 17.9135 69.2539 18.6841 70.507C18.9307 70.8908 19.0849 71.0037 19.578 71.094C20.9651 71.365 22.9996 71.4666 25.9895 71.4214C30.3049 71.3424 31.3222 71.094 31.3838 70.1119C31.4146 69.2991 30.3049 68.4637 27.8082 67.459L26.6523 66.9962L27.1609 66.8946C27.5924 66.8155 27.7465 66.8494 28.1935 67.0978C28.9024 67.4929 30.4591 68.0122 31.5842 68.2379C32.1852 68.3621 33.1408 68.4186 34.42 68.4186C36.0691 68.4186 36.5007 68.3847 37.4562 68.1363C40.1842 67.4477 42.0645 66.1269 43.6519 63.7901C44.7924 62.1193 45.6863 59.9293 46.9039 55.7524C47.058 55.2218 47.3046 54.4316 47.4433 53.98L47.6899 53.1672L48.8458 52.7157C50.4949 52.0609 52.1286 51.2368 53.9319 50.1644C59.5881 46.7551 63.6107 41.5848 64.6279 36.3919C64.7204 35.8951 64.9362 35.1049 65.1057 34.6308C65.7222 32.8245 65.6606 31.5263 64.8437 29.6411C64.3505 28.467 64.3505 28.3428 64.9054 28.6476C66.2308 29.3814 69.4365 31.0409 69.4674 31.007C69.5598 30.928 66.9706 25.0578 66.5699 24.4143C66.3387 24.053 65.7684 23.3757 65.2907 22.9242L64.443 22.1113L65.0132 21.6033C66.1846 20.5535 68.0494 19.1875 68.7738 18.8376C69.19 18.6456 71.1473 18.0586 73.1355 17.528C75.1082 17.0087 76.8344 16.5459 76.9577 16.5007C77.2197 16.433 76.3875 16.2411 70.3613 14.9316C67.0785 14.2091 66.3387 14.0172 66.4003 13.8704C66.6007 13.4189 66.7856 11.8271 66.7086 11.274C66.5545 10.2354 66.1692 9.02747 65.7222 8.23725C64.7666 6.55519 63.7803 4.96345 63.6878 4.98603C63.6261 4.99732 63.0713 5.46017 62.4548 6.02461L61.3143 7.04062L61.2218 5.1215C61.1448 3.42816 60.7132 0.470458 60.5437 0.33499C60.405 0.244679 56.9681 0.684947 55.6118 0.955882C54.0089 1.29455 51.4967 2.02833 49.6935 2.68309C48.3835 3.16851 48.2139 3.21367 48.3681 3.03305C48.5068 2.86371 49.8322 0.188234 49.8322 0.0753448C49.8322 0.030189 49.7397 -0.0036778 49.6473 -0.0036778C49.5394 0.00761114 48.3681 0.109212 47.0426 0.222101ZM56.4441 6.21653C56.4132 7.94373 56.3208 8.84685 56.0125 10.3144C55.9355 10.7434 55.7505 11.6917 55.6118 12.4029C55.4885 13.1141 55.2419 14.4123 55.0724 15.2703C54.9028 16.1395 54.7949 16.862 54.8258 16.8959C54.8874 16.941 58.8946 14.2994 61.0831 12.7754C61.5455 12.4593 61.9462 12.1997 61.9616 12.2222C62.0387 12.2787 61.4993 13.6108 61.2373 13.9833C61.0831 14.1978 60.2509 15.0671 59.4032 15.9024C58.5555 16.7378 57.8466 17.4716 57.8466 17.528C57.8466 17.5845 59.095 17.6071 60.6208 17.5732C62.1466 17.5506 63.395 17.5506 63.395 17.5619C63.395 17.6409 60.4358 20.0793 60.2509 20.1584C60.143 20.2148 59.6806 20.497 59.2337 20.7905L58.4168 21.3324L58.6634 21.7275L58.9254 22.1226L58.2781 21.8404C56.1512 20.9486 52.5448 19.5262 52.4985 19.56C52.4523 19.5826 52.6527 19.9777 52.9147 20.4293C53.1921 20.8921 53.7161 21.7953 54.086 22.45L54.7641 23.6354L52.7297 22.1339C51.62 21.3098 50.6491 20.6777 50.5874 20.7228C50.5412 20.7793 50.4025 21.0163 50.31 21.2647C49.8939 22.3145 49.601 22.9016 49.524 22.9016C49.4623 22.9016 48.5376 22.2017 47.4433 21.3437C46.3645 20.497 45.3935 19.7858 45.2856 19.7632C45.1931 19.7407 44.8232 20.0342 44.4842 20.4067L43.8677 21.0728L42.4652 19.6504C41.6946 18.8601 40.6157 17.7651 40.0917 17.2119C39.5523 16.6588 39.0591 16.1847 38.9666 16.1734C38.8895 16.1508 37.4254 17.6635 35.73 19.5262L32.663 22.9242L32.3394 22.6306C32.1698 22.4726 32.0157 22.2468 32.0003 22.1452C31.9849 22.0323 31.7691 21.3776 31.5225 20.7002C30.8752 18.973 30.6903 17.6296 30.7519 15.3606C30.7673 14.2994 30.7673 13.4189 30.7519 13.4189C30.7211 13.4189 29.3032 14.322 27.6078 15.417L24.51 17.4152L24.2017 17.1329C23.0304 16.0943 22.7376 14.5703 23.3695 12.7867C23.8164 11.511 24.2325 10.7321 24.2479 11.1272C24.2479 11.3756 24.2479 11.3756 25.6659 11.0256C26.6523 10.7773 27.0992 10.7095 27.1454 10.8111C27.1763 10.8789 27.4845 11.0482 27.839 11.1837C28.3784 11.3756 28.6404 11.4094 29.5343 11.353C32.0003 11.1949 36.3157 9.06134 40.9394 5.69724C41.7562 5.09892 42.4344 4.64736 42.4344 4.70381C42.4344 4.8167 41.7408 6.25039 40.3691 8.9936C39.8913 9.94188 39.506 10.7434 39.506 10.7773C39.506 10.7998 39.6293 10.7773 39.7835 10.7208C40.0146 10.6305 40.2304 10.7208 40.924 11.2062C42.0028 11.9513 43.1896 12.2561 45.3319 12.3577L46.8268 12.4254L47.6591 11.7029C48.1061 11.3191 48.9229 10.6305 49.4469 10.2015C49.9709 9.76125 51.7279 8.30498 53.3616 6.95031C54.9953 5.60692 56.3516 4.50061 56.3978 4.50061C56.4441 4.50061 56.4595 5.27954 56.4441 6.21653ZM40.1225 23.3306C40.5695 23.7821 40.9085 24.1659 40.8777 24.1885C40.8469 24.2111 40.3691 24.2788 39.8297 24.3466C38.8279 24.482 37.0401 25.0239 36.5469 25.3513C36.3928 25.4529 36.2695 25.498 36.2695 25.4529C36.2695 25.3739 38.5813 22.7887 38.9358 22.4726C39.1207 22.3033 39.0899 22.2807 40.1225 23.3306ZM31.4146 27.7558C31.5842 27.9252 31.9541 28.2977 32.2315 28.5912C32.6168 28.9863 32.7093 29.1556 32.6014 29.3024C31.8153 30.3974 31.7383 33.8744 32.4781 35.4662C32.9867 36.5725 33.3566 37.1143 34.2042 37.9836C37.3175 41.2009 43.0046 41.6864 46.7344 39.056C48.3218 37.9271 49.5856 36.2338 50.0788 34.5405C50.1867 34.1341 50.2946 33.231 50.2946 32.531C50.2946 30.6006 49.8168 29.2347 48.6147 27.7332L47.9982 26.9656L49.2003 27.9026C49.863 28.4106 50.6028 28.9976 50.8648 29.2121L51.3272 29.5959L51.0344 30.341C50.6182 31.436 50.6337 33.4567 51.0652 34.5518C52.0978 37.0805 54.6717 38.8303 57.677 39.0109C58.2781 39.0448 58.7713 39.0899 58.7713 39.1125C58.7713 39.2705 57.6924 41.0881 57.1684 41.8105C56.2591 43.0862 55.4114 43.9893 54.0243 45.1746L52.8376 46.2019L52.6989 45.8181C52.4831 45.265 51.5738 44.6215 50.7878 44.4747C49.3853 44.1925 47.1197 44.7457 44.6537 45.9536C42.4035 47.0486 42.3111 47.1954 44.3146 46.518C47.0888 45.581 47.7978 45.423 49.2928 45.423C50.6182 45.423 50.7107 45.4456 51.4197 45.7955C52.4061 46.3035 52.4523 46.439 51.8204 46.8793C47.3354 49.9612 40.4924 51.9141 34.2042 51.9141C27.2687 51.9141 19.9325 49.6112 15.3551 45.9987C11.7486 43.1539 9.4214 39.835 8.58914 36.3354C8.17301 34.6308 8.20384 30.6345 8.63538 29.1218L8.92821 28.0606L10.0995 28.8057C12.9662 30.6458 14.6924 32.373 17.6823 36.4483C18.977 38.1981 20.0096 39.4963 20.1329 39.4963C20.3178 39.4963 20.3641 39.3157 20.5336 37.3514C21.0114 32.2827 21.782 27.7107 22.2289 27.3833C22.306 27.3268 22.9996 27.88 23.7702 28.5912C24.5408 29.3137 25.2497 29.9007 25.3268 29.9007C25.4039 29.9007 25.558 29.7878 25.6505 29.6411C25.7583 29.5056 26.5598 28.4896 27.4537 27.3946L29.072 25.3851L30.0892 26.4124C30.644 26.9769 31.2451 27.5752 31.4146 27.7558ZM53.2691 27.1688C53.3154 27.2139 53.1767 27.3946 52.9763 27.5752L52.591 27.8913L52.6989 27.5752C52.7605 27.3946 52.8376 27.2139 52.8684 27.1575C52.9455 27.0559 53.1767 27.0559 53.2691 27.1688Z" fill="black" stroke="white" stroke-width="2" mask="url(#path-1-inside-1_20_1105)"/>
<mask id="path-2-inside-2_20_1105" fill="white">
<path d="M20.8572 36.4144C20.8572 36.4822 20.9959 36.6628 21.1654 36.8208C21.335 36.9789 21.4737 37.1369 21.4737 37.1708C21.4737 37.2159 21.5507 37.3063 21.6278 37.3853C21.7203 37.4643 22.0747 37.803 22.4292 38.1416C22.7991 38.4803 23.2923 38.9093 23.5389 39.1012C23.7855 39.2818 23.6314 39.1125 23.2152 38.7061C22.7837 38.2997 22.0747 37.5998 21.6432 37.1369C21.2117 36.6741 20.8572 36.3467 20.8572 36.4144Z"/>
</mask>
<path d="M20.8572 36.4144C20.8572 36.4822 20.9959 36.6628 21.1654 36.8208C21.335 36.9789 21.4737 37.1369 21.4737 37.1708C21.4737 37.2159 21.5507 37.3063 21.6278 37.3853C21.7203 37.4643 22.0747 37.803 22.4292 38.1416C22.7991 38.4803 23.2923 38.9093 23.5389 39.1012C23.7855 39.2818 23.6314 39.1125 23.2152 38.7061C22.7837 38.2997 22.0747 37.5998 21.6432 37.1369C21.2117 36.6741 20.8572 36.3467 20.8572 36.4144Z" fill="black"/>
<path d="M21.6278 37.3853L20.9781 38.1455L20.9436 38.116L20.9119 38.0834L21.6278 37.3853ZM22.4292 38.1416L21.7539 38.8792L21.7461 38.872L21.7384 38.8647L22.4292 38.1416ZM23.5389 39.1012L22.948 39.9079L22.9362 39.8993L22.9247 39.8904L23.5389 39.1012ZM23.2152 38.7061L23.9008 37.9781L23.9074 37.9843L23.9139 37.9907L23.2152 38.7061ZM21.8572 36.4144C21.8572 36.3355 21.8473 36.2705 21.8378 36.2247C21.8281 36.1781 21.8164 36.1403 21.8069 36.1132C21.7884 36.0608 21.7697 36.0245 21.761 36.0084C21.7438 35.9765 21.7339 35.9656 21.7434 35.978C21.7602 36.0001 21.7978 36.0432 21.8473 36.0894L20.4835 37.5523C20.3635 37.4404 20.247 37.3142 20.1521 37.1895C20.1057 37.1286 20.0505 37.0499 20.002 36.9602C19.9766 36.9133 19.8572 36.6993 19.8572 36.4144H21.8572ZM21.8473 36.0894C21.9515 36.1865 22.0524 36.2891 22.1339 36.3818C22.1729 36.4261 22.2207 36.4831 22.2648 36.5452C22.2857 36.5746 22.3199 36.6249 22.3532 36.6884C22.363 36.7073 22.4737 36.9026 22.4737 37.1708H20.4737C20.4737 37.3244 20.5098 37.4402 20.527 37.4899C20.5473 37.5486 20.5689 37.5925 20.5816 37.6166C20.6066 37.6643 20.6287 37.6955 20.6339 37.7029C20.6467 37.7208 20.6492 37.7221 20.6323 37.7029C20.6021 37.6686 20.5489 37.6132 20.4835 37.5523L21.8473 36.0894ZM22.4737 37.1708C22.4737 37.04 22.4469 36.9384 22.4281 36.8806C22.4083 36.8197 22.3863 36.7741 22.3723 36.7473C22.3453 36.6959 22.3217 36.6652 22.3186 36.661C22.3109 36.6509 22.3165 36.6592 22.3437 36.6871L20.9119 38.0834C20.862 38.0324 20.7906 37.956 20.7251 37.8696C20.693 37.8274 20.6454 37.7606 20.6015 37.6771C20.5709 37.6188 20.4737 37.4289 20.4737 37.1708H22.4737ZM22.2774 36.625C22.3977 36.7278 22.7844 37.098 23.12 37.4186L21.7384 38.8647C21.5607 38.6949 21.3852 38.5272 21.2425 38.3921C21.1712 38.3245 21.1096 38.2665 21.0611 38.2214C21.0369 38.1989 21.0171 38.1806 21.0016 38.1666C20.9849 38.1513 20.9781 38.1454 20.9781 38.1455L22.2774 36.625ZM23.1045 37.4041C23.469 37.7378 23.9387 38.1452 24.1531 38.312L22.9247 39.8904C22.646 39.6734 22.1292 39.2228 21.7539 38.8792L23.1045 37.4041ZM24.1298 38.2945C24.1536 38.3119 24.1586 38.3148 24.1511 38.31C24.1478 38.3079 24.13 38.2965 24.1026 38.282C24.0932 38.2771 24.0041 38.2281 23.8762 38.1985C23.8202 38.1856 23.6485 38.1491 23.4337 38.1979C23.1564 38.2608 22.8482 38.4636 22.7154 38.8344C22.6144 39.1167 22.6712 39.3535 22.6909 39.427C22.7168 39.5236 22.7517 39.594 22.7681 39.6255C22.8023 39.691 22.8354 39.7352 22.8422 39.7443C22.8538 39.7599 22.8618 39.7692 22.8623 39.7699C22.8635 39.7712 22.8567 39.7633 22.8372 39.7425C22.819 39.7232 22.7946 39.6979 22.7634 39.6662C22.7009 39.6027 22.6185 39.5211 22.5166 39.4215L23.9139 37.9907C24.1104 38.1825 24.2918 38.363 24.3889 38.4777C24.4002 38.491 24.479 38.5811 24.5411 38.7C24.5596 38.7355 24.596 38.8094 24.6226 38.9089C24.6432 38.9854 24.7001 39.2245 24.5984 39.5085C24.4651 39.8809 24.1556 40.0849 23.8762 40.1483C23.6594 40.1975 23.485 40.1608 23.4255 40.1471C23.2908 40.1159 23.192 40.0629 23.1699 40.0512C23.1298 40.0301 23.0965 40.0095 23.0746 39.9955C23.0299 39.967 22.9858 39.9356 22.948 39.9079L24.1298 38.2945ZM22.5297 39.4341C22.0877 39.0179 21.3624 38.3022 20.9118 37.8189L22.3746 36.455C22.7871 36.8974 23.4797 37.5815 23.9008 37.9781L22.5297 39.4341ZM20.9118 37.8189C20.7059 37.5981 20.5283 37.4204 20.4111 37.3124C20.3458 37.2523 20.3262 37.2389 20.3402 37.2489C20.3463 37.2532 20.3644 37.2659 20.3917 37.2817C20.4121 37.2935 20.476 37.3298 20.5683 37.3594C20.6111 37.3731 20.9172 37.477 21.27 37.319C21.4809 37.2245 21.6492 37.061 21.7507 36.8604C21.8423 36.6791 21.8572 36.5128 21.8572 36.4144H19.8572C19.8572 36.1994 19.9483 35.7195 20.4525 35.4936C20.8108 35.3332 21.1249 35.4376 21.1782 35.4547C21.3495 35.5095 21.4749 35.6017 21.4984 35.6184C21.5924 35.6852 21.6884 35.7699 21.7656 35.841C21.9335 35.9955 22.1489 36.2129 22.3746 36.455L20.9118 37.8189Z" fill="white" mask="url(#path-2-inside-2_20_1105)"/>
<mask id="path-4-inside-3_20_1105" fill="white">
<path d="M24.3405 39.8575C24.6334 40.2301 27.9316 42.6346 28.8871 43.1652C29.1183 43.2894 29.781 43.6845 30.3821 44.0344C31.6305 44.7908 33.4029 45.7052 33.5879 45.7052C33.6495 45.7052 33.2642 45.4681 32.7248 45.1859C29.7348 43.6167 28.4094 42.7927 26.0359 41.0316C25.0187 40.2752 24.2481 39.7446 24.3405 39.8575Z"/>
</mask>
<path d="M24.3405 39.8575C24.6334 40.2301 27.9316 42.6346 28.8871 43.1652C29.1183 43.2894 29.781 43.6845 30.3821 44.0344C31.6305 44.7908 33.4029 45.7052 33.5879 45.7052C33.6495 45.7052 33.2642 45.4681 32.7248 45.1859C29.7348 43.6167 28.4094 42.7927 26.0359 41.0316C25.0187 40.2752 24.2481 39.7446 24.3405 39.8575Z" fill="black"/>
<path d="M24.3405 39.8575L25.1141 39.2238L25.1205 39.2316L25.1267 39.2395L24.3405 39.8575ZM28.8871 43.1652L28.4139 44.0462L28.4017 44.0395L28.8871 43.1652ZM30.3821 44.0344L30.8853 43.1702L30.8928 43.1746L30.9003 43.1792L30.3821 44.0344ZM32.7248 45.1859L32.2612 46.072L32.2601 46.0714L32.7248 45.1859ZM26.0359 41.0316L25.44 41.8347L25.4392 41.8341L26.0359 41.0316ZM25.1267 39.2395C25.0919 39.1953 25.098 39.2116 25.2298 39.3241C25.3349 39.4138 25.4794 39.5308 25.6567 39.6696C26.01 39.9463 26.4696 40.291 26.954 40.6437C27.9431 41.3639 28.9574 42.0604 29.3726 42.2909L28.4017 44.0395C27.8613 43.7394 26.7488 42.9683 25.7767 42.2605C25.2804 41.8991 24.8009 41.5397 24.4235 41.2442C24.2355 41.0969 24.0668 40.9608 23.9318 40.8456C23.8234 40.7532 23.6624 40.6129 23.5543 40.4755L25.1267 39.2395ZM29.3603 42.2842C29.6114 42.4191 30.3107 42.8357 30.8853 43.1702L29.879 44.8986C29.2514 44.5333 28.6252 44.1596 28.4139 44.0461L29.3603 42.2842ZM30.9003 43.1792C31.5021 43.5438 32.2377 43.9508 32.8446 44.266C33.1484 44.4237 33.4111 44.5538 33.603 44.6423C33.7005 44.6872 33.7681 44.716 33.8083 44.7315C33.8292 44.7396 33.8301 44.7391 33.8167 44.7352C33.8099 44.7332 33.79 44.7275 33.761 44.7218C33.7381 44.7172 33.674 44.7052 33.5879 44.7052V46.7052C33.4223 46.7052 33.2863 46.6639 33.2535 46.6543C33.1932 46.6366 33.1358 46.6157 33.0881 46.5973C32.9912 46.5599 32.8802 46.5114 32.766 46.4587C32.5346 46.3521 32.2414 46.2063 31.9229 46.0409C31.2853 45.7098 30.5105 45.2814 29.8639 44.8897L30.9003 43.1792ZM33.5879 44.7052C33.5305 44.7052 33.376 44.709 33.1971 44.7859C32.9834 44.8779 32.7123 45.092 32.6218 45.4694C32.5468 45.7823 32.644 46.027 32.6844 46.1154C32.7323 46.2199 32.7875 46.2917 32.8131 46.3234C32.8666 46.3894 32.9152 46.431 32.9258 46.4401C32.9436 46.4554 32.9562 46.4647 32.9588 46.4667C32.9623 46.4693 32.9362 46.4507 32.8635 46.4067C32.7303 46.3259 32.5183 46.2065 32.2612 46.072L33.1884 44.2999C33.4707 44.4476 33.7211 44.5878 33.8999 44.6961C33.9833 44.7467 34.0757 44.805 34.1509 44.8608C34.1641 44.8706 34.2731 44.9481 34.3681 45.0656C34.3966 45.1008 34.4538 45.1756 34.5029 45.2828C34.5446 45.3738 34.6422 45.6208 34.5667 45.9356C34.4758 46.3148 34.2034 46.5302 33.9876 46.6231C33.8066 46.701 33.649 46.7052 33.5879 46.7052V44.7052ZM32.2601 46.0714C29.2304 44.4814 27.8602 43.6304 25.44 41.8347L26.6317 40.2285C28.9585 41.9549 30.2392 42.7521 33.1895 44.3004L32.2601 46.0714ZM25.4392 41.8341C24.9363 41.4601 24.4992 41.1456 24.2034 40.9412C24.0514 40.8361 23.9523 40.7709 23.9038 40.7414C23.8518 40.7098 23.9086 40.7498 24.0025 40.784C24.0229 40.7915 24.1288 40.8311 24.2729 40.8404C24.3288 40.8439 25.0091 40.8776 25.2675 40.2002C25.367 39.9395 25.3301 39.7144 25.3052 39.6111C25.2782 39.4993 25.2377 39.4173 25.2159 39.3768C25.1721 39.2949 25.127 39.2396 25.1141 39.2238L23.5669 40.4912C23.5483 40.4684 23.4991 40.4073 23.4528 40.3209C23.4299 40.278 23.3885 40.1941 23.3611 40.0806C23.3358 39.9757 23.2989 39.7492 23.3988 39.4874C23.6581 38.8079 24.3408 38.8406 24.4006 38.8444C24.5488 38.8539 24.6602 38.895 24.6877 38.9051C24.8101 38.9497 24.9198 39.0185 24.9429 39.0325C25.0447 39.0945 25.1845 39.188 25.3407 39.296C25.6615 39.5177 26.1183 39.8467 26.6326 40.2291L25.4392 41.8341Z" fill="white" mask="url(#path-4-inside-3_20_1105)"/>
<path d="M35.8061 46.551C35.8056 46.5508 35.8051 46.5506 35.8046 46.5504C35.7931 46.5691 35.7825 46.5895 35.7729 46.6116C35.7716 46.6145 35.7704 46.6174 35.7692 46.6203C35.7674 46.6245 35.7658 46.6287 35.7642 46.6329C35.7596 46.6449 35.7556 46.6568 35.7521 46.6686C35.8234 46.7096 35.9069 46.7458 35.9837 46.7727C36.0052 46.7386 36.0237 46.6998 36.0371 46.656C35.9629 46.6173 35.8839 46.5811 35.8111 46.5529C35.8094 46.5522 35.8078 46.5516 35.8061 46.551Z" fill="black" stroke="white"/>
<mask id="path-7-inside-4_20_1105" fill="white">
<path d="M36.4236 46.8906C36.4236 46.9583 37.5949 47.3986 37.7644 47.3986C37.8261 47.3986 37.749 47.3308 37.5795 47.2518C37.1788 47.0599 36.4236 46.8228 36.4236 46.8906Z"/>
</mask>
<path d="M36.4236 46.8906C36.4236 46.9583 37.5949 47.3986 37.7644 47.3986C37.8261 47.3986 37.749 47.3308 37.5795 47.2518C37.1788 47.0599 36.4236 46.8228 36.4236 46.8906Z" fill="black"/>
<path d="M37.5795 47.2518L37.157 48.1582L37.1476 48.1537L37.5795 47.2518ZM37.4236 46.8906C37.4236 46.7122 37.376 46.5705 37.3344 46.4794C37.2928 46.388 37.2453 46.3208 37.2124 46.2791C37.1492 46.1989 37.0885 46.1484 37.0642 46.1287C37.0117 46.0865 36.9711 46.064 36.971 46.0639C36.9618 46.0587 36.9741 46.066 37.0209 46.0872C37.107 46.126 37.2373 46.1792 37.3836 46.2344C37.5285 46.2891 37.6733 46.3399 37.7854 46.3754C37.8424 46.3934 37.8812 46.4045 37.9027 46.4099C37.9137 46.4126 37.9115 46.4117 37.8997 46.4096C37.8981 46.4093 37.8434 46.3986 37.7644 46.3986V48.3986C37.6028 48.3986 37.4531 48.3591 37.4136 48.3491C37.3386 48.3302 37.2581 48.3063 37.1815 48.282C37.0263 48.2329 36.8464 48.1693 36.6773 48.1055C36.5096 48.0422 36.3365 47.9726 36.1976 47.9098C36.132 47.8802 36.0514 47.842 35.9775 47.7997C35.945 47.7811 35.8791 47.7423 35.8094 47.6861C35.7764 47.6595 35.7091 47.6027 35.6415 47.5169C35.5932 47.4556 35.4236 47.2315 35.4236 46.8906H37.4236ZM37.7644 46.3986C37.7217 46.3986 37.5093 46.3972 37.2797 46.5303C37.1451 46.6083 36.9867 46.7439 36.8836 46.9585C36.7799 47.174 36.7726 47.3849 36.7978 47.5435C36.8406 47.8132 36.9821 47.9804 37.0109 48.0149C37.0612 48.0749 37.1063 48.1131 37.1252 48.1286C37.1886 48.1805 37.2154 48.1854 37.157 48.1582L38.002 46.3454C38.1131 46.3972 38.2632 46.4755 38.3921 46.581C38.4274 46.6099 38.4853 46.6603 38.5445 46.7311C38.5823 46.7762 38.729 46.9527 38.773 47.23C38.7988 47.3924 38.7911 47.6066 38.686 47.8251C38.5815 48.0426 38.4207 48.1806 38.2826 48.2607C38.0461 48.3978 37.8226 48.3986 37.7644 48.3986V46.3986ZM37.1476 48.1537C37.0045 48.0852 36.7639 47.9943 36.5525 47.9281C36.4462 47.8949 36.3765 47.8771 36.3482 47.8713C36.3236 47.8663 36.3658 47.8773 36.4393 47.8786C36.4614 47.879 36.5947 47.883 36.7576 47.8269C36.8443 47.7971 37.0058 47.7279 37.1541 47.5703C37.324 47.3897 37.4236 47.1477 37.4236 46.8906H35.4236C35.4236 46.6291 35.5247 46.3835 35.6974 46.1999C35.8486 46.0392 36.0144 45.9676 36.1067 45.9358C36.2809 45.8758 36.4308 45.8782 36.4743 45.8789C36.5907 45.8809 36.695 45.9009 36.7475 45.9116C36.8733 45.9372 37.0174 45.978 37.15 46.0195C37.4164 46.1029 37.7538 46.2265 38.0114 46.3499L37.1476 48.1537Z" fill="white" mask="url(#path-7-inside-4_20_1105)"/>
<mask id="path-9-inside-5_20_1105" fill="white">
<path d="M37.9648 47.4663C37.9648 47.613 43.4054 49.329 43.8369 49.3064C43.9602 49.3064 43.5287 49.1596 42.8813 48.979C42.234 48.8097 40.8623 48.3807 39.8451 48.0307C38.8125 47.6921 37.9648 47.4324 37.9648 47.4663Z"/>
</mask>
<path d="M37.9648 47.4663C37.9648 47.613 43.4054 49.329 43.8369 49.3064C43.9602 49.3064 43.5287 49.1596 42.8813 48.979C42.234 48.8097 40.8623 48.3807 39.8451 48.0307C38.8125 47.6921 37.9648 47.4324 37.9648 47.4663Z" fill="black"/>
<path d="M43.8369 49.3064L43.7846 48.3078L43.8108 48.3064H43.8369V49.3064ZM42.8813 48.979L43.1344 48.0116L43.1423 48.0136L43.1501 48.0158L42.8813 48.979ZM39.8451 48.0307L40.1568 47.0805L40.1636 47.0828L40.1705 47.0851L39.8451 48.0307ZM38.9648 47.4663C38.9648 47.1033 38.7716 46.8742 38.7274 46.8228C38.6594 46.7436 38.5952 46.6953 38.5714 46.6778C38.5412 46.6557 38.5175 46.6414 38.5067 46.6351C38.4947 46.628 38.4867 46.6238 38.4847 46.6228C38.4841 46.6225 38.5096 46.635 38.5766 46.6623C38.703 46.7137 38.8987 46.7862 39.1525 46.8752C39.6554 47.0515 40.3378 47.2755 41.0389 47.4959C41.7397 47.7162 42.4497 47.9299 43.0072 48.0862C43.2871 48.1646 43.5203 48.2263 43.6913 48.2668C43.7776 48.2872 43.8381 48.2999 43.8758 48.3067C43.9445 48.3189 43.8865 48.3024 43.7846 48.3078L43.8891 50.305C43.7334 50.3132 43.5823 50.2859 43.5238 50.2754C43.4345 50.2595 43.3338 50.2375 43.2301 50.2129C43.0209 50.1633 42.7582 50.0934 42.4674 50.0119C41.8835 49.8482 41.1524 49.628 40.4392 49.4038C39.7262 49.1797 39.0215 48.9486 38.4909 48.7626C38.2279 48.6704 37.9951 48.585 37.8223 48.5146C37.7398 48.481 37.6479 48.4416 37.5674 48.4C37.5319 48.3817 37.4625 48.3447 37.3895 48.2913C37.3554 48.2663 37.2834 48.2111 37.2102 48.1259C37.1608 48.0683 36.9648 47.8339 36.9648 47.4663H38.9648ZM43.8369 48.3064C43.8273 48.3064 43.6999 48.3033 43.5454 48.3534C43.474 48.3765 43.2665 48.4507 43.091 48.66C42.8624 48.9326 42.8116 49.2822 42.8973 49.5779C42.9633 49.8058 43.092 49.9453 43.1376 49.9923C43.196 50.0526 43.2492 50.0918 43.276 50.1105C43.3303 50.1486 43.3742 50.1704 43.3842 50.1754C43.4181 50.1924 43.4143 50.1873 43.3247 50.1567C43.1773 50.1063 42.9283 50.0303 42.6126 49.9422L43.1501 48.0158C43.4817 48.1083 43.7721 48.196 43.9715 48.2642C44.0553 48.2928 44.1767 48.3358 44.2771 48.3858C44.3037 48.3991 44.3605 48.4283 44.424 48.4728C44.4552 48.4947 44.5121 48.5369 44.5731 48.5998C44.6213 48.6495 44.7517 48.7915 44.8183 49.0216C44.9046 49.3194 44.8534 49.6709 44.6234 49.9452C44.4465 50.1561 44.2366 50.2318 44.1618 50.256C44.0004 50.3083 43.8619 50.3064 43.8369 50.3064V48.3064ZM42.6283 49.9465C41.9461 49.768 40.5477 49.33 39.5198 48.9763L40.1705 47.0851C41.1769 47.4314 42.5219 47.8513 43.1344 48.0116L42.6283 49.9465ZM39.5335 48.9809C39.0208 48.8128 38.559 48.6659 38.2286 48.5661C38.0613 48.5156 37.938 48.4802 37.8617 48.4604C37.8191 48.4493 37.8125 48.4487 37.8267 48.4512C37.8322 48.4522 37.8445 48.4543 37.8617 48.4565C37.8763 48.4583 37.9103 48.4623 37.9554 48.4631C37.9794 48.4636 38.1037 48.4672 38.2552 48.4216C38.3323 48.3985 38.4944 48.3401 38.6504 48.1936C38.8345 48.0205 38.9648 47.7636 38.9648 47.4663H36.9648C36.9648 47.168 37.0956 46.9102 37.2806 46.7363C37.4373 46.5889 37.6007 46.53 37.6794 46.5063C37.8342 46.4598 37.9634 46.4629 37.9938 46.4635C38.0829 46.4652 38.1567 46.4785 38.1799 46.4826C38.2445 46.4942 38.3121 46.511 38.3652 46.5248C38.4801 46.5547 38.6332 46.5991 38.8069 46.6515C39.1585 46.7577 39.6368 46.91 40.1568 47.0805L39.5335 48.9809Z" fill="white" mask="url(#path-9-inside-5_20_1105)"/>
<mask id="path-11-inside-6_20_1105" fill="white">
<path d="M44.8233 49.5999C45.0853 49.6902 45.3936 49.7579 45.5169 49.7579C45.6402 49.7579 45.5015 49.6789 45.2086 49.5999C44.4997 49.3967 44.2223 49.408 44.8233 49.5999Z"/>
</mask>
<path d="M44.8233 49.5999C45.0853 49.6902 45.3936 49.7579 45.5169 49.7579C45.6402 49.7579 45.5015 49.6789 45.2086 49.5999C44.4997 49.3967 44.2223 49.408 44.8233 49.5999Z" fill="black"/>
<path d="M44.8233 49.5999L45.1275 48.6473L45.1384 48.6507L45.1492 48.6545L44.8233 49.5999ZM45.2086 49.5999L44.9481 50.5654L44.9406 50.5633L44.9331 50.5612L45.2086 49.5999ZM45.1492 48.6545C45.2425 48.6866 45.3494 48.7164 45.442 48.7372C45.4877 48.7476 45.523 48.7541 45.5457 48.7576C45.5772 48.7625 45.5613 48.7579 45.5169 48.7579V50.7579C45.3354 50.7579 45.134 50.718 45.0023 50.6883C44.8444 50.6527 44.6662 50.6035 44.4975 50.5453L45.1492 48.6545ZM45.5169 48.7579C45.5031 48.7579 45.3929 48.7563 45.2538 48.7996C45.1849 48.821 45.0294 48.8772 44.8778 49.0183C44.6976 49.1861 44.5533 49.4508 44.5623 49.7722C44.5699 50.0465 44.6868 50.2371 44.7467 50.3204C44.8121 50.4115 44.8783 50.4702 44.9122 50.4983C44.9807 50.5552 45.038 50.5855 45.0502 50.592C45.0955 50.616 45.0747 50.5995 44.9481 50.5654L45.4692 48.6344C45.6354 48.6793 45.8304 48.7419 45.9874 48.8251C46.0276 48.8464 46.1063 48.8903 46.1893 48.9592C46.2304 48.9933 46.3021 49.0576 46.3713 49.1539C46.4349 49.2425 46.5538 49.4379 46.5615 49.7165C46.5706 50.0423 46.4246 50.3108 46.2408 50.4819C46.0856 50.6264 45.9246 50.6854 45.8483 50.7092C45.6943 50.7571 45.5615 50.7579 45.5169 50.7579V48.7579ZM44.9331 50.5612C44.7733 50.5154 44.6466 50.4842 44.5586 50.4657C44.4361 50.4399 44.4562 50.453 44.5418 50.4516C44.5577 50.4513 44.6743 50.4511 44.818 50.4031C44.8886 50.3796 45.0537 50.3164 45.2085 50.1591C45.3966 49.968 45.5206 49.6833 45.4894 49.3646C45.4636 49.1004 45.3411 48.9236 45.284 48.8507C45.2194 48.7683 45.1563 48.7152 45.1242 48.6898C45.0592 48.6384 45.0055 48.6104 44.9946 48.6047C44.9569 48.5849 44.9772 48.5993 45.1275 48.6473L44.5192 50.5525C44.3689 50.5045 44.1985 50.4455 44.0659 50.376C44.0313 50.3578 43.9598 50.3189 43.8829 50.258C43.8449 50.2279 43.7772 50.1704 43.7095 50.0841C43.6493 50.0072 43.5251 49.8268 43.4989 49.5594C43.4674 49.2374 43.5925 48.9499 43.783 48.7563C43.9403 48.5965 44.1091 48.5313 44.1849 48.506C44.3388 48.4546 44.471 48.4525 44.5077 48.4519C44.6761 48.449 44.8609 48.4855 44.9711 48.5087C45.1157 48.5392 45.2895 48.5828 45.4842 48.6386L44.9331 50.5612Z" fill="white" mask="url(#path-11-inside-6_20_1105)"/>
<path d="M39.8703 69.6135C39.0495 69.9196 38.3017 71.0286 38.1862 72.5065C38.1492 73.0893 38.1807 73.4739 38.2563 73.7228C38.3249 73.9484 38.4186 74.0333 38.5254 74.0816L38.5255 74.0815L38.5346 74.0859C38.6385 74.1355 38.8311 74.1939 39.1454 74.2487C39.4524 74.3022 39.847 74.3475 40.3372 74.3843C41.317 74.4577 42.6475 74.4944 44.3617 74.5C48.0549 74.5 49.0295 74.3872 49.7963 74.0096L49.7978 74.0088C49.9974 73.9114 50.0377 73.8677 50.0454 73.8578C50.0462 73.8567 50.0466 73.8561 50.0472 73.855C50.0479 73.8537 50.05 73.8493 50.0528 73.8399C50.0592 73.8191 50.0676 73.78 50.0737 73.7057L50.0736 73.7057L50.0748 73.6947C50.0896 73.5537 49.9963 73.2455 49.3096 72.7673C48.6581 72.3137 47.6181 71.8117 46.1424 71.2573L46.1419 71.2571C45.1049 70.8661 43.7618 70.412 42.6257 70.0556C42.0578 69.8774 41.5455 69.7249 41.1518 69.6174C40.9546 69.5635 40.7913 69.5222 40.6676 69.4946C40.5677 69.4724 40.5159 69.4645 40.4981 69.4618C40.4906 69.4607 40.4891 69.4604 40.4924 69.4604C40.4926 69.4604 40.4922 69.4604 40.4909 69.4605C40.4901 69.4605 40.489 69.4605 40.4875 69.4606C40.4838 69.4608 40.4786 69.4612 40.4719 69.4619C40.4582 69.4633 40.4405 69.4657 40.4184 69.4693C40.3738 69.4766 40.3193 69.4879 40.2569 69.503C40.135 69.5323 39.9975 69.5723 39.8703 69.6135Z" fill="black" stroke="white"/>
</svg>
