<svg width="75" height="77" viewBox="0 0 75 77" fill="none" xmlns="http://www.w3.org/2000/svg">
<mask id="path-1-inside-1_20_1004" fill="white">
<path d="M45.7759 0.211729C44.5206 0.324682 43.0799 0.494111 42.5664 0.584474C40.0415 1.05888 37.7592 1.9512 34.0075 3.93918C31.2259 5.40757 30.4414 5.78031 30.4414 5.59959C30.4414 5.52052 30.5983 5.00094 30.798 4.44747C30.9977 3.8827 31.1546 3.397 31.1546 3.36312C31.1546 3.26146 26.1049 4.8428 24.6356 5.39627C23.9937 5.64477 22.9666 6.10787 22.3533 6.43544C21.0409 7.13575 18.3021 9.25926 17.5318 10.1742C17.2322 10.5356 16.9469 10.8293 16.8756 10.8293C16.8185 10.8293 16.733 10.6599 16.6759 10.4566C16.5332 9.91439 15.606 6.84207 15.5347 6.67264C15.4919 6.58228 14.4649 7.50849 13.1382 8.81875C11.8687 10.0725 10.2282 11.6652 9.48647 12.3542C7.21838 14.489 6.37676 15.6298 6.02014 17.1547C5.82044 17.9679 5.97735 19.9333 6.30544 20.9612C6.51941 21.605 6.54794 21.9326 6.44809 22.4974C6.39103 22.8927 6.37676 23.6043 6.44809 24.0787C6.53367 24.7564 6.51941 24.9484 6.39103 24.9484C6.29117 24.9484 5.47808 24.8807 4.59367 24.7903C0.927636 24.4288 0.0574882 24.3498 0.000429256 24.395C-0.0566297 24.4288 5.5922 27.761 6.50514 28.2354C6.57647 28.2692 6.53367 28.5855 6.41956 28.947C5.82044 30.7655 5.69206 31.7369 5.69206 34.5494C5.70632 37.4749 5.80617 38.1639 6.53367 40.4456C7.23265 42.6369 8.80177 45.4381 10.4279 47.4261C13.5947 51.2891 18.5018 54.5647 23.8368 56.372L24.7069 56.6769L24.9352 57.445C25.0493 57.8629 25.3489 59.3087 25.5914 60.6416C26.3046 64.561 26.7183 65.9391 27.6597 67.43C28.6297 68.9549 29.7994 69.9037 31.5112 70.5814C34.735 71.8691 38.8433 71.5867 41.468 69.915C44.2496 68.1304 45.7046 65.4647 47.5448 58.7214C47.8729 57.5693 48.1581 56.5188 48.2009 56.3945C48.2437 56.2251 48.6431 55.9992 49.442 55.6716C55.1479 53.3674 60.0121 49.414 62.8223 44.8169C65.0048 41.225 66.1032 36.7746 65.718 32.9681C65.6467 32.1887 65.5896 31.5449 65.6039 31.5336C65.6182 31.511 66.0604 31.7595 66.6024 32.0645C67.1445 32.3694 67.6152 32.6066 67.6438 32.5841C67.6723 32.5502 67.4726 31.9628 67.2016 31.2512C65.0761 25.8182 64.8621 25.3777 63.5926 24.0561C63.1646 23.6156 62.8223 23.2315 62.8223 23.1977C62.8223 23.0847 65.2188 20.9838 65.932 20.4529C66.9591 19.7187 67.4869 19.5041 71.0958 18.4762C72.936 17.9453 74.6477 17.4596 74.876 17.3806C75.3325 17.2337 74.9045 17.1208 66.9591 15.2797C65.7466 14.9973 64.7338 14.7601 64.7195 14.7375C64.691 14.7262 64.748 14.4325 64.8336 14.0937C65.176 12.7495 64.9477 10.6938 64.3058 9.1802C64.0205 8.50248 62.2802 5.38498 62.1233 5.26073C62.0663 5.21555 61.5099 5.66736 60.8823 6.2773L59.7554 7.37295L59.6698 5.50922C59.5985 3.96177 59.2133 0.81038 59.0421 0.369863C59.0136 0.290796 58.3432 0.335977 56.9024 0.516702C54.3205 0.844266 52.0239 1.43162 49.2851 2.48208C48.1581 2.91131 47.2024 3.25016 47.1739 3.22757C47.1454 3.20498 47.4449 2.48208 47.8443 1.63494C48.2295 0.776494 48.5576 0.0535946 48.5576 0.031004C48.5576 -0.0254724 48.4292 -0.0254724 45.7759 0.211729ZM55.1051 6.42414C55.1193 7.70051 54.7627 10.0386 53.8498 14.8956C53.4789 16.8271 53.3648 17.6178 53.4646 17.6856C53.5074 17.7307 53.9211 17.4822 54.3776 17.1434C54.8198 16.8045 55.7612 16.1155 56.4745 15.6185C57.1735 15.1328 58.3289 14.2857 59.0421 13.7435C59.7411 13.2126 60.3402 12.7834 60.3688 12.806C60.4401 12.8625 59.9551 14.2518 59.7554 14.5568C59.6555 14.7149 58.871 15.6072 58.0151 16.5334C57.1592 17.4709 56.4032 18.3068 56.3461 18.3859C56.2462 18.5101 56.7027 18.5214 59.0564 18.4536L61.8808 18.3633L61.1105 19.0862C60.6968 19.4815 59.5842 20.4077 58.6427 21.1419L56.931 22.4748L57.1592 22.8588L57.3874 23.2428L56.5743 22.8927C56.1321 22.7007 54.7485 22.0907 53.5074 21.5373C52.2521 20.9838 51.2108 20.5546 51.168 20.5884C51.1252 20.6223 51.5532 21.5034 52.1237 22.5425C52.6801 23.5817 53.1793 24.5192 53.2221 24.6096C53.2649 24.6999 52.409 24.0787 51.3107 23.2203L49.3279 21.6615L48.8429 22.8249C48.5861 23.4687 48.3436 24.0222 48.3151 24.0561C48.2723 24.1239 47.8729 23.8076 45.1055 21.5147L44.0356 20.6223L43.3795 21.3791L42.7376 22.1472L42.2953 21.6615C38.4439 17.3693 37.9874 16.8949 37.7734 17.0643C37.6736 17.1434 36.2756 18.7699 34.6637 20.6788C31.3115 24.6322 31.7109 24.4288 30.9549 22.6442C30.1418 20.724 29.9564 19.5945 29.9421 16.7367C29.9421 15.291 29.9136 14.1049 29.885 14.1049C29.8565 14.1049 29.1005 14.6245 28.1875 15.2571C27.2889 15.9009 25.9337 16.8497 25.1919 17.3693L23.8368 18.3181L23.58 18.047C22.2677 16.7255 22.1108 14.9408 23.0522 12.501C23.2234 12.0379 23.4088 11.7668 23.5087 11.8007C23.5943 11.8233 24.065 11.7555 24.5215 11.6426C26.0764 11.2472 26.219 11.2359 26.8039 11.5522C27.0891 11.7103 27.5599 11.8798 27.8452 11.9137C29.5284 12.1622 32.7094 10.9084 36.1472 8.63802C37.2742 7.89253 40.2698 5.72383 41.3396 4.87669C41.3681 4.8428 41.1114 5.45275 40.7548 6.22083C40.3981 6.98891 39.7705 8.38952 39.3568 9.33833C38.9289 10.2871 38.5437 11.1117 38.5009 11.1682C38.4581 11.2359 38.5152 11.2811 38.6293 11.2811C38.7434 11.2811 38.8861 11.2246 38.9289 11.1682C38.9859 11.1004 39.257 11.2585 39.5708 11.5296C40.5978 12.4671 42.3524 12.9641 44.5634 12.9754H45.6476L47.0598 11.6878C47.8443 10.9874 49.927 9.12372 51.6958 7.54238C55.3476 4.27804 55.0765 4.3684 55.1051 6.42414ZM39.1856 24.6548L40.2555 25.8295L39.4567 25.66C38.9431 25.5584 38.2014 25.5019 37.4168 25.5358L36.1758 25.5697L36.7749 24.892C37.103 24.5192 37.5167 24.0448 37.7021 23.8415C37.8733 23.6495 38.0445 23.48 38.073 23.48C38.1015 23.48 38.6008 24.0109 39.1856 24.6548ZM45.1768 26.9929C45.3765 27.1962 45.9756 27.7158 46.5177 28.1563C47.0455 28.5968 47.7017 29.1503 47.9727 29.3762L48.4577 29.7941L48.1011 30.3363C47.3308 31.4658 47.0598 32.4372 47.074 34.0976C47.074 35.4418 47.1168 35.7241 47.4592 36.5261C48.1439 38.13 49.2423 39.3386 50.7971 40.1519C52.8798 41.2475 55.5901 41.2588 57.687 40.1971C58.6998 39.6888 59.8552 38.627 60.4543 37.6782C61.0107 36.7859 61.0392 36.7972 60.8252 37.7799C60.383 39.8017 59.3845 42.1173 58.1577 43.9245C57.5015 44.9072 56.4174 46.2514 55.9039 46.7371C54.563 48.0134 53.6501 48.7815 52.7086 49.4366C50.2551 51.1196 49.0996 51.7183 46.5605 52.6106C44.2639 53.4239 43.8502 53.5481 42.1242 53.8983C39.5708 54.4292 38.9289 54.4856 35.648 54.4856C32.9662 54.4743 32.2815 54.4405 30.9692 54.2258C27.8024 53.7063 24.6784 52.7123 22.1963 51.4585C21.6258 51.1648 21.1122 50.9276 21.0409 50.9276C20.9696 50.9276 20.884 50.8937 20.8555 50.8373C20.8412 50.7921 20.5274 50.5775 20.1708 50.3629C16.7472 48.2845 13.6518 45.0654 12.2396 42.1512C10.8987 39.3499 10.3281 37.0909 10.3281 34.572C10.3281 33.2279 10.5991 31.0479 10.7703 31.0479C10.9272 31.0479 12.4821 32.3469 13.0812 32.9681C13.8657 33.7927 14.9784 35.2384 17.3178 38.4802C18.5303 40.1745 19.5716 41.5525 19.6144 41.5525C19.6572 41.5525 19.7428 41.112 19.7856 40.5585C19.8427 40.0164 19.9425 39.0901 20.0281 38.5028C20.0994 37.9154 20.2706 36.5374 20.3847 35.4531C20.6843 32.8438 20.9838 30.9914 21.3119 29.7602C21.4688 29.2068 21.6258 28.7324 21.6543 28.7098C21.6828 28.6872 22.339 29.2971 23.1093 30.0765C23.8938 30.8559 24.55 31.4884 24.5928 31.4884C24.6356 31.4997 25.463 30.4379 26.4472 29.1277C27.4315 27.8287 28.2589 26.767 28.3016 26.767C28.3444 26.767 28.8294 27.264 29.3858 27.8739L30.4128 28.9809L29.8993 29.8054C29.0862 31.1496 28.8437 32.0193 28.7724 33.8717C28.7153 35.261 28.7439 35.6564 29.0006 36.5035C29.7852 39.1353 31.768 41.2475 34.3642 42.2302C36.1615 42.908 37.4739 43.0548 39.257 42.7498C42.4665 42.2076 45.0342 40.0615 46.2181 36.9666C46.5605 36.063 46.6033 35.7919 46.6033 34.2106C46.6033 32.7874 46.5462 32.2904 46.2895 31.5562C45.9328 30.4718 45.077 29.0712 44.2781 28.2467L43.7076 27.648L44.1355 27.151C44.378 26.8686 44.6348 26.6427 44.6918 26.6427C44.7489 26.6427 44.9771 26.8009 45.1768 26.9929ZM59.9408 28.3935C60.0264 28.45 60.6683 30.4154 60.6826 30.5961C60.6826 30.6864 60.4829 30.4944 60.2546 30.1556C60.0121 29.8167 59.7268 29.4553 59.627 29.3649C59.3988 29.1729 59.2133 28.8114 59.0564 28.3031L58.9565 27.9869L59.4273 28.1789C59.684 28.2805 59.9123 28.3822 59.9408 28.3935Z"/>
</mask>
<path d="M45.7759 0.211729C44.5206 0.324682 43.0799 0.494111 42.5664 0.584474C40.0415 1.05888 37.7592 1.9512 34.0075 3.93918C31.2259 5.40757 30.4414 5.78031 30.4414 5.59959C30.4414 5.52052 30.5983 5.00094 30.798 4.44747C30.9977 3.8827 31.1546 3.397 31.1546 3.36312C31.1546 3.26146 26.1049 4.8428 24.6356 5.39627C23.9937 5.64477 22.9666 6.10787 22.3533 6.43544C21.0409 7.13575 18.3021 9.25926 17.5318 10.1742C17.2322 10.5356 16.9469 10.8293 16.8756 10.8293C16.8185 10.8293 16.733 10.6599 16.6759 10.4566C16.5332 9.91439 15.606 6.84207 15.5347 6.67264C15.4919 6.58228 14.4649 7.50849 13.1382 8.81875C11.8687 10.0725 10.2282 11.6652 9.48647 12.3542C7.21838 14.489 6.37676 15.6298 6.02014 17.1547C5.82044 17.9679 5.97735 19.9333 6.30544 20.9612C6.51941 21.605 6.54794 21.9326 6.44809 22.4974C6.39103 22.8927 6.37676 23.6043 6.44809 24.0787C6.53367 24.7564 6.51941 24.9484 6.39103 24.9484C6.29117 24.9484 5.47808 24.8807 4.59367 24.7903C0.927636 24.4288 0.0574882 24.3498 0.000429256 24.395C-0.0566297 24.4288 5.5922 27.761 6.50514 28.2354C6.57647 28.2692 6.53367 28.5855 6.41956 28.947C5.82044 30.7655 5.69206 31.7369 5.69206 34.5494C5.70632 37.4749 5.80617 38.1639 6.53367 40.4456C7.23265 42.6369 8.80177 45.4381 10.4279 47.4261C13.5947 51.2891 18.5018 54.5647 23.8368 56.372L24.7069 56.6769L24.9352 57.445C25.0493 57.8629 25.3489 59.3087 25.5914 60.6416C26.3046 64.561 26.7183 65.9391 27.6597 67.43C28.6297 68.9549 29.7994 69.9037 31.5112 70.5814C34.735 71.8691 38.8433 71.5867 41.468 69.915C44.2496 68.1304 45.7046 65.4647 47.5448 58.7214C47.8729 57.5693 48.1581 56.5188 48.2009 56.3945C48.2437 56.2251 48.6431 55.9992 49.442 55.6716C55.1479 53.3674 60.0121 49.414 62.8223 44.8169C65.0048 41.225 66.1032 36.7746 65.718 32.9681C65.6467 32.1887 65.5896 31.5449 65.6039 31.5336C65.6182 31.511 66.0604 31.7595 66.6024 32.0645C67.1445 32.3694 67.6152 32.6066 67.6438 32.5841C67.6723 32.5502 67.4726 31.9628 67.2016 31.2512C65.0761 25.8182 64.8621 25.3777 63.5926 24.0561C63.1646 23.6156 62.8223 23.2315 62.8223 23.1977C62.8223 23.0847 65.2188 20.9838 65.932 20.4529C66.9591 19.7187 67.4869 19.5041 71.0958 18.4762C72.936 17.9453 74.6477 17.4596 74.876 17.3806C75.3325 17.2337 74.9045 17.1208 66.9591 15.2797C65.7466 14.9973 64.7338 14.7601 64.7195 14.7375C64.691 14.7262 64.748 14.4325 64.8336 14.0937C65.176 12.7495 64.9477 10.6938 64.3058 9.1802C64.0205 8.50248 62.2802 5.38498 62.1233 5.26073C62.0663 5.21555 61.5099 5.66736 60.8823 6.2773L59.7554 7.37295L59.6698 5.50922C59.5985 3.96177 59.2133 0.81038 59.0421 0.369863C59.0136 0.290796 58.3432 0.335977 56.9024 0.516702C54.3205 0.844266 52.0239 1.43162 49.2851 2.48208C48.1581 2.91131 47.2024 3.25016 47.1739 3.22757C47.1454 3.20498 47.4449 2.48208 47.8443 1.63494C48.2295 0.776494 48.5576 0.0535946 48.5576 0.031004C48.5576 -0.0254724 48.4292 -0.0254724 45.7759 0.211729ZM55.1051 6.42414C55.1193 7.70051 54.7627 10.0386 53.8498 14.8956C53.4789 16.8271 53.3648 17.6178 53.4646 17.6856C53.5074 17.7307 53.9211 17.4822 54.3776 17.1434C54.8198 16.8045 55.7612 16.1155 56.4745 15.6185C57.1735 15.1328 58.3289 14.2857 59.0421 13.7435C59.7411 13.2126 60.3402 12.7834 60.3688 12.806C60.4401 12.8625 59.9551 14.2518 59.7554 14.5568C59.6555 14.7149 58.871 15.6072 58.0151 16.5334C57.1592 17.4709 56.4032 18.3068 56.3461 18.3859C56.2462 18.5101 56.7027 18.5214 59.0564 18.4536L61.8808 18.3633L61.1105 19.0862C60.6968 19.4815 59.5842 20.4077 58.6427 21.1419L56.931 22.4748L57.1592 22.8588L57.3874 23.2428L56.5743 22.8927C56.1321 22.7007 54.7485 22.0907 53.5074 21.5373C52.2521 20.9838 51.2108 20.5546 51.168 20.5884C51.1252 20.6223 51.5532 21.5034 52.1237 22.5425C52.6801 23.5817 53.1793 24.5192 53.2221 24.6096C53.2649 24.6999 52.409 24.0787 51.3107 23.2203L49.3279 21.6615L48.8429 22.8249C48.5861 23.4687 48.3436 24.0222 48.3151 24.0561C48.2723 24.1239 47.8729 23.8076 45.1055 21.5147L44.0356 20.6223L43.3795 21.3791L42.7376 22.1472L42.2953 21.6615C38.4439 17.3693 37.9874 16.8949 37.7734 17.0643C37.6736 17.1434 36.2756 18.7699 34.6637 20.6788C31.3115 24.6322 31.7109 24.4288 30.9549 22.6442C30.1418 20.724 29.9564 19.5945 29.9421 16.7367C29.9421 15.291 29.9136 14.1049 29.885 14.1049C29.8565 14.1049 29.1005 14.6245 28.1875 15.2571C27.2889 15.9009 25.9337 16.8497 25.1919 17.3693L23.8368 18.3181L23.58 18.047C22.2677 16.7255 22.1108 14.9408 23.0522 12.501C23.2234 12.0379 23.4088 11.7668 23.5087 11.8007C23.5943 11.8233 24.065 11.7555 24.5215 11.6426C26.0764 11.2472 26.219 11.2359 26.8039 11.5522C27.0891 11.7103 27.5599 11.8798 27.8452 11.9137C29.5284 12.1622 32.7094 10.9084 36.1472 8.63802C37.2742 7.89253 40.2698 5.72383 41.3396 4.87669C41.3681 4.8428 41.1114 5.45275 40.7548 6.22083C40.3981 6.98891 39.7705 8.38952 39.3568 9.33833C38.9289 10.2871 38.5437 11.1117 38.5009 11.1682C38.4581 11.2359 38.5152 11.2811 38.6293 11.2811C38.7434 11.2811 38.8861 11.2246 38.9289 11.1682C38.9859 11.1004 39.257 11.2585 39.5708 11.5296C40.5978 12.4671 42.3524 12.9641 44.5634 12.9754H45.6476L47.0598 11.6878C47.8443 10.9874 49.927 9.12372 51.6958 7.54238C55.3476 4.27804 55.0765 4.3684 55.1051 6.42414ZM39.1856 24.6548L40.2555 25.8295L39.4567 25.66C38.9431 25.5584 38.2014 25.5019 37.4168 25.5358L36.1758 25.5697L36.7749 24.892C37.103 24.5192 37.5167 24.0448 37.7021 23.8415C37.8733 23.6495 38.0445 23.48 38.073 23.48C38.1015 23.48 38.6008 24.0109 39.1856 24.6548ZM45.1768 26.9929C45.3765 27.1962 45.9756 27.7158 46.5177 28.1563C47.0455 28.5968 47.7017 29.1503 47.9727 29.3762L48.4577 29.7941L48.1011 30.3363C47.3308 31.4658 47.0598 32.4372 47.074 34.0976C47.074 35.4418 47.1168 35.7241 47.4592 36.5261C48.1439 38.13 49.2423 39.3386 50.7971 40.1519C52.8798 41.2475 55.5901 41.2588 57.687 40.1971C58.6998 39.6888 59.8552 38.627 60.4543 37.6782C61.0107 36.7859 61.0392 36.7972 60.8252 37.7799C60.383 39.8017 59.3845 42.1173 58.1577 43.9245C57.5015 44.9072 56.4174 46.2514 55.9039 46.7371C54.563 48.0134 53.6501 48.7815 52.7086 49.4366C50.2551 51.1196 49.0996 51.7183 46.5605 52.6106C44.2639 53.4239 43.8502 53.5481 42.1242 53.8983C39.5708 54.4292 38.9289 54.4856 35.648 54.4856C32.9662 54.4743 32.2815 54.4405 30.9692 54.2258C27.8024 53.7063 24.6784 52.7123 22.1963 51.4585C21.6258 51.1648 21.1122 50.9276 21.0409 50.9276C20.9696 50.9276 20.884 50.8937 20.8555 50.8373C20.8412 50.7921 20.5274 50.5775 20.1708 50.3629C16.7472 48.2845 13.6518 45.0654 12.2396 42.1512C10.8987 39.3499 10.3281 37.0909 10.3281 34.572C10.3281 33.2279 10.5991 31.0479 10.7703 31.0479C10.9272 31.0479 12.4821 32.3469 13.0812 32.9681C13.8657 33.7927 14.9784 35.2384 17.3178 38.4802C18.5303 40.1745 19.5716 41.5525 19.6144 41.5525C19.6572 41.5525 19.7428 41.112 19.7856 40.5585C19.8427 40.0164 19.9425 39.0901 20.0281 38.5028C20.0994 37.9154 20.2706 36.5374 20.3847 35.4531C20.6843 32.8438 20.9838 30.9914 21.3119 29.7602C21.4688 29.2068 21.6258 28.7324 21.6543 28.7098C21.6828 28.6872 22.339 29.2971 23.1093 30.0765C23.8938 30.8559 24.55 31.4884 24.5928 31.4884C24.6356 31.4997 25.463 30.4379 26.4472 29.1277C27.4315 27.8287 28.2589 26.767 28.3016 26.767C28.3444 26.767 28.8294 27.264 29.3858 27.8739L30.4128 28.9809L29.8993 29.8054C29.0862 31.1496 28.8437 32.0193 28.7724 33.8717C28.7153 35.261 28.7439 35.6564 29.0006 36.5035C29.7852 39.1353 31.768 41.2475 34.3642 42.2302C36.1615 42.908 37.4739 43.0548 39.257 42.7498C42.4665 42.2076 45.0342 40.0615 46.2181 36.9666C46.5605 36.063 46.6033 35.7919 46.6033 34.2106C46.6033 32.7874 46.5462 32.2904 46.2895 31.5562C45.9328 30.4718 45.077 29.0712 44.2781 28.2467L43.7076 27.648L44.1355 27.151C44.378 26.8686 44.6348 26.6427 44.6918 26.6427C44.7489 26.6427 44.9771 26.8009 45.1768 26.9929ZM59.9408 28.3935C60.0264 28.45 60.6683 30.4154 60.6826 30.5961C60.6826 30.6864 60.4829 30.4944 60.2546 30.1556C60.0121 29.8167 59.7268 29.4553 59.627 29.3649C59.3988 29.1729 59.2133 28.8114 59.0564 28.3031L58.9565 27.9869L59.4273 28.1789C59.684 28.2805 59.9123 28.3822 59.9408 28.3935Z" fill="black" stroke="white" stroke-width="2" mask="url(#path-1-inside-1_20_1004)"/>
<path d="M10.4512 56.51L10.4503 56.5104C8.22902 57.5252 7.20381 58.2464 6.66075 59.0381L6.6602 59.0388C6.49815 59.2741 6.43655 59.3969 6.40391 59.5144C6.36956 59.6382 6.35618 59.7957 6.36318 60.1225L6.36323 60.1252C6.37517 60.8726 6.52049 61.288 7.62306 63.2156C8.03645 63.9268 8.55957 64.8913 8.77229 65.3712C9.14649 66.1773 9.9214 67.0357 10.9025 67.7571C11.8806 68.4763 13.017 69.0247 14.0666 69.2445C16.1036 69.658 18.111 69.2786 19.93 68.1157L19.9314 68.1148C21.647 67.0259 22.9987 65.3211 23.4573 63.775L23.458 63.7728C23.8758 62.3876 23.6432 60.6961 22.9539 59.6708C22.6431 59.2271 22.402 58.9577 22.0921 58.731C21.7723 58.4972 21.3536 58.29 20.6559 58.011C19.007 57.3527 17.9235 57.2032 16.8665 57.3945C16.0824 57.5412 15.512 57.6236 15.0411 57.6188C14.5476 57.6138 14.1707 57.5136 13.7705 57.323C13.3636 57.1411 12.735 56.735 12.3179 56.4053C12.1271 56.2597 11.9419 56.1292 11.7976 56.0388C11.7609 56.0158 11.7291 55.9969 11.7024 55.9817C11.6267 56.0083 11.5248 56.0473 11.4016 56.0971C11.1409 56.2024 10.8022 56.3488 10.4512 56.51ZM11.7997 55.9503C11.8045 55.9493 11.8072 55.9486 11.8073 55.9485C11.8074 55.9484 11.805 55.9489 11.7997 55.9503Z" fill="black" stroke="white"/>
<path d="M53.1996 56.3079L53.1996 56.3079L53.1944 56.3102C51.4341 57.0827 50.2373 57.7926 49.5117 58.4699C48.7984 59.1356 48.5897 59.7184 48.6673 60.2794L48.6677 60.2825C48.753 60.9288 48.9564 61.4325 50.1357 63.562L50.1365 63.5634C50.6595 64.5147 51.188 65.5235 51.3003 65.7902L51.3004 65.7902L51.3041 65.7995C51.334 65.8748 51.4281 66.0257 51.6096 66.2435C51.7822 66.4506 52.007 66.6866 52.2608 66.9277C52.7719 67.413 53.3699 67.8897 53.8488 68.1753L53.8496 68.1758C55.3665 69.0848 56.4484 69.4037 57.9861 69.4037C59.8119 69.4037 61.4019 68.8197 63.0805 67.4798L63.0821 67.4785C64.7141 66.1862 65.6627 64.6036 65.9256 63.0729C66.1868 61.5518 65.7777 60.0568 64.6455 58.8775C64.5838 58.8148 64.4251 58.7015 64.1115 58.5409C63.809 58.3861 63.4014 58.2066 62.8816 58.0007C61.9391 57.6332 61.2627 57.43 60.6569 57.349C60.0607 57.2692 59.5092 57.3048 58.8152 57.4488L58.8134 57.4492C58.3071 57.5523 57.6675 57.64 57.387 57.64C56.605 57.64 55.6955 57.1935 54.7108 56.4714C54.4821 56.3068 54.2622 56.1573 54.0952 56.0504C54.054 56.0241 54.0172 56.0011 53.9852 55.9815C53.9476 55.9952 53.9042 56.0115 53.8557 56.0304C53.676 56.1002 53.4419 56.1982 53.1996 56.3079Z" fill="black" stroke="white"/>
<path d="M26.2115 71.5851L26.2116 71.5852L26.2033 71.5885C25.7556 71.7657 25.3231 72.1753 24.9959 72.7642C24.6713 73.3485 24.4715 74.074 24.4651 74.8214L24.465 74.8235C24.4583 75.3521 24.53 75.6426 24.6326 75.8134C24.7201 75.959 24.8666 76.0778 25.1906 76.1634C25.5404 76.2548 26.191 76.3353 27.0305 76.3942C27.8582 76.4523 28.8349 76.4873 29.8151 76.4972C30.7953 76.507 31.7736 76.4915 32.6047 76.4494C33.4479 76.4067 34.1038 76.3381 34.4599 76.2515L34.4599 76.2515L34.4641 76.2505C34.9986 76.1254 35.2918 75.9684 35.4276 75.8374C35.4891 75.7781 35.5081 75.7342 35.5148 75.708C35.5214 75.6824 35.5251 75.6406 35.5022 75.5703C35.4505 75.411 35.28 75.1622 34.8918 74.8422C34.5143 74.5309 33.9756 74.1885 33.268 73.8287C32.6501 73.517 31.0994 72.9113 29.6123 72.3763C28.874 72.1107 28.1627 71.8665 27.6054 71.6894C27.3262 71.6006 27.0901 71.5301 26.9107 71.4824C26.8207 71.4584 26.7497 71.4414 26.6971 71.4307C26.6841 71.4281 26.6734 71.4261 26.6649 71.4246C26.6389 71.4315 26.6039 71.4417 26.561 71.4555C26.4606 71.4879 26.3346 71.5338 26.2115 71.5851Z" fill="black" stroke="white"/>
<path d="M39.8416 75.948L39.8416 75.948L39.8434 75.9506C39.856 75.9694 39.9096 76.034 40.1099 76.1088C40.3102 76.1837 40.6127 76.2522 41.0617 76.3074C41.9586 76.4176 43.3359 76.4632 45.4192 76.4632C48.2895 76.4632 48.8525 76.4265 49.5393 76.2623C50.1052 76.1262 50.3825 76.0165 50.52 75.917C50.576 75.8765 50.5932 75.8482 50.6014 75.8309C50.6112 75.81 50.6251 75.7669 50.6251 75.6755C50.6251 75.4775 50.4786 75.1476 49.8313 74.6783C49.2052 74.2244 48.223 73.7229 46.8295 73.1571C45.943 72.8006 44.7196 72.3609 43.6686 72.01C43.1432 71.8347 42.6652 71.6829 42.2972 71.5756C42.1127 71.5218 41.9603 71.4805 41.8454 71.4531C41.7675 71.4344 41.7231 71.4264 41.7033 71.4229C41.7021 71.4231 41.7009 71.4234 41.6996 71.4237C41.6721 71.4304 41.6333 71.4418 41.5847 71.4584C41.4888 71.4911 41.375 71.5371 41.269 71.5863C40.6512 71.8879 40.0821 72.6769 39.7812 73.6181C39.4765 74.5714 39.5134 75.4648 39.8416 75.948Z" fill="black" stroke="white"/>
</svg>
