<svg width="75" height="77" viewBox="0 0 75 77" fill="none" xmlns="http://www.w3.org/2000/svg">
<mask id="path-1-inside-1_20_1024" fill="white">
<path d="M46.4713 0.171044C41.5258 0.561378 39.9057 1.05504 34.1643 3.95958C32.3595 4.87802 30.8531 5.60129 30.8105 5.56684C30.7678 5.54388 30.9099 5.03875 31.1231 4.46472C31.3221 3.87922 31.4784 3.3626 31.45 3.31668C31.3931 3.1904 26.6608 4.61397 24.9838 5.25687C24.188 5.57833 23.0369 6.09494 22.4258 6.42788C21.0331 7.18559 19.0435 8.73544 17.9635 9.89497C17.2387 10.6756 17.125 10.756 17.0539 10.5264C17.0255 10.3771 16.7981 9.59648 16.5565 8.79285C16.3292 7.98922 16.1302 7.24299 16.1302 7.12818C16.116 7.02486 16.0449 6.78377 15.9455 6.61156L15.7749 6.29011L15.1354 6.95598C14.4533 7.67924 11.5684 10.469 9.59302 12.3288C8.92509 12.9602 8.15768 13.7294 7.87345 14.0509C6.22494 15.8763 5.75597 17.7476 6.32442 20.1929C6.49496 20.9162 6.60865 21.7428 6.58023 22.0298C6.56601 22.3168 6.5518 23.086 6.56601 23.7289L6.59444 24.9228L5.85545 24.8425C5.44332 24.808 3.97956 24.6358 2.57264 24.4866C1.17994 24.3259 0.0146145 24.2111 0.000403178 24.234C-0.0280194 24.257 1.44995 25.1754 3.28321 26.2775C5.11646 27.3797 6.60865 28.344 6.60865 28.4129C6.60865 28.4818 6.48075 29.0214 6.32442 29.6183C5.85545 31.3978 5.71334 33.028 5.79861 35.3356C5.92651 38.906 6.73655 41.5809 8.65507 44.8184C11.1136 48.9629 14.5385 52.1429 19.2567 54.6686C20.6636 55.4149 23.1932 56.5055 24.2022 56.7925C24.4722 56.8614 24.7138 57.0336 24.7991 57.2058C24.998 57.6421 25.3391 59.1919 25.737 61.4651C26.5755 66.4016 27.3855 68.2155 29.4746 69.9146C30.8673 71.0397 32.1747 71.5563 34.3349 71.8434C38.783 72.4403 42.4921 70.7183 44.6522 67.0445C45.5902 65.4488 46.7981 62.0506 47.6792 58.5375C48.2193 56.3792 48.134 56.517 49.2709 56.0578C54.7707 53.8191 59.7588 49.7895 62.53 45.335C64.5907 42.0287 65.6281 38.4468 65.6423 34.5779C65.6565 33.4184 65.6707 32.477 65.6991 32.477C65.7276 32.477 66.1255 32.7181 66.5945 33.0051C67.0492 33.2921 67.4329 33.4987 67.4329 33.4528C67.4329 33.3724 65.6565 28.5047 65.2728 27.5404C64.8607 26.4842 64.1217 25.3247 63.3827 24.567C63.0274 24.1996 62.7432 23.8666 62.7432 23.8207C62.7432 23.6944 64.8749 21.7887 65.7986 21.0884C66.8218 20.3077 67.6461 19.9977 71.5826 18.9186C73.5154 18.3905 75.0502 17.9198 74.9933 17.8853C74.9081 17.8165 66.8787 15.75 65.2018 15.3597C64.7186 15.2448 64.6333 15.1874 64.7186 15.0382C64.7896 14.9349 64.9175 14.3838 65.0028 13.8213C65.1875 12.5469 65.017 11.1234 64.5054 9.76868C64.1643 8.83877 62.5585 5.76201 62.3311 5.57833C62.26 5.52092 61.7058 5.96866 61.0947 6.57712L59.972 7.66776L59.8725 5.46352C59.7873 3.37408 59.4604 0.61878 59.2756 0.481015C59.233 0.446574 58.2524 0.526937 57.1013 0.664702C54.5717 0.974674 52.44 1.52573 49.4983 2.62786C48.333 3.06411 47.395 3.39704 47.395 3.37408C47.395 3.35112 47.7503 2.60489 48.1766 1.70942C48.603 0.813948 48.9583 0.0677197 48.9583 0.0332784C48.9583 -0.0241238 48.9156 -0.0241238 46.4713 0.171044ZM41.4121 5.52092C40.5736 7.24299 38.7261 11.2497 38.7261 11.353C38.7261 11.4333 38.8256 11.4333 39.0246 11.3415C39.2662 11.2382 39.3514 11.2611 39.5362 11.4563C40.4599 12.524 42.4211 13.1898 44.7091 13.1898H45.7891L46.8408 12.2485C47.4234 11.7318 48.9867 10.3427 50.3083 9.1717C51.6442 7.98922 53.2643 6.55416 53.9322 5.95718L55.1402 4.8895L55.2681 5.39464C55.4244 6.03754 55.1686 9.02245 54.7991 10.779C54.5149 12.1681 54.2022 13.7524 53.8469 15.6581C53.7332 16.2896 53.5627 17.1047 53.4774 17.472C53.3922 17.8394 53.3495 18.1494 53.378 18.1724C53.4064 18.1953 53.9606 17.8509 54.5859 17.4032C55.2254 16.9439 56.5044 16.037 57.4282 15.3826C58.3661 14.7167 59.4178 13.9476 59.8015 13.6605C60.5405 13.0865 60.5547 13.098 60.2704 13.9361C59.9862 14.8086 59.7162 15.176 57.9682 17.0473C57.0729 18.0001 56.3481 18.8153 56.3481 18.8612C56.3481 18.8956 57.5703 18.9301 59.0625 18.9301H61.7768L61.2084 19.4696C60.3557 20.2733 58.8209 21.5361 57.7693 22.2823L56.8455 22.9253L57.1013 23.35L57.3429 23.7633L56.675 23.4534C56.2913 23.2811 55.5807 22.9482 55.0691 22.7186C54.5575 22.489 53.5201 21.9953 52.7385 21.6394C51.431 21.0425 51.09 20.9162 51.09 21.0539C51.09 21.0999 52.9658 24.808 53.179 25.1869C53.2074 25.2443 52.3548 24.567 51.2605 23.66L49.2851 22.0183L48.7451 23.3271L48.2051 24.6244L46.3292 22.9482C45.2917 22.0298 44.3538 21.2147 44.2259 21.1343C43.9985 20.9736 43.9843 20.9851 43.089 22.0642L42.7195 22.5005L41.81 21.4328C41.3126 20.8473 40.5025 19.8944 40.0194 19.3319C39.522 18.7579 38.8967 18.0231 38.6267 17.6902C38.3424 17.3687 38.0724 17.0932 38.0298 17.0932C37.9872 17.1047 37.504 17.6328 36.9497 18.2757C36.4097 18.9186 35.0312 20.5258 33.9085 21.8576C32.7858 23.1778 31.8337 24.2914 31.8052 24.3259C31.4926 24.6014 30.4694 21.6854 30.1283 19.5844C29.9009 18.115 29.8725 16.8062 30.043 15.1989C30.1141 14.6249 30.1425 14.1542 30.1283 14.1312C30.1141 14.1198 29.2756 14.6708 28.2666 15.3826C27.2576 16.0829 25.8791 17.0358 25.197 17.5065L23.9606 18.356L23.5485 17.8624C22.3405 16.4503 22.3263 14.579 23.5059 11.927C23.6906 11.5367 23.7901 11.3989 23.8043 11.5711C23.8043 11.8696 23.7332 11.8811 25.5239 11.4219C26.5329 11.1693 26.6039 11.1693 26.746 11.353C27.0018 11.663 27.8403 11.927 28.5935 11.927C31.0663 11.927 35.4291 9.71128 39.9341 6.16383C40.801 5.48648 41.54 4.93542 41.5968 4.92394C41.6537 4.92394 41.5684 5.19947 41.4121 5.52092ZM39.1241 24.9573C40.0336 26.025 40.1046 26.1398 39.7636 26.025C39.5362 25.9561 38.6551 25.8872 37.774 25.8872L36.1823 25.8757L36.4239 25.5887C36.5518 25.428 36.9497 24.9458 37.305 24.521C37.6603 24.1077 37.9729 23.7518 38.0156 23.7518C38.0582 23.7518 38.5556 24.2914 39.1241 24.9573ZM30.0004 28.9295C30.4268 29.4117 30.4552 29.4691 30.2704 29.6872C29.9009 30.112 29.2188 31.6159 28.9914 32.4884C28.8635 32.9706 28.764 33.912 28.764 34.6812C28.764 36.4262 29.1193 37.6546 30.0715 39.2389C30.6826 40.2377 30.9668 40.5707 31.9474 41.3628C33.7948 42.8668 35.4007 43.4408 37.7313 43.4293C39.2804 43.4178 40.2041 43.2226 41.4973 42.6371C43.8138 41.5924 45.5476 39.6063 46.3434 37.0691C46.6987 35.9096 46.7129 33.4643 46.3434 32.2474C45.9881 30.996 45.3344 29.825 44.4675 28.8492L43.7001 27.9881L44.0696 27.5404C44.2827 27.2878 44.4959 27.0812 44.5528 27.0812C44.5954 27.0812 45.4765 27.8159 46.4855 28.7229L48.333 30.3531L48.0914 30.686C47.5656 31.3863 47.0966 32.8329 47.0113 34.0153C46.6418 39.2619 51.9853 43.016 57.0018 41.0299C58.2524 40.5362 59.6451 39.3997 60.3131 38.3205L60.782 37.5858L60.6826 38.1024C60.4552 39.3308 59.7304 41.1791 58.8919 42.729C56.5044 47.103 52.3405 50.6046 47.1108 52.6481C44.6522 53.601 44.1691 53.7617 42.7479 54.0717C42.4921 54.1291 42.0374 54.2324 41.7531 54.2898C39.9199 54.6916 38.7119 54.7949 35.7418 54.7949C32.7148 54.8064 32.2884 54.772 29.9151 54.3242C26.1776 53.6239 21.8858 51.8559 19.1998 49.9043C18.8872 49.6632 18.5745 49.468 18.5319 49.468C18.4182 49.468 16.0165 47.2638 15.3344 46.5405C14.1122 45.2317 13.3306 44.1066 12.2932 42.1779C11.881 41.4202 11.1278 39.2963 10.8862 38.2746C10.4173 36.2081 10.3178 33.8431 10.6304 32.0292L10.801 31.0649L11.7389 31.9144C13.2169 33.2691 13.8848 34.1072 16.5708 38.022C17.9635 40.0426 19.1288 41.7532 19.1572 41.822C19.1998 41.8909 19.2567 41.9254 19.2993 41.8909C19.3846 41.822 19.9672 37.8728 20.3367 34.8879C20.6494 32.2818 21.3173 29.1706 21.6158 28.9295C21.6442 28.9066 21.7579 28.964 21.8574 29.0673C23.4916 30.7893 24.458 31.7537 24.5433 31.7193C24.5859 31.6963 25.4528 30.6171 26.4476 29.3199L28.2524 26.9664L28.8919 27.6781C29.2472 28.08 29.7446 28.6425 30.0004 28.9295ZM59.6878 28.964C60.2989 29.2624 60.4126 29.4806 60.6826 30.9271L60.7678 31.3863L60.2846 30.686C60.0288 30.2957 59.6025 29.7791 59.3609 29.538C58.9488 29.1362 58.764 28.6884 59.0056 28.6884C59.0483 28.6884 59.3609 28.8147 59.6878 28.964Z"/>
</mask>
<path d="M46.4713 0.171044C41.5258 0.561378 39.9057 1.05504 34.1643 3.95958C32.3595 4.87802 30.8531 5.60129 30.8105 5.56684C30.7678 5.54388 30.9099 5.03875 31.1231 4.46472C31.3221 3.87922 31.4784 3.3626 31.45 3.31668C31.3931 3.1904 26.6608 4.61397 24.9838 5.25687C24.188 5.57833 23.0369 6.09494 22.4258 6.42788C21.0331 7.18559 19.0435 8.73544 17.9635 9.89497C17.2387 10.6756 17.125 10.756 17.0539 10.5264C17.0255 10.3771 16.7981 9.59648 16.5565 8.79285C16.3292 7.98922 16.1302 7.24299 16.1302 7.12818C16.116 7.02486 16.0449 6.78377 15.9455 6.61156L15.7749 6.29011L15.1354 6.95598C14.4533 7.67924 11.5684 10.469 9.59302 12.3288C8.92509 12.9602 8.15768 13.7294 7.87345 14.0509C6.22494 15.8763 5.75597 17.7476 6.32442 20.1929C6.49496 20.9162 6.60865 21.7428 6.58023 22.0298C6.56601 22.3168 6.5518 23.086 6.56601 23.7289L6.59444 24.9228L5.85545 24.8425C5.44332 24.808 3.97956 24.6358 2.57264 24.4866C1.17994 24.3259 0.0146145 24.2111 0.000403178 24.234C-0.0280194 24.257 1.44995 25.1754 3.28321 26.2775C5.11646 27.3797 6.60865 28.344 6.60865 28.4129C6.60865 28.4818 6.48075 29.0214 6.32442 29.6183C5.85545 31.3978 5.71334 33.028 5.79861 35.3356C5.92651 38.906 6.73655 41.5809 8.65507 44.8184C11.1136 48.9629 14.5385 52.1429 19.2567 54.6686C20.6636 55.4149 23.1932 56.5055 24.2022 56.7925C24.4722 56.8614 24.7138 57.0336 24.7991 57.2058C24.998 57.6421 25.3391 59.1919 25.737 61.4651C26.5755 66.4016 27.3855 68.2155 29.4746 69.9146C30.8673 71.0397 32.1747 71.5563 34.3349 71.8434C38.783 72.4403 42.4921 70.7183 44.6522 67.0445C45.5902 65.4488 46.7981 62.0506 47.6792 58.5375C48.2193 56.3792 48.134 56.517 49.2709 56.0578C54.7707 53.8191 59.7588 49.7895 62.53 45.335C64.5907 42.0287 65.6281 38.4468 65.6423 34.5779C65.6565 33.4184 65.6707 32.477 65.6991 32.477C65.7276 32.477 66.1255 32.7181 66.5945 33.0051C67.0492 33.2921 67.4329 33.4987 67.4329 33.4528C67.4329 33.3724 65.6565 28.5047 65.2728 27.5404C64.8607 26.4842 64.1217 25.3247 63.3827 24.567C63.0274 24.1996 62.7432 23.8666 62.7432 23.8207C62.7432 23.6944 64.8749 21.7887 65.7986 21.0884C66.8218 20.3077 67.6461 19.9977 71.5826 18.9186C73.5154 18.3905 75.0502 17.9198 74.9933 17.8853C74.9081 17.8165 66.8787 15.75 65.2018 15.3597C64.7186 15.2448 64.6333 15.1874 64.7186 15.0382C64.7896 14.9349 64.9175 14.3838 65.0028 13.8213C65.1875 12.5469 65.017 11.1234 64.5054 9.76868C64.1643 8.83877 62.5585 5.76201 62.3311 5.57833C62.26 5.52092 61.7058 5.96866 61.0947 6.57712L59.972 7.66776L59.8725 5.46352C59.7873 3.37408 59.4604 0.61878 59.2756 0.481015C59.233 0.446574 58.2524 0.526937 57.1013 0.664702C54.5717 0.974674 52.44 1.52573 49.4983 2.62786C48.333 3.06411 47.395 3.39704 47.395 3.37408C47.395 3.35112 47.7503 2.60489 48.1766 1.70942C48.603 0.813948 48.9583 0.0677197 48.9583 0.0332784C48.9583 -0.0241238 48.9156 -0.0241238 46.4713 0.171044ZM41.4121 5.52092C40.5736 7.24299 38.7261 11.2497 38.7261 11.353C38.7261 11.4333 38.8256 11.4333 39.0246 11.3415C39.2662 11.2382 39.3514 11.2611 39.5362 11.4563C40.4599 12.524 42.4211 13.1898 44.7091 13.1898H45.7891L46.8408 12.2485C47.4234 11.7318 48.9867 10.3427 50.3083 9.1717C51.6442 7.98922 53.2643 6.55416 53.9322 5.95718L55.1402 4.8895L55.2681 5.39464C55.4244 6.03754 55.1686 9.02245 54.7991 10.779C54.5149 12.1681 54.2022 13.7524 53.8469 15.6581C53.7332 16.2896 53.5627 17.1047 53.4774 17.472C53.3922 17.8394 53.3495 18.1494 53.378 18.1724C53.4064 18.1953 53.9606 17.8509 54.5859 17.4032C55.2254 16.9439 56.5044 16.037 57.4282 15.3826C58.3661 14.7167 59.4178 13.9476 59.8015 13.6605C60.5405 13.0865 60.5547 13.098 60.2704 13.9361C59.9862 14.8086 59.7162 15.176 57.9682 17.0473C57.0729 18.0001 56.3481 18.8153 56.3481 18.8612C56.3481 18.8956 57.5703 18.9301 59.0625 18.9301H61.7768L61.2084 19.4696C60.3557 20.2733 58.8209 21.5361 57.7693 22.2823L56.8455 22.9253L57.1013 23.35L57.3429 23.7633L56.675 23.4534C56.2913 23.2811 55.5807 22.9482 55.0691 22.7186C54.5575 22.489 53.5201 21.9953 52.7385 21.6394C51.431 21.0425 51.09 20.9162 51.09 21.0539C51.09 21.0999 52.9658 24.808 53.179 25.1869C53.2074 25.2443 52.3548 24.567 51.2605 23.66L49.2851 22.0183L48.7451 23.3271L48.2051 24.6244L46.3292 22.9482C45.2917 22.0298 44.3538 21.2147 44.2259 21.1343C43.9985 20.9736 43.9843 20.9851 43.089 22.0642L42.7195 22.5005L41.81 21.4328C41.3126 20.8473 40.5025 19.8944 40.0194 19.3319C39.522 18.7579 38.8967 18.0231 38.6267 17.6902C38.3424 17.3687 38.0724 17.0932 38.0298 17.0932C37.9872 17.1047 37.504 17.6328 36.9497 18.2757C36.4097 18.9186 35.0312 20.5258 33.9085 21.8576C32.7858 23.1778 31.8337 24.2914 31.8052 24.3259C31.4926 24.6014 30.4694 21.6854 30.1283 19.5844C29.9009 18.115 29.8725 16.8062 30.043 15.1989C30.1141 14.6249 30.1425 14.1542 30.1283 14.1312C30.1141 14.1198 29.2756 14.6708 28.2666 15.3826C27.2576 16.0829 25.8791 17.0358 25.197 17.5065L23.9606 18.356L23.5485 17.8624C22.3405 16.4503 22.3263 14.579 23.5059 11.927C23.6906 11.5367 23.7901 11.3989 23.8043 11.5711C23.8043 11.8696 23.7332 11.8811 25.5239 11.4219C26.5329 11.1693 26.6039 11.1693 26.746 11.353C27.0018 11.663 27.8403 11.927 28.5935 11.927C31.0663 11.927 35.4291 9.71128 39.9341 6.16383C40.801 5.48648 41.54 4.93542 41.5968 4.92394C41.6537 4.92394 41.5684 5.19947 41.4121 5.52092ZM39.1241 24.9573C40.0336 26.025 40.1046 26.1398 39.7636 26.025C39.5362 25.9561 38.6551 25.8872 37.774 25.8872L36.1823 25.8757L36.4239 25.5887C36.5518 25.428 36.9497 24.9458 37.305 24.521C37.6603 24.1077 37.9729 23.7518 38.0156 23.7518C38.0582 23.7518 38.5556 24.2914 39.1241 24.9573ZM30.0004 28.9295C30.4268 29.4117 30.4552 29.4691 30.2704 29.6872C29.9009 30.112 29.2188 31.6159 28.9914 32.4884C28.8635 32.9706 28.764 33.912 28.764 34.6812C28.764 36.4262 29.1193 37.6546 30.0715 39.2389C30.6826 40.2377 30.9668 40.5707 31.9474 41.3628C33.7948 42.8668 35.4007 43.4408 37.7313 43.4293C39.2804 43.4178 40.2041 43.2226 41.4973 42.6371C43.8138 41.5924 45.5476 39.6063 46.3434 37.0691C46.6987 35.9096 46.7129 33.4643 46.3434 32.2474C45.9881 30.996 45.3344 29.825 44.4675 28.8492L43.7001 27.9881L44.0696 27.5404C44.2827 27.2878 44.4959 27.0812 44.5528 27.0812C44.5954 27.0812 45.4765 27.8159 46.4855 28.7229L48.333 30.3531L48.0914 30.686C47.5656 31.3863 47.0966 32.8329 47.0113 34.0153C46.6418 39.2619 51.9853 43.016 57.0018 41.0299C58.2524 40.5362 59.6451 39.3997 60.3131 38.3205L60.782 37.5858L60.6826 38.1024C60.4552 39.3308 59.7304 41.1791 58.8919 42.729C56.5044 47.103 52.3405 50.6046 47.1108 52.6481C44.6522 53.601 44.1691 53.7617 42.7479 54.0717C42.4921 54.1291 42.0374 54.2324 41.7531 54.2898C39.9199 54.6916 38.7119 54.7949 35.7418 54.7949C32.7148 54.8064 32.2884 54.772 29.9151 54.3242C26.1776 53.6239 21.8858 51.8559 19.1998 49.9043C18.8872 49.6632 18.5745 49.468 18.5319 49.468C18.4182 49.468 16.0165 47.2638 15.3344 46.5405C14.1122 45.2317 13.3306 44.1066 12.2932 42.1779C11.881 41.4202 11.1278 39.2963 10.8862 38.2746C10.4173 36.2081 10.3178 33.8431 10.6304 32.0292L10.801 31.0649L11.7389 31.9144C13.2169 33.2691 13.8848 34.1072 16.5708 38.022C17.9635 40.0426 19.1288 41.7532 19.1572 41.822C19.1998 41.8909 19.2567 41.9254 19.2993 41.8909C19.3846 41.822 19.9672 37.8728 20.3367 34.8879C20.6494 32.2818 21.3173 29.1706 21.6158 28.9295C21.6442 28.9066 21.7579 28.964 21.8574 29.0673C23.4916 30.7893 24.458 31.7537 24.5433 31.7193C24.5859 31.6963 25.4528 30.6171 26.4476 29.3199L28.2524 26.9664L28.8919 27.6781C29.2472 28.08 29.7446 28.6425 30.0004 28.9295ZM59.6878 28.964C60.2989 29.2624 60.4126 29.4806 60.6826 30.9271L60.7678 31.3863L60.2846 30.686C60.0288 30.2957 59.6025 29.7791 59.3609 29.538C58.9488 29.1362 58.764 28.6884 59.0056 28.6884C59.0483 28.6884 59.3609 28.8147 59.6878 28.964Z" fill="black" stroke="white" stroke-width="2" mask="url(#path-1-inside-1_20_1024)"/>
<path d="M9.87263 56.7762L9.87173 56.7766C8.24761 57.5182 7.18982 58.1456 6.54076 58.7499C5.91414 59.3333 5.6875 59.8755 5.6875 60.4892C5.6875 61.2279 5.81887 61.65 6.96144 63.7268L6.9618 63.7274C7.39961 64.526 7.93346 65.5387 8.12923 65.9756C8.53398 66.8418 9.38442 67.7421 10.4574 68.4741C11.5272 69.2039 12.7664 69.7306 13.8967 69.8901C17.5183 70.3843 21.4296 67.9374 22.634 64.4054C22.7569 64.0357 22.8191 63.7959 22.849 63.5242C22.8798 63.2442 22.8784 62.9113 22.8503 62.3532C22.8086 61.6366 22.7341 61.1708 22.5828 60.7662C22.4327 60.365 22.194 59.9894 21.7701 59.4757C21.5608 59.2221 21.4402 59.1043 21.2242 58.9764C20.9782 58.8307 20.6091 58.673 19.881 58.3818L19.8806 58.3817C18.9152 57.9945 18.2636 57.7847 17.7082 57.6934C17.1674 57.6045 16.6974 57.6248 16.0918 57.7322C15.062 57.9245 14.3507 58.0249 13.7075 57.8971C13.0482 57.7662 12.5153 57.4078 11.8085 56.8711C11.5619 56.6886 11.3227 56.5257 11.1377 56.4119C11.0714 56.3712 11.0161 56.3392 10.9725 56.3158C10.9055 56.3386 10.8164 56.3718 10.7087 56.4147C10.4771 56.5069 10.1797 56.6353 9.87263 56.7762ZM11.0658 56.2876C11.0659 56.2876 11.0642 56.2879 11.0605 56.2888C11.064 56.2881 11.0658 56.2877 11.0658 56.2876Z" fill="black" stroke="white"/>
<path d="M53.8685 56.7083L53.8685 56.7084L53.8616 56.7114C52.227 57.4224 51.4765 57.8705 50.6019 58.5985C49.8452 59.2433 49.537 59.7212 49.4738 60.2218C49.4073 60.7483 49.5929 61.4246 50.1553 62.5092L50.1558 62.5102C50.5115 63.1999 51.1511 64.4514 51.5776 65.2898C52.1613 66.4237 52.5169 66.9362 53.077 67.4938L53.0774 67.4942C55.8196 70.2307 59.6448 70.7171 62.8358 68.7544C65.0148 67.4096 66.4601 65.2727 66.7233 63.1039L66.7233 63.1039L66.7239 63.0993C66.8872 61.8511 66.3375 60.2534 65.3935 59.2493C65.331 59.1846 65.1786 59.0721 64.8737 58.9139C64.5772 58.76 64.1722 58.5806 63.6402 58.3714L63.6402 58.3714L63.6372 58.3702C62.7163 58.0011 62.067 57.7933 61.5082 57.7004C60.9618 57.6096 60.4844 57.6258 59.9059 57.732L59.9057 57.732C58.8548 57.9245 58.1371 58.0255 57.4809 57.8891C56.8133 57.7503 56.2627 57.3776 55.5104 56.8154C55.2824 56.648 55.0634 56.4961 54.897 56.3875C54.8578 56.3619 54.8227 56.3394 54.7918 56.3202C54.7454 56.3374 54.6906 56.3585 54.6283 56.3832C54.4235 56.4646 54.1537 56.5791 53.8685 56.7083ZM54.9276 56.2735C54.9275 56.2736 54.9274 56.2736 54.9272 56.2737L54.9363 56.2714C54.9364 56.2713 54.9337 56.2719 54.9276 56.2735Z" fill="black" stroke="white"/>
<path d="M26.2738 71.4884L26.2738 71.4884L26.2654 71.4918C25.8212 71.6713 25.3896 72.0872 25.0624 72.6881C24.738 73.2837 24.5381 74.0237 24.5317 74.7865L24.5317 74.7886C24.525 75.3273 24.5965 75.6262 24.7006 75.8029C24.7891 75.9532 24.9354 76.0729 25.2555 76.1592C25.6029 76.2519 26.2502 76.3336 27.0865 76.3935C27.9108 76.4525 28.8836 76.4881 29.8599 76.4981C30.8363 76.5081 31.8107 76.4923 32.6384 76.4496C33.4784 76.4062 34.1309 76.3364 34.4846 76.2487L34.4846 76.2487L34.4888 76.2477C35.02 76.1208 35.3111 75.9618 35.4464 75.8287C35.5078 75.7683 35.5282 75.7222 35.5358 75.6921C35.5433 75.6625 35.5465 75.6164 35.523 75.5425C35.4703 75.377 35.2987 75.1231 34.9126 74.7983C34.5365 74.4819 34 74.1341 33.2953 73.7685C32.6801 73.4519 31.1357 72.8364 29.6541 72.2926C28.9187 72.0227 28.2101 71.7746 27.655 71.5946C27.377 71.5044 27.1419 71.4328 26.9634 71.3843C26.8738 71.36 26.8033 71.3428 26.7512 71.332C26.7396 71.3296 26.7299 71.3277 26.7219 71.3263C26.6965 71.3332 26.6627 71.3434 26.6213 71.3569C26.5215 71.3897 26.3962 71.4363 26.2738 71.4884Z" fill="black" stroke="white"/>
<path d="M39.859 75.9391L39.859 75.9391L39.8607 75.9417C39.8742 75.9623 39.9279 76.0275 40.1258 76.1029C40.3245 76.1787 40.6249 76.2481 41.0718 76.3042C41.9646 76.4161 43.336 76.4624 45.4115 76.4624C48.2713 76.4624 48.8308 76.4251 49.5134 76.2586C50.0769 76.1203 50.352 76.0092 50.4883 75.9086C50.5438 75.8676 50.5619 75.8383 50.571 75.8185C50.5818 75.7949 50.596 75.7485 50.596 75.6537C50.596 75.4437 50.4448 75.106 49.8021 74.6306C49.1786 74.1695 48.2006 73.66 46.8126 73.0851C45.9296 72.7228 44.7109 72.276 43.664 71.9194C43.1406 71.7411 42.6646 71.587 42.2981 71.478C42.1144 71.4233 41.9627 71.3813 41.8485 71.3535C41.7735 71.3352 41.73 71.327 41.7099 71.3234C41.7094 71.3235 41.709 71.3236 41.7085 71.3237C41.6815 71.3304 41.6432 71.3418 41.5949 71.3586C41.4997 71.3918 41.3866 71.4384 41.2812 71.4884C40.6667 71.7944 40.0982 72.5972 39.7973 73.5573C39.493 74.5284 39.5287 75.443 39.859 75.9391Z" fill="black" stroke="white"/>
</svg>
