<svg width="76" height="105" viewBox="0 0 76 105" fill="none" xmlns="http://www.w3.org/2000/svg">
<path d="M29 85C29 85.6294 31.722 86 29 86C23.2838 86 24.5006 97.5202 24.5006 101.926C24.5006 105.199 26.6782 103.583 37.43 103.583C48.1819 103.583 51.5 105.073 51.5 101.926C51.5 100.164 52.4054 91.6364 50.5 90C46.9614 86.6012 41.7593 82.1677 29 85Z" fill="#EC0A0A"/>
<path d="M26.3406 87.366L26.3378 87.3686C24.8019 88.7765 24.1118 90.0236 23.7874 91.4446C23.4909 92.7437 23.4944 94.1968 23.4989 96.1151C23.4994 96.3579 23.5 96.6083 23.5 96.8667C23.5 98.9435 23.5568 100.421 23.8399 101.498C23.9267 101.829 24.0337 102.118 24.1666 102.372V96.8667C24.1666 94.3234 24.3314 92.5412 24.9527 90.9967C25.5776 89.4435 26.6426 88.1828 28.3269 86.6331C30.1799 84.9074 31.535 82.3308 32.0646 80.1963C32.331 79.1227 32.3729 78.2224 32.2144 77.6213C32.1367 77.3266 32.0191 77.1347 31.8877 77.0181C31.7638 76.9082 31.5923 76.8334 31.3333 76.8334C31.0662 76.8334 30.6998 76.7267 30.3479 76.5881C29.9755 76.4414 29.5501 76.2309 29.1457 75.9703C28.7438 75.7112 28.3441 75.3909 28.0398 75.0184C28.0274 75.0033 28.0152 74.988 28.003 74.9726C28.1786 75.5856 28.4693 76.0246 28.7726 76.3323C29.2818 76.8488 29.8262 77 29.9999 77C30.4266 77 30.8144 77.1202 31.103 77.4042C31.3862 77.6829 31.5095 78.0564 31.5419 78.4356C31.605 79.1742 31.341 80.1198 30.9073 81.102C30.0281 83.0931 28.3202 85.5229 26.3406 87.366ZM50.5748 103.587C50.6305 103.559 50.6845 103.53 50.7369 103.5H37.9999H25.263C25.3154 103.53 25.3694 103.559 25.4251 103.587C26.3168 104.037 27.6586 104.276 29.7218 104.392C31.6446 104.501 34.1256 104.501 37.3458 104.5C37.5605 104.5 37.7785 104.5 37.9999 104.5C38.2212 104.5 38.4392 104.5 38.6539 104.5C41.8742 104.501 44.3552 104.501 46.278 104.392C48.3413 104.276 49.6831 104.037 50.5748 103.587ZM51.8333 96.8667V102.372C51.9662 102.118 52.0733 101.829 52.1601 101.498C52.4432 100.421 52.5 98.9435 52.5 96.8667C52.5 96.6085 52.5006 96.3583 52.5012 96.1156C52.5057 94.1971 52.5091 92.7438 52.2125 91.4446C51.8881 90.0236 51.198 88.7765 49.6621 87.3686L49.6592 87.366C47.6872 85.53 45.8581 83.1086 44.8539 81.1259C44.3592 80.1492 44.028 79.2091 44.0343 78.4739C44.0375 78.0975 44.1301 77.7118 44.4039 77.4191C44.684 77.1195 45.0756 77 45.4999 77C45.7686 77 46.4475 76.8259 47.0582 76.3034C47.3934 76.0167 47.7079 75.6249 47.9157 75.0961C47.632 75.4339 47.2737 75.7268 46.9084 75.9675C46.5107 76.2296 46.0871 76.4416 45.7054 76.5892C45.338 76.7314 44.9603 76.8334 44.6666 76.8334C44.4076 76.8334 44.2361 76.9082 44.1122 77.0181C43.9807 77.1347 43.8632 77.3266 43.7855 77.6213C43.6269 78.2224 43.6688 79.1227 43.9352 80.1963C44.4648 82.3308 45.82 84.9075 47.673 86.6332C49.3573 88.1829 50.4223 89.4435 51.0471 90.9967C51.6685 92.5412 51.8333 94.3234 51.8333 96.8667ZM46.2544 71.0098C46.7992 71.1641 47.2612 71.3725 47.6237 71.6638C47.53 71.5484 47.4312 71.4568 47.3333 71.3833C46.9905 71.1262 46.5878 71.0365 46.2544 71.0098ZM38.5 70.5C41.6985 70.5 44.0096 70.5527 45.5774 70.852C45.4738 70.7679 45.4022 70.6614 45.3578 70.5689C45.2732 70.3927 45.2381 70.1842 45.2208 69.997C45.1852 69.6112 45.2098 69.1064 45.2516 68.5928C45.2815 68.2243 45.3224 67.8297 45.3619 67.4479C45.378 67.2926 45.3938 67.1394 45.4087 66.991C45.461 66.4668 45.4999 66.005 45.4999 65.6667C45.4999 65.0819 45.4392 64.7232 45.3048 64.4771C45.1856 64.2587 44.972 64.0654 44.4939 63.9084C44.0001 63.7462 43.2747 63.6403 42.2023 63.5783C41.1369 63.5168 39.7665 63.5 37.9999 63.5C36.2334 63.5 34.8629 63.5168 33.7975 63.5783C32.7251 63.6403 31.9998 63.7462 31.5059 63.9084C31.0279 64.0654 30.8143 64.2587 30.695 64.4771C30.5607 64.7232 30.4999 65.0819 30.4999 65.6667C30.4999 65.9431 30.5109 66.2889 30.5232 66.6772C30.5268 66.79 30.5305 66.9064 30.5341 67.0257C30.5497 67.5484 30.5627 68.1184 30.5498 68.6455C30.5372 69.1646 30.4991 69.6772 30.4008 70.072C30.3523 70.2664 30.2794 70.4746 30.1569 70.6447C30.0256 70.827 29.8073 71 29.5 71C29.2187 71 28.8297 71.0504 28.5066 71.35C28.3413 71.5032 28.1665 71.7469 28.0365 72.1393C28.1225 72.0389 28.2188 71.9439 28.3255 71.8544C28.8506 71.4141 29.5952 71.1339 30.497 70.9441C32.2994 70.5646 34.9799 70.5 38.5 70.5Z" fill="#B4A78C" stroke="white"/>
<g filter="url(#filter0_d_22_11307)">
<path d="M4 41L11.8 29.68L4.48 19H8.72L13.08 25.8C13.2667 26.0933 13.44 26.4133 13.6 26.76C13.7867 27.1067 13.9333 27.3867 14.04 27.6C14.12 27.3867 14.24 27.1067 14.4 26.76C14.5867 26.4133 14.7733 26.0933 14.96 25.8L19.36 19H23.56L16.24 29.72L24 41H19.76L15.04 33.8C14.8533 33.5067 14.6667 33.1733 14.48 32.8C14.32 32.4 14.1733 32.08 14.04 31.84C13.9333 32.08 13.7733 32.4 13.56 32.8C13.3733 33.1733 13.1733 33.5067 12.96 33.8L8.2 41H4ZM27.9844 41L35.7844 29.68L28.4644 19H32.7044L37.0644 25.8C37.251 26.0933 37.4244 26.4133 37.5844 26.76C37.771 27.1067 37.9177 27.3867 38.0244 27.6C38.1044 27.3867 38.2244 27.1067 38.3844 26.76C38.571 26.4133 38.7577 26.0933 38.9444 25.8L43.3444 19H47.5444L40.2244 29.72L47.9844 41H43.7444L39.0244 33.8C38.8377 33.5067 38.651 33.1733 38.4644 32.8C38.3044 32.4 38.1577 32.08 38.0244 31.84C37.9177 32.08 37.7577 32.4 37.5444 32.8C37.3577 33.1733 37.1577 33.5067 36.9444 33.8L32.1844 41H27.9844ZM51.9688 41L59.7688 29.68L52.4488 19H56.6888L61.0488 25.8C61.2354 26.0933 61.4088 26.4133 61.5688 26.76C61.7554 27.1067 61.9021 27.3867 62.0088 27.6C62.0888 27.3867 62.2088 27.1067 62.3688 26.76C62.5554 26.4133 62.7421 26.0933 62.9288 25.8L67.3288 19H71.5288L64.2088 29.72L71.9688 41H67.7288L63.0088 33.8C62.8221 33.5067 62.6354 33.1733 62.4488 32.8C62.2888 32.4 62.1421 32.08 62.0088 31.84C61.9021 32.08 61.7421 32.4 61.5288 32.8C61.3421 33.1733 61.1421 33.5067 60.9288 33.8L56.1688 41H51.9688Z" fill="black"/>
</g>
<defs>
<filter id="filter0_d_22_11307" x="0" y="19" width="75.9688" height="30" filterUnits="userSpaceOnUse" color-interpolation-filters="sRGB">
<feFlood flood-opacity="0" result="BackgroundImageFix"/>
<feColorMatrix in="SourceAlpha" type="matrix" values="0 0 0 0 0 0 0 0 0 0 0 0 0 0 0 0 0 0 127 0" result="hardAlpha"/>
<feOffset dy="4"/>
<feGaussianBlur stdDeviation="2"/>
<feComposite in2="hardAlpha" operator="out"/>
<feColorMatrix type="matrix" values="0 0 0 0 0 0 0 0 0 0 0 0 0 0 0 0 0 0 0.25 0"/>
<feBlend mode="normal" in2="BackgroundImageFix" result="effect1_dropShadow_22_11307"/>
<feBlend mode="normal" in="SourceGraphic" in2="effect1_dropShadow_22_11307" result="shape"/>
</filter>
</defs>
</svg>
