<svg width="76" height="114" viewBox="0 0 76 114" fill="none" xmlns="http://www.w3.org/2000/svg">
<path d="M34.0607 54.0854L34.0607 54.0853L34.067 54.079C36.1713 51.9737 39.8287 51.9737 41.933 54.079L41.9349 54.0809C42.9459 55.1031 43.3001 56.4083 43.0057 57.663C42.7136 58.9079 41.7987 60.0455 40.3839 60.8041L40.3839 60.8041L40.3816 60.8053C38.0652 62.0321 35.62 61.2712 34.1935 59.7791C33.4786 59.0314 32.9961 58.0783 32.9209 57.0643C32.8448 56.0381 33.1897 54.9886 34.0607 54.0854ZM37.0097 57.87C37.6329 58.3951 38.4814 58.3228 39.0879 57.9039C39.3865 57.6976 39.5866 57.431 39.6638 57.1656C39.7354 56.9194 39.7129 56.64 39.5074 56.3392C39.3118 56.0956 39.037 55.8635 38.7464 55.6932C38.4428 55.5152 38.1744 55.4351 38 55.4351C37.3144 55.4351 36.8057 55.8346 36.5971 56.3341C36.3937 56.8212 36.4691 57.4145 37.0097 57.87Z" fill="#FF0000" stroke="white"/>
<path d="M31.8403 64.4974L31.843 64.4953C32.885 63.669 34.0778 62.9216 35.167 62.3788C35.7118 62.1073 36.2375 61.8835 36.7111 61.7265C37.177 61.5721 37.6236 61.4718 38 61.4718C39.0649 61.4718 40.2208 61.8474 41.335 62.4342C42.4549 63.0238 43.5654 63.844 44.5482 64.7755C45.5307 65.7068 46.3975 66.7608 47.0218 67.8259C47.6421 68.8842 48.0449 69.9913 48.0449 71.0191C48.0449 72.0469 47.6421 73.1539 47.0218 74.2123C46.3975 75.2774 45.5307 76.3313 44.5482 77.2627C43.5654 78.1942 42.4549 79.0143 41.335 79.604C40.2208 80.1907 39.0649 80.5663 38 80.5663C36.935 80.5663 35.7791 80.1907 34.6649 79.604C33.545 79.0143 32.4345 78.1942 31.4517 77.2627C30.4692 76.3313 29.6024 75.2774 28.9781 74.2123C28.3578 73.1539 27.955 72.0469 27.955 71.0191C27.955 69.7759 28.2463 68.68 28.8929 67.6177C29.5323 66.5672 30.5068 65.5698 31.8403 64.4974ZM41.7485 66.8893L41.7475 66.8885C40.8648 66.1944 39.9853 65.5772 39.2729 65.1363C38.916 64.9153 38.6084 64.7432 38.3678 64.6282C38.2473 64.5706 38.151 64.5309 38.0785 64.5065C38.0212 64.4872 37.9948 64.4831 37.9919 64.4824C37.8347 64.4841 37.6069 64.5368 37.3077 64.6656C37.0092 64.7941 36.6696 64.9851 36.3029 65.2293C35.5698 65.7178 34.7631 66.3961 34.0117 67.1398C33.2603 67.8835 32.5778 68.6792 32.0872 69.3962C31.8418 69.7548 31.6504 70.085 31.5222 70.3722C31.3907 70.6667 31.3412 70.8812 31.3412 71.0191C31.3412 71.1569 31.3907 71.3715 31.5222 71.6659C31.6504 71.9532 31.8418 72.2833 32.0872 72.642C32.5778 73.3589 33.2603 74.1546 34.0117 74.8983C34.7631 75.642 35.5698 76.3203 36.3029 76.8088C36.6696 77.0531 37.0092 77.2441 37.3077 77.3725C37.6121 77.5035 37.8425 77.5558 38 77.5558C38.1574 77.5558 38.3878 77.5035 38.6922 77.3725C38.9907 77.2441 39.3303 77.0531 39.697 76.8088C40.4301 76.3203 41.2368 75.642 41.9882 74.8983C42.7396 74.1546 43.4221 73.3589 43.9127 72.642C44.1581 72.2833 44.3495 71.9532 44.4777 71.6659C44.6092 71.3715 44.6587 71.1569 44.6587 71.0191C44.6587 70.5751 44.3766 69.8775 43.8232 69.08C43.285 68.3043 42.544 67.5117 41.7485 66.8893Z" fill="#2DCDFF" stroke="white"/>
<path d="M36.5211 74.0812L36.5252 74.0881L36.529 74.0951C36.9153 74.7961 37.2198 75.3141 37.4585 75.6687C37.4695 75.685 37.4803 75.701 37.4909 75.7164C37.4969 75.5819 37.5001 75.4241 37.5001 75.2411C37.5001 74.5609 37.6672 73.9231 37.936 73.4399C38.1853 72.9919 38.6135 72.5296 39.1932 72.5296C39.3101 72.5296 39.469 72.4617 39.6244 72.1904C39.7797 71.9194 39.8864 71.5078 39.8864 71.0191C39.8864 70.5314 39.78 70.1127 39.6318 69.834C39.4722 69.5342 39.3361 69.5086 39.3125 69.5086C38.7746 69.5086 38.3169 69.1233 38.0031 68.7059C37.6703 68.263 37.404 67.665 37.2716 66.9974C37.2328 66.8128 37.1979 66.6636 37.1661 66.5447C37.1235 66.6056 37.0767 66.6759 37.0254 66.7564C36.8074 67.0983 36.5333 67.5835 36.1778 68.2324C35.5238 69.5862 35.2554 70.3585 35.293 71.1071C35.3308 71.8624 35.6841 72.6708 36.5211 74.0812ZM37.4185 76.2738C37.4186 76.2739 37.419 76.2729 37.4199 76.2709C37.4189 76.2727 37.4185 76.2738 37.4185 76.2738ZM37.0388 66.192C37.0388 66.1921 37.0399 66.1938 37.0422 66.1968C37.04 66.1933 37.0388 66.1918 37.0388 66.192Z" fill="white" stroke="white"/>
<path d="M27.1716 80.4478L27.1716 80.4478L27.1742 80.4428C27.5628 79.6787 28.0375 79.1393 28.7754 78.9209C29.4673 78.7161 30.3 78.8257 31.3195 79.0784L31.3314 79.0813L31.3433 79.0849C32.945 79.5668 35.4536 79.8176 38 79.8176C40.5464 79.8176 43.055 79.5668 44.6567 79.0849L44.6686 79.0813L44.6805 79.0784C45.7 78.8257 46.5327 78.7161 47.2246 78.9209C47.9625 79.1393 48.4372 79.6787 48.8258 80.4428L48.8259 80.4427L48.8284 80.4478C49.0163 80.8279 49.0977 81.2322 49.0484 81.6584C48.9997 82.0788 48.8275 82.4893 48.5576 82.8944C48.0263 83.6918 47.067 84.5395 45.6845 85.5019C45.684 85.5022 45.6835 85.5026 45.683 85.5029L42.1913 87.9703L41.8405 100.185L41.8405 100.186L41.4826 112.751L41.4688 113.237H40.9828H38H35.0172H34.5312L34.5174 112.751L34.1595 100.186L34.1595 100.185L33.8087 87.9703L30.317 85.5029C30.3165 85.5026 30.316 85.5022 30.3155 85.5019C28.9329 84.5395 27.9737 83.6918 27.4424 82.8944C27.1725 82.4893 27.0003 82.0788 26.9516 81.6584C26.9023 81.2322 26.9837 80.8279 27.1716 80.4478ZM42.7214 83.4787L42.7228 83.4778C43.5106 82.9216 44.1472 82.4695 44.6338 82.1096C43.9884 82.2874 43.1432 82.5391 42.0857 82.8559C40.0937 83.4981 38.1998 84.4091 37.082 85.1457C36.8227 85.3165 36.6137 85.4724 36.4581 85.6079C36.6919 85.6455 36.8732 85.782 37.0008 85.9314C37.1457 86.1012 37.2526 86.3206 37.3366 86.5526C37.506 87.02 37.6305 87.676 37.7213 88.4793C37.9039 90.0949 37.9631 92.4314 37.9034 95.3511C37.9035 97.9062 37.963 100.61 38.0817 102.923C38.1462 104.179 38.2277 105.307 38.3245 106.23C38.44 104.607 38.526 102.22 38.5738 99.1597C38.5739 99.1592 38.5739 99.1587 38.5739 99.1582L38.6931 86.5957L38.6956 86.3406L38.9034 86.1929L42.7214 83.4787Z" fill="#7E7E7E" stroke="white"/>
<g filter="url(#filter0_d_20_1127)">
<path d="M4 41L11.8 29.68L4.48 19H8.72L13.08 25.8C13.2667 26.0933 13.44 26.4133 13.6 26.76C13.7867 27.1067 13.9333 27.3867 14.04 27.6C14.12 27.3867 14.24 27.1067 14.4 26.76C14.5867 26.4133 14.7733 26.0933 14.96 25.8L19.36 19H23.56L16.24 29.72L24 41H19.76L15.04 33.8C14.8533 33.5067 14.6667 33.1733 14.48 32.8C14.32 32.4 14.1733 32.08 14.04 31.84C13.9333 32.08 13.7733 32.4 13.56 32.8C13.3733 33.1733 13.1733 33.5067 12.96 33.8L8.2 41H4ZM27.9844 41L35.7844 29.68L28.4644 19H32.7044L37.0644 25.8C37.251 26.0933 37.4244 26.4133 37.5844 26.76C37.771 27.1067 37.9177 27.3867 38.0244 27.6C38.1044 27.3867 38.2244 27.1067 38.3844 26.76C38.571 26.4133 38.7577 26.0933 38.9444 25.8L43.3444 19H47.5444L40.2244 29.72L47.9844 41H43.7444L39.0244 33.8C38.8377 33.5067 38.651 33.1733 38.4644 32.8C38.3044 32.4 38.1577 32.08 38.0244 31.84C37.9177 32.08 37.7577 32.4 37.5444 32.8C37.3577 33.1733 37.1577 33.5067 36.9444 33.8L32.1844 41H27.9844ZM51.9688 41L59.7688 29.68L52.4488 19H56.6888L61.0488 25.8C61.2354 26.0933 61.4088 26.4133 61.5688 26.76C61.7554 27.1067 61.9021 27.3867 62.0088 27.6C62.0888 27.3867 62.2088 27.1067 62.3688 26.76C62.5554 26.4133 62.7421 26.0933 62.9288 25.8L67.3288 19H71.5288L64.2088 29.72L71.9688 41H67.7288L63.0088 33.8C62.8221 33.5067 62.6354 33.1733 62.4488 32.8C62.2888 32.4 62.1421 32.08 62.0088 31.84C61.9021 32.08 61.7421 32.4 61.5288 32.8C61.3421 33.1733 61.1421 33.5067 60.9288 33.8L56.1688 41H51.9688Z" fill="black"/>
</g>
<defs>
<filter id="filter0_d_20_1127" x="0" y="19" width="75.9688" height="30" filterUnits="userSpaceOnUse" color-interpolation-filters="sRGB">
<feFlood flood-opacity="0" result="BackgroundImageFix"/>
<feColorMatrix in="SourceAlpha" type="matrix" values="0 0 0 0 0 0 0 0 0 0 0 0 0 0 0 0 0 0 127 0" result="hardAlpha"/>
<feOffset dy="4"/>
<feGaussianBlur stdDeviation="2"/>
<feComposite in2="hardAlpha" operator="out"/>
<feColorMatrix type="matrix" values="0 0 0 0 0 0 0 0 0 0 0 0 0 0 0 0 0 0 0.25 0"/>
<feBlend mode="normal" in2="BackgroundImageFix" result="effect1_dropShadow_20_1127"/>
<feBlend mode="normal" in="SourceGraphic" in2="effect1_dropShadow_20_1127" result="shape"/>
</filter>
</defs>
</svg>
